<?xml version="1.0" standalone="no"?>
<!DOCTYPE svg PUBLIC "-//W3C//DTD SVG 20010904//EN"
 "http://www.w3.org/TR/2001/REC-SVG-20010904/DTD/svg10.dtd">
<svg version="1.0" xmlns="http://www.w3.org/2000/svg"
 width="1280.000000pt" height="1222.000000pt" viewBox="0 0 1280.000000 1222.000000"
 preserveAspectRatio="xMidYMid meet">
<g transform="translate(0.000000,1222.000000) scale(0.100000,-0.100000)"
fill="#000000" stroke="none">
<path d="M5120 12208 c-179 -50 -296 -113 -383 -208 -108 -116 -141 -225 -141
-460 1 -191 18 -326 95 -735 58 -309 88 -506 90 -585 l1 -55 13 42 c19 61 42
96 81 122 57 39 110 51 276 62 148 9 163 8 196 -9 58 -30 75 -75 77 -206 1
-61 -2 -119 -6 -128 -14 -27 -74 -38 -209 -38 -69 -1 -161 -7 -205 -15 -115
-21 -161 -19 -186 6 -15 15 -20 29 -16 49 3 15 2 40 -3 56 -6 23 -8 24 -9 8
-1 -12 -6 -78 -11 -148 -17 -200 -49 -310 -314 -1049 -209 -582 -265 -854
-266 -1283 0 -235 17 -455 50 -648 23 -133 24 -146 11 -146 -5 0 -40 46 -79
103 -147 212 -296 388 -599 706 -292 307 -428 486 -527 696 -74 156 -99 250
-201 777 -90 460 -129 598 -225 794 -48 99 -69 130 -115 172 -170 156 -461
187 -694 75 -124 -59 -279 -234 -317 -357 -8 -28 -18 -87 -21 -132 -10 -147
34 -301 161 -560 66 -136 122 -237 291 -529 50 -87 192 -363 223 -435 9 -21
10 -17 5 22 -13 105 62 200 198 252 41 16 108 44 149 62 86 38 108 41 156 18
41 -20 75 -73 110 -176 46 -131 45 -133 -141 -203 -66 -25 -170 -71 -231 -102
-138 -70 -150 -68 -187 18 -15 35 -29 60 -31 58 -3 -2 9 -49 25 -104 64 -214
63 -203 64 -970 1 -599 4 -721 19 -845 19 -158 53 -339 88 -467 12 -45 19 -85
16 -89 -14 -13 -257 170 -386 291 -88 83 -183 195 -241 285 -46 73 -157 298
-287 583 -132 290 -218 455 -299 577 -127 189 -204 263 -327 313 -74 30 -304
32 -388 3 -177 -60 -301 -163 -379 -315 -50 -97 -91 -221 -91 -273 0 -16 9
-63 21 -105 62 -232 170 -382 611 -849 181 -192 289 -314 401 -454 l28 -35
-18 35 c-52 107 7 232 157 328 30 20 78 55 107 78 110 90 191 66 277 -80 21
-36 45 -71 52 -77 17 -14 18 -50 2 -71 -13 -16 -182 -139 -217 -157 -10 -6
-60 -47 -111 -91 -94 -81 -135 -98 -159 -67 -5 6 -28 32 -51 57 l-42 45 38
-60 c60 -96 130 -244 158 -330 40 -129 70 -248 161 -640 182 -787 268 -1029
497 -1389 334 -526 767 -944 1294 -1249 72 -42 155 -85 185 -97 30 -12 58 -25
63 -30 5 -5 31 -75 57 -157 58 -174 178 -422 275 -568 406 -610 1051 -1012
1754 -1095 52 -6 125 -15 162 -20 85 -13 224 -13 302 -1 34 6 104 15 156 21
946 115 1755 787 2043 1698 79 248 109 449 113 740 1 123 6 227 10 231 5 4 50
18 99 31 318 81 666 240 1035 473 370 233 689 553 964 967 141 211 200 316
378 676 85 170 174 343 198 384 120 206 262 387 388 495 81 70 314 222 642
420 107 65 237 147 289 183 198 137 369 299 418 395 27 54 63 186 63 234 0 41
-42 203 -69 266 -50 116 -164 243 -265 294 -273 138 -478 114 -726 -86 -114
-91 -285 -274 -538 -576 -394 -470 -558 -608 -884 -742 -72 -29 -132 -53 -134
-53 -15 0 5 42 61 131 133 212 242 450 333 731 92 280 145 534 192 918 60 491
99 673 192 907 73 185 167 316 553 779 161 192 270 337 338 451 53 88 124 240
136 293 63 274 -161 608 -459 685 -50 13 -97 16 -205 13 -139 -4 -141 -4 -220
-42 -206 -100 -343 -318 -562 -891 -175 -461 -258 -640 -367 -799 -116 -170
-232 -277 -731 -676 -382 -305 -528 -434 -693 -614 -191 -207 -354 -456 -519
-793 -52 -106 -98 -193 -102 -193 -22 0 -45 310 -38 510 11 317 34 389 324
1013 221 476 292 693 293 889 0 146 -73 290 -202 398 -125 105 -252 154 -403
154 -266 2 -453 -107 -558 -324 -86 -178 -130 -400 -187 -950 -25 -233 -45
-374 -71 -492 -23 -108 -23 -113 0 -63 52 113 182 146 356 91 44 -14 94 -26
110 -26 42 -1 108 -32 133 -65 30 -37 29 -103 -3 -202 -14 -43 -25 -86 -25
-95 0 -21 -29 -38 -64 -38 -13 0 -91 18 -173 39 -81 22 -185 44 -229 50 -131
17 -160 41 -135 112 6 18 11 46 10 63 0 22 -10 3 -34 -68 -69 -202 -139 -319
-399 -671 -70 -93 -198 -269 -286 -390 -89 -121 -172 -233 -185 -250 l-24 -30
0 27 c-1 15 6 60 14 100 27 124 64 386 76 533 34 403 -48 924 -217 1393 -63
174 -99 260 -221 527 -184 401 -247 579 -288 819 -31 180 -22 321 55 871 51
360 60 458 60 619 0 177 -21 313 -61 395 -71 144 -238 258 -439 301 -102 22
-145 23 -200 8z m76 -191 c60 -30 109 -84 152 -165 68 -129 92 -256 92 -487 0
-88 5 -212 11 -275 15 -145 14 -169 -9 -200 -36 -50 -99 -71 -244 -81 -73 -6
-185 -18 -248 -26 -63 -9 -137 -17 -165 -17 -49 -1 -50 -1 -63 39 -21 63 -70
321 -81 427 -13 119 -14 358 -1 455 20 158 130 287 295 346 74 26 193 19 261
-16z m6237 -1164 c76 -36 127 -85 164 -156 24 -46 27 -63 26 -152 0 -62 -7
-125 -17 -165 -24 -91 -107 -258 -219 -442 -52 -86 -102 -179 -111 -206 -29
-86 -89 -120 -175 -101 -25 6 -113 45 -196 88 -82 43 -193 95 -245 116 -139
54 -138 51 -100 168 75 234 179 453 304 637 85 125 130 171 201 205 79 37 120
45 217 41 71 -3 98 -9 151 -33z m-9365 -885 c30 -18 83 -64 119 -103 80 -86
166 -255 243 -480 29 -82 69 -185 91 -227 21 -43 39 -90 39 -105 0 -68 -69
-127 -215 -185 -44 -18 -149 -67 -234 -110 -85 -43 -162 -78 -173 -78 -36 0
-213 299 -297 505 -60 146 -121 353 -121 410 1 107 50 216 134 300 126 126
281 153 414 73z m6055 -191 c123 -61 176 -165 184 -362 6 -143 -10 -230 -87
-490 -28 -93 -55 -200 -60 -237 -19 -156 -96 -178 -376 -110 -67 17 -166 35
-220 42 -112 13 -160 26 -167 43 -7 19 10 240 28 362 28 193 93 427 156 560
44 93 129 163 246 205 86 30 218 24 296 -13z m-2824 -248 c64 -7 121 -16 128
-21 7 -5 17 -35 23 -66 17 -83 167 -776 200 -922 67 -297 90 -497 97 -830 6
-307 -4 -490 -43 -759 -50 -353 -154 -762 -246 -976 -36 -82 -101 -186 -153
-244 -72 -79 -207 -92 -340 -32 -141 64 -282 256 -389 529 -30 75 -79 190
-109 254 -140 297 -238 833 -223 1228 14 405 105 794 326 1400 126 345 125
342 172 372 109 68 306 91 557 67z m5275 -102 c30 -14 75 -39 98 -55 24 -16
60 -35 81 -42 21 -6 56 -29 78 -49 35 -34 39 -43 39 -85 0 -49 -20 -98 -71
-173 -16 -23 -29 -46 -29 -52 0 -18 -31 -41 -57 -41 -24 0 -98 37 -243 121
-36 21 -96 50 -135 65 -82 32 -135 68 -135 92 0 27 75 174 102 199 63 59 169
67 272 20z m-598 -658 c86 -27 165 -66 273 -136 77 -50 221 -159 221 -167 0
-3 -23 -66 -51 -143 -28 -76 -113 -316 -189 -534 -76 -217 -157 -442 -180
-500 -228 -558 -586 -1082 -1056 -1539 -274 -267 -430 -382 -589 -435 -90 -30
-129 -29 -199 4 -53 26 -57 34 -45 94 59 316 57 877 -5 1282 -15 102 -13 113
78 334 245 596 575 981 1390 1621 178 140 179 140 231 140 29 0 84 -10 121
-21z m-6980 -1057 c6 -4 37 -52 69 -107 32 -55 163 -271 290 -480 304 -497
371 -623 489 -907 212 -513 346 -1217 335 -1760 l-4 -168 -84 -84 c-59 -59
-88 -82 -96 -76 -7 5 -31 42 -55 82 -259 436 -693 856 -1264 1222 -102 65
-190 124 -195 130 -15 18 -68 216 -95 355 -58 297 -81 674 -71 1154 l7 327 29
40 c71 98 249 185 519 254 110 28 111 28 126 18z m9237 -196 c216 -77 306
-263 224 -465 -60 -150 -157 -261 -408 -469 -81 -67 -159 -138 -174 -158 -92
-121 -175 -97 -365 106 -63 68 -151 154 -196 192 -45 38 -85 76 -88 85 -9 23
140 216 272 354 161 169 366 329 462 362 70 25 191 21 273 -7z m-11684 -110
c163 -66 271 -177 475 -491 54 -82 118 -171 141 -196 96 -103 59 -186 -153
-335 -82 -58 -146 -110 -235 -191 -38 -35 -76 -63 -84 -63 -37 0 -311 294
-428 460 -72 103 -171 277 -184 325 -27 97 -5 241 52 338 34 58 107 123 170
153 71 33 165 33 246 0z m6707 3 c91 -16 218 -56 338 -106 l109 -46 -7 -76
c-17 -192 -47 -559 -66 -801 -11 -146 -28 -317 -36 -380 -39 -304 -121 -631
-236 -940 -57 -153 -183 -438 -203 -459 -11 -12 -40 -1 -187 72 -201 100 -318
145 -502 192 -156 40 -306 63 -459 72 -62 3 -117 10 -124 15 -14 11 -11 66 13
268 41 350 80 494 194 725 49 99 110 239 135 310 52 145 72 184 188 365 125
195 516 732 559 767 37 31 174 42 284 22z m3761 -989 c23 -10 68 -45 100 -78
171 -176 192 -200 198 -236 14 -70 4 -83 -162 -238 -55 -51 -75 -44 -172 63
-46 52 -133 141 -193 199 -71 70 -108 113 -108 127 0 19 81 112 132 152 55 42
125 46 205 11z m-762 -448 c117 -56 240 -181 376 -383 32 -49 59 -94 59 -101
0 -7 -46 -69 -101 -138 -56 -69 -208 -260 -337 -425 -296 -377 -374 -468 -538
-631 -261 -260 -553 -484 -889 -684 -209 -124 -600 -315 -632 -308 -8 2 -36
56 -63 121 -99 240 -234 460 -402 656 -26 31 -48 62 -48 70 0 7 22 52 49 100
26 47 79 147 116 221 77 155 171 281 336 454 l106 111 79 -37 c168 -79 305
-109 416 -89 125 21 433 196 648 367 125 100 429 408 564 571 65 78 125 144
134 146 39 11 71 5 127 -21z m-5446 -344 c135 -128 277 -178 506 -178 254 0
419 43 548 143 21 16 40 27 43 24 3 -3 -9 -72 -25 -153 -17 -82 -38 -210 -46
-284 -9 -74 -19 -157 -23 -185 l-7 -50 -45 -2 c-300 -16 -585 -77 -832 -178
-61 -25 -114 -42 -119 -38 -4 4 -9 123 -12 263 -5 242 -21 413 -57 599 -11 61
-13 101 -4 101 4 0 36 -28 73 -62z m-2408 -625 c245 -247 479 -489 521 -540
232 -279 417 -562 574 -875 41 -81 74 -151 74 -155 0 -5 -14 -44 -31 -88 -117
-303 -175 -701 -150 -1029 7 -89 16 -181 21 -206 16 -77 13 -110 -9 -110 -28
0 -298 138 -417 213 -299 189 -588 450 -832 755 -295 368 -483 783 -641 1417
-55 223 -131 564 -131 592 0 82 122 217 295 328 57 36 263 145 276 145 3 0
205 -201 450 -447z m5777 102 c28 -20 52 -41 52 -48 0 -16 -181 -197 -198
-197 -9 0 -12 6 -8 15 3 9 22 68 42 133 40 127 42 132 52 132 4 0 31 -16 60
-35z"/>
</g>
</svg>
