<?xml version="1.0" standalone="no"?>
<!DOCTYPE svg PUBLIC "-//W3C//DTD SVG 20010904//EN"
 "http://www.w3.org/TR/2001/REC-SVG-20010904/DTD/svg10.dtd">
<svg version="1.0" xmlns="http://www.w3.org/2000/svg"
 width="300.000000pt" height="450.000000pt" viewBox="0 0 300.000000 450.000000"
 preserveAspectRatio="xMidYMid meet">
<metadata>
Created by potrace 1.10, written by Peter Selinger 2001-2011
</metadata>
<g transform="translate(0.000000,450.000000) scale(0.100000,-0.100000)"
fill="#000000" stroke="none">
<path d="M703 4030 c-29 -35 -100 -218 -148 -375 -54 -179 -63 -287 -41 -493
43 -413 46 -425 163 -721 58 -146 134 -345 168 -441 35 -96 78 -211 98 -255
l35 -81 -45 -59 c-24 -32 -42 -64 -39 -72 3 -8 2 -11 -4 -8 -12 7 -32 -33 -62
-120 -32 -97 -32 -240 0 -343 45 -145 130 -296 284 -505 82 -111 67 -68 -19
55 -163 232 -220 342 -255 488 -21 88 -21 197 0 223 6 7 13 24 15 37 2 14 10
39 17 55 7 17 14 32 14 35 1 3 5 11 10 18 4 8 2 20 -6 29 -10 13 -10 15 0 9
13 -8 65 38 55 48 -3 3 2 8 11 12 9 3 16 10 16 15 0 20 58 73 125 114 50 30
97 49 165 65 52 13 106 28 120 35 26 12 58 10 75 -6 5 -5 26 -9 47 -9 53 0
188 -52 260 -99 33 -23 64 -41 69 -41 13 0 48 -37 42 -44 -3 -3 2 -8 11 -12 9
-3 13 -10 10 -15 -3 -5 2 -12 10 -15 9 -3 13 -10 10 -15 -3 -5 2 -12 11 -15 9
-4 14 -13 11 -21 -3 -7 1 -16 9 -19 7 -3 11 -12 8 -20 -3 -8 0 -14 7 -14 7 0
10 -7 7 -15 -4 -8 -2 -17 4 -21 6 -3 8 -12 5 -19 -2 -7 1 -18 7 -24 6 -6 8
-11 3 -11 -4 0 0 -10 8 -22 23 -32 21 -157 -3 -250 -33 -129 -109 -265 -258
-466 -46 -63 -83 -118 -81 -123 4 -11 162 204 233 316 103 165 151 320 141
456 -10 137 -77 302 -158 386 l-32 33 28 67 c55 135 124 321 180 491 32 94 61
172 65 172 4 0 47 -32 97 -70 311 -244 355 -271 389 -236 14 14 15 24 6 64
-14 61 -44 242 -76 462 -19 128 -37 207 -66 295 -41 119 -80 209 -98 219 -5 3
-31 2 -57 -3 -27 -5 -92 -10 -144 -11 -52 -1 -124 -4 -158 -7 l-64 -6 4 -33
c4 -34 4 -34 -17 -15 -11 11 -33 24 -48 30 -33 13 -90 15 -83 3 2 -4 -23 -8
-57 -9 -34 0 -74 -1 -89 -2 -43 -2 -58 -43 -69 -194 -5 -73 -14 -170 -19 -217
-18 -147 -40 -413 -40 -475 0 -58 -44 -347 -55 -366 -4 -5 -28 -9 -55 -9 -38
0 -50 4 -54 18 -13 43 -36 174 -36 203 0 17 -6 73 -14 123 -27 170 -45 351
-50 496 -6 160 -55 521 -87 640 -29 105 -102 275 -158 367 -26 43 -82 123
-125 178 -44 55 -92 121 -108 148 -17 26 -35 47 -41 46 -7 0 -22 -13 -34 -29z
m1431 -915 c11 -8 15 -15 10 -15 -6 0 -19 7 -30 15 -10 8 -14 14 -9 14 6 0 19
-6 29 -14z m11 -365 c3 -5 4 -10 1 -10 -3 0 -8 5 -11 10 -3 6 -4 10 -1 10 3 0
8 -4 11 -10z m12 -42 c-3 -8 -6 -5 -6 6 -1 11 2 17 5 13 3 -3 4 -12 1 -19z
m21 -43 c-3 -3 -9 2 -12 12 -6 14 -5 15 5 6 7 -7 10 -15 7 -18z m9 -32 c-4 -3
-7 0 -7 7 0 7 3 10 7 7 3 -4 3 -10 0 -14z m-1303 -35 c4 -13 9 -68 11 -123 l5
-100 -20 115 c-23 136 -22 130 -11 130 5 0 12 -10 15 -22z m346 -92 c-1 -21
-1 -21 -15 -2 -19 25 -19 37 0 30 8 -4 15 -16 15 -28z m847 17 c-4 -3 -7 0 -7
7 0 7 3 10 7 7 3 -4 3 -10 0 -14z m-1240 -55 c-2 -13 -4 -3 -4 22 0 25 2 35 4
23 2 -13 2 -33 0 -45z m352 -18 c-47 -25 -86 -71 -117 -139 -21 -46 -24 -64
-20 -132 5 -77 -4 -107 -15 -52 -16 83 14 209 67 280 34 46 58 62 96 62 23 0
22 -2 -11 -19z m578 -27 c-3 -10 -5 -2 -5 17 0 19 2 27 5 18 2 -10 2 -26 0
-35z m-920 -40 c-3 -10 -5 -4 -5 12 0 17 2 24 5 18 2 -7 2 -21 0 -30z m220 5
c-3 -8 -6 -5 -6 6 -1 11 2 17 5 13 3 -3 4 -12 1 -19z m709 -47 c2 -33 -1 -38
-17 -34 -20 6 -27 23 -9 23 6 0 10 8 10 18 0 15 8 32 14 32 1 0 2 -18 2 -39z
m201 17 c-3 -8 -6 -5 -6 6 -1 11 2 17 5 13 3 -3 4 -12 1 -19z m-159 -19 c-6
-16 -12 -28 -14 -26 -5 5 13 57 20 57 3 0 0 -14 -6 -31z m-911 -11 c-3 -7 -5
-2 -5 12 0 14 2 19 5 13 2 -7 2 -19 0 -25z m650 -5 c-4 -3 -7 0 -7 7 0 7 3 10
7 7 3 -4 3 -10 0 -14z m400 -120 c-4 -3 -7 0 -7 7 0 7 3 10 7 7 3 -4 3 -10 0
-14z"/>
</g>
</svg>
