<?xml version="1.0" standalone="no"?>
<!DOCTYPE svg PUBLIC "-//W3C//DTD SVG 20010904//EN"
 "http://www.w3.org/TR/2001/REC-SVG-20010904/DTD/svg10.dtd">
<svg version="1.0" xmlns="http://www.w3.org/2000/svg"
 width="300.000000pt" height="225.000000pt" viewBox="0 0 300.000000 225.000000"
 preserveAspectRatio="xMidYMid meet">
<metadata>
Created by potrace 1.10, written by Peter Selinger 2001-2011
</metadata>
<g transform="translate(0.000000,225.000000) scale(0.050000,-0.050000)"
fill="#000000" stroke="none">
<path d="M3205 3435 c-54 -68 -50 -115 13 -137 71 -25 64 -58 -11 -58 -37 0
-48 8 -40 29 13 33 -17 60 -46 42 -10 -6 -159 -16 -331 -21 -276 -9 -501 -44
-320 -51 l60 -2 -55 -20 c-49 -18 -67 -11 -158 61 -115 92 -122 94 -166 51
-17 -18 -31 -26 -31 -20 0 7 -18 3 -39 -9 -22 -11 -35 -32 -30 -47 6 -14 -7
-41 -28 -60 -36 -33 -38 -33 -48 4 -8 29 -1 36 28 28 20 -5 37 0 37 13 0 25
-65 30 -88 7 -15 -15 -26 -18 -82 -22 -16 -2 -30 -16 -30 -33 0 -36 33 -40 47
-5 7 18 15 19 26 3 40 -53 106 -52 157 4 28 30 46 59 40 64 -5 6 10 21 35 33
57 29 74 7 75 -93 0 -56 7 -72 28 -64 20 8 30 -11 35 -71 5 -44 1 -81 -7 -81
-15 0 -23 38 -21 95 0 13 -7 20 -16 15 -15 -10 -12 -164 4 -179 4 -4 50 0 102
8 105 16 144 -42 50 -77 -34 -13 -13 -20 91 -31 74 -8 129 -23 123 -33 -7 -10
27 -17 79 -15 49 2 103 -7 119 -21 20 -16 34 -17 42 -3 18 29 131 26 131 -3 0
-19 5 -19 24 0 33 33 63 30 32 -3 -17 -18 -52 -24 -100 -18 -85 11 -90 -49 -9
-106 60 -42 85 -36 43 11 -20 22 -32 45 -27 50 19 18 246 -35 282 -66 54 -46
42 -64 -27 -40 -49 17 -66 16 -80 -6 -35 -55 -7 -76 64 -48 26 10 31 2 23 -39
-10 -54 23 -71 42 -21 13 33 84 41 102 12 10 -17 105 -12 165 8 13 4 30 -10
36 -31 7 -22 20 -35 29 -29 9 5 22 -4 28 -20 7 -17 25 -24 42 -18 42 16 39 48
-4 49 -33 0 -33 2 0 27 19 14 58 22 86 17 35 -7 60 2 79 27 16 21 29 29 29 17
1 -12 -10 -32 -23 -45 -17 -17 -17 -36 -2 -69 65 -139 90 -217 78 -246 -9 -24
-4 -30 18 -22 24 9 28 1 18 -38 -7 -28 -4 -49 8 -49 12 0 26 20 31 45 11 50
-3 -86 -17 -165 -39 -216 -105 -972 -87 -990 32 -31 58 77 108 445 66 491 86
514 39 45 -32 -317 -31 -507 1 -250 10 80 20 106 33 87 13 -19 15 -14 7 16
-11 37 24 323 158 1307 80 591 75 599 -465 667 -230 29 -246 35 -466 180 -42
27 -56 29 -73 8z m184 -136 c-6 -11 -1 -19 11 -19 28 0 486 -380 474 -393 -5
-5 -53 -12 -107 -16 -53 -4 -110 -12 -127 -18 -16 -6 -57 -15 -90 -20 -55 -8
58 -1 323 19 56 5 140 22 187 38 47 17 88 30 91 30 4 0 -5 -34 -19 -75 -34
-97 -225 -164 -502 -176 -99 -4 -209 -16 -244 -26 -46 -14 -100 -11 -190 10
-136 31 -197 67 -115 67 63 1 129 39 69 40 -53 2 -108 45 -103 81 5 47 -35 48
-57 1 -25 -54 -399 -43 -444 13 -21 27 -30 27 -59 3 -19 -15 -30 -19 -25 -8
55 113 70 129 121 141 73 16 74 49 2 50 -49 2 -51 4 -15 20 29 14 17 16 -44
10 -88 -10 -228 33 -189 57 12 8 55 8 96 0 49 -9 69 -7 60 8 -18 28 22 38 227
62 268 31 330 33 330 11 0 -31 83 -129 97 -115 7 7 13 33 13 57 0 25 15 50 33
57 48 19 54 2 18 -54 -30 -46 -30 -50 6 -59 53 -14 96 -91 48 -88 -20 2 -35
-13 -38 -37 -4 -31 -2 -32 6 -5 5 19 19 35 30 35 10 0 13 -10 5 -23 -8 -14 -5
-18 7 -10 12 7 37 7 56 0 36 -14 -35 -59 -77 -50 -8 2 -44 -24 -80 -57 l-64
-60 85 0 c62 0 85 8 85 30 0 20 20 30 59 30 66 0 100 36 59 62 -21 13 -17 17
15 18 32 0 41 9 33 38 -6 25 -22 34 -48 27 -26 -7 -38 1 -38 24 0 18 -9 28
-20 21 -11 -7 -20 -4 -20 5 0 10 -22 30 -50 45 -27 15 -50 34 -50 44 0 9 23
26 50 36 28 10 50 29 50 41 0 12 -10 15 -23 7 -29 -18 -3 29 41 74 33 33 72
31 51 -3z m381 -120 c22 -15 339 -119 363 -119 8 0 -3 13 -24 29 -38 29 -38
30 2 30 119 2 118 -108 -2 -161 -131 -59 -189 -54 -269 19 -38 35 -58 63 -44
63 45 0 25 52 -39 99 -34 26 -56 36 -49 24 9 -14 1 -23 -19 -23 -20 0 -29 11
-23 28 6 15 0 38 -13 51 -23 24 69 -8 117 -40z m132 -809 c2 -43 5 -48 12 -20
26 102 75 108 82 10 3 -35 -3 -58 -13 -52 -11 7 -24 -2 -30 -18 -7 -17 -23
-30 -37 -30 -20 1 -20 4 1 18 20 13 17 19 -13 27 -38 10 -66 99 -48 154 14 40
43 -17 46 -89z"/>
<path d="M3341 3181 c-32 -59 -26 -65 29 -29 27 18 45 40 39 50 -18 29 -46 21
-68 -21z"/>
<path d="M2802 3089 c-37 -16 -62 -35 -56 -42 7 -7 29 0 49 15 29 23 29 20 -3
-17 -21 -25 -28 -45 -16 -45 25 0 104 79 104 104 0 20 4 21 -78 -15z"/>
<path d="M3505 3015 c3 -14 -6 -23 -19 -20 -14 2 -20 -8 -14 -24 9 -22 189
-80 200 -65 1 2 -9 31 -24 64 -17 39 -27 47 -27 24 -1 -33 -4 -32 -45 5 -49
46 -78 53 -71 16z"/>
<path d="M3860 3025 c0 -49 74 -89 86 -46 5 23 3 41 -6 41 -9 0 -31 5 -48 12
-18 7 -32 4 -32 -7z"/>
<path d="M1773 3104 c-38 -43 -29 -232 13 -258 12 -7 14 -2 6 11 -8 13 -1 37
15 53 33 33 66 39 76 13 4 -9 52 -22 107 -29 l100 -12 -125 46 c-134 50 -185
83 -185 119 0 13 9 10 19 -6 28 -45 48 -11 28 49 -18 52 -18 53 -54 14z"/>
<path d="M1943 3103 c-20 -13 -13 -28 30 -62 32 -24 44 -38 27 -31 -24 10 -23
7 2 -14 18 -14 31 -35 30 -46 -4 -39 124 -35 132 4 17 81 -6 133 -38 87 -15
-23 -44 -40 -62 -39 -31 2 -31 4 1 12 48 12 45 66 -4 66 -21 0 -44 9 -51 20
-15 24 -31 25 -67 3z"/>
<path d="M1967 2810 c0 -19 31 -38 81 -51 45 -12 93 -25 107 -29 14 -5 25 -1
25 8 0 30 -52 62 -107 66 -29 3 -53 12 -53 20 0 9 -12 16 -27 16 -14 0 -26
-14 -26 -30z"/>
<path d="M1760 2780 c0 -11 13 -104 29 -205 16 -102 44 -306 61 -455 67 -580
93 -738 112 -690 10 24 12 8 5 -43 -19 -135 50 -582 106 -692 81 -161 108
-105 56 115 -16 67 -66 134 -90 120 -8 -6 -10 9 -4 32 8 31 15 35 27 15 37
-60 42 17 17 257 -14 141 -27 316 -27 389 -1 73 -8 123 -16 110 -19 -30 -27
-17 -53 91 -28 115 -30 229 -3 166 12 -27 18 -30 19 -10 1 17 28 -27 59 -97
33 -75 63 -118 71 -104 11 17 22 17 41 1 32 -27 54 1 31 39 -10 15 -15 37 -12
49 2 12 1 16 -4 8 -20 -35 -63 15 -75 86 -8 43 -22 78 -33 78 -11 0 -14 -9 -7
-20 7 -11 3 -20 -7 -20 -11 0 -26 18 -33 40 -7 22 -21 40 -31 40 -51 0 -142
239 -105 276 31 31 34 64 7 64 -11 0 -15 32 -10 70 5 39 0 86 -10 105 -10 19
-34 73 -54 120 -32 79 -67 112 -67 65z m347 -1977 c9 -48 6 -64 -12 -58 -14 4
-28 43 -31 87 -8 93 24 72 43 -29z"/>
<path d="M2351 2769 c-75 -56 -7 -79 110 -37 91 33 98 39 56 51 -77 21 -125
18 -166 -14z"/>
<path d="M2140 2600 c0 -11 -10 -18 -22 -15 -13 3 -28 -8 -33 -23 -6 -15 -1
-22 10 -15 11 7 25 -14 32 -47 13 -65 53 -78 93 -30 20 24 20 42 0 90 -23 56
-80 84 -80 40z"/>
<path d="M3048 2453 c-10 -28 -17 -30 -30 -10 -9 14 -21 21 -27 15 -6 -7 6
-27 26 -45 45 -41 94 -3 63 47 -15 24 -20 23 -32 -7z"/>
<path d="M3380 2260 c0 -34 -11 -61 -25 -62 -48 -2 -99 -15 -111 -27 -13 -13
137 7 161 22 20 12 11 127 -9 127 -9 0 -16 -27 -16 -60z"/>
<path d="M3001 2200 c-3 -5 -7 -53 -10 -106 -7 -110 -69 -194 -144 -194 -26 0
-47 -9 -47 -20 0 -11 18 -20 41 -20 34 0 36 -5 15 -28 -22 -24 -28 -24 -42 0
-16 28 -136 39 -160 15 -8 -7 0 -23 17 -36 42 -30 18 -85 -44 -96 -40 -8 -47
-4 -35 23 7 17 14 50 16 72 1 22 20 48 42 58 38 18 37 19 -10 27 -27 5 -59 17
-69 27 -40 39 -96 21 -84 -27 7 -25 13 -70 13 -100 0 -32 11 -55 27 -55 60 0
88 -128 43 -200 -15 -24 -21 -20 -32 20 -10 36 -15 21 -16 -55 -2 -91 -7 -105
-42 -105 -22 0 -40 8 -40 18 0 17 -64 44 -120 49 -18 2 -35 32 -42 73 l-13 70
-3 -80 c-3 -79 -4 -80 -31 -30 -23 41 -30 44 -40 18 -19 -47 -61 -38 -64 15
-1 25 -18 60 -36 79 -31 31 -32 30 -22 -15 35 -147 91 -620 82 -697 -7 -72 -6
-78 8 -30 9 33 17 46 19 30 3 -43 75 -86 88 -53 16 42 -10 393 -30 393 -10 0
-11 11 -3 25 9 14 14 43 12 65 -3 27 5 20 23 -19 24 -52 29 -54 37 -20 5 21 7
-54 5 -169 -5 -242 23 -344 107 -377 l53 -21 -50 -4 c-27 -3 -55 -4 -62 -3 -6
0 -6 -31 0 -71 13 -78 142 -128 142 -55 0 17 -7 27 -15 23 -29 -17 -105 25
-105 58 0 24 13 30 50 23 43 -8 51 -1 62 58 l13 68 37 -71 c43 -79 48 -123 16
-134 -35 -12 23 -116 70 -126 77 -16 102 -16 141 0 25 11 41 9 46 -5 4 -13 20
-18 34 -13 15 6 33 1 40 -11 21 -34 131 -25 145 12 21 55 -20 91 -111 97 -63
5 -89 -1 -97 -24 -11 -28 -16 -27 -39 5 -22 30 -27 31 -27 5 0 -68 -127 -13
-142 62 l-14 67 78 -11 c43 -5 78 -3 78 6 0 8 38 2 85 -14 56 -19 115 -24 175
-15 49 7 137 16 195 19 66 3 120 17 144 39 23 21 53 30 78 22 72 -23 135 8
172 85 35 72 36 73 54 27 16 -44 21 -45 62 -18 51 34 55 52 116 501 45 329 43
379 -9 277 -18 -35 -51 -63 -77 -67 -29 -4 -47 -22 -51 -51 -5 -35 1 -42 27
-32 37 14 26 -56 -17 -109 -12 -15 -24 -73 -27 -130 -3 -57 -12 -153 -19 -214
-19 -151 -47 -58 -33 110 8 102 4 126 -28 150 -30 23 -33 23 -12 0 14 -15 25
-59 25 -97 0 -75 -24 -74 -28 1 -1 32 -16 48 -47 52 -25 4 -45 16 -45 27 0 10
9 14 20 7 11 -7 20 2 20 19 0 17 16 32 35 33 21 1 25 5 10 11 -40 17 -29 44
14 33 30 -8 42 3 52 47 7 31 16 71 20 87 5 17 -1 44 -11 60 -11 17 -20 20 -20
7 0 -31 -108 -67 -140 -47 -15 9 -37 12 -51 7 -30 -12 -48 52 -27 103 8 22 16
29 17 15 2 -44 41 -27 62 28 27 70 115 151 145 134 18 -10 18 -7 1 12 -16 18
-34 19 -61 4 -112 -60 -96 41 23 141 61 51 19 69 -60 27 -43 -23 -61 -43 -48
-52 17 -10 17 -25 0 -57 -13 -24 -30 -39 -38 -34 -9 6 -27 -37 -41 -94 -41
-168 -43 -174 -73 -174 -27 0 -38 -25 -30 -68 1 -10 -6 -43 -17 -75 -16 -46
-14 -57 10 -57 17 0 25 9 18 20 -7 11 1 14 19 8 38 -15 41 -120 4 -134 -33
-13 -80 -178 -77 -274 0 -38 -8 -81 -20 -95 -12 -14 -13 -25 -2 -25 28 0 17
-86 -11 -96 -14 -4 -38 3 -54 17 -22 18 -29 18 -29 0 0 -13 -9 -18 -20 -11
-30 19 -7 150 30 178 26 19 30 40 18 103 -14 72 -16 74 -28 29 -11 -43 -16
-36 -35 49 -12 55 -17 107 -12 116 27 43 -16 252 -49 240 -21 -8 -23 -15 -8
-20 24 -8 35 -65 12 -65 -7 0 -39 23 -72 50 -44 37 -50 50 -25 50 27 0 29 6
10 29 -14 16 -19 38 -13 48 7 11 1 24 -13 29 -15 6 -5 17 23 28 27 11 40 25
28 32 -31 19 -93 -59 -78 -98 12 -31 9 -31 -38 0 -37 24 -50 26 -51 7 0 -14
-9 -10 -21 11 -34 59 -14 120 42 126 153 17 211 39 170 63 -22 13 -30 24 -17
24 12 1 33 -13 47 -29 19 -23 32 -25 52 -9 14 13 34 18 43 12 62 -38 116 156
57 205 -28 23 -32 21 -34 -16 -2 -23 -4 -53 -5 -67 -3 -29 -187 -41 -205 -13
-6 10 -21 13 -32 5 -13 -7 -16 -4 -9 8 7 12 29 17 49 12 20 -6 49 4 63 22 14
17 38 31 53 31 36 0 35 10 -7 74 -25 39 -28 55 -10 61 39 13 29 45 -14 45 -21
0 -42 16 -47 35 -5 19 -11 31 -13 25z m-299 -739 c19 11 45 19 57 19 27 0 28
-93 1 -110 -28 -17 -103 9 -90 30 6 10 -21 12 -60 6 -60 -10 -70 -6 -70 28 0
58 17 65 75 35 35 -18 63 -21 87 -8z m68 -186 c-11 -41 -10 -42 16 -10 35 43
133 40 137 -4 8 -96 15 -121 58 -178 26 -35 53 -63 61 -63 18 0 -1 -82 -27
-115 -31 -39 -95 -30 -165 24 -43 32 -71 42 -84 29 -18 -18 -94 66 -95 105 -1
8 -8 20 -16 29 -22 21 -18 48 6 48 12 0 15 -11 7 -25 -8 -14 -7 -18 3 -9 31
28 30 94 -2 94 -24 0 -26 8 -9 41 12 22 31 35 41 28 11 -6 14 -22 6 -33 -8
-14 -4 -16 11 -7 13 8 18 32 11 53 -8 27 -2 38 21 38 24 0 29 -12 20 -45z
m-330 1 c0 -19 5 -19 24 0 37 37 62 29 50 -16 -6 -22 -3 -45 7 -50 9 -6 16
-26 14 -45 -1 -19 5 -105 13 -190 14 -137 12 -154 -16 -143 -18 7 -33 36 -34
65 -2 87 -10 129 -36 209 -20 59 -20 82 -1 105 19 23 18 29 -6 29 -17 0 -36
14 -42 30 -7 17 -3 30 8 30 10 0 19 -11 19 -24z m620 -76 c0 -24 -12 -34 -35
-30 -19 4 -44 8 -55 9 -11 1 -4 14 15 29 19 14 28 32 20 40 -7 8 2 8 21 1 19
-7 34 -30 34 -49z"/>
<path d="M2760 2152 c0 -51 24 -92 52 -92 15 0 28 -12 28 -28 0 -34 70 -54 97
-27 21 21 13 35 -71 127 -49 53 -106 64 -106 20z"/>
<path d="M3475 2018 c-47 -27 -44 -58 5 -58 27 0 40 13 40 40 0 46 1 45 -45
18z"/>
<path d="M2268 1993 c-7 -18 -18 -29 -26 -24 -7 4 -10 -25 -5 -65 7 -59 12
-66 23 -34 14 39 15 38 28 -5 16 -48 41 -58 62 -25 7 11 34 15 61 8 40 -10 49
-5 49 30 0 30 -13 42 -44 42 -25 0 -65 24 -90 53 -38 44 -47 47 -58 20z"/>
<path d="M3871 1946 c-11 -28 -16 -30 -30 -8 -23 38 -81 12 -81 -35 0 -44 -52
-73 -67 -37 -5 13 -10 -12 -9 -56 0 -44 5 -65 9 -47 6 20 23 29 45 23 22 -5
41 4 49 22 17 45 53 40 53 -8 0 -24 -31 -60 -80 -92 -82 -54 -106 -108 -48
-108 25 0 96 40 166 93 4 3 14 69 21 147 12 134 0 179 -28 106z"/>
<path d="M2241 1760 c0 -46 38 -134 39 -90 0 11 17 -5 37 -35 20 -30 42 -49
50 -42 7 8 13 3 13 -10 0 -12 23 -23 50 -23 64 0 64 -2 -30 97 -44 47 -79 91
-77 99 5 39 -6 51 -23 24 -18 -27 -22 -27 -40 0 -15 24 -19 20 -19 -20z"/>
<path d="M4008 1020 c-7 -66 -21 -120 -31 -120 -9 0 -17 -13 -17 -30 0 -36
-33 -40 -47 -5 -5 14 -11 -9 -11 -50 -2 -52 -14 -82 -42 -100 -26 -16 -40 -46
-40 -89 0 -74 -38 -109 -53 -49 -11 39 -14 39 -59 10 -30 -20 -48 -23 -48 -9
0 38 -48 15 -83 -40 -34 -54 -129 -88 -150 -54 -6 11 -31 2 -54 -19 -29 -27
-78 -40 -153 -44 -60 -2 -122 -11 -136 -19 -15 -8 -78 -7 -140 3 -63 10 -163
22 -224 26 -148 11 -160 13 -149 31 15 24 -35 47 -110 49 -46 2 -78 17 -97 46
-16 24 -48 43 -71 43 -61 1 -88 23 -98 80 -7 37 -10 30 -12 -26 -3 -79 64
-174 122 -174 15 0 58 -22 95 -50 37 -27 89 -50 115 -50 26 0 72 -13 103 -29
107 -55 511 -72 700 -29 51 12 115 24 143 28 210 29 455 227 517 418 40 122
77 372 56 372 -7 0 -18 -54 -26 -120z"/>
<path d="M2160 771 c0 -18 9 -28 19 -21 11 6 26 -11 33 -39 15 -62 53 -69 44
-8 -8 56 -96 119 -96 68z"/>
<path d="M3485 633 c-77 -25 -75 -60 4 -70 55 -6 90 21 91 72 0 28 -4 28 -95
-2z"/>
<path d="M3181 571 c-13 -16 -21 -45 -17 -65 16 -75 196 -17 196 63 0 34 -151
36 -179 2z"/>
<path d="M3072 528 c-7 -17 -7 -40 0 -51 18 -29 68 21 55 54 -15 38 -40 37
-55 -3z"/>
</g>
</svg>
