<?xml version="1.0" standalone="no"?>
<!DOCTYPE svg PUBLIC "-//W3C//DTD SVG 20010904//EN"
 "http://www.w3.org/TR/2001/REC-SVG-20010904/DTD/svg10.dtd">
<svg version="1.0" xmlns="http://www.w3.org/2000/svg"
 width="300.000000pt" height="300.000000pt" viewBox="0 0 300.000000 300.000000"
 preserveAspectRatio="xMidYMid meet">
<metadata>
Created by potrace 1.10, written by Peter Selinger 2001-2011
</metadata>
<g transform="translate(0.000000,300.000000) scale(0.100000,-0.100000)"
fill="#000000" stroke="none">
<path d="M915 1961 c-3 -5 -1 -12 5 -16 5 -3 10 -35 10 -70 0 -81 19 -216 33
-233 10 -13 12 -156 2 -171 -2 -4 5 -79 16 -167 25 -189 25 -332 2 -414 -11
-41 -7 -128 10 -240 22 -138 22 -136 70 -164 163 -93 453 -109 824 -46 159 27
151 19 146 142 -3 57 -10 109 -16 116 -7 9 -7 16 -1 20 11 8 61 204 68 267 3
27 15 65 28 92 17 34 -11 58 -82 72 -54 11 -117 40 -319 148 -58 31 -65 32
-81 18 -9 -9 -24 -13 -32 -10 -10 4 -31 -30 -78 -130 -77 -165 -137 -258 -222
-346 -86 -87 -159 -129 -224 -128 l-49 1 50 10 c70 13 163 83 242 182 89 112
216 369 218 441 0 28 5 57 10 65 6 8 10 71 10 140 0 69 4 177 9 241 l9 116
-179 6 c-169 6 -375 33 -438 57 -33 12 -33 12 -41 1z"/>
<path d="M2200 1929 c-36 -10 -81 -18 -100 -18 -49 -1 -60 -16 -60 -77 0 -48
-4 -57 -73 -150 -142 -191 -197 -279 -197 -318 0 -41 5 -45 192 -144 89 -47
128 -63 165 -64 41 -3 48 0 49 17 0 11 4 94 8 185 9 206 19 289 35 299 10 6 8
10 -5 15 -15 6 -15 9 5 30 18 19 26 47 37 127 8 56 13 105 12 109 -2 3 -32 -2
-68 -11z"/>
<path d="M850 1813 c0 -5 -24 -10 -52 -12 -75 -3 -179 -26 -224 -49 -55 -28
-140 -122 -172 -189 -37 -79 -43 -219 -14 -316 33 -112 113 -216 214 -280 74
-47 305 -108 319 -85 18 29 18 182 -1 488 -20 341 -30 419 -56 441 -8 6 -14 7
-14 2z m45 -491 c10 -177 15 -325 12 -329 -14 -14 -144 -4 -192 14 -122 47
-237 187 -276 336 -17 61 0 148 44 230 54 102 132 143 256 133 54 -4 77 -11
87 -23 11 -17 14 -15 25 12 l12 30 7 -40 c4 -22 16 -185 25 -363z m-228 -327
c32 -13 49 -24 39 -25 -23 0 -112 43 -146 71 -24 20 -24 20 12 0 20 -12 63
-33 95 -46z"/>
</g>
</svg>
