<?xml version="1.0" standalone="no"?>
<!DOCTYPE svg PUBLIC "-//W3C//DTD SVG 20010904//EN"
 "http://www.w3.org/TR/2001/REC-SVG-20010904/DTD/svg10.dtd">
<svg version="1.0" xmlns="http://www.w3.org/2000/svg"
 width="300.000000pt" height="169.000000pt" viewBox="0 0 300.000000 169.000000"
 preserveAspectRatio="xMidYMid meet">
<metadata>
Created by potrace 1.10, written by Peter Selinger 2001-2011
</metadata>
<g transform="translate(0.000000,169.000000) scale(0.050000,-0.050000)"
fill="#000000" stroke="none">
<path d="M1764 1899 c-71 -43 -146 -143 -180 -239 -14 -38 -71 -199 -127 -356
-60 -168 -95 -294 -84 -305 19 -19 1330 -32 2482 -24 l725 5 0 57 c0 31 -22
128 -49 215 -26 87 -72 237 -102 334 -60 198 -115 276 -224 319 -125 50 -2359
44 -2441 -6z m2422 -68 c88 -47 184 -265 190 -431 8 -188 22 -286 45 -300 26
-17 20 -19 -201 -56 -49 -9 -153 -13 -230 -10 -77 4 -153 6 -170 5 -709 -38
-2177 21 -2077 83 18 11 13 15 -17 13 -24 -2 -39 -10 -33 -19 5 -9 1 -16 -9
-16 -40 0 -56 55 -53 175 6 182 6 185 39 185 17 0 30 7 31 15 9 179 78 318
182 364 125 56 2198 48 2303 -8z"/>
<path d="M1933 1767 c-16 -17 -18 -552 -1 -594 13 -34 2191 -49 2244 -16 21
14 23 77 10 315 l-16 298 -1112 5 c-611 3 -1117 -1 -1125 -8z m587 -87 c0 -34
-13 -40 -91 -40 l-91 0 6 -220 6 -220 -63 0 -63 0 -14 220 -14 220 -88 0 c-75
0 -88 6 -88 40 0 38 13 40 250 40 237 0 250 -2 250 -40z m508 -209 c132 -295
129 -271 44 -271 -58 0 -71 9 -89 60 -20 58 -25 60 -143 60 -118 0 -123 -2
-143 -60 -18 -51 -31 -60 -88 -60 l-67 0 90 215 c50 118 99 235 109 260 14 36
34 45 96 45 l78 0 113 -249z m398 169 c31 -44 64 -80 74 -80 10 0 43 36 74 80
45 64 68 79 121 80 84 0 83 -5 -27 -133 -103 -121 -108 -94 49 -282 l88 -105
-83 0 c-76 0 -88 8 -155 101 l-73 102 -71 -102 c-61 -87 -79 -101 -137 -101
-79 0 -76 10 52 169 l79 99 -56 71 c-31 39 -76 88 -99 109 -60 55 -52 72 33
72 64 -1 83 -12 131 -80z m621 -85 c7 -91 13 -208 13 -260 l0 -95 -70 0 -70 0
0 228 c0 126 -5 243 -12 260 -10 25 2 32 57 32 l69 0 13 -165z"/>
<path d="M2793 1514 c-44 -115 -45 -114 49 -114 57 0 79 8 73 25 -5 14 -21 59
-36 100 -34 96 -46 94 -86 -11z"/>
</g>
</svg>
