<?xml version="1.0" standalone="no"?>
<!DOCTYPE svg PUBLIC "-//W3C//DTD SVG 20010904//EN"
 "http://www.w3.org/TR/2001/REC-SVG-20010904/DTD/svg10.dtd">
<svg version="1.0" xmlns="http://www.w3.org/2000/svg"
 width="900.000000pt" height="1134.000000pt" viewBox="0 0 900.000000 1134.000000"
 preserveAspectRatio="xMidYMid meet">
<metadata>
Created by potrace 1.10, written by Peter Selinger 2001-2011
</metadata>
<g transform="translate(0.000000,1134.000000) scale(0.100000,-0.100000)"
fill="#000000" stroke="none">
<path d="M6433 10636 c-23 -6 -48 -17 -55 -24 -18 -18 -59 -15 -73 5 -12 16
-15 16 -32 2 -10 -9 -26 -19 -35 -22 -11 -4 -15 -13 -11 -26 3 -12 1 -21 -5
-21 -5 0 -12 -9 -15 -21 -8 -31 -61 -23 -65 11 -7 46 -62 77 -62 34 0 -8 -9
-14 -19 -14 -11 0 -23 -4 -26 -10 -3 -5 -19 -10 -36 -10 -24 0 -29 -4 -29 -23
0 -24 -37 -67 -57 -67 -7 0 -15 9 -18 20 -4 11 -16 21 -28 21 -77 5 -109 4
-113 -3 -3 -4 -21 -8 -40 -8 -27 0 -44 -9 -75 -40 -59 -59 -102 -52 -90 14 2
10 -18 26 -34 26 -15 0 -12 -94 3 -112 19 -23 -11 -44 -45 -32 -36 12 -40 32
-9 44 27 10 33 24 15 35 -6 4 -17 -2 -25 -14 -18 -25 -41 -27 -66 -5 -14 13
-21 14 -32 5 -11 -9 -17 -9 -28 2 -22 22 -120 30 -146 11 -12 -8 -22 -21 -22
-27 0 -17 -41 -53 -68 -59 -26 -7 -54 16 -46 37 4 9 0 15 -10 15 -10 0 -16 -9
-16 -25 0 -14 4 -25 9 -25 5 0 16 -7 25 -15 17 -18 11 -45 -10 -45 -20 0 -17
-10 7 -36 39 -42 6 -68 -55 -44 -31 11 -33 34 -6 57 14 13 16 19 7 25 -18 12
-27 10 -27 -7 0 -9 -7 -18 -15 -21 -11 -5 -13 -16 -9 -44 7 -43 -4 -55 -42
-46 -27 7 -32 33 -9 42 16 7 21 34 6 34 -5 0 -7 9 -4 20 5 17 0 20 -34 20 -21
0 -45 6 -52 13 -11 10 -12 6 -7 -24 5 -31 3 -38 -25 -59 -31 -22 -33 -22 -45
-5 -13 17 -15 17 -38 -6 -14 -13 -26 -32 -26 -41 0 -21 -37 -33 -55 -18 -16
13 -9 40 11 40 8 0 14 8 14 18 0 29 -12 34 -28 11 -12 -18 -22 -20 -57 -15
-31 4 -45 2 -48 -8 -3 -8 -20 -21 -37 -30 -30 -15 -32 -14 -37 4 -6 22 -18 26
-28 10 -4 -6 -26 -10 -50 -9 -25 2 -53 -4 -66 -13 -31 -19 -49 -13 -49 17 0
24 -33 55 -58 55 -9 0 -7 -8 7 -26 27 -34 26 -42 -4 -54 -14 -5 -25 -16 -25
-25 0 -11 -10 -15 -35 -15 -24 0 -35 5 -35 15 0 8 -9 15 -20 15 -11 0 -20 -6
-20 -14 0 -19 -25 -27 -39 -13 -17 17 -13 33 14 51 31 20 32 36 2 36 -24 0
-62 -36 -48 -45 9 -5 19 -48 25 -108 3 -29 -1 -40 -13 -45 -9 -3 -22 -12 -29
-19 -22 -21 -51 -15 -64 12 -14 32 -32 27 -36 -8 -3 -22 -8 -27 -31 -27 -15 0
-32 5 -39 12 -9 9 -12 9 -12 0 0 -19 -40 -14 -47 6 -10 25 -35 42 -56 36 -10
-3 -24 0 -32 6 -11 9 -15 9 -15 1 0 -6 7 -14 15 -17 9 -4 15 -19 15 -35 0 -37
-22 -38 -54 -4 -28 31 -34 31 -38 3 -2 -14 -14 -25 -33 -31 -16 -6 -34 -16
-38 -23 -11 -18 -56 -18 -63 0 -8 21 -176 20 -221 0 -36 -16 -39 -24 -21 -42
13 -13 1 -19 -46 -24 -20 -2 -32 3 -40 17 -6 11 -17 24 -23 28 -7 4 -13 16
-14 25 0 10 -5 6 -11 -10 -10 -29 -22 -35 -33 -18 -3 6 -12 10 -20 10 -10 0
-12 -10 -8 -40 5 -36 3 -40 -22 -50 -24 -9 -27 -14 -21 -45 6 -31 4 -35 -13
-35 -11 0 -28 11 -37 25 -11 17 -25 25 -46 25 -21 0 -31 6 -35 20 -7 26 -19
26 -26 0 -7 -29 -36 -36 -69 -17 -16 9 -35 14 -42 11 -9 -3 -17 3 -21 15 -10
34 -26 24 -23 -14 1 -22 -4 -39 -14 -47 -20 -16 -30 -88 -12 -88 7 0 24 4 38
10 19 7 28 6 33 -4 4 -7 16 -15 26 -19 19 -7 24 -47 5 -48 -65 -4 -155 4 -163
14 -13 16 -65 20 -65 6 0 -6 9 -13 19 -16 11 -3 22 -15 25 -26 6 -21 7 -21 20
-4 17 21 39 22 57 1 11 -14 10 -19 -10 -35 -25 -20 -71 -26 -71 -9 0 6 -11 15
-25 20 -14 5 -25 16 -25 24 0 17 -26 27 -70 28 -38 1 -51 -10 -27 -24 19 -10
19 -10 -89 -129 -18 -20 -18 -43 1 -59 8 -7 15 -29 15 -49 0 -44 35 -94 49
-72 14 21 38 6 46 -28 3 -16 13 -35 21 -42 12 -10 14 -6 14 25 0 29 4 36 19
36 19 0 43 -21 40 -36 -7 -39 10 -43 50 -13 29 22 51 19 51 -6 0 -7 7 -15 15
-19 8 -3 15 -15 15 -26 0 -11 5 -20 10 -20 6 0 10 17 10 39 0 21 6 44 14 50
16 13 20 9 30 -32 7 -29 26 -28 26 2 0 10 11 23 24 29 20 9 29 8 48 -7 13 -10
31 -20 41 -24 9 -3 17 -16 17 -27 0 -16 -7 -20 -30 -20 -16 0 -33 -6 -37 -14
-4 -8 -19 -16 -33 -18 -19 -2 -25 -10 -27 -31 -1 -16 -7 -35 -14 -43 -16 -19
-55 -18 -63 2 -3 9 -13 14 -20 11 -8 -3 -20 1 -27 9 -8 10 -15 12 -23 4 -5 -5
-18 -10 -28 -10 -19 0 -24 -15 -8 -25 16 -10 12 -55 -6 -62 -10 -4 -26 6 -45
28 -16 19 -29 30 -30 24 -1 -5 -2 -19 -3 -30 -1 -14 -9 -21 -28 -23 -38 -5
-42 -27 -12 -78 18 -31 24 -52 20 -70 -9 -34 -32 -41 -54 -15 -12 15 -24 19
-39 15 -39 -11 -23 -56 18 -52 21 3 24 -1 24 -27 0 -25 -4 -30 -28 -33 -17 -2
-29 2 -33 12 -5 13 -12 10 -35 -15 -16 -17 -29 -35 -29 -39 0 -5 -16 -14 -36
-20 -37 -12 -45 -9 -57 25 -2 6 -18 0 -35 -12 -17 -13 -40 -23 -51 -23 -11 0
-31 -4 -44 -9 -34 -13 -140 -118 -127 -126 5 -3 10 -15 10 -26 0 -10 6 -19 14
-19 25 0 41 -29 28 -51 -21 -32 -14 -38 38 -35 33 3 53 -1 61 -10 7 -8 21 -11
34 -8 15 4 24 0 29 -11 8 -22 -1 -35 -25 -35 -22 0 -23 -3 -7 -47 9 -24 18
-33 35 -33 17 0 24 -7 29 -27 3 -16 7 -33 9 -39 2 -7 -4 -10 -16 -7 -19 5 -28
-12 -9 -19 5 -1 11 -14 12 -28 2 -19 -2 -26 -20 -28 -12 -2 -27 -12 -32 -23
-6 -10 -18 -19 -28 -19 -13 0 -12 -4 8 -20 23 -17 24 -22 13 -49 -10 -27 -9
-31 6 -31 9 0 22 5 29 12 9 9 13 7 18 -5 3 -9 12 -17 20 -17 9 0 14 -11 14
-31 0 -31 -1 -32 -39 -26 -29 3 -41 1 -45 -9 -4 -10 4 -14 29 -14 32 0 35 -3
35 -28 0 -60 -62 -73 -94 -19 l-19 32 -11 -27 c-11 -31 -18 -33 -47 -18 -23
13 -25 45 -4 54 8 3 12 12 9 21 -6 14 -8 13 -21 -4 -19 -27 -41 -16 -45 22 -3
35 -30 45 -33 12 -4 -43 -17 -65 -38 -65 -20 0 -19 -2 7 -29 21 -22 27 -36 22
-54 -10 -43 -76 -45 -76 -2 0 23 -24 40 -41 29 -5 -3 -6 -16 -3 -30 4 -17 1
-26 -11 -30 -24 -10 -39 9 -26 34 8 16 7 21 -5 26 -26 10 -34 7 -34 -14 0 -11
-9 -25 -20 -32 -11 -7 -20 -23 -20 -36 0 -34 -29 -72 -56 -72 -30 0 -33 6 -27
63 5 44 8 47 34 47 26 0 28 2 23 29 -3 16 -1 38 5 49 11 22 5 52 -10 52 -5 0
-12 -8 -15 -17 -16 -49 -28 -63 -55 -63 -15 0 -31 5 -34 10 -8 13 -56 8 -54
-6 1 -5 4 -14 6 -21 11 -28 -3 -48 -34 -51 -27 -3 -34 2 -48 28 -10 19 -14 42
-11 56 7 27 -18 35 -28 9 -3 -8 -17 -15 -31 -15 -28 0 -75 -26 -75 -42 0 -5 7
-16 15 -25 12 -12 13 -18 4 -29 -18 -22 -38 -17 -45 11 -7 27 -22 33 -30 12
-6 -17 -59 -10 -75 9 -25 31 -89 -2 -89 -45 0 -28 -18 -36 -39 -17 -30 27 -57
16 -29 -12 10 -10 9 -15 -2 -26 -18 -17 -60 -4 -60 19 0 8 -4 15 -10 15 -5 0
-10 -7 -10 -16 0 -9 -10 -19 -22 -22 -21 -6 -21 -7 7 -12 21 -4 31 -12 33 -28
4 -27 -23 -40 -49 -24 -25 16 -39 15 -39 -3 0 -8 -4 -15 -10 -15 -5 0 -10 -7
-10 -15 0 -10 10 -14 37 -12 29 2 38 -2 41 -16 2 -12 -3 -20 -17 -24 -12 -3
-24 -16 -27 -30 -4 -14 -16 -28 -28 -33 -16 -6 -12 -8 17 -6 21 2 43 8 50 15
6 6 22 11 35 11 25 0 25 2 6 -67 -5 -18 -2 -23 13 -23 16 0 19 5 16 24 -4 18
0 26 16 31 31 9 44 -3 37 -36 -6 -33 7 -38 35 -14 15 14 18 14 32 0 21 -20 34
-19 47 5 13 25 58 27 75 3 13 -17 14 -17 32 0 11 9 29 17 40 17 26 0 33 18 20
48 -6 14 -19 22 -34 22 -27 0 -31 -15 -6 -24 15 -6 15 -8 1 -22 -12 -12 -20
-14 -36 -5 -21 11 -52 63 -52 88 0 18 16 17 24 -2 7 -18 26 -20 26 -2 1 43 54
46 69 4 6 -16 17 -22 37 -22 25 0 29 -4 32 -32 5 -49 23 -57 63 -30 37 25 59
25 59 0 0 -20 -35 -63 -63 -78 -47 -24 -55 -24 -84 1 l-28 24 -18 -21 c-9 -12
-17 -30 -17 -40 0 -15 -7 -19 -39 -19 -27 0 -41 -5 -45 -16 -5 -13 -16 -15
-51 -11 -38 4 -47 1 -56 -14 -12 -23 -32 -24 -49 -4 -18 22 -30 18 -30 -10 0
-14 5 -25 10 -25 6 0 10 -7 10 -16 0 -11 -6 -15 -20 -11 -11 3 -23 1 -26 -4
-3 -5 -21 -9 -40 -9 -26 0 -34 -4 -34 -18 0 -10 -5 -23 -12 -30 -12 -12 -4
-17 37 -24 12 -2 21 -12 23 -27 2 -13 13 -32 25 -41 l21 -17 -27 -18 -28 -18
-34 39 -34 39 -1 -27 c0 -18 -5 -28 -15 -28 -8 0 -15 8 -15 17 0 13 -3 14 -12
5 -10 -10 -8 -20 6 -47 16 -29 21 -32 36 -22 14 8 22 8 34 -2 22 -19 20 -41
-4 -41 -11 0 -20 -4 -20 -10 0 -5 13 -7 30 -4 34 7 60 -9 60 -37 0 -25 21 -35
32 -15 5 9 21 16 35 16 23 0 25 -3 20 -33 -4 -26 -1 -36 14 -45 10 -7 19 -21
19 -32 0 -31 -33 -24 -54 10 -9 17 -22 27 -28 24 -7 -5 -5 -11 5 -19 20 -14
22 -55 5 -74 -11 -11 -10 -13 2 -9 20 7 72 -20 67 -35 -2 -7 -21 -12 -43 -12
l-39 0 0 -50 c0 -43 3 -50 20 -50 14 0 21 8 23 26 2 15 12 35 23 45 17 15 23
16 41 5 18 -11 22 -11 30 4 9 15 11 15 23 -2 11 -15 10 -21 -6 -42 -25 -32
-12 -46 42 -44 51 2 57 8 36 31 -26 29 -22 60 10 68 37 10 75 -14 87 -55 5
-19 19 -38 33 -44 42 -19 22 -56 -27 -49 -17 2 -30 8 -30 13 0 5 -4 9 -10 9
-5 0 -7 -6 -4 -14 7 -18 -15 -31 -29 -17 -6 6 -20 11 -31 11 -18 0 -18 -1 -3
-18 10 -10 17 -28 17 -40 0 -16 -7 -21 -32 -24 -29 -3 -33 -6 -30 -30 3 -32
-20 -48 -72 -48 -29 0 -34 -3 -29 -17 4 -10 13 -22 20 -26 7 -5 11 -12 8 -18
-10 -15 -25 -11 -25 7 0 32 -25 6 -30 -32 -4 -33 -9 -39 -32 -42 -20 -2 -31 4
-44 23 -22 34 -36 28 -40 -18 -2 -20 -8 -45 -13 -56 -12 -22 -77 -37 -96 -21
-9 8 -14 6 -18 -10 -7 -29 -34 -25 -45 8 l-9 27 -7 -32 c-10 -42 -26 -54 -74
-55 -35 0 -41 -4 -45 -27 -7 -34 7 -57 43 -76 19 -10 27 -20 24 -30 -6 -15 31
-54 52 -55 6 0 17 -7 24 -15 7 -8 16 -15 21 -15 19 0 7 26 -27 61 -42 43 -38
59 15 59 41 0 61 -14 61 -42 0 -10 7 -21 15 -24 18 -7 20 -50 3 -61 -7 -4 -21
-6 -30 -5 -23 4 -23 -14 -1 -26 12 -7 24 -5 41 6 21 14 23 20 17 64 -5 38 -4
49 8 54 20 7 57 -13 57 -31 0 -8 5 -15 10 -15 6 0 10 11 10 26 0 19 -7 28 -30
35 -30 11 -41 41 -20 54 6 3 -1 23 -16 46 -20 32 -23 43 -13 55 19 23 46 16
69 -17 l22 -30 -21 -23 c-26 -28 -26 -36 -1 -36 11 0 20 5 20 10 0 6 7 10 15
10 8 0 15 -7 15 -15 0 -8 -4 -15 -9 -15 -5 0 -11 -11 -13 -25 -4 -19 -1 -25
13 -25 10 0 24 9 31 19 9 13 32 22 66 27 56 7 59 5 39 -27 -10 -17 -9 -22 5
-30 17 -9 17 -12 2 -34 -9 -14 -14 -31 -11 -38 5 -14 97 -41 106 -31 3 4 0 9
-6 11 -17 6 -17 43 0 43 6 0 21 -7 31 -15 21 -16 66 -20 66 -7 0 4 -5 13 -11
19 -16 16 6 26 30 13 12 -6 23 -26 27 -46 8 -43 -16 -74 -58 -74 -21 0 -31 -6
-38 -25 -5 -14 -16 -25 -25 -25 -8 0 -15 -4 -15 -10 0 -5 5 -10 11 -10 6 0 9
-10 7 -22 -4 -31 -43 -36 -66 -8 -14 17 -23 19 -52 13 l-35 -7 29 -6 c22 -4
32 -12 37 -32 7 -25 5 -28 -19 -28 -15 0 -34 -4 -42 -10 -11 -7 -8 -11 15 -21
17 -7 35 -11 42 -10 7 1 19 -9 28 -22 11 -18 22 -23 40 -19 20 3 25 0 25 -17
0 -11 -9 -26 -20 -33 -25 -16 -25 -27 -3 -44 23 -17 33 -17 33 0 0 24 18 29
76 21 44 -5 54 -10 54 -25 0 -10 -5 -22 -10 -25 -5 -3 -10 -20 -10 -37 0 -22
6 -31 20 -35 15 -4 19 -11 15 -24 -4 -12 -1 -21 9 -25 13 -5 16 -23 16 -84 0
-74 -1 -79 -30 -103 -16 -14 -43 -28 -60 -32 -26 -6 -30 -11 -30 -41 0 -29 -3
-34 -24 -34 -13 0 -35 10 -50 21 -21 17 -30 19 -39 10 -9 -9 -8 -15 6 -22 14
-8 16 -14 6 -25 -6 -8 -17 -14 -24 -14 -8 0 -26 -7 -42 -15 -15 -8 -50 -17
-77 -21 -31 -3 -45 -9 -36 -14 17 -10 5 -40 -16 -40 -11 0 -14 -5 -10 -16 3
-9 6 -29 6 -45 l0 -29 35 20 c46 26 75 26 75 1 0 -11 -5 -23 -11 -26 -22 -14
70 -114 115 -125 24 -7 35 -55 16 -74 -8 -8 -16 -5 -30 12 -10 12 -24 22 -31
22 -6 0 -18 8 -25 17 -7 10 -15 15 -19 11 -4 -4 5 -22 19 -41 20 -26 23 -36
14 -45 -7 -7 -12 -24 -13 -40 0 -25 -3 -27 -39 -28 -43 0 -55 -14 -32 -33 12
-10 20 -10 38 3 44 31 87 12 71 -31 -6 -16 -4 -16 15 1 18 15 24 16 37 6 8 -7
15 -21 15 -31 0 -15 7 -19 33 -19 41 0 82 -38 73 -68 -5 -16 -1 -21 21 -25 38
-7 65 8 29 17 -27 7 -40 36 -34 77 2 19 10 25 34 27 26 3 33 -1 44 -27 6 -16
10 -36 8 -43 -3 -7 8 -21 24 -30 36 -23 38 -22 38 2 0 11 -5 20 -11 20 -6 0
-9 10 -7 23 4 28 32 29 36 0 4 -25 30 -39 46 -23 5 5 18 10 29 10 15 0 18 -6
15 -32 -3 -30 -6 -33 -41 -36 -22 -2 -41 -10 -44 -18 -3 -8 -13 -14 -23 -14
-14 0 -18 -7 -17 -27 2 -25 -2 -28 -38 -33 -43 -5 -94 -35 -81 -47 4 -4 16 -2
26 5 16 10 21 9 29 -7 13 -24 5 -31 -37 -31 -20 0 -43 -7 -53 -16 -14 -12 -22
-13 -39 -4 -24 13 -35 7 -35 -18 0 -18 -30 -22 -75 -8 -24 7 -24 6 -6 -8 24
-20 14 -46 -19 -46 -20 0 -25 -5 -25 -24 0 -13 -6 -29 -14 -35 -8 -7 -18 -26
-21 -43 -5 -23 -2 -35 15 -53 13 -14 20 -31 17 -39 -10 -25 -54 -19 -73 9 -18
27 -44 34 -44 11 0 -8 7 -16 15 -20 16 -6 20 -53 6 -75 -12 -19 -62 -5 -68 19
-4 16 -9 18 -24 9 -10 -5 -19 -19 -19 -31 0 -12 -7 -29 -16 -39 -17 -19 -11
-39 12 -39 8 0 14 -7 14 -15 0 -8 -7 -15 -15 -15 -8 0 -19 -9 -25 -20 -6 -11
-17 -20 -24 -20 -8 0 -17 -11 -20 -24 -4 -15 -16 -26 -32 -30 -25 -7 -25 -8
-9 -26 24 -26 10 -43 -31 -37 -37 6 -43 -3 -19 -27 17 -17 20 -57 5 -72 -7 -7
-4 -16 10 -29 37 -34 16 -60 -29 -35 -12 6 -17 17 -14 33 6 30 -29 42 -70 24
-33 -14 -35 -25 -5 -29 33 -4 37 -52 6 -78 -27 -23 -68 -26 -68 -6 0 8 4 18
10 21 12 8 13 45 1 45 -14 0 -41 -47 -41 -73 0 -14 -7 -30 -15 -37 -18 -15 -9
-34 11 -26 19 7 31 -23 14 -34 -15 -10 -6 -40 12 -40 7 0 18 10 23 22 6 13 21
25 35 26 23 4 22 5 -10 19 -33 14 -34 15 -16 29 11 8 26 14 33 14 8 0 25 7 38
16 32 21 45 15 70 -31 18 -35 18 -38 2 -50 -9 -7 -17 -16 -17 -21 0 -12 100
-11 101 1 1 6 2 15 4 20 1 6 3 16 3 24 2 11 16 13 73 8 39 -3 77 -11 85 -18 8
-6 27 -9 44 -6 22 5 28 3 24 -7 -6 -16 30 -41 72 -50 26 -6 32 -3 42 18 12 27
6 60 -9 50 -15 -9 -48 6 -59 26 -18 33 -3 48 48 46 45 -2 47 -3 45 -29 -2 -24
2 -27 29 -27 l30 0 -23 20 -24 20 30 25 c17 13 42 36 56 51 26 25 49 26 49 1
1 -13 35 -57 44 -57 3 0 6 20 6 44 0 36 5 47 26 61 22 14 31 15 55 5 26 -11
33 -10 63 14 19 14 44 26 55 26 14 0 21 6 21 19 0 24 19 38 30 21 5 -8 9 -7
13 4 9 24 57 19 91 -8 20 -16 27 -29 22 -41 -5 -14 -17 -16 -64 -14 -47 3 -63
0 -85 -18 -16 -12 -23 -24 -17 -28 5 -3 10 -13 10 -22 0 -11 -6 -14 -22 -10
-15 4 -33 -2 -54 -18 -18 -14 -40 -25 -49 -25 -20 0 -31 -28 -16 -43 20 -20
12 -36 -24 -43 -19 -3 -35 -12 -35 -19 0 -8 -6 -20 -13 -27 -26 -26 -38 -59
-32 -88 7 -33 -18 -80 -43 -80 -8 0 -23 -7 -33 -16 -17 -15 -20 -14 -49 15
-31 30 -32 30 -55 13 -14 -9 -25 -27 -25 -39 0 -13 -4 -23 -10 -23 -5 0 -10
-10 -10 -23 0 -28 -17 -47 -36 -40 -23 8 -17 61 7 68 12 4 19 14 17 23 -4 23
-68 25 -85 3 -9 -13 -14 -14 -24 -4 -19 19 -29 16 -29 -7 0 -11 -8 -28 -18
-38 -10 -10 -26 -29 -35 -42 -15 -22 -15 -25 0 -42 9 -10 22 -18 28 -18 20 0
26 -73 8 -87 -27 -21 -4 -35 27 -17 28 17 28 17 61 -21 19 -21 34 -43 34 -49
1 -18 18 -40 41 -53 17 -9 27 -9 48 2 22 12 31 12 47 2 19 -12 27 -57 10 -57
-6 0 -16 -12 -23 -27 -9 -19 -22 -29 -41 -31 -23 -3 -27 -8 -27 -37 0 -38 -24
-53 -49 -32 -16 13 -51 12 -51 -2 0 -3 7 -17 16 -29 12 -18 14 -29 5 -55 -8
-26 -8 -28 2 -13 32 49 50 66 71 66 41 0 48 -20 20 -57 l-25 -33 24 0 c14 0
27 7 31 15 6 17 24 19 45 6 11 -7 11 -15 2 -41 -9 -28 -9 -31 4 -20 8 7 27 10
41 7 18 -3 34 3 52 19 l27 23 -39 -6 c-35 -5 -39 -4 -33 11 4 10 7 28 7 41 0
16 10 28 31 39 30 15 31 15 26 -4 -8 -30 22 -25 33 6 13 34 13 34 -9 34 -47 0
-66 25 -37 50 19 15 71 -7 71 -30 0 -8 8 -23 18 -33 18 -18 18 -19 -2 -53 -12
-19 -21 -44 -21 -55 0 -11 -7 -22 -15 -25 -22 -9 -18 -26 4 -19 10 3 24 -1 31
-10 17 -20 33 -19 61 5 23 19 23 21 6 34 -21 17 -19 51 3 51 9 0 16 -11 18
-27 4 -30 19 -37 28 -13 4 9 19 15 35 15 25 0 29 -4 29 -27 0 -16 -9 -41 -21
-58 -11 -16 -24 -40 -29 -52 -11 -27 -27 -29 -58 -7 -13 9 -24 14 -25 13 -2
-2 -8 -11 -15 -20 -10 -13 -8 -15 11 -15 19 1 22 -5 25 -48 2 -37 -1 -52 -12
-58 -26 -15 -18 -34 22 -51 48 -20 102 -29 102 -17 0 6 -4 10 -8 10 -11 0 -32
45 -32 69 0 19 39 61 58 61 6 0 20 -10 32 -22 24 -26 31 -20 39 29 5 29 11 39
28 41 28 4 41 41 19 54 -23 13 -20 27 13 59 25 24 27 30 15 40 -11 9 -12 15
-3 25 18 22 41 17 65 -13 20 -25 24 -26 46 -14 44 23 71 11 86 -36 13 -39 16
-42 43 -36 20 4 35 0 48 -11 16 -15 19 -15 24 -2 4 10 -1 16 -16 18 -15 2 -23
11 -25 28 -3 23 2 26 45 36 59 14 76 9 69 -21 -5 -18 -1 -24 19 -29 27 -7 45
-50 27 -68 -6 -6 -25 -11 -42 -10 -27 1 -30 -3 -32 -31 -1 -18 0 -49 1 -69 2
-34 -1 -39 -33 -55 -28 -13 -41 -14 -60 -5 -36 16 -51 -6 -31 -44 8 -16 15
-34 15 -41 0 -17 -39 -26 -55 -13 -12 10 -15 9 -15 -8 0 -48 -29 -70 -48 -36
-6 11 -11 13 -16 5 -8 -12 -77 -5 -107 10 -8 4 -21 4 -28 -1 -10 -6 -6 -11 14
-21 25 -12 29 -20 31 -67 2 -43 -1 -56 -19 -72 -28 -26 -41 -25 -57 5 -7 14
-20 25 -28 25 -10 0 -6 -9 12 -25 20 -18 26 -31 20 -43 -4 -9 -8 -27 -9 -40
-3 -37 -19 -46 -53 -28 -36 19 -42 14 -42 -35 0 -22 -6 -41 -14 -46 -8 -4 -15
-17 -17 -28 -6 -28 -45 -32 -58 -6 -12 22 -41 19 -41 -4 0 -7 -9 -34 -20 -59
-16 -38 -24 -46 -46 -46 -34 0 -74 -38 -74 -72 0 -19 13 -37 51 -69 50 -42 51
-43 28 -52 -24 -8 -24 -9 -4 -23 41 -30 61 -3 64 89 1 27 -3 37 -14 37 -9 0
-19 8 -22 18 -4 9 -11 20 -16 23 -14 10 -1 39 17 39 35 0 64 -19 59 -38 -4
-15 2 -21 26 -25 17 -4 37 -4 45 -1 8 3 21 -4 29 -16 9 -14 20 -19 28 -15 7 5
23 -5 41 -26 24 -29 29 -32 38 -18 5 9 22 20 37 24 24 6 26 8 10 16 -24 14
-10 32 20 24 16 -4 32 1 50 15 27 21 68 27 78 10 9 -15 19 -12 45 10 12 11 31
22 41 25 11 4 19 15 19 25 0 14 10 20 40 25 23 4 46 3 53 -2 7 -6 23 -7 37 -3
20 5 24 11 22 34 -4 28 -3 29 38 23 31 -4 39 -2 31 6 -6 6 -11 21 -11 33 0 12
-6 25 -12 28 -7 4 4 4 25 2 45 -6 67 -21 67 -47 0 -11 4 -19 8 -19 5 0 8 18 8
41 -1 38 1 42 34 53 19 6 39 21 45 34 5 12 17 22 27 22 9 0 20 5 23 10 8 14
68 13 82 -1 9 -9 16 -8 28 5 10 9 33 16 58 17 41 0 42 0 19 16 -12 8 -22 24
-22 34 0 24 -13 31 -41 20 l-24 -8 23 -7 c30 -10 28 -34 -3 -42 -35 -9 -39 -2
-42 67 -2 48 1 61 14 66 9 4 21 -1 28 -10 7 -10 20 -17 29 -17 10 0 31 -14 48
-30 18 -19 40 -30 57 -30 15 0 32 -5 38 -11 8 -8 17 -8 31 0 11 6 30 11 42 11
17 0 19 3 10 19 -11 21 -9 23 39 48 34 19 54 15 74 -13 24 -33 19 -59 -13 -59
-20 0 -24 4 -22 23 2 15 -2 22 -12 22 -9 0 -16 -7 -16 -15 0 -9 -6 -18 -14
-21 -8 -3 -18 -24 -21 -45 -9 -51 -40 -69 -89 -51 -38 14 -90 16 -82 3 3 -5
15 -7 25 -4 25 6 43 -27 39 -70 -2 -27 -8 -33 -30 -35 -16 -2 -28 1 -28 7 0 6
-9 11 -21 11 -14 0 -19 -5 -17 -17 2 -11 11 -17 21 -15 24 4 35 -28 14 -40
-24 -13 -21 -41 8 -68 14 -13 25 -27 25 -30 0 -4 16 -25 35 -46 42 -45 44 -61
9 -70 -31 -8 -41 2 -46 41 -2 21 -11 34 -30 43 -16 7 -28 17 -28 23 0 5 -12 9
-26 9 -25 0 -25 -2 -19 -41 5 -30 3 -45 -9 -58 -15 -16 -13 -19 20 -34 28 -14
34 -21 29 -37 -5 -16 -2 -20 15 -20 13 0 24 -8 27 -20 7 -26 19 -26 26 1 4 15
12 20 28 17 31 -4 34 -22 8 -47 -18 -16 -20 -24 -11 -33 9 -9 12 -9 12 -1 0 7
10 15 23 19 12 4 28 15 35 26 13 17 15 17 43 -12 25 -24 34 -28 50 -20 15 8
21 7 25 -4 3 -8 15 -16 26 -19 16 -5 19 -11 14 -31 -6 -23 -3 -26 19 -26 52 0
102 23 113 52 12 32 51 39 72 13 11 -13 14 -13 26 2 18 24 17 33 -2 33 -24 0
-12 35 14 38 12 2 22 -1 22 -7 0 -6 9 -11 20 -11 15 0 20 7 20 25 0 15 6 25
14 25 8 0 18 9 21 21 9 29 40 20 39 -11 -1 -26 29 -60 52 -60 7 0 18 -9 24
-20 10 -19 11 -19 30 0 24 24 46 26 58 4 8 -15 10 -15 15 0 10 25 75 21 104
-6 18 -16 26 -19 35 -10 9 9 7 13 -5 18 -9 3 -17 13 -17 21 0 10 -7 14 -20 10
-13 -3 -25 2 -34 15 -14 19 -14 19 -24 1 -10 -17 -12 -17 -39 -1 -22 13 -28
24 -28 50 0 31 2 33 35 33 29 0 36 -4 38 -22 4 -28 23 -30 40 -3 18 30 40 24
64 -16 21 -35 21 -35 32 -12 6 12 20 24 31 27 11 2 24 9 28 17 9 15 77 20 77
5 0 -5 12 -11 28 -13 19 -2 33 4 48 21 17 20 24 22 41 12 24 -12 63 -15 63 -4
0 4 -9 16 -20 28 -101 103 -114 140 -50 140 32 0 35 -3 40 -34 4 -30 10 -36
39 -44 19 -5 46 -17 59 -28 27 -20 42 -24 42 -10 0 5 -9 11 -20 14 -30 8 -26
45 6 57 31 12 74 13 74 2 0 -4 -5 -13 -11 -19 -8 -8 -5 -14 10 -22 12 -7 21
-20 21 -31 0 -14 9 -21 35 -26 22 -4 37 -13 41 -27 6 -20 7 -20 25 4 30 39 21
63 -26 69 -38 5 -40 7 -43 43 -3 32 0 37 17 37 11 0 36 -14 54 -30 19 -17 40
-30 46 -30 7 0 18 -14 25 -31 8 -19 16 -27 20 -20 14 22 69 12 94 -16 15 -19
25 -24 28 -15 3 6 23 12 44 12 21 0 43 6 50 15 7 8 22 15 35 15 14 0 26 9 34
26 15 34 45 28 49 -9 3 -22 -1 -30 -17 -34 -12 -3 -21 -14 -21 -25 0 -16 5
-18 38 -12 20 3 42 12 48 20 15 19 24 18 50 -7 25 -23 44 -18 44 11 0 28 11
51 21 44 5 -3 9 -19 9 -35 0 -35 27 -51 45 -26 7 10 18 17 25 17 8 0 10 8 6
25 -5 18 0 31 15 46 21 21 21 25 10 87 -11 57 -10 65 5 77 9 6 14 17 10 23 -4
6 -1 20 6 31 7 11 9 23 6 27 -12 11 -28 -7 -28 -31 0 -18 -16 -35 -35 -35 -2
0 -9 16 -15 35 -13 39 -42 47 -59 18 -6 -10 -11 -13 -11 -6 0 6 -10 13 -22 15
-14 2 -24 12 -28 28 -7 31 -50 39 -85 16 -13 -9 -36 -16 -50 -16 -15 0 -25 -6
-25 -14 0 -22 -17 -28 -40 -16 -16 9 -25 8 -36 -1 -10 -8 -18 -8 -27 0 -15 11
-37 -3 -37 -24 0 -7 -12 -10 -30 -7 -26 4 -30 8 -30 37 0 38 -14 47 -49 31
-19 -8 -26 -7 -36 7 -14 20 -65 23 -83 5 -9 -9 -17 -10 -30 -2 -13 8 -27 7
-57 -6 -41 -18 -40 -19 10 -35 40 -12 0 -35 -62 -35 -26 0 -33 -4 -33 -20 0
-15 7 -20 25 -20 33 0 45 -28 20 -46 -27 -20 -56 -17 -62 5 -3 12 -17 21 -41
25 -52 8 -72 7 -72 -3 0 -10 34 -22 70 -24 15 -1 26 -9 28 -20 5 -25 -15 -46
-38 -40 -24 6 -26 -9 -5 -27 18 -15 11 -30 -15 -30 -23 0 -37 24 -46 80 -7 43
-9 44 -59 25 -16 -7 -18 -6 -7 6 6 7 12 23 12 35 0 28 16 39 35 24 18 -15 33
-5 45 26 8 20 16 24 50 24 l40 0 -21 21 c-15 15 -24 18 -33 10 -10 -8 -21 -5
-41 11 -20 15 -30 18 -33 10 -5 -17 -62 -15 -76 2 -6 8 -26 17 -43 21 -28 6
-33 4 -33 -13 0 -21 -32 -47 -65 -54 -11 -2 -20 -11 -20 -21 0 -49 -62 -29
-97 31 -27 45 -25 74 5 107 24 25 31 27 48 17 16 -10 19 -9 19 7 0 30 18 35
105 33 69 -2 77 -1 61 11 -13 9 -17 21 -14 35 4 13 0 23 -8 26 -14 6 -20 36
-6 37 114 9 142 9 142 -1 0 -17 14 -11 34 17 17 23 18 26 2 35 -24 13 -19 37
10 48 33 13 32 14 26 -15 -3 -19 0 -25 13 -25 10 0 24 -8 31 -17 12 -16 13
-15 14 13 0 34 -26 94 -41 94 -5 0 -9 11 -9 25 0 14 -7 28 -15 31 -8 4 -15 14
-15 24 0 10 -7 23 -15 30 -8 7 -15 18 -15 26 0 7 -6 19 -13 26 -6 7 -20 31
-31 53 -10 22 -22 47 -27 55 -4 8 -26 51 -49 95 -22 44 -50 94 -60 110 -11 17
-25 41 -30 55 -6 13 -14 27 -18 30 -10 8 -42 70 -42 83 0 10 -30 80 -51 119
-5 10 -9 28 -9 41 0 13 -7 32 -15 43 -8 10 -15 28 -15 39 0 11 -7 33 -15 49
-8 15 -15 43 -15 60 0 18 -7 41 -15 52 -8 10 -15 37 -15 60 0 22 -7 49 -15 60
-9 12 -14 42 -15 80 0 33 -7 83 -15 110 -21 69 -21 416 0 494 8 30 15 78 15
106 0 28 7 68 15 87 8 20 15 52 15 70 0 19 7 40 15 47 8 7 15 27 15 44 0 17 7
40 15 50 8 11 15 30 15 43 0 13 4 23 9 23 5 0 13 12 19 28 5 15 21 34 36 42
24 12 29 12 37 0 11 -16 7 -63 -10 -125 -6 -22 -11 -68 -11 -101 0 -34 -6 -92
-14 -130 -21 -100 -40 -349 -33 -430 18 -202 28 -287 37 -304 6 -10 10 -40 10
-67 1 -26 7 -59 15 -73 8 -14 14 -38 15 -55 0 -16 7 -43 15 -59 8 -15 15 -43
15 -61 0 -18 7 -38 15 -45 8 -7 15 -25 15 -39 0 -15 7 -36 15 -47 8 -10 15
-30 15 -42 0 -13 6 -36 13 -50 27 -53 45 -98 51 -125 4 -15 11 -27 16 -27 6 0
10 -17 10 -37 0 -21 7 -51 15 -67 8 -15 15 -37 15 -47 0 -18 18 -66 46 -122 8
-16 14 -37 14 -48 0 -11 7 -22 15 -25 8 -4 15 -15 15 -26 0 -18 7 -34 41 -98
4 -8 20 -39 35 -68 35 -68 58 -81 88 -53 24 22 61 28 71 10 10 -14 42 16 49
47 5 19 13 24 37 24 17 0 39 5 51 11 16 9 24 7 44 -12 13 -12 26 -30 30 -41 6
-19 34 -26 34 -8 0 6 6 10 14 10 24 0 30 20 10 34 -17 13 -12 36 7 36 5 0 23
-14 39 -30 45 -46 68 -39 31 9 -26 34 -16 51 30 51 21 0 39 5 39 10 0 12 47
13 54 1 3 -4 -6 -19 -19 -31 -30 -28 -32 -40 -5 -40 11 0 20 7 20 15 0 9 9 15
25 15 14 0 25 -5 25 -12 0 -6 3 -8 7 -5 3 4 -2 16 -11 26 -23 25 -17 53 12 66
20 9 22 15 16 52 -5 36 -3 43 10 43 9 0 16 -8 16 -19 0 -13 9 -21 30 -26 36
-8 50 0 50 27 0 11 8 22 20 25 33 9 11 24 -26 17 -27 -5 -34 -3 -34 10 0 8 9
20 19 26 11 5 21 20 23 32 4 29 41 31 47 3 2 -11 8 -23 15 -27 6 -4 11 -24 11
-45 0 -33 3 -38 25 -41 24 -3 24 -3 5 11 -15 12 -19 24 -16 58 5 68 34 74 66
15 15 -27 22 -32 44 -28 14 3 34 13 44 23 19 20 44 16 64 -9 15 -18 28 -10 20
11 -3 8 -22 17 -41 21 -32 6 -36 10 -36 36 0 32 9 37 27 19 15 -15 33 -3 33
23 0 20 15 21 64 2 12 -4 16 0 16 15 0 29 29 39 46 16 21 -28 17 -44 -13 -51
-31 -8 -43 -20 -43 -46 0 -26 18 -22 22 5 3 22 13 24 55 12 17 -6 22 -2 25 17
2 16 11 24 28 27 42 5 55 45 18 54 -18 5 -19 8 -8 22 19 23 54 15 58 -13 2
-12 12 -27 23 -32 11 -6 19 -21 19 -35 0 -14 5 -25 10 -25 6 0 10 9 10 20 0
13 10 24 25 30 19 7 25 17 25 39 0 44 10 61 35 61 23 0 23 1 8 30 -12 25 -12
34 -3 45 10 12 16 13 26 4 11 -9 18 -8 29 1 8 7 24 10 36 7 28 -7 38 22 13 37
-10 6 -50 11 -89 11 -56 0 -70 3 -73 16 -2 12 7 18 37 23 22 3 44 14 49 23 11
20 42 11 42 -12 0 -11 7 -15 23 -13 16 2 22 10 22 30 1 36 12 45 35 30 16 -10
20 -8 25 8 15 46 79 5 73 -47 -2 -21 -9 -29 -28 -31 -34 -5 -70 -40 -70 -68 0
-35 21 -73 36 -67 10 3 16 -5 20 -26 4 -17 10 -31 15 -31 12 0 11 47 -1 55
-17 10 -12 82 6 89 33 13 43 6 46 -31 2 -20 9 -39 17 -41 10 -3 12 3 9 27 -7
50 17 61 52 23 23 -26 29 -28 34 -15 4 9 -3 35 -15 60 -22 45 -20 73 5 73 19
0 46 -55 46 -92 0 -15 5 -28 10 -28 6 0 10 18 10 39 0 22 -4 43 -10 46 -34 21
11 72 51 60 15 -5 25 -1 35 14 9 12 25 21 37 21 21 1 21 1 3 15 -17 13 -18 16
-3 47 16 34 13 128 -4 128 -9 0 -12 -9 -13 -50 -1 -22 -6 -25 -40 -28 -54 -5
-64 10 -27 41 37 31 38 37 7 37 -29 0 -61 51 -43 69 6 6 8 14 4 18 -4 3 -13 0
-20 -9 -6 -9 -25 -19 -40 -22 -16 -4 -39 -17 -52 -30 -13 -13 -30 -26 -37 -28
-7 -3 -13 -15 -13 -29 0 -29 -35 -38 -58 -15 -18 18 -57 21 -57 5 0 -5 -12
-14 -27 -20 -20 -6 -28 -17 -29 -34 -4 -55 -55 -75 -76 -30 -17 37 -36 30 -48
-16 -11 -41 -12 -41 -50 -35 -21 3 -50 2 -64 -4 -14 -5 -44 -6 -68 -2 -34 6
-44 12 -46 30 -4 23 -16 29 -27 12 -10 -17 -25 -11 -25 10 0 11 4 20 9 20 5 0
11 9 14 20 6 24 29 26 47 5 15 -18 36 -20 45 -4 9 13 -32 58 -63 70 -13 5 -20
13 -17 19 8 13 42 13 50 0 3 -5 16 -10 29 -10 12 0 27 -5 34 -12 7 -7 30 -13
52 -14 38 -2 40 0 34 19 -12 39 -9 52 13 55 17 3 24 -3 29 -22 7 -29 48 -37
58 -11 7 19 43 19 81 -1 18 -9 25 -10 18 -3 -20 20 -16 49 7 49 11 0 20 5 20
11 0 7 -7 8 -17 4 -33 -14 -63 -17 -63 -8 0 23 39 42 98 49 34 3 62 7 62 8 0
1 -4 15 -9 32 -8 29 -7 30 14 26 17 -3 25 2 30 17 5 16 12 20 26 16 15 -5 19
-1 19 19 0 49 54 46 64 -4 6 -34 31 -40 52 -12 19 25 17 32 -8 32 -52 1 -60
42 -12 61 28 10 33 49 7 49 -16 0 -18 9 -15 67 l2 68 -29 -34 c-26 -29 -33
-32 -63 -26 -18 4 -39 12 -46 18 -10 8 -16 7 -20 -1 -29 -46 -142 -82 -142
-45 0 13 -3 14 -12 5 -7 -7 -22 -12 -34 -12 -13 0 -26 -5 -29 -10 -11 -18 -34
-10 -37 13 -3 19 -9 22 -53 22 -28 1 -56 4 -63 9 -6 4 -12 3 -12 -3 0 -5 10
-11 23 -13 26 -4 31 -46 7 -58 -8 -4 -30 -14 -48 -23 -19 -10 -38 -15 -42 -12
-16 10 -24 97 -11 117 9 15 8 20 -5 25 -11 4 -14 13 -10 29 8 30 -8 31 -28 2
-15 -21 -16 -22 -29 -3 -9 11 -20 16 -31 12 -9 -4 -16 -2 -16 4 0 5 6 12 14
15 24 9 -2 54 -30 54 -31 0 -40 -34 -18 -68 10 -15 17 -37 15 -49 -1 -14 6
-27 23 -38 20 -13 24 -24 24 -61 0 -24 -4 -46 -9 -50 -17 -10 -50 7 -47 24 2
9 -5 25 -15 35 -17 17 -19 17 -46 -3 -16 -11 -36 -20 -45 -20 -8 0 -19 -7 -24
-16 -8 -14 -12 -14 -32 -3 -18 11 -24 11 -27 2 -7 -18 -33 -16 -33 2 0 8 -4
15 -10 15 -5 0 -10 -7 -10 -15 0 -8 5 -15 10 -15 17 0 11 -21 -12 -41 -25 -20
-73 -25 -83 -8 -4 6 2 17 14 25 28 20 28 46 0 42 -24 -3 -45 22 -36 44 8 22
114 31 141 12 28 -19 49 -18 76 6 13 11 37 20 53 20 l31 0 -38 35 c-23 21 -49
35 -64 35 -24 0 -24 -1 -8 -19 24 -27 3 -38 -69 -37 -52 1 -60 4 -63 21 -4 29
49 49 71 28 21 -21 40 -8 25 17 -9 14 -9 22 0 32 7 8 7 19 2 28 -5 9 -5 19 2
27 9 11 21 2 59 -38 45 -48 51 -51 74 -41 31 14 33 40 3 44 -19 2 -23 9 -23
38 0 41 32 57 42 21 8 -31 23 -25 23 10 0 24 6 32 29 40 16 6 32 17 35 25 9
22 -12 54 -34 54 -10 0 -21 4 -25 9 -7 13 22 28 65 34 19 2 27 2 18 0 -26 -6
-22 -33 5 -32 12 1 31 -2 41 -6 16 -7 18 -5 11 11 -11 28 -7 76 9 94 8 8 16
28 18 44 2 22 10 32 32 39 25 8 31 6 51 -18 13 -17 24 -24 28 -18 9 15 -1 40
-19 47 -16 6 -19 36 -4 36 14 0 12 20 -5 53 -13 25 -12 29 4 39 12 7 16 19 13
34 -3 17 0 24 12 24 9 0 16 -8 16 -19 0 -14 10 -21 33 -26 17 -4 42 -16 54
-28 l22 -20 10 26 c7 19 15 24 30 20 12 -3 21 -1 21 6 0 6 -9 11 -21 11 -26 0
-20 24 7 28 32 6 40 22 11 22 -20 0 -27 5 -27 20 0 25 27 37 49 23 9 -5 20
-27 25 -47 5 -24 17 -41 32 -48 13 -6 26 -18 29 -28 3 -11 17 -16 41 -17 34
-1 35 0 18 18 -22 25 -7 42 32 37 20 -2 30 -11 37 -32 9 -28 5 -35 -28 -50 -5
-3 2 -16 17 -29 14 -13 28 -33 30 -43 3 -14 11 -18 33 -16 39 4 54 19 29 28
-21 8 -64 50 -64 63 0 16 47 51 68 51 17 0 22 6 22 26 0 22 3 25 22 21 16 -5
29 2 50 25 15 17 25 35 22 39 -10 16 -24 9 -34 -16 -12 -33 -49 -33 -80 -1
-38 42 -4 81 48 55 29 -14 62 -20 74 -13 12 7 -3 34 -18 34 -8 0 -14 3 -14 8
0 4 -10 12 -22 17 -32 14 -29 39 5 43 19 2 27 9 27 23 0 20 -15 26 -24 10 -3
-5 -22 -9 -41 -9 -28 0 -35 4 -35 19 0 20 15 26 24 10 7 -11 46 -2 46 10 0 5
-11 9 -24 9 -15 0 -27 7 -31 19 -5 17 -8 16 -36 -10 -52 -49 -66 -30 -27 36
17 30 19 38 8 45 -20 13 -30 3 -30 -30 0 -24 -8 -35 -40 -55 -42 -27 -65 -31
-75 -15 -3 6 -20 10 -36 10 -16 0 -32 6 -35 14 -3 8 -21 22 -40 31 -35 16 -44
41 -22 63 15 15 58 16 58 2 0 -5 7 -10 15 -10 11 0 15 12 15 44 0 46 12 63 41
58 10 -2 19 6 22 18 6 24 48 27 67 5 11 -13 9 -20 -10 -40 -22 -23 -22 -25 -6
-50 21 -33 36 -24 36 22 0 22 6 41 17 48 14 10 15 19 7 56 -8 38 -13 44 -33
41 -31 -3 -55 16 -41 33 6 7 20 11 30 8 23 -6 27 15 5 23 -20 8 -19 31 1 42
22 12 14 47 -11 47 -15 0 -19 -7 -19 -34 -1 -31 -6 -37 -48 -59 -47 -24 -79
-23 -58 3 13 16 7 94 -11 134 -10 22 -21 31 -44 33 -25 2 -31 8 -35 33 -3 18
-12 31 -23 33 -15 3 -17 -1 -11 -22 5 -23 3 -26 -20 -26 -19 0 -29 7 -35 24
-5 13 -17 26 -25 29 -13 5 -16 -1 -16 -28 0 -33 -2 -35 -34 -35 -42 0 -66 23
-39 39 17 9 17 11 -2 25 -25 19 -36 20 -29 3 4 -12 -37 -49 -83 -74 -28 -14
-30 -2 -9 39 8 15 12 36 9 48 -4 16 1 21 26 26 21 5 31 12 31 25 0 25 -48 26
-66 2 -12 -17 -14 -17 -30 -1 -15 15 -15 17 4 27 20 10 20 13 7 45 -14 34 -14
34 20 60 39 30 57 32 76 10 11 -13 11 -21 -3 -44 -15 -27 -15 -30 1 -44 22
-20 97 -21 104 -2 9 23 95 19 107 -5 15 -28 44 -25 36 4 -3 12 -6 28 -6 35 0
6 -6 12 -14 12 -7 0 -19 7 -26 15 -8 9 -21 13 -36 9 -21 -6 -24 -3 -24 25 0
37 22 42 38 9 9 -21 11 -18 11 20 1 37 -2 42 -21 42 -21 0 -21 0 -2 21 l19 21
9 -21 c5 -12 15 -21 23 -21 24 0 38 -47 23 -75 -7 -14 -11 -27 -9 -30 3 -2 31
-7 63 -11 57 -7 58 -7 54 17 -2 18 -10 25 -30 27 -37 4 -37 32 -1 32 18 0 37
-12 58 -34 17 -19 45 -38 61 -42 28 -7 28 -6 -11 27 -67 57 -175 167 -175 178
0 5 -6 14 -13 18 -10 7 -47 60 -115 168 -6 11 -15 27 -18 35 -3 8 -12 28 -20
43 -7 16 -14 39 -14 52 0 12 -7 28 -15 35 -8 7 -15 27 -15 45 0 18 -7 49 -15
68 -12 28 -15 82 -15 242 0 160 3 214 15 242 8 19 15 52 15 73 0 21 7 43 15
50 8 7 15 23 15 35 0 13 6 36 14 52 8 15 29 59 48 96 29 60 36 68 58 65 23 -3
25 -6 22 -52 -2 -27 -10 -56 -18 -63 -8 -8 -14 -28 -14 -44 0 -17 -5 -40 -12
-52 -6 -12 -15 -42 -19 -67 -4 -25 -12 -63 -18 -85 -14 -52 -14 -348 0 -400 6
-22 14 -59 18 -83 4 -24 13 -48 19 -54 7 -7 12 -24 12 -38 0 -14 7 -35 15 -46
8 -10 15 -29 15 -41 0 -12 5 -25 11 -28 5 -4 15 -17 20 -28 19 -42 37 -68 95
-143 49 -63 61 -72 70 -59 14 19 44 20 44 0 0 -9 9 -15 25 -15 22 0 25 -3 19
-25 -5 -19 -2 -25 10 -25 9 0 16 4 16 9 0 20 -23 117 -32 137 -7 15 -5 32 7
60 10 21 21 71 26 109 8 70 21 141 41 225 11 45 15 70 37 210 7 41 19 103 27
137 8 34 14 79 14 100 0 21 7 63 15 93 21 78 21 517 0 575 -8 22 -15 46 -15
52 0 7 -16 47 -36 90 -39 83 -138 193 -173 193 -10 0 -24 7 -31 15 -7 8 -21
15 -32 15 -11 0 -26 7 -34 15 -9 8 -26 15 -39 15 -12 0 -36 7 -51 15 -16 8
-42 15 -59 15 -16 1 -41 7 -55 15 -14 8 -48 14 -76 15 -28 0 -71 7 -94 15 -23
8 -62 15 -86 15 -35 0 -47 5 -60 25 -14 21 -14 28 -3 41 10 12 26 15 73 11 72
-5 193 -23 256 -39 25 -5 72 -14 105 -18 86 -12 225 -56 247 -78 7 -7 20 -12
30 -12 42 0 198 -185 198 -234 0 -7 7 -19 15 -26 8 -7 15 -24 15 -37 0 -14 6
-37 14 -51 40 -77 60 -436 32 -561 -9 -39 -16 -94 -16 -123 0 -29 -7 -75 -15
-102 -8 -27 -15 -75 -15 -106 0 -32 -7 -71 -15 -86 -8 -16 -15 -54 -15 -84 0
-31 -5 -61 -10 -66 -6 -6 -13 -42 -16 -80 -3 -38 -12 -87 -20 -109 -11 -35
-23 -135 -26 -242 -1 -22 6 -40 24 -58 23 -23 26 -34 25 -83 -2 -47 1 -57 16
-60 13 -3 17 3 17 22 0 14 -4 26 -10 26 -13 0 -13 37 0 45 5 3 10 18 10 33 0
41 15 59 34 43 9 -8 16 -20 16 -27 0 -17 12 -18 28 -2 6 6 38 12 72 12 54 1
60 3 60 22 0 11 14 33 30 47 17 15 30 36 30 47 0 29 -13 25 -33 -10 -12 -20
-26 -30 -43 -30 -13 0 -24 -4 -24 -10 0 -5 -11 -12 -24 -16 -14 -3 -27 -12
-30 -20 -6 -15 -46 -20 -46 -6 0 5 -16 25 -35 45 -39 40 -45 66 -16 74 23 6
36 49 21 68 -7 9 -7 21 0 39 8 22 14 26 33 20 12 -4 33 -18 45 -32 19 -20 26
-22 33 -11 5 8 9 17 9 20 0 3 11 11 25 17 28 13 40 2 30 -28 -5 -14 -2 -20 9
-20 11 0 16 9 16 29 0 17 6 31 16 35 13 5 15 19 12 74 l-3 67 31 3 c18 2 36
-3 43 -12 11 -13 15 -12 34 8 27 30 75 42 83 22 3 -8 14 -16 25 -19 13 -4 19
-14 19 -33 0 -26 0 -27 20 -9 12 11 20 31 20 50 0 44 23 62 59 48 21 -8 34 -7
52 3 l24 13 -31 1 c-33 0 -48 18 -34 40 8 12 50 10 113 -5 21 -6 27 -4 27 8 0
22 36 40 82 40 34 0 38 2 38 26 0 28 38 76 68 86 11 3 22 18 26 35 6 32 30 40
40 14 4 -10 14 -14 24 -12 10 3 27 -1 37 -8 24 -18 52 -18 62 0 4 8 17 15 27
17 26 5 33 29 8 29 -25 0 -32 18 -21 48 8 22 13 23 52 17 23 -4 46 -11 50 -15
12 -11 47 0 47 15 0 7 -7 18 -15 25 -8 7 -15 23 -15 36 0 13 -5 24 -11 24 -6
0 -9 -9 -6 -20 7 -28 -15 -54 -40 -46 -39 12 -40 56 -2 56 24 0 24 11 0 41
-17 21 -17 25 -4 46 18 27 38 30 47 8 4 -13 10 -14 26 -5 29 15 25 38 -7 42
-24 3 -28 8 -31 39 -2 25 2 38 12 42 9 4 18 2 21 -3 11 -18 25 -10 25 14 0 13
-7 29 -15 36 -17 14 -46 6 -43 -12 2 -8 -9 -14 -24 -16 -20 -2 -28 1 -28 12 0
8 5 16 12 18 9 3 9 6 0 12 -8 5 -16 -3 -23 -23 -8 -24 -17 -31 -37 -31 -14 0
-33 7 -43 16 -25 23 -161 23 -184 0 -9 -9 -25 -16 -36 -16 -16 0 -19 -5 -14
-19 3 -11 1 -22 -5 -26 -15 -9 -60 41 -67 75 -3 16 -11 31 -19 34 -8 3 -14 14
-14 25 0 11 -6 21 -12 24 -8 2 -9 8 -4 13 5 5 11 4 13 -3 3 -7 14 -13 25 -13
10 0 34 -16 52 -35 19 -19 38 -35 43 -35 5 0 20 11 33 25 23 24 23 25 5 45
-11 12 -31 20 -50 20 -34 0 -45 13 -45 51 0 20 7 22 52 19 35 -2 45 17 19 41
-12 11 -21 26 -21 34 0 9 -6 12 -15 9 -8 -4 -15 -3 -15 0 0 15 31 66 40 66 10
0 42 61 36 68 -3 2 -26 1 -52 -3 -32 -4 -43 -10 -36 -17 7 -7 4 -21 -10 -45
-28 -46 -52 -41 -56 12 -2 22 -10 55 -18 73 -19 40 -13 58 21 74 21 9 25 16
20 39 -4 18 -1 32 10 43 14 13 15 20 5 31 -10 13 -15 11 -30 -8 l-18 -22 -12
30 c-9 25 -8 31 6 42 10 7 24 13 31 13 7 0 13 7 13 15 0 8 6 15 14 15 8 0 16
-7 20 -15 9 -24 26 -17 26 11 0 17 6 28 19 31 15 4 18 10 12 26 -7 18 -15 21
-42 19 -19 -2 -42 -11 -51 -19 -22 -20 -53 -13 -53 12 0 15 6 20 24 19 22 -1
61 26 61 42 0 4 -21 3 -46 -1 l-47 -7 5 32 c4 24 -1 39 -17 56 l-22 24 -15
-22 c-13 -19 -18 -21 -30 -10 -18 14 -48 6 -48 -13 0 -17 -31 -28 -54 -19 -10
4 -16 15 -14 28 2 17 9 20 37 18 22 -3 31 0 26 7 -13 22 6 72 31 81 16 6 22
14 18 25 -9 21 -50 16 -46 -6 1 -9 -10 -24 -24 -34 -22 -14 -30 -15 -50 -4
-23 12 -31 38 -17 53 4 4 8 17 8 29 0 15 7 23 22 25 32 5 47 26 28 42 -8 7
-15 21 -15 31 0 14 7 19 29 19 38 0 48 -16 25 -41 -17 -18 -16 -19 10 -19 22
0 30 -7 39 -30 8 -21 18 -30 34 -30 32 0 29 24 -4 40 -16 8 -29 15 -31 16 -8
5 31 54 43 54 7 0 16 -15 21 -32 6 -19 17 -34 28 -36 14 -3 17 0 13 12 -7 19
18 47 37 40 7 -3 19 2 26 11 29 35 80 2 80 -52 0 -17 -6 -34 -12 -36 -10 -4
-10 -6 0 -6 6 -1 22 10 34 24 12 14 27 25 33 25 6 0 18 9 27 20 12 13 29 19
51 18 19 -1 39 2 45 6 22 13 12 26 -18 26 -25 0 -30 4 -30 25 0 21 9 30 42 45
l43 19 26 -28 c14 -16 40 -36 57 -45 33 -17 34 -33 5 -68 -21 -23 -8 -41 17
-25 12 7 20 23 20 39 0 47 19 76 56 82 31 6 52 22 41 32 -2 2 -28 -1 -57 -7
-63 -13 -75 -5 -66 45 7 38 36 51 36 17 0 -11 5 -23 10 -26 6 -3 10 1 10 10 0
10 12 26 26 37 18 15 22 24 15 31 -6 6 -11 19 -11 29 0 9 -6 21 -14 25 -8 4
-17 28 -20 52 -2 24 -14 53 -25 65 -12 12 -21 30 -21 39 0 9 -4 17 -10 17 -5
0 -10 -7 -10 -15 0 -9 -6 -18 -14 -21 -8 -3 -16 -14 -19 -24 -2 -10 -18 -21
-35 -24 -19 -5 -29 -13 -28 -24 1 -12 -8 -18 -26 -20 -32 -4 -37 14 -10 34 16
11 14 13 -13 24 -27 11 -29 13 -12 24 25 19 21 26 -12 26 -17 0 -33 5 -36 10
-3 6 -21 10 -39 10 -30 0 -32 -2 -28 -30 3 -21 0 -32 -12 -36 -23 -9 -30 1
-29 41 1 39 -3 41 -31 20 -12 -9 -42 -15 -78 -15 -60 0 -78 13 -78 56 0 10 -7
25 -16 35 -18 20 -11 39 13 39 11 0 14 -7 11 -24 -4 -21 0 -25 26 -29 34 -5
86 19 86 40 0 16 -12 17 -26 3 -8 -8 -15 -6 -23 4 -10 12 -10 23 -1 51 6 19
16 35 20 35 5 0 7 7 4 15 -9 24 -42 18 -46 -7 -4 -30 -27 -33 -58 -7 -24 21
-24 21 -5 36 19 13 19 15 3 27 -21 15 -23 37 -6 54 14 14 58 16 58 3 0 -16 30
-41 50 -41 16 0 17 3 7 25 -7 14 -20 25 -30 25 -22 0 -39 40 -24 58 6 7 22 12
36 10 20 -2 27 -9 29 -29 2 -17 11 -29 23 -32 16 -4 19 0 19 29 0 20 5 34 13
35 28 3 62 -4 68 -12 3 -5 14 -7 23 -3 11 4 21 1 26 -7 5 -7 12 -10 17 -6 4 5
3 11 -3 15 -13 9 -16 92 -3 92 5 0 9 9 9 20 0 25 35 27 61 4 10 -9 38 -16 66
-17 41 -2 48 -5 48 -22 0 -16 -7 -20 -32 -20 -18 0 -33 -3 -33 -7 0 -5 22 -8
49 -8 31 0 53 -5 61 -15 8 -9 29 -15 55 -15 34 0 44 -4 48 -19 3 -14 11 -18
25 -14 17 4 20 11 16 32 -7 36 18 60 42 40 13 -10 17 -10 26 2 7 11 11 11 15
2 2 -7 13 -13 23 -13 9 0 23 -6 30 -14 6 -8 19 -12 27 -9 13 5 15 2 10 -11 -6
-16 -3 -16 28 3 20 12 45 21 55 21 27 0 34 17 10 25 -11 3 -25 16 -31 27 -11
20 -11 20 -23 -3 -13 -27 -48 -36 -63 -17 -15 19 2 57 31 68 29 11 43 47 26
64 -10 8 -14 8 -17 -1 -6 -16 -33 -17 -33 -2 0 6 7 17 15 25 8 9 15 26 15 39
0 15 11 33 30 47 42 31 39 52 -12 68 -24 8 -51 20 -60 28 -21 18 -38 8 -38
-24 0 -22 -10 -29 -34 -25 -5 1 -19 -7 -31 -19 l-22 -20 -25 20 c-31 24 -68
27 -68 5 0 -15 -23 -19 -82 -15 -32 2 -38 -16 -8 -25 29 -9 25 -19 -18 -38
-50 -22 -52 -22 -52 7 0 35 -15 40 -28 11 -14 -30 -31 -31 -65 -5 -32 25 -51
26 -44 1 2 -10 1 -25 -4 -32 -4 -7 -3 -19 3 -26 17 -21 2 -39 -48 -56 -54 -18
-66 -15 -63 16 4 29 -21 67 -43 67 -24 0 -31 17 -9 23 11 2 26 -4 35 -15 18
-21 47 -21 54 0 2 7 -5 12 -18 12 -14 0 -24 8 -27 20 -3 11 -10 20 -17 19 -22
-3 -33 1 -55 22 -12 12 -25 18 -28 15 -4 -3 3 -15 15 -26 28 -27 20 -43 -29
-58 -46 -14 -58 -10 -39 13 9 11 10 19 3 26 -8 8 -20 5 -41 -11 -20 -15 -37
-20 -51 -15 -24 7 -28 30 -6 39 8 3 15 12 15 20 0 8 9 18 21 21 11 4 24 18 29
31 8 21 16 24 63 24 30 0 56 3 60 6 3 4 -1 17 -9 30 -25 38 5 63 32 27 12 -16
13 -16 14 -2 0 9 6 22 14 29 12 9 22 7 48 -12 18 -13 37 -29 41 -35 4 -7 12
-13 16 -13 11 0 31 46 31 70 0 24 26 26 66 5 55 -28 71 -11 33 34 -15 18 -23
21 -31 13 -19 -19 -28 -14 -28 13 0 34 42 55 67 34 22 -18 79 -49 88 -49 4 0
2 7 -5 15 -26 32 -5 44 70 42 38 -2 70 1 70 5 0 10 -13 12 -63 8 -31 -1 -39 2
-44 18 -2 11 -13 22 -24 25 -23 6 -26 55 -4 63 8 3 17 14 20 24 7 23 43 36 58
21 21 -21 27 -11 27 43 0 45 4 58 22 70 12 9 28 16 35 16 17 0 28 -47 15 -63
-7 -9 -1 -16 24 -28 33 -16 34 -16 34 6 0 14 9 26 25 33 25 12 29 27 25 99 -1
27 3 33 25 39 28 7 23 20 -10 26 -15 2 -21 -4 -25 -27 -4 -21 -12 -31 -28 -33
-23 -4 -29 -16 -12 -27 12 -8 1 -35 -15 -35 -7 0 -18 6 -24 13 -8 11 -6 18 9
32 23 21 26 43 6 51 -10 4 -13 20 -12 56 2 44 0 51 -21 59 -13 5 -23 13 -23
19 0 17 -25 11 -37 -10 -8 -12 -9 -21 -3 -25 15 -9 12 -35 -5 -41 -9 -4 -28
-1 -44 6 -23 9 -28 16 -23 33 3 12 11 26 19 30 11 7 20 77 9 77 -1 0 -17 -5
-35 -11 -25 -9 -31 -16 -31 -39 0 -33 -12 -44 -40 -35 -29 9 -25 43 11 76 25
24 28 31 19 49 -13 24 -35 26 -44 5 -3 -8 -17 -15 -31 -15 -18 0 -25 5 -25 20
0 26 -29 72 -41 64 -5 -3 -9 -14 -9 -26 0 -12 -8 -22 -21 -25 -20 -5 -19 -7 7
-34 27 -28 28 -59 1 -59 -24 0 -60 46 -52 69 6 20 6 20 -38 -1 -31 -15 -43
-27 -43 -42 1 -19 -5 -21 -54 -21 -32 -1 -62 5 -71 12 -14 12 -17 11 -22 -2
-9 -23 -30 -18 -64 15 -34 34 -63 32 -63 -5 0 -31 -32 -57 -67 -53 -26 3 -28
6 -28 43 0 44 -36 105 -62 105 -8 0 -13 -3 -11 -7 2 -5 10 -21 18 -38 8 -16
19 -33 23 -36 5 -4 7 -15 5 -25 -2 -13 -13 -20 -37 -22 -22 -2 -35 -10 -38
-22 -10 -38 -76 -34 -71 4 2 15 -7 27 -32 41 -47 27 -48 59 -2 63 18 2 40 -2
49 -9 18 -16 43 -21 43 -9 0 5 -5 21 -10 35 -9 23 -7 28 11 32 11 3 25 16 30
29 11 29 25 31 39 4 10 -19 12 -19 36 -4 19 13 22 20 13 30 -17 20 -3 44 26
44 20 0 25 5 27 28 2 45 -2 65 -17 82 -30 33 39 57 71 26 19 -20 73 -4 99 29
21 26 49 33 60 15 9 -15 35 -12 82 11 43 21 56 39 28 39 -8 0 -15 -7 -15 -16
0 -9 -7 -14 -17 -12 -11 2 -17 11 -15 21 2 9 -2 25 -7 36 -8 14 -7 22 4 31 18
15 45 6 45 -15 0 -8 9 -15 20 -15 11 0 23 -7 25 -15 16 -51 17 -51 28 -27 12
26 29 28 47 7 7 -8 19 -15 26 -15 19 0 18 24 -1 40 -8 7 -15 20 -15 29 0 9
-13 28 -30 41 -32 28 -41 70 -13 70 9 0 24 -7 34 -16 11 -10 25 -14 36 -10 16
7 16 9 -5 24 -16 13 -22 26 -20 49 2 36 -25 73 -53 73 -17 0 -51 -39 -84 -95
-8 -13 -17 -16 -33 -11 -17 6 -21 12 -16 32 6 23 4 24 -36 24 l-43 0 6 -37 c5
-31 1 -43 -19 -67 -19 -22 -28 -26 -37 -17 -9 9 -9 16 1 29 30 42 25 73 -14
81 -16 3 -17 1 -5 -13 12 -14 9 -15 -35 -10 -27 3 -57 7 -66 9 -10 1 -33 -1
-53 -5 -30 -7 -35 -5 -35 11 0 30 -23 22 -49 -17 -24 -34 -26 -35 -70 -29 -84
11 -96 20 -66 45 13 11 12 15 -8 30 -12 10 -31 19 -42 21 -11 3 -21 14 -23 26
-3 20 -6 21 -23 10 -16 -10 -21 -9 -28 2 -5 8 -7 20 -4 28 6 16 29 17 38 2 9
-14 45 18 45 40 0 9 14 29 30 44 17 16 30 35 30 43 0 20 -29 17 -37 -3 -4 -10
-11 -21 -17 -25 -13 -9 -66 29 -66 48 0 16 -26 16 -87 0z m65 -57 c3 -28 -16
-43 -43 -33 -15 6 -21 45 -8 58 16 16 48 1 51 -25z m62 -50 c0 -20 -15 -26
-25 -9 -9 15 3 43 15 35 5 -3 10 -15 10 -26z m-780 -84 c0 -9 -7 -18 -15 -21
-8 -3 -17 -15 -21 -26 -4 -14 -9 -17 -17 -9 -7 7 -6 16 6 29 9 10 17 24 17 30
0 7 7 12 15 12 8 0 15 -7 15 -15z m200 -45 c13 -9 12 -12 -4 -25 -23 -17 -26
-18 -45 -6 -12 8 -12 12 -2 25 15 18 30 20 51 6z m488 -7 c4 -16 -22 -27 -43
-19 -22 8 -6 38 18 34 11 -2 22 -9 25 -15z m-1248 -25 c0 -33 -19 -58 -45 -58
-30 0 -31 12 -4 56 22 35 49 37 49 2z m1012 2 c3 -15 -2 -20 -22 -20 -11 0
-14 33 -3 44 8 8 20 -4 25 -24z m-81 -22 c18 -22 25 -68 13 -81 -3 -3 -24 12
-46 33 -39 37 -78 57 -78 40 0 -5 5 -12 10 -15 6 -3 10 -17 10 -31 0 -20 -5
-24 -29 -24 -42 0 -61 9 -61 30 0 34 12 50 39 50 14 0 33 5 41 10 28 18 81 11
101 -12z m-851 -23 c0 -24 -5 -35 -15 -35 -15 0 -22 50 -8 63 15 15 23 5 23
-28z m1088 7 c3 -16 -2 -22 -16 -22 -21 0 -36 25 -26 41 10 17 39 5 42 -19z
m-528 8 c0 -6 11 -15 25 -20 14 -5 25 -14 25 -20 0 -5 8 -10 18 -10 9 0 23 -4
31 -9 12 -8 12 -12 2 -25 -15 -18 -56 -21 -66 -6 -4 7 -13 7 -24 1 -20 -11
-61 11 -61 33 0 7 -14 17 -31 22 -44 13 -37 28 18 35 27 3 51 7 56 7 4 1 7 -3
7 -8z m-252 -35 c3 -21 -3 -34 -20 -47 -56 -43 -64 -6 -15 70 14 20 32 8 35
-23z m664 18 c27 -24 22 -43 -12 -50 -17 -3 -33 -10 -36 -15 -9 -15 -34 13
-34 38 0 17 6 24 19 24 11 0 23 5 26 10 9 14 16 13 37 -7z m-762 -58 c0 -21
-5 -25 -29 -25 -17 0 -33 5 -36 10 -13 21 4 40 35 40 25 0 30 -4 30 -25z
m-380 1 c0 -7 -6 -19 -14 -25 -11 -9 -18 -8 -31 5 -13 14 -14 19 -3 25 20 13
48 10 48 -5z m641 -9 c-13 -13 -26 -3 -16 12 3 6 11 8 17 5 6 -4 6 -10 -1 -17z
m-413 -15 c2 -12 8 -22 13 -22 5 0 9 -7 9 -15 0 -26 -36 1 -49 35 -9 28 -8 31
7 28 9 -2 18 -13 20 -26z m302 -9 c0 -16 -26 -17 -35 -3 -4 6 -1 18 6 26 10
12 14 12 20 2 5 -7 9 -19 9 -25z m-352 -26 c4 -20 -25 -34 -40 -19 -15 15 -1
44 19 40 10 -2 19 -11 21 -21z m1420 -29 c7 -10 19 -18 26 -18 6 0 18 -6 25
-12 7 -7 29 -13 49 -13 27 0 37 -5 40 -18 4 -21 -25 -34 -47 -20 -9 6 -30 8
-46 6 -24 -4 -36 2 -58 26 -15 17 -32 31 -37 31 -14 0 -13 23 2 38 13 13 27 7
46 -20z m274 -36 c20 -34 9 -52 -33 -52 -22 0 -28 5 -31 28 -6 40 0 52 26 52
13 0 28 -11 38 -28z m-2029 -16 c7 -17 -18 -40 -33 -31 -14 9 -13 32 3 38 20
9 25 8 30 -7z m1606 5 c19 -12 5 -31 -23 -31 -29 0 -39 10 -25 27 13 15 28 16
48 4z m-2353 -60 c-9 -14 -26 -14 -46 -1 -13 9 -12 12 5 25 16 13 21 13 33 1
8 -8 11 -19 8 -25z m2457 23 c9 -9 -4 -34 -18 -34 -14 0 -27 25 -18 34 4 3 12
6 18 6 6 0 14 -3 18 -6z m-2242 -26 c-10 -27 -41 -37 -41 -14 0 14 25 35 42
36 4 0 4 -10 -1 -22z m2157 -14 c2 -16 -4 -23 -23 -28 -31 -8 -55 8 -55 36 0
16 6 19 38 16 29 -2 38 -8 40 -24z m230 -1 c-4 -22 -22 -20 -26 1 -2 10 3 16
13 16 10 0 15 -7 13 -17z m-328 -12 c20 -39 -17 -72 -39 -34 -6 11 -6 24 0 35
13 23 26 23 39 -1z m-120 -6 c0 -8 9 -19 20 -25 11 -6 20 -15 20 -20 0 -6 -9
-10 -20 -10 -11 0 -20 5 -20 11 0 7 -10 9 -25 7 -18 -4 -26 0 -30 13 -9 26 2
39 31 39 14 0 24 -6 24 -15z m265 -45 c-8 -14 -32 -13 -41 2 -4 6 1 17 12 25
15 11 19 11 27 -2 4 -8 5 -20 2 -25z m-355 5 c0 -8 -6 -15 -14 -15 -17 0 -28
14 -19 24 12 12 33 6 33 -9z m119 -77 c-8 -15 -13 -17 -25 -7 -28 23 -5 59 23
37 9 -7 10 -15 2 -30z m-2398 11 c9 -17 8 -25 -5 -37 -14 -14 -16 -13 -26 12
-17 44 9 65 31 25z m2745 -20 c3 -6 2 -15 -3 -20 -12 -12 -53 1 -53 17 0 17
46 19 56 3z m-346 -119 c0 -11 -7 -20 -15 -20 -15 0 -21 21 -8 33 12 13 23 7
23 -13z m838 -68 c2 -7 -3 -12 -12 -12 -9 0 -16 7 -16 16 0 17 22 14 28 -4z
m-4488 -59 c0 -17 -30 -16 -52 1 -18 13 -24 47 -11 59 9 9 63 -43 63 -60z
m2795 34 c78 -20 133 -41 147 -55 7 -7 20 -12 30 -12 10 0 18 -5 18 -10 0 -6
10 -14 23 -19 53 -21 197 -177 197 -214 0 -7 5 -18 12 -25 15 -15 38 -77 47
-130 5 -24 13 -48 19 -54 19 -19 16 -366 -3 -398 -8 -14 -15 -43 -15 -65 0
-22 -7 -49 -15 -59 -8 -11 -15 -32 -15 -47 0 -14 -7 -32 -15 -39 -8 -7 -15
-23 -15 -35 0 -12 -7 -28 -15 -35 -8 -7 -15 -19 -15 -26 0 -8 -12 -33 -27 -57
-38 -59 -51 -80 -59 -97 -4 -8 -13 -19 -21 -23 -7 -4 -13 -12 -13 -17 0 -19
-107 -132 -215 -227 -33 -29 -76 -66 -95 -84 -59 -53 -117 -99 -124 -99 -4 0
-19 -12 -34 -27 -15 -16 -47 -43 -72 -62 -25 -19 -49 -40 -55 -46 -5 -6 -48
-40 -95 -75 -47 -35 -92 -71 -101 -80 -9 -9 -55 -45 -103 -80 -47 -35 -86 -68
-86 -72 0 -4 -7 -8 -15 -8 -7 0 -18 -6 -22 -14 -4 -7 -22 -17 -40 -20 -26 -6
-32 -4 -38 14 -7 23 -7 23 73 82 23 17 42 35 42 40 0 4 7 8 15 8 8 0 15 4 15
8 0 5 30 30 67 58 38 27 75 56 83 64 8 8 44 38 80 65 36 28 72 57 81 65 8 8
37 33 64 55 125 102 345 341 345 373 0 6 4 12 8 14 14 5 142 175 142 187 0 6
4 11 10 11 5 0 12 11 16 24 3 14 12 27 20 30 8 3 14 14 14 24 0 11 7 25 15 32
8 7 15 23 15 35 0 12 7 28 15 35 8 7 15 24 15 39 0 14 7 35 15 45 8 11 15 36
15 55 1 20 7 47 15 61 22 38 21 337 -1 405 -21 65 -53 133 -65 140 -5 4 -9 13
-9 21 0 9 -16 30 -37 47 -20 18 -43 40 -52 50 -8 9 -21 17 -28 17 -7 0 -13 4
-13 10 0 5 -11 12 -25 16 -13 3 -29 12 -36 20 -6 8 -21 14 -33 14 -12 0 -28 6
-34 13 -13 12 -131 28 -212 28 -87 0 -215 -19 -265 -38 -27 -11 -59 -23 -70
-27 -11 -4 -27 -12 -35 -17 -8 -5 -27 -14 -42 -20 -16 -6 -28 -15 -28 -20 0
-5 -6 -9 -14 -9 -16 0 -153 -142 -166 -173 -6 -12 -14 -29 -19 -37 -5 -8 -17
-33 -26 -55 -10 -22 -24 -52 -32 -67 -7 -14 -13 -38 -13 -53 0 -14 -5 -36 -12
-48 -10 -18 -23 -143 -29 -282 -4 -83 15 -347 27 -381 19 -52 26 -54 243 -54
132 0 171 3 187 15 10 8 31 15 45 15 15 0 32 7 39 15 7 8 25 15 40 15 15 0 33
7 40 15 7 8 20 15 30 15 10 0 23 7 30 15 7 8 20 15 29 15 9 0 25 7 35 15 11 8
27 15 37 15 9 0 22 7 29 15 7 8 22 15 34 15 12 0 31 7 42 15 26 20 73 19 81
-1 10 -27 -20 -59 -87 -91 -8 -4 -34 -20 -56 -35 -23 -15 -46 -28 -52 -28 -5
0 -12 -7 -16 -15 -3 -8 -10 -15 -17 -15 -6 0 -28 -13 -48 -29 -20 -15 -46 -31
-58 -35 -13 -4 -23 -12 -23 -17 0 -5 -8 -9 -19 -9 -10 0 -24 -7 -31 -15 -7 -8
-23 -15 -35 -15 -12 0 -28 -7 -35 -15 -7 -8 -24 -15 -39 -15 -14 0 -39 -7 -55
-15 -40 -21 -339 -21 -376 0 -14 8 -40 14 -59 15 -37 0 -78 35 -85 73 -8 41
-26 312 -26 387 0 94 18 281 32 340 6 25 13 61 16 80 2 19 8 40 12 45 4 6 13
26 18 45 19 64 38 110 50 122 7 7 12 20 12 29 0 9 7 22 15 29 8 7 15 19 15 26
0 8 5 14 10 14 6 0 13 8 17 18 6 16 61 92 74 102 4 3 27 22 52 44 45 38 72 56
115 75 12 6 22 15 22 21 0 5 7 10 16 10 9 0 28 6 42 14 40 20 92 37 142 47 25
4 59 13 75 18 44 15 289 7 360 -12z m1856 -37 c10 -6 19 -16 19 -23 -1 -16
-36 -57 -49 -57 -19 0 -32 49 -21 71 12 22 23 24 51 9z m99 -82 c36 -26 42
-69 10 -61 -14 4 -20 0 -20 -12 0 -25 -52 -75 -78 -75 -37 0 -39 29 -5 59 34
29 47 55 44 89 -3 28 12 28 49 0z m74 -107 c4 -5 3 -17 0 -26 -5 -13 -14 -15
-37 -11 -41 8 -46 15 -23 32 22 16 52 18 60 5z m-4569 -81 c-5 -8 -11 -8 -17
-2 -6 6 -7 16 -3 22 5 8 11 8 17 2 6 -6 7 -16 3 -22z m185 7 c0 -17 -44 -59
-53 -50 -12 11 -7 33 7 33 8 0 16 7 20 15 7 19 26 20 26 2z m-272 -49 c7 -7 8
-17 1 -30 -8 -14 -6 -18 9 -18 10 0 23 5 30 12 12 12 15 8 26 -44 4 -19 1 -30
-13 -40 -10 -7 -20 -22 -22 -33 -6 -32 -77 -34 -101 -3 -22 29 -24 68 -3 68 9
0 18 -8 22 -17 9 -25 34 -53 43 -48 12 8 -1 99 -17 117 -26 29 -2 63 25 36z
m-282 -55 c-11 -11 -19 6 -11 24 8 17 8 17 12 0 3 -10 2 -21 -1 -24z m261
-226 c2 -42 0 -47 -22 -53 -43 -11 -105 25 -105 60 0 24 16 27 35 6 23 -25 45
-26 45 -2 0 21 20 44 35 39 5 -2 11 -25 12 -50z m-57 -93 c0 -19 -28 -30 -42
-16 -8 8 -8 15 1 26 14 17 41 10 41 -10z m-330 -80 c0 -7 -7 -17 -16 -22 -19
-11 -11 -32 12 -32 21 0 14 -34 -8 -38 -22 -4 -72 44 -64 63 3 8 13 15 22 15
11 0 15 6 11 20 -3 10 0 21 7 23 14 6 36 -12 36 -29z m5240 -39 c0 -8 -6 -15
-14 -15 -17 0 -28 14 -19 24 12 12 33 6 33 -9z m-169 -75 c21 -17 22 -21 9
-30 -8 -5 -25 -10 -37 -10 -17 0 -23 6 -23 23 0 42 16 47 51 17z m227 -18 c2
-7 -3 -12 -12 -12 -9 0 -16 7 -16 16 0 17 22 14 28 -4z m-414 -17 c15 -41 -34
-61 -58 -22 -8 14 -8 20 4 27 22 14 47 12 54 -5z m-4919 -5 c3 -6 -1 -13 -10
-16 -19 -8 -30 0 -20 15 8 14 22 14 30 1z m5179 -59 c24 -26 17 -55 -14 -59
-13 -2 -29 -10 -35 -17 -5 -8 -23 -15 -40 -17 -43 -4 -48 29 -6 45 21 8 31 18
31 33 0 39 35 47 64 15z m-86 -2 c-2 -6 -8 -10 -13 -10 -5 0 -11 4 -13 10 -2
6 4 11 13 11 9 0 15 -5 13 -11z m-5240 -36 c-2 -10 -12 -18 -23 -18 -11 0 -21
8 -23 18 -3 13 3 17 23 17 20 0 26 -4 23 -17z m65 -8 c14 -19 15 -25 4 -25
-17 0 -49 34 -40 43 10 11 17 8 36 -18z m4757 10 c0 -8 -4 -15 -9 -15 -13 0
-22 16 -14 24 11 11 23 6 23 -9z m91 -42 c10 -11 9 -17 -4 -30 -13 -13 -19
-14 -31 -3 -9 7 -16 23 -16 35 0 18 4 22 20 18 10 -3 25 -12 31 -20z m-4549
-52 c-4 -36 -21 -54 -38 -40 -15 12 -19 51 -7 63 4 4 16 6 28 4 15 -2 19 -9
17 -27z m-346 -36 c-5 -14 -9 -15 -21 -5 -12 10 -13 16 -4 27 15 18 34 1 25
-22z m1582 -13 c-2 -21 -8 -27 -28 -27 -18 0 -26 6 -28 23 -5 34 15 54 40 41
13 -7 18 -19 16 -37z m-1343 21 c19 -9 35 -23 35 -30 0 -18 -37 -16 -44 2 -3
8 -15 15 -26 15 -20 0 -26 11 -13 23 9 9 7 9 48 -10z m-324 -41 c15 2 24 -3
27 -13 2 -13 -6 -18 -38 -21 -50 -4 -67 10 -49 43 11 21 13 21 24 6 7 -10 23
-16 36 -15z m4652 22 c3 -4 2 -15 -4 -25 -8 -16 -5 -21 14 -28 24 -9 37 -29
37 -57 0 -15 -75 -21 -84 -6 -3 5 -2 34 1 65 5 52 17 69 36 51z m-4839 -33 c8
-12 -3 -41 -15 -41 -5 0 -9 11 -9 25 0 25 14 34 24 16z m1959 -13 c4 -12 1
-28 -5 -35 -14 -17 -63 -17 -78 2 -10 12 -6 18 22 35 42 26 54 25 61 -2z
m-1857 -13 c6 -15 -11 -45 -25 -45 -4 0 -16 6 -26 14 -16 12 -17 16 -6 30 17
20 50 21 57 1z m177 1 c7 -19 -1 -26 -30 -26 -24 0 -32 25 -10 33 22 10 35 7
40 -7z m115 -13 c2 -8 -6 -13 -22 -13 -26 0 -40 12 -29 24 11 11 46 2 51 -11z
m-228 -37 c0 -12 3 -16 8 -10 4 7 33 11 72 10 76 -1 89 -18 40 -55 -33 -23
-35 -23 -85 8 -17 11 -40 17 -52 14 -28 -6 -39 17 -24 46 14 25 41 17 41 -13z
m1437 -12 c3 -8 1 -20 -5 -26 -15 -15 -43 8 -35 28 7 19 32 18 40 -2z m3160
-44 c11 -28 1 -52 -12 -30 -3 5 -15 10 -26 10 -13 0 -19 7 -19 24 0 45 40 42
57 -4z m-4599 -25 c2 -12 -8 -31 -22 -44 -20 -19 -28 -21 -45 -12 -17 10 -21
9 -21 -3 0 -21 -18 -30 -35 -16 -16 13 -9 40 10 40 7 0 18 14 24 31 9 27 14
30 48 27 29 -2 39 -8 41 -23z m4377 0 c0 -28 -29 -25 -33 3 -3 19 0 23 15 20
10 -2 18 -12 18 -23z m-3279 4 c9 -16 -21 -43 -40 -36 -9 4 -16 16 -16 27 0
15 7 20 24 20 14 0 28 -5 32 -11z m189 -9 c0 -23 -59 -20 -63 3 -3 15 2 18 30
15 21 -2 33 -8 33 -18z m-183 -152 c-12 -12 -35 -1 -27 12 3 5 13 6 21 3 10
-4 12 -9 6 -15z m-1084 -81 c3 -12 -3 -17 -22 -17 -25 0 -35 18 -19 34 12 12
38 2 41 -17z m5047 -17 c8 -24 -1 -40 -21 -40 -17 0 -28 24 -20 45 8 22 34 18
41 -5z m-5097 -42 c2 -10 -9 -22 -29 -32 -34 -17 -63 -11 -37 8 8 6 17 19 21
29 8 22 40 19 45 -5z m2432 -42 c0 -23 -22 -41 -34 -29 -3 4 -6 17 -6 30 0 16
6 23 20 23 14 0 20 -7 20 -24z m-2320 -16 c0 -11 -4 -20 -10 -20 -5 0 -10 -9
-10 -20 0 -13 -7 -20 -19 -20 -11 0 -22 -4 -26 -9 -7 -13 -65 20 -65 37 0 38
20 52 75 52 48 0 55 -2 55 -20z m305 -50 c9 -15 -4 -50 -19 -50 -20 0 -39 27
-32 45 6 17 42 20 51 5z m1900 -18 c8 -22 -5 -121 -20 -152 -7 -14 -21 -43
-31 -65 -11 -22 -21 -42 -24 -45 -3 -3 -16 -23 -29 -45 -13 -22 -29 -44 -37
-48 -8 -4 -14 -12 -14 -17 0 -13 -191 -269 -219 -294 -11 -11 -21 -25 -21 -33
0 -7 -5 -13 -10 -13 -6 0 -15 -10 -20 -22 -12 -28 -31 -57 -47 -76 -7 -7 -13
-20 -13 -28 0 -8 -3 -14 -8 -14 -6 0 -24 -35 -68 -137 -50 -114 -66 -160 -72
-207 -2 -22 -11 -46 -18 -54 -8 -8 -14 -35 -14 -67 0 -29 -7 -66 -15 -81 -8
-16 -15 -52 -15 -80 0 -28 -7 -71 -15 -94 -8 -23 -15 -72 -15 -109 0 -36 -7
-88 -15 -115 -11 -35 -15 -96 -15 -206 0 -166 -4 -180 -49 -180 -24 0 -61 25
-61 42 0 18 -143 146 -275 246 -77 58 -144 111 -148 119 -4 7 -12 13 -17 13
-6 0 -18 8 -28 18 -10 9 -40 35 -67 57 -52 43 -155 143 -155 150 0 2 -13 19
-30 37 -16 18 -30 38 -30 44 0 6 -7 17 -15 24 -8 7 -15 20 -15 29 0 9 -6 23
-12 29 -23 23 -41 116 -45 237 -4 109 -6 122 -26 137 -12 10 -38 18 -58 18
-19 0 -40 5 -46 11 -24 24 -234 41 -298 24 -36 -9 -80 -48 -101 -90 -52 -103
-68 -213 -39 -269 8 -15 15 -33 15 -40 0 -16 71 -92 93 -99 25 -9 20 -70 -6
-75 -38 -7 -167 77 -167 109 0 7 -8 21 -17 31 -25 28 -25 298 0 323 10 9 17
27 17 41 0 13 5 24 10 24 6 0 13 8 17 18 3 9 18 33 32 52 15 19 32 47 40 61
10 20 18 25 42 21 45 -7 79 5 79 28 0 13 7 20 20 20 11 0 20 -4 20 -10 0 -5
12 -10 28 -10 15 0 45 -7 67 -15 22 -8 59 -14 83 -15 23 0 59 -7 79 -15 19 -8
45 -15 57 -15 33 0 91 -33 131 -74 l35 -36 0 -133 c0 -102 3 -138 15 -153 8
-10 15 -29 15 -41 0 -33 80 -144 155 -219 36 -35 70 -64 74 -64 5 0 11 -4 13
-9 3 -9 55 -52 187 -155 42 -32 78 -62 81 -65 3 -4 33 -28 66 -54 34 -25 73
-60 87 -77 14 -16 28 -30 31 -30 3 0 6 42 6 93 1 50 7 119 15 152 8 33 15 88
15 123 0 35 5 72 11 83 6 11 14 50 19 87 14 104 34 206 43 220 5 6 12 33 17
60 10 56 29 112 73 212 8 19 18 42 21 50 3 8 10 23 16 33 26 45 31 53 40 72 6
11 19 34 30 50 11 17 24 39 29 50 5 11 20 31 33 45 35 36 298 388 298 399 0 5
7 11 15 15 8 3 15 15 15 26 0 11 7 23 15 26 8 4 15 16 15 29 0 12 7 28 15 35
8 7 15 23 15 35 0 13 7 25 15 29 8 3 15 17 15 30 0 17 9 30 27 40 31 16 49 12
58 -12z m45 3 c0 -8 -7 -15 -15 -15 -8 0 -15 7 -15 15 0 8 7 15 15 15 8 0 15
-7 15 -15z m2725 -24 c3 -5 1 -13 -5 -16 -15 -9 -43 3 -35 15 8 13 32 13 40 1z
m-4915 -26 c11 -13 8 -21 -18 -48 -39 -40 -40 -51 -6 -81 26 -22 26 -23 10
-54 -22 -43 -59 -44 -81 -2 -9 17 -20 30 -25 30 -6 0 -10 7 -10 15 0 21 33 89
48 98 6 4 12 16 12 26 0 10 3 21 7 24 12 13 50 7 63 -8z m4770 -31 c0 -14 -6
-24 -14 -24 -22 0 -28 17 -16 40 14 26 30 17 30 -16z m-4565 -29 c0 -22 -31
-33 -48 -16 -7 7 -6 15 3 26 17 21 45 15 45 -10z m4300 -5 c3 -5 -3 -10 -15
-10 -12 0 -18 5 -15 10 3 6 10 10 15 10 5 0 12 -4 15 -10z m159 1 c7 -11 -22
-23 -35 -15 -5 3 -7 10 -4 15 8 12 32 12 39 0z m-5114 -47 c0 -31 -23 -28 -28
4 -2 15 2 22 12 22 11 0 16 -9 16 -26z m-415 -15 c0 -7 -8 -15 -17 -17 -18 -3
-25 18 -11 32 10 10 28 1 28 -15z m586 -2 c-1 -12 -15 -9 -19 4 -3 6 1 10 8 8
6 -3 11 -8 11 -12z m99 -33 c0 -9 -5 -14 -12 -12 -18 6 -21 28 -4 28 9 0 16
-7 16 -16z m-502 -27 c4 -21 -25 -34 -40 -19 -8 8 -8 16 2 27 16 19 34 15 38
-8z m4943 7 c19 -8 40 -18 47 -22 8 -4 20 -24 27 -44 14 -42 8 -52 -38 -63
-18 -5 -32 -17 -38 -34 -10 -24 -11 -24 -21 -8 -7 14 -6 23 6 36 12 13 15 29
10 64 -7 49 -17 58 -32 31 -12 -21 -56 -14 -60 9 -9 48 34 61 99 31z m-4871
-21 c-1 -24 -2 -26 -11 -10 -5 9 -7 22 -4 27 10 17 15 11 15 -17z m105 0 c9
-38 23 -53 50 -53 39 0 48 -24 20 -48 -14 -12 -29 -22 -34 -22 -11 0 -21 25
-21 51 0 23 -27 25 -54 4 -20 -15 -20 -15 0 -15 50 0 61 -61 14 -85 -16 -8
-35 -15 -42 -15 -7 0 -18 -10 -23 -22 -12 -26 -54 -28 -68 -3 -12 22 -35 18
-43 -7 -10 -32 -26 -40 -46 -21 -16 14 -21 14 -58 -1 -23 -9 -46 -14 -51 -11
-17 11 -9 34 14 37 24 3 31 33 7 33 -22 0 -62 44 -56 61 8 20 26 8 26 -17 0
-13 7 -19 23 -19 31 0 38 9 27 30 -13 24 14 60 40 53 11 -3 20 0 20 6 0 16 55
13 70 -4 15 -18 5 -35 -20 -35 -10 0 -23 -6 -27 -13 -4 -8 -17 -17 -27 -21
-17 -6 -18 -9 -5 -20 8 -7 26 -16 40 -20 21 -4 28 -2 32 13 6 24 45 31 75 13
20 -13 22 -13 22 6 0 12 5 24 10 27 16 10 12 21 -12 33 l-23 11 23 7 c12 3 22
12 22 20 0 7 8 18 18 24 16 9 16 11 -1 21 -24 14 -12 29 23 29 22 0 29 -6 35
-27z m299 1 c9 -8 16 -22 16 -30 0 -8 10 -14 22 -14 36 0 11 -12 -33 -16 -65
-6 -108 45 -56 66 31 12 34 12 51 -6z m-875 -11 c9 -17 11 -17 24 1 9 12 20
17 31 13 20 -8 21 -36 1 -43 -32 -13 -12 -22 40 -19 64 4 90 -14 61 -43 -13
-14 -20 -14 -36 -4 -15 9 -25 9 -38 1 -13 -8 -27 -7 -55 4 -30 13 -37 21 -37
43 0 22 -2 25 -15 14 -8 -7 -22 -10 -30 -6 -15 5 -21 37 -8 49 13 14 52 7 62
-10z m787 -36 c2 -52 -17 -73 -39 -44 -7 8 -21 17 -32 19 -24 4 -32 42 -14 64
8 10 25 14 48 12 36 -3 36 -3 37 -51z m1889 -13 c-22 -16 -41 -4 -31 21 5 13
10 14 28 4 21 -11 21 -12 3 -25z m-2885 11 c0 -8 -7 -15 -15 -15 -8 0 -15 7
-15 15 0 8 7 15 15 15 8 0 15 -7 15 -15z m5483 -12 c13 -4 17 -13 15 -32 -3
-27 0 -27 -84 -17 -38 4 -56 14 -52 28 5 14 69 37 88 31 8 -3 23 -8 33 -10z
m-135 -46 c5 -24 -22 -31 -58 -16 -37 17 -38 26 -2 32 43 7 57 3 60 -16z
m-5318 -28 c0 -31 -6 -35 -29 -20 -12 8 -13 14 -3 36 15 32 32 24 32 -16z
m-206 6 c8 -8 24 -15 35 -15 11 0 23 -5 27 -11 4 -7 11 -2 18 13 14 28 39 30
44 3 2 -11 11 -28 19 -37 18 -20 11 -48 -12 -48 -24 0 -17 -17 10 -24 30 -8
33 -26 4 -26 -31 0 -59 19 -59 40 0 16 -5 19 -31 13 -25 -5 -31 -2 -36 16 -4
16 -12 21 -32 19 -21 -2 -27 2 -29 20 -7 47 13 65 42 37z m422 -30 c4 -8 0
-22 -7 -31 -11 -13 -14 -13 -27 0 -17 17 -9 46 13 46 9 0 18 -7 21 -15z m1859
-96 c0 -20 -5 -24 -30 -24 -37 0 -45 27 -13 43 31 15 43 10 43 -19z m3599 16
c8 -21 -3 -45 -20 -45 -8 0 -17 7 -20 15 -8 21 2 45 20 45 7 0 16 -7 20 -15z
m-3576 -68 c17 -21 -2 -41 -32 -33 -29 7 -35 32 -8 39 28 8 29 7 40 -6z m-380
-130 c4 -22 -24 -33 -43 -17 -12 10 -13 16 -4 27 16 18 43 13 47 -10z m120 0
c2 -12 -3 -17 -17 -17 -12 0 -21 6 -21 13 0 31 32 34 38 4z m-408 -37 c6 -10
10 -23 10 -28 0 -15 -77 -45 -97 -37 -17 6 -16 8 5 22 23 16 30 57 12 68 -6 4
-8 10 -5 15 7 12 63 -18 75 -40z m97 -34 c-4 -9 -11 -16 -17 -16 -17 0 -24 31
-9 41 18 11 34 -5 26 -25z m4351 -133 c-2 -22 -8 -28 -25 -26 -14 2 -27 -5
-33 -17 -8 -15 -17 -18 -43 -13 -41 8 -43 9 -27 28 19 23 81 54 108 55 20 0
23 -4 20 -27z m-4994 -16 c7 -29 -9 -45 -32 -31 -21 14 -28 44 -11 54 18 12
36 2 43 -23z m136 -12 c0 -21 -28 -31 -43 -16 -9 9 -8 14 3 21 22 14 40 12 40
-5z m4648 -7 c7 -7 12 -20 12 -30 0 -10 1 -18 3 -18 1 0 16 4 32 9 35 10 75
-2 75 -23 0 -7 -11 -17 -25 -20 -14 -4 -25 -12 -25 -20 0 -18 -53 -28 -84 -16
-15 5 -26 20 -30 39 -3 17 -9 45 -12 61 -6 27 -4 30 18 30 13 0 29 -5 36 -12z
m-226 -70 c-6 -6 -19 -8 -29 -4 -16 7 -16 9 7 26 22 17 25 17 28 3 2 -8 -1
-20 -6 -25z m-4652 -30 c0 -15 -32 -21 -40 -7 -13 20 9 43 26 28 8 -6 14 -16
14 -21z m4584 16 c7 -19 -1 -34 -19 -34 -18 0 -28 17 -21 35 7 20 32 19 40 -1z
m-4924 -44 c0 -23 -22 -27 -39 -7 -13 16 -5 27 21 27 11 0 18 -7 18 -20z
m5494 -6 c25 -10 19 -34 -9 -34 -24 0 -34 18 -18 33 8 8 8 8 27 1z m-285 -67
c6 -8 8 -17 4 -20 -12 -12 -53 -7 -53 6 0 28 30 37 49 14z m221 -1 c6 -8 10
-25 8 -38 -2 -19 -9 -23 -38 -23 -30 0 -36 4 -38 24 -6 40 43 66 68 37z m-185
-107 c13 -3 21 -14 23 -30 3 -24 0 -26 -23 -21 -15 2 -29 12 -33 21 -3 9 -10
19 -15 22 -6 4 -7 15 -3 25 7 17 8 18 19 3 7 -9 21 -18 32 -20z m-5273 -24
c30 8 52 -15 43 -45 -9 -29 -51 -26 -80 6 -14 15 -25 32 -25 39 0 21 14 27 26
10 8 -11 20 -14 36 -10z m3774 15 c19 0 19 -191 -1 -285 -8 -38 -15 -84 -15
-101 0 -17 -7 -48 -15 -67 -8 -20 -15 -56 -15 -79 0 -24 -7 -52 -15 -62 -8
-11 -15 -32 -15 -46 0 -14 -7 -35 -15 -46 -8 -10 -15 -29 -15 -41 0 -12 -4
-24 -9 -27 -5 -3 -12 -18 -15 -33 -6 -27 -24 -67 -53 -125 -7 -14 -13 -37 -13
-50 0 -12 -7 -32 -15 -42 -20 -26 -20 -110 0 -126 8 -7 15 -20 15 -30 0 -10 7
-23 15 -30 8 -7 15 -17 15 -22 0 -5 26 -44 58 -86 32 -42 61 -85 65 -94 3 -10
11 -18 17 -18 5 0 10 -8 10 -19 0 -10 7 -24 15 -31 8 -7 15 -19 15 -26 0 -8
10 -14 25 -14 14 0 25 -4 25 -9 0 -5 9 -11 21 -14 25 -7 22 -40 -4 -45 -12 -2
-17 3 -17 17 0 12 -4 21 -10 21 -15 0 -12 -26 5 -40 8 -7 15 -19 15 -26 0 -8
14 -40 30 -71 17 -31 30 -70 30 -88 0 -18 7 -67 15 -108 14 -67 14 -81 0 -141
-8 -37 -15 -78 -15 -91 0 -23 -17 -70 -46 -127 -8 -14 -14 -35 -14 -46 0 -11
-7 -22 -15 -26 -8 -3 -15 -14 -15 -24 0 -11 -7 -25 -15 -32 -8 -7 -15 -21 -15
-31 0 -10 -5 -21 -11 -24 -5 -4 -14 -17 -20 -28 -12 -28 -27 -53 -61 -98 -16
-20 -28 -40 -28 -44 0 -4 -13 -27 -30 -52 -16 -24 -30 -50 -30 -57 0 -8 -7
-16 -15 -20 -8 -3 -15 -15 -15 -26 0 -11 -5 -20 -10 -20 -6 0 -15 -10 -20 -22
-15 -34 -33 -62 -47 -71 -7 -4 -13 -14 -13 -21 0 -8 -7 -19 -15 -26 -8 -7 -15
-20 -15 -30 0 -10 -7 -23 -15 -30 -8 -7 -15 -22 -15 -34 0 -11 -7 -30 -15 -40
-8 -11 -15 -30 -15 -42 0 -12 -7 -35 -15 -50 -8 -16 -15 -45 -15 -65 0 -19 -5
-40 -11 -46 -5 -5 -12 -44 -14 -85 -2 -41 -11 -87 -20 -104 -11 -22 -15 -62
-15 -159 0 -83 -6 -150 -15 -185 -8 -31 -15 -99 -15 -158 0 -102 0 -103 -27
-113 -14 -5 -32 -8 -40 -5 -16 7 -17 78 -3 248 6 68 15 222 20 343 9 228 22
331 46 377 8 14 14 39 14 55 0 15 7 37 15 47 8 11 15 31 15 44 0 13 7 30 15
38 8 9 15 28 15 43 0 16 7 34 15 41 8 7 15 23 15 35 0 12 7 28 15 35 8 7 15
20 15 30 0 10 7 23 15 30 8 7 15 16 15 21 0 5 12 28 27 52 47 72 52 81 59 100
3 9 10 17 15 17 5 0 14 10 19 23 6 12 19 36 30 52 11 17 24 39 30 50 6 11 19
34 30 50 33 52 90 171 90 191 1 10 7 30 15 44 20 36 20 235 0 274 -8 15 -15
39 -15 53 0 22 -6 38 -41 103 -4 8 -20 39 -35 68 -15 28 -31 52 -36 52 -4 0
-8 9 -8 20 0 11 -5 20 -10 20 -6 0 -15 11 -20 25 -5 14 -14 25 -20 25 -5 0
-10 7 -10 15 0 9 -7 18 -15 21 -8 4 -15 10 -15 15 0 9 -38 68 -51 79 -28 24
-98 182 -99 224 0 31 31 159 46 188 8 14 14 32 14 40 0 7 14 42 32 78 30 62
43 91 76 170 8 19 21 47 29 62 7 14 13 35 13 46 0 11 7 25 15 32 8 7 15 22 15
34 0 12 5 27 11 33 6 6 15 29 20 50 4 21 17 70 29 108 12 39 24 104 27 145 5
78 17 105 40 95 8 -3 21 -5 29 -5z m-3646 -35 c7 -8 21 -15 30 -15 20 0 30
-17 22 -37 -7 -21 -38 -15 -72 13 -24 21 -28 29 -19 40 15 18 24 18 39 -1z
m5086 -6 c3 -6 2 -15 -2 -19 -12 -12 -38 5 -30 19 9 14 23 14 32 0z m-5348
-24 c3 -3 0 -16 -6 -30 -16 -35 -15 -42 8 -48 23 -6 27 -35 5 -43 -8 -4 -27
-3 -41 0 -21 6 -25 11 -20 30 4 15 0 28 -9 36 -15 12 -21 61 -9 72 6 6 62 -7
72 -17z m5492 -11 c0 -18 -46 -18 -53 0 -8 19 -1 24 28 18 14 -2 25 -11 25
-18z m-5232 -66 c-4 -27 -33 -36 -42 -13 -8 22 1 35 25 35 15 0 20 -6 17 -22z
m-114 -17 c10 -16 -5 -41 -24 -41 -17 0 -34 33 -22 44 9 9 40 7 46 -3z m5934
-32 c3 -17 -51 -53 -62 -41 -8 8 -7 47 1 56 13 13 58 1 61 -15z m-6193 -112
c0 -15 -4 -28 -9 -29 -14 -5 -30 28 -23 46 10 26 32 14 32 -17z m1171 -35 c2
-70 16 -118 61 -207 23 -44 44 -87 47 -95 3 -8 15 -28 26 -45 11 -16 24 -40
30 -52 5 -13 14 -23 20 -23 5 0 10 -5 10 -11 0 -18 182 -238 276 -335 98 -99
181 -174 194 -174 4 0 10 -7 14 -15 3 -8 10 -15 16 -15 6 0 16 -4 23 -10 7 -5
26 -21 43 -35 42 -33 70 -91 54 -111 -17 -19 -104 -19 -120 1 -7 8 -19 15 -26
15 -8 0 -14 5 -14 10 0 6 -9 14 -19 18 -41 15 -242 204 -313 293 -56 70 -118
159 -118 169 0 6 -7 13 -15 16 -8 4 -15 10 -15 15 0 9 -38 68 -51 79 -3 3 -9
12 -13 20 -8 17 -21 38 -59 97 -15 24 -27 49 -27 57 0 7 -7 19 -15 26 -8 7
-15 23 -15 35 0 12 -7 28 -15 35 -8 7 -15 22 -15 34 0 12 -7 31 -15 44 -12 16
-15 43 -13 114 3 89 4 92 28 98 33 9 35 6 36 -48z m4844 29 c5 -11 10 -26 10
-34 0 -22 -31 -30 -49 -13 -12 12 -12 20 -3 41 14 30 28 32 42 6z m82 -75 c4
-6 8 -22 8 -36 0 -15 6 -32 13 -39 10 -11 4 -12 -33 -6 -57 9 -68 19 -52 46 7
11 10 24 7 29 -18 29 39 35 57 6z m-3767 -75 c3 -5 1 -13 -5 -16 -15 -9 -43 3
-35 15 8 13 32 13 40 1z m-2604 -71 c17 0 20 -6 17 -37 -2 -30 -8 -38 -29 -44
-22 -5 -31 -2 -48 22 -12 15 -21 33 -21 38 0 14 32 31 48 26 8 -3 23 -5 33 -5z
m-345 -155 c15 -13 25 -27 22 -30 -11 -12 -79 7 -88 25 -20 37 24 41 66 5z
m5994 -15 c0 -5 -7 -10 -15 -10 -8 0 -15 5 -15 10 0 6 7 10 15 10 8 0 15 -4
15 -10z m-5252 -92 c7 -7 12 -23 12 -36 0 -20 -4 -23 -32 -20 -33 3 -46 23
-34 54 7 17 38 18 54 2z m5097 3 c7 -12 -32 -34 -45 -26 -6 3 -10 13 -10 21 0
16 45 20 55 5z m-4710 -60 c3 -5 1 -12 -4 -15 -13 -8 -42 4 -35 15 7 12 31 12
39 0z m-152 -27 c11 -11 -3 -24 -18 -18 -8 4 -12 10 -9 15 6 11 18 12 27 3z
m4837 -39 c0 -8 -7 -15 -15 -15 -8 0 -15 7 -15 15 0 8 7 15 15 15 8 0 15 -7
15 -15z m-4627 -15 c18 -17 -30 -55 -49 -39 -8 6 -14 20 -14 30 0 26 -26 24
-33 -2 -4 -15 -12 -20 -28 -17 -33 5 -34 22 -2 35 34 14 110 10 126 -7z m-303
-106 c0 -8 -8 -17 -17 -20 -10 -3 -26 -10 -36 -15 -23 -12 -35 -3 -19 13 7 7
12 20 12 29 0 10 6 19 13 22 18 6 47 -11 47 -29z m258 16 c19 -15 21 -23 13
-37 -6 -10 -11 -13 -11 -7 0 7 -9 14 -20 17 -12 3 -20 14 -20 26 0 26 8 26 38
1z m-450 -72 c12 -41 -8 -69 -36 -52 -9 6 -32 9 -50 6 -25 -3 -32 -1 -32 12 0
17 28 50 51 59 38 15 58 7 67 -25z m357 2 c0 -8 -10 -16 -22 -18 -22 -3 -32
16 -16 32 12 11 38 2 38 -14z m-517 -2 c17 -17 15 -48 -4 -55 -23 -8 -38 12
-30 41 7 29 16 32 34 14z m612 -12 c0 -13 -6 -29 -14 -35 -12 -10 -17 -8 -26
9 -15 28 -6 50 20 50 14 0 20 -7 20 -24z m-178 -18 c21 -23 28 -38 23 -55 -7
-30 -33 -30 -41 2 -5 21 -12 24 -62 27 -49 3 -57 6 -57 23 0 16 7 20 33 21 18
1 35 4 39 8 14 13 36 5 65 -26z m-217 -78 c0 -28 -4 -36 -22 -38 -13 -2 -26 4
-32 16 -9 16 -18 19 -56 15 -40 -5 -45 -3 -45 14 0 30 7 32 84 30 l71 -2 0
-35z m478 27 c9 -24 -7 -34 -48 -32 -49 3 -62 31 -18 38 53 8 61 7 66 -6z
m-408 -42 c0 -22 -31 -33 -47 -17 -17 17 -1 44 24 40 15 -2 23 -10 23 -23z
m4485 0 c0 -8 -6 -15 -14 -15 -17 0 -28 14 -19 24 12 12 33 6 33 -9z m-4346
-131 c7 -19 -1 -34 -19 -34 -8 0 -16 4 -19 9 -9 14 4 41 19 41 7 0 16 -7 19
-16z m3878 -11 c20 -18 24 -48 7 -59 -16 -10 -63 41 -56 60 8 21 26 20 49 -1z
m78 2 c10 -12 9 -16 -5 -21 -19 -8 -40 9 -31 25 10 15 21 14 36 -4z m-4129
-68 c-12 -30 -29 -35 -37 -12 -4 9 4 23 17 34 28 22 34 15 20 -22z m158 -20
c13 -17 5 -27 -24 -27 -27 0 -35 8 -28 26 7 18 37 18 52 1z m1251 -157 c0 -10
-12 -29 -27 -42 -48 -40 -63 -104 -63 -271 0 -109 4 -157 15 -184 8 -19 15
-45 15 -57 0 -12 13 -35 29 -50 l28 -27 34 19 c19 10 62 56 97 103 34 46 68
91 76 99 7 8 16 22 20 30 30 64 97 149 124 156 18 5 31 0 49 -19 l26 -25 -22
-44 c-12 -23 -31 -56 -42 -73 -10 -16 -23 -39 -29 -50 -6 -11 -19 -33 -30 -50
-11 -16 -23 -37 -26 -45 -3 -8 -12 -28 -19 -45 -45 -105 -56 -186 -30 -221 8
-10 15 -27 15 -36 0 -10 5 -18 11 -18 7 0 17 -7 23 -16 9 -11 29 -16 70 -16
56 -1 61 1 95 38 43 47 81 100 81 112 0 5 7 15 15 22 8 7 15 23 15 35 0 12 7
28 15 35 8 7 15 20 15 30 0 10 7 23 15 30 8 7 15 21 15 31 0 10 5 21 11 24 5
4 15 17 20 28 23 51 98 157 111 157 4 0 8 7 8 15 0 8 5 15 10 15 6 0 15 10 20
23 11 25 32 60 41 67 3 3 12 19 20 35 16 34 55 41 72 13 12 -18 -16 -119 -40
-149 -7 -8 -13 -19 -13 -23 0 -4 -20 -34 -45 -66 -25 -32 -45 -63 -45 -68 0
-5 -7 -12 -15 -16 -8 -3 -15 -14 -15 -24 0 -11 -7 -25 -15 -32 -8 -7 -15 -20
-15 -30 0 -10 -7 -23 -15 -30 -8 -7 -15 -18 -15 -25 0 -7 -16 -41 -35 -76 -20
-35 -42 -78 -49 -94 -17 -36 -123 -155 -139 -155 -6 0 -19 -8 -29 -17 -28 -25
-143 -24 -183 3 -33 21 -95 81 -95 91 0 4 -6 14 -13 22 -16 19 -41 95 -42 125
0 23 -12 23 -63 0 -30 -14 -37 -14 -77 1 -64 25 -135 114 -135 170 0 12 -7 42
-15 65 -18 51 -20 209 -4 260 6 19 15 55 19 80 12 67 34 119 64 150 38 41 106
47 106 10z m-1470 -71 c7 -11 9 -27 6 -35 -8 -21 -50 -14 -54 9 -9 45 28 65
48 26z m-151 -73 c15 -17 19 -80 6 -84 -5 -1 -11 6 -13 17 -2 11 -12 23 -23
26 -18 6 -26 35 -12 48 11 11 30 8 42 -7z m145 -6 c14 -14 -4 -30 -34 -30 -28
0 -41 14 -32 37 4 13 49 8 66 -7z m4441 -40 c0 -13 -6 -25 -12 -27 -16 -6 -27
21 -19 43 9 23 31 11 31 -16z m-4715 -22 c0 -19 -31 -48 -52 -48 -21 0 -26 45
-5 53 23 10 57 7 57 -5z m4528 -35 c-4 -22 -22 -20 -26 1 -2 10 3 16 13 16 10
0 15 -7 13 -17z m-4168 -29 c0 -17 -22 -14 -28 4 -2 7 3 12 12 12 9 0 16 -7
16 -16z m4385 -9 c0 -28 -29 -25 -33 3 -3 19 0 23 15 20 10 -2 18 -12 18 -23z
m-4620 -5 c7 -23 -1 -40 -20 -40 -8 0 -17 5 -20 10 -9 15 4 50 20 50 8 0 16
-9 20 -20z m-48 -42 c15 -7 36 -20 46 -30 25 -26 43 -22 69 12 18 25 48 41 48
26 0 -2 2 -11 5 -18 6 -16 -30 -61 -60 -75 -11 -6 -45 -7 -75 -4 -51 6 -55 8
-58 34 -2 15 -12 32 -23 37 -46 25 -5 41 48 18z m4751 -82 c5 -39 -10 -51 -32
-27 -14 16 -15 23 -6 41 15 28 34 21 38 -14z m-80 12 c16 -16 15 -40 -2 -63
-12 -17 -17 -17 -45 -5 -18 7 -28 16 -22 19 5 4 14 19 20 34 11 29 29 35 49
15z m-3736 -113 c0 -5 -5 -11 -11 -13 -6 -2 -11 4 -11 13 0 9 5 15 11 13 6 -2
11 -8 11 -13z m-211 -35 c26 -15 24 -38 -5 -46 -50 -12 -83 15 -54 44 15 15
33 15 59 2z m124 -10 c32 -12 24 -30 -14 -30 -34 0 -44 9 -30 27 14 16 11 15
44 3z m3558 -41 c-17 -35 -46 -36 -51 -1 -3 16 2 22 17 22 11 0 23 5 26 10 15
24 22 -3 8 -31z m141 6 c3 -9 -1 -18 -10 -22 -19 -7 -39 11 -30 26 10 16 33
13 40 -4z m-201 -44 c30 -32 35 -68 11 -78 -21 -8 -64 13 -64 32 0 8 -6 24
-12 35 -11 17 -10 22 2 30 23 15 33 12 63 -19z m136 0 c16 -16 19 -28 14 -58
-7 -45 -16 -58 -37 -50 -10 4 -16 19 -16 41 0 19 -4 38 -10 41 -5 3 -10 15
-10 26 0 25 34 25 59 0z m-3775 -17 c15 -39 -7 -76 -35 -58 -10 6 -12 57 -2
67 11 12 31 7 37 -9z m-144 -9 c0 -15 -43 -12 -48 3 -3 10 4 13 22 10 15 -2
26 -7 26 -13z m-62 -22 c3 -18 8 -20 42 -16 51 7 58 -10 29 -66 -16 -32 -27
-41 -43 -39 -16 2 -21 10 -21 33 0 38 -11 55 -36 55 -16 0 -18 -3 -10 -19 8
-14 7 -22 -5 -32 -22 -18 -39 2 -25 30 10 19 9 21 -13 21 -14 0 -28 -4 -31
-10 -9 -15 -55 -12 -55 3 0 7 5 18 12 25 9 9 16 8 30 -5 17 -15 18 -15 18 10
0 29 5 32 63 32 35 0 42 -4 45 -22z m4107 6 c4 -5 -1 -19 -10 -29 -16 -18 -16
-21 5 -49 12 -17 26 -31 31 -31 14 0 11 -36 -5 -49 -11 -9 -17 -8 -28 7 -7 11
-22 21 -33 23 -27 5 -47 115 -24 130 19 12 56 11 64 -2z m105 -50 c15 -36 4
-49 -41 -49 -20 0 -30 7 -39 29 -15 38 -7 51 34 51 28 0 36 -5 46 -31z m-3615
-40 c14 -44 -28 -54 -43 -10 -6 16 -8 31 -6 34 11 10 44 -6 49 -24z m3745 13
c0 -28 -11 -34 -31 -16 -21 19 -16 34 12 34 12 0 19 -7 19 -18z m-438 -19 c16
-14 23 -15 38 -5 28 17 36 15 47 -10 8 -18 5 -31 -9 -57 -10 -18 -18 -34 -16
-35 2 -2 17 -12 34 -24 43 -29 50 -60 17 -68 -18 -5 -31 0 -52 20 -17 16 -34
24 -44 21 -12 -5 -14 -2 -10 13 2 11 -3 33 -14 48 -10 15 -16 36 -15 47 2 10
-4 24 -14 31 -17 13 -12 36 8 36 6 0 20 -8 30 -17z m-72 -39 c0 -8 -9 -14 -20
-14 -22 0 -28 26 -7 33 16 6 27 -1 27 -19z m-3570 -80 c0 -15 -6 -24 -15 -24
-15 0 -21 40 -9 53 12 11 24 -3 24 -29z m3945 21 c0 -5 -10 -11 -22 -13 -16
-2 -23 2 -23 13 0 11 7 15 23 13 12 -2 22 -7 22 -13z m-348 -81 c7 -18 -12
-34 -39 -34 -13 0 -18 8 -18 25 0 20 5 25 25 25 14 0 28 -7 32 -16z m-3772
-39 c0 -11 -7 -21 -16 -23 -18 -3 -33 23 -23 39 10 17 39 5 39 -16z m1185 -13
c20 -16 21 -21 9 -40 -8 -12 -22 -25 -31 -28 -10 -3 -18 -11 -18 -18 0 -8 -7
-19 -15 -26 -8 -7 -15 -23 -15 -35 0 -12 -7 -28 -15 -35 -8 -7 -15 -27 -15
-44 0 -17 -7 -40 -15 -50 -8 -11 -15 -30 -15 -42 0 -12 -7 -35 -15 -50 -8 -16
-15 -43 -15 -60 0 -16 -5 -35 -11 -41 -6 -6 -15 -40 -19 -75 -5 -35 -13 -81
-19 -103 -17 -64 -13 -521 4 -570 8 -22 15 -51 15 -65 0 -14 7 -38 15 -54 8
-15 15 -40 15 -55 0 -15 7 -36 15 -47 8 -10 15 -30 15 -44 0 -14 6 -37 13 -51
15 -28 31 -178 21 -203 -16 -43 -84 2 -84 56 0 13 -7 36 -15 52 -8 15 -15 40
-15 55 0 15 -7 36 -15 47 -8 10 -15 31 -15 45 0 14 -7 34 -15 45 -8 10 -15 32
-15 48 0 15 -13 47 -29 71 -26 39 -28 44 -13 59 14 14 15 21 3 58 -22 68 -26
363 -7 448 9 38 16 95 16 127 0 33 5 64 10 69 6 6 14 33 19 60 13 75 32 146
47 176 8 14 14 35 14 47 0 21 11 49 67 167 33 69 62 106 93 117 24 9 27 8 50
-11z m-1424 -46 c3 -8 15 -11 30 -8 13 2 31 -1 39 -8 13 -11 13 -16 -1 -41
-19 -37 -43 -37 -57 0 -6 16 -19 32 -29 34 -10 3 -18 12 -18 21 0 19 29 21 36
2z m4018 -9 c8 -12 8 -22 0 -34 -27 -43 -61 -14 -43 36 10 25 27 24 43 -2z
m-4384 -88 c0 -5 -7 -9 -15 -9 -15 0 -20 12 -9 23 8 8 24 -1 24 -14z m50 -29
c0 -5 -11 -10 -25 -10 -14 0 -25 5 -25 10 0 6 11 10 25 10 14 0 25 -4 25 -10z
m4142 -205 c0 -5 -5 -11 -11 -13 -6 -2 -11 4 -11 13 0 9 5 15 11 13 6 -2 11
-8 11 -13z m-3654 -190 c-2 -14 -7 -26 -13 -26 -5 0 -11 12 -13 26 -2 18 1 25
13 25 12 0 15 -7 13 -25z m3270 -173 c4 -13 -42 -27 -57 -17 -15 9 -14 42 2
48 14 5 49 -14 55 -31z m1000 -9 c-3 -31 -34 -44 -44 -19 -9 24 3 46 26 46 17
0 21 -5 18 -27z m-4738 -47 c0 -30 -22 -39 -49 -19 -17 12 -20 18 -10 29 6 8
22 14 35 14 19 0 24 -5 24 -24z m598 -47 c2 -13 8 -29 14 -36 5 -7 6 -18 2
-24 -5 -9 -11 -7 -20 5 -7 10 -21 17 -31 16 -34 -4 -43 0 -43 19 0 19 45 51
65 47 6 -2 12 -13 13 -27z m2720 12 c3 -8 -1 -12 -9 -9 -7 2 -15 10 -17 17 -3
8 1 12 9 9 7 -2 15 -10 17 -17z m-3714 -43 l45 -12 -47 -16 c-53 -19 -72 -16
-72 9 0 34 10 36 74 19z m195 6 c33 -7 42 -28 15 -38 -44 -17 -116 7 -100 32
8 13 38 15 85 6z m4025 -60 c9 -3 16 -12 16 -18 0 -18 -21 -35 -36 -29 -15 5
-19 35 -7 46 8 8 8 8 27 1z m674 -67 c2 -18 -2 -29 -13 -33 -24 -9 -39 10 -31
41 9 35 40 30 44 -8z m357 -36 c7 -12 -12 -24 -25 -16 -11 7 -4 25 10 25 5 0
11 -4 15 -9z m-841 -119 c9 -14 -12 -35 -28 -29 -23 9 -20 37 3 37 11 0 22 -4
25 -8z m697 -7 c0 -5 -12 -11 -26 -13 -18 -2 -25 1 -25 13 0 12 7 15 25 13 14
-2 26 -7 26 -13z m193 -11 c17 -7 22 -39 7 -48 -25 -16 -55 26 -34 47 8 8 8 8
27 1z m-796 -31 c4 -10 8 -36 7 -58 0 -36 -3 -40 -25 -40 -18 0 -26 6 -28 22
-2 12 -10 27 -18 33 -21 18 -17 39 9 50 33 13 45 12 55 -7z m862 -21 c0 -26
-11 -34 -27 -21 -20 17 -16 39 7 39 13 0 20 -7 20 -18z m-1192 -24 c-4 -30
-48 -39 -48 -10 0 10 3 22 7 25 3 4 15 7 25 7 14 0 19 -6 16 -22z m-4000 -30
c-6 -18 -28 -21 -28 -4 0 9 7 16 16 16 9 0 14 -5 12 -12z m1874 -5 c28 -25 22
-43 -12 -43 -32 0 -47 18 -36 45 7 20 25 19 48 -2z m2243 3 c21 -8 41 -20 44
-27 6 -18 -26 -38 -52 -32 -20 4 -21 3 -4 -10 31 -26 21 -47 -23 -47 -24 0
-40 5 -40 12 0 9 -3 9 -12 0 -18 -18 -25 -15 -42 20 -15 30 -15 33 1 42 10 5
33 9 51 7 24 -2 32 2 32 13 0 9 -4 16 -10 16 -5 0 -10 5 -10 10 0 13 17 12 65
-4z m115 -5 c15 -29 12 -41 -10 -41 -21 0 -45 34 -35 50 10 16 34 11 45 -9z
m333 -23 c7 -44 -5 -53 -42 -37 -37 16 -41 46 -8 59 37 15 45 11 50 -22z
m-1046 6 c6 -16 -15 -37 -29 -28 -4 3 -8 14 -8 25 0 23 28 26 37 3z m1463 -9
c0 -8 -7 -15 -15 -15 -8 0 -15 7 -15 15 0 8 7 15 15 15 8 0 15 -7 15 -15z
m-4699 -38 c6 -23 5 -28 -7 -23 -9 3 -22 6 -30 6 -20 0 -30 30 -13 41 23 15
42 6 50 -24z m112 -22 c1 -5 -6 -11 -15 -13 -11 -2 -18 3 -18 13 0 17 30 18
33 0z m3539 -19 c4 -23 -20 -34 -28 -12 -8 21 4 52 15 40 5 -5 11 -18 13 -28z
m1039 21 c-1 -12 -15 -9 -19 4 -3 6 1 10 8 8 6 -3 11 -8 11 -12z m-888 -70
c30 -11 20 -45 -21 -66 -37 -20 -52 -7 -52 42 0 54 18 76 40 49 8 -11 23 -22
33 -25z m-2553 19 c19 -24 8 -61 -20 -64 -13 -2 -29 -11 -36 -20 -13 -18 -44
-10 -44 12 0 9 11 18 24 22 15 3 29 17 35 35 11 32 23 36 41 15z m2463 2 c7
-21 -4 -38 -23 -38 -23 0 -34 16 -26 35 7 18 43 20 49 3z m-170 -59 c-13 -13
-53 -3 -53 15 0 6 5 17 12 24 10 10 17 8 32 -8 15 -14 17 -23 9 -31z m801 35
c8 -20 -1 -34 -20 -34 -8 0 -14 10 -14 25 0 28 24 34 34 9z m-896 -16 c-7 -19
-38 -22 -38 -4 0 10 9 16 21 16 12 0 19 -5 17 -12z m202 -13 c0 -28 -24 -34
-34 -9 -10 26 -7 34 14 34 15 0 20 -7 20 -25z m513 9 c8 -8 -3 -34 -14 -34 -5
0 -9 9 -9 20 0 19 11 26 23 14z m-2760 -16 c7 -21 -4 -38 -24 -38 -14 0 -19 7
-19 25 0 18 5 25 19 25 11 0 21 -6 24 -12z m2943 -61 c-8 -50 -13 -57 -36 -57
-45 0 -54 90 -10 100 43 11 53 2 46 -43z m-186 -48 c0 -5 -7 -9 -15 -9 -15 0
-20 12 -9 23 8 8 24 -1 24 -14z m-250 -41 c0 -16 -3 -19 -11 -11 -6 6 -8 16
-5 22 11 17 16 13 16 -11z m-3082 -10 c4 -19 -35 -35 -50 -20 -6 6 -8 18 -4
27 8 21 50 16 54 -7z m239 -120 c2 -47 2 -48 -27 -48 -20 0 -30 5 -30 15 0 8
6 15 14 15 24 0 30 21 7 27 -36 9 -24 46 14 41 16 -2 20 -11 22 -50z m-442 11
c9 -14 -23 -49 -45 -49 -27 0 -54 25 -47 44 7 18 81 23 92 5z m143 -42 c3 -12
-4 -17 -22 -17 -28 0 -33 9 -14 28 15 15 32 10 36 -11z m-358 -26 c0 -5 9 -13
20 -16 23 -7 27 -30 6 -38 -9 -4 -16 -23 -18 -49 l-3 -43 -45 0 c-38 0 -45 3
-45 20 0 15 6 19 23 17 27 -4 30 22 7 55 -14 20 -14 24 7 42 23 22 48 28 48
12z m2781 -134 c-13 -13 -26 -3 -16 12 3 6 11 8 17 5 6 -4 6 -10 -1 -17z
m-1911 -57 c0 -5 -7 -10 -15 -10 -8 0 -15 5 -15 10 0 6 7 10 15 10 8 0 15 -4
15 -10z m1769 -36 c-12 -15 -39 -8 -39 10 0 7 6 18 12 24 18 18 43 -15 27 -34z
m-2781 -77 c4 -20 -25 -34 -40 -19 -15 15 -1 44 19 40 10 -2 19 -11 21 -21z
m1303 -92 c0 -5 -12 -11 -26 -13 -18 -2 -25 1 -25 13 0 12 7 15 25 13 14 -2
26 -7 26 -13z m177 -1 c12 -8 22 -24 22 -35 0 -10 5 -19 11 -19 5 0 7 -5 3
-12 -6 -9 -9 -9 -12 0 -2 7 -10 12 -19 12 -11 0 -13 -7 -9 -28 9 -38 -16 -71
-41 -56 -12 8 -17 21 -15 41 2 20 -2 32 -12 36 -10 4 -16 19 -16 42 0 33 2 35
33 35 18 0 43 -7 55 -16z m-291 -31 c3 -8 0 -20 -6 -26 -10 -9 -15 -8 -22 6
-6 9 -19 17 -29 17 -36 0 -21 16 16 17 23 1 37 -4 41 -14z m140 -50 c7 -18 1
-24 -30 -26 -15 -1 -32 -11 -40 -21 -17 -23 -67 -15 -67 10 0 40 18 52 76 52
38 0 57 -5 61 -15z m828 -33 c12 -38 -15 -52 -50 -26 -24 18 -13 46 19 46 16
0 27 -7 31 -20z m-1821 4 c21 -8 21 -54 1 -54 -9 0 -18 7 -21 15 -3 8 -15 17
-26 21 -16 5 -18 8 -7 15 17 10 32 11 53 3z m1591 -34 c3 -5 -3 -10 -14 -10
-12 0 -21 5 -21 10 0 6 6 10 14 10 8 0 18 -4 21 -10z m-693 -23 c15 -12 15
-14 -4 -26 -23 -14 -50 1 -41 25 6 17 23 18 45 1z m-817 -27 c10 -16 -14 -40
-41 -40 -26 0 -38 14 -30 35 6 17 62 20 71 5z m1555 -85 c0 -45 -4 -56 -21
-65 -17 -10 -24 -7 -45 15 -29 32 -30 41 -4 48 11 3 24 17 30 31 5 14 16 26
25 26 12 0 15 -12 15 -55z m-1165 25 c10 -15 -5 -50 -20 -50 -17 0 -34 30 -28
48 6 14 39 16 48 2z m1255 -15 c0 -25 -23 -35 -35 -15 -10 16 2 40 20 40 9 0
15 -9 15 -25z m-680 -35 c-19 -13 -30 -13 -30 0 0 6 10 10 23 10 18 0 19 -2 7
-10z m650 -26 c0 -9 -7 -14 -17 -12 -25 5 -28 28 -4 28 12 0 21 -6 21 -16z
m-1824 -15 c3 -6 0 -17 -8 -25 -11 -12 -20 -12 -46 -3 -30 10 -31 12 -15 25
22 16 59 18 69 3z m82 -11 c-3 -7 -11 -13 -18 -13 -7 0 -15 6 -17 13 -3 7 4
12 17 12 13 0 20 -5 18 -12z m2502 -28 c0 -19 -13 -40 -25 -40 -19 0 -30 41
-14 50 14 9 39 2 39 -10z m-817 -5 c1 -5 -6 -11 -15 -13 -11 -2 -18 3 -18 13
0 17 30 18 33 0z m57 0 c0 -8 -7 -15 -15 -15 -8 0 -15 7 -15 15 0 8 7 15 15
15 8 0 15 -7 15 -15z m-273 -32 c2 -6 -5 -17 -17 -23 -18 -9 -25 -8 -41 6 -10
9 -16 21 -13 26 8 13 67 6 71 -9z m461 -15 c-3 -35 -29 -47 -58 -29 -22 15 6
61 37 61 21 0 24 -4 21 -32z m930 14 c2 -7 -6 -12 -17 -12 -21 0 -27 11 -14
24 9 9 26 2 31 -12z m-2553 -23 c0 -15 -7 -25 -18 -27 -22 -4 -33 24 -17 43
18 21 35 13 35 -16z m-306 -15 c-15 -18 -28 -18 -36 2 -8 20 17 36 34 22 10
-8 10 -14 2 -24z m-89 13 c0 -8 -3 -17 -7 -20 -9 -9 -34 13 -27 24 8 14 34 11
34 -4z m1050 -13 c11 -12 10 -18 -3 -31 -13 -13 -19 -14 -31 -3 -9 7 -16 21
-16 31 0 23 32 25 50 3z m-1149 -5 c19 -10 19 -10 -1 -36 -11 -14 -20 -32 -20
-39 0 -30 -19 -21 -39 17 -17 32 -19 44 -10 55 14 17 43 18 70 3z m2577 -1
c17 -17 15 -24 -13 -42 -23 -15 -25 -15 -35 5 -7 11 -9 27 -6 35 7 17 38 18
54 2z m142 -6 c0 -15 -24 -32 -46 -32 -21 0 -39 22 -27 34 9 9 73 7 73 -2z
m150 -6 c0 -17 -25 -38 -34 -29 -10 11 -26 -18 -26 -48 0 -27 -15 -40 -37 -32
-7 3 -13 10 -13 18 0 7 -7 18 -15 25 -8 7 -15 23 -15 36 0 22 4 24 45 24 25 0
45 5 45 10 0 6 11 10 25 10 15 0 25 -6 25 -14z m-2751 -41 c13 -19 27 -35 32
-35 5 0 9 -7 9 -15 0 -22 -50 -32 -62 -11 -13 23 -25 20 -32 -9 -4 -16 -13
-25 -26 -25 -30 0 -31 14 -4 43 18 20 23 34 19 48 -5 14 -2 25 6 30 23 15 33
10 58 -26z m171 -6 c0 -36 -2 -39 -27 -39 -34 1 -88 43 -80 62 3 9 22 14 56
15 l51 1 0 -39z m2640 -15 c0 -19 -5 -24 -25 -24 -20 0 -25 5 -25 24 0 13 6
26 13 29 22 7 37 -4 37 -29z m-1783 15 c14 -14 6 -39 -12 -39 -18 0 -28 17
-21 35 6 18 18 19 33 4z m950 -15 c7 -19 -22 -84 -37 -84 -7 0 -8 -6 -1 -19 8
-14 7 -22 -4 -31 -21 -18 -48 -4 -42 21 3 11 1 34 -4 52 -8 29 -6 34 18 54 33
27 61 29 70 7z m-2186 -27 c-1 -12 -15 -9 -19 4 -3 6 1 10 8 8 6 -3 11 -8 11
-12z m3249 -7 c0 -11 -4 -20 -9 -20 -14 0 -23 18 -16 30 10 17 25 11 25 -10z
m-3390 -55 c0 -8 -6 -15 -14 -15 -17 0 -28 14 -19 24 12 12 33 6 33 -9z m1818
-67 c3 -24 0 -28 -22 -28 -30 0 -51 31 -33 49 21 21 52 9 55 -21z m226 -14
c17 -44 -1 -68 -43 -57 -38 10 -21 73 20 73 9 0 20 -7 23 -16z m-390 -89 c8
-21 -37 -70 -57 -62 -20 7 -22 48 -5 65 17 17 55 15 62 -3z"/>
<path d="M5890 10526 c0 -2 7 -9 15 -16 12 -10 15 -10 15 4 0 9 -7 16 -15 16
-8 0 -15 -2 -15 -4z"/>
<path d="M5567 10473 c-12 -11 -8 -23 8 -23 8 0 15 7 15 15 0 16 -12 20 -23 8z"/>
<path d="M7405 10339 c-10 -15 3 -25 16 -12 7 7 7 13 1 17 -6 3 -14 1 -17 -5z"/>
<path d="M4846 10331 c-3 -5 7 -11 22 -14 32 -6 42 0 22 13 -19 12 -37 13 -44
1z"/>
<path d="M4570 10260 c19 -13 30 -13 30 0 0 6 -10 10 -22 10 -19 0 -20 -2 -8
-10z"/>
<path d="M7380 10261 c0 -5 7 -12 16 -15 24 -9 28 -7 14 9 -14 17 -30 20 -30
6z"/>
<path d="M3767 10113 c-12 -12 -7 -41 8 -47 8 -3 15 -17 15 -32 l0 -26 19 23
c17 20 17 25 4 27 -11 3 -14 12 -9 33 4 23 2 29 -13 29 -10 0 -21 -3 -24 -7z"/>
<path d="M7245 10070 c22 -24 50 -27 41 -4 -3 9 -6 18 -6 20 0 2 -12 4 -27 4
-25 0 -26 0 -8 -20z"/>
<path d="M3900 10052 c0 -4 10 -13 21 -21 19 -11 21 -11 15 4 -3 9 -6 19 -6
21 0 2 -7 4 -15 4 -8 0 -15 -3 -15 -8z"/>
<path d="M3105 9971 c-3 -5 -1 -12 5 -16 12 -7 30 2 30 16 0 12 -27 12 -35 0z"/>
<path d="M7701 9910 c-18 -4 -39 -14 -45 -21 -14 -16 -10 -159 5 -159 9 0 14
28 10 69 -1 13 0 30 4 39 5 13 8 12 25 -3 18 -16 20 -16 20 -2 0 9 -4 19 -10
22 -20 12 -9 34 20 40 17 4 30 11 30 16 0 10 -11 10 -59 -1z"/>
<path d="M6882 9890 c-6 -11 -12 -29 -12 -39 0 -11 -5 -23 -10 -26 -8 -5 -7
-11 0 -20 7 -8 9 -23 5 -35 -5 -15 -2 -20 10 -20 12 0 15 5 11 16 -8 21 24 94
41 94 18 0 16 14 -5 33 -23 21 -25 21 -40 -3z"/>
<path d="M2670 9874 c0 -3 7 -12 15 -21 20 -19 32 -9 15 12 -12 15 -30 20 -30
9z"/>
<path d="M7526 9865 c-3 -8 -16 -15 -28 -16 l-23 0 23 -16 c12 -8 22 -22 22
-29 0 -8 5 -14 10 -14 10 0 14 13 10 43 -1 10 4 25 10 33 10 11 9 14 -3 14 -8
0 -17 -7 -21 -15z"/>
<path d="M7431 9821 c-10 -6 -10 -10 -1 -16 13 -8 24 -1 19 14 -3 6 -10 7 -18
2z"/>
<path d="M7700 9795 c-10 -12 -10 -15 4 -15 9 0 16 7 16 15 0 8 -2 15 -4 15
-2 0 -9 -7 -16 -15z"/>
<path d="M7143 9765 c-8 -23 3 -29 26 -13 21 15 18 28 -6 28 -7 0 -16 -7 -20
-15z"/>
<path d="M7740 9733 c0 -37 9 -63 21 -63 14 0 10 54 -6 76 -14 18 -14 17 -15
-13z"/>
<path d="M2236 9731 c-3 -5 1 -14 9 -21 12 -10 15 -10 15 3 0 19 -16 31 -24
18z"/>
<path d="M2496 9694 c-10 -25 -7 -34 9 -34 8 0 24 -9 35 -20 14 -14 26 -18 36
-12 14 8 14 10 0 21 -9 8 -16 20 -16 27 0 8 -12 19 -26 24 -32 13 -31 13 -38
-6z"/>
<path d="M1946 9653 c-9 -9 -7 -25 3 -42 8 -12 12 -12 24 -2 11 9 17 9 22 1 4
-6 4 -14 1 -17 -13 -13 17 -33 40 -27 18 5 24 2 24 -11 0 -10 -8 -24 -17 -32
-17 -12 -16 -13 7 -11 30 4 41 46 16 60 -9 5 -16 21 -16 36 0 31 -29 55 -50
42 -8 -5 -21 -5 -31 0 -9 5 -19 6 -23 3z"/>
<path d="M2195 9650 c-3 -6 5 -14 19 -20 14 -5 26 -14 26 -20 0 -5 7 -10 15
-10 21 0 19 16 -5 40 -22 22 -45 26 -55 10z"/>
<path d="M2420 9651 c0 -17 18 -21 24 -6 3 9 0 15 -9 15 -8 0 -15 -4 -15 -9z"/>
<path d="M1765 9620 c-12 -36 8 -50 39 -27 17 13 17 14 -7 30 -25 16 -26 16
-32 -3z"/>
<path d="M7865 9581 c-9 -15 21 -43 41 -39 13 2 11 7 -9 26 -16 15 -27 20 -32
13z"/>
<path d="M7994 9535 c-4 -8 -12 -15 -20 -15 -8 0 -19 -9 -26 -20 -14 -21 -72
-28 -83 -10 -11 18 -35 11 -35 -11 0 -17 4 -20 24 -15 29 7 57 -24 49 -55 -8
-28 15 -23 29 6 6 14 19 25 29 25 18 0 29 19 29 50 0 9 7 23 15 30 8 7 15 16
15 21 0 15 -20 10 -26 -6z"/>
<path d="M8019 9390 c-21 -14 3 -32 37 -28 l28 3 -25 17 c-16 10 -31 13 -40 8z"/>
<path d="M7797 9340 c4 -24 2 -30 -12 -30 -17 0 -17 -1 0 -20 21 -23 35 -26
35 -6 0 7 7 19 15 26 13 11 12 15 -8 36 -30 32 -38 30 -30 -6z"/>
<path d="M7937 9296 c15 -21 19 -22 24 -8 4 11 0 20 -10 24 -29 12 -32 8 -14
-16z"/>
<path d="M7540 9015 c0 -8 7 -15 15 -15 8 0 15 4 15 9 0 5 -7 11 -15 15 -9 3
-15 0 -15 -9z"/>
<path d="M7932 8952 c-24 -19 -20 -32 9 -32 10 0 23 -10 30 -22 15 -29 29 -5
22 40 -6 37 -25 41 -61 14z"/>
<path d="M7518 8908 c7 -7 12 -21 12 -32 0 -19 2 -18 14 4 16 30 12 40 -17 40
-16 0 -18 -3 -9 -12z"/>
<path d="M7692 8909 c2 -7 10 -15 17 -17 8 -3 12 1 9 9 -2 7 -10 15 -17 17 -8
3 -12 -1 -9 -9z"/>
<path d="M7936 8824 c-9 -22 -8 -24 9 -24 8 0 15 6 15 14 0 22 -17 28 -24 10z"/>
<path d="M8028 8688 c23 -24 36 -21 26 6 -3 9 -16 16 -27 16 l-21 0 22 -22z"/>
<path d="M7335 8565 l-30 -13 37 -1 c31 -1 40 -6 53 -31 10 -20 23 -30 38 -30
13 0 32 -7 43 -15 29 -22 47 -20 34 5 -6 11 -17 20 -25 20 -26 0 -85 33 -90
51 -8 25 -26 29 -60 14z"/>
<path d="M7738 8542 c-4 -13 -16 -26 -27 -29 -32 -8 -25 -20 14 -21 37 -1 39
3 26 48 l-7 25 -6 -23z"/>
<path d="M7160 8451 c0 -11 -4 -23 -10 -26 -5 -3 -10 -18 -10 -33 1 -23 2 -25
11 -9 5 9 17 17 26 17 12 0 13 3 3 15 -6 8 -9 23 -5 35 4 11 2 20 -4 20 -6 0
-11 -9 -11 -19z"/>
<path d="M7782 8435 c-9 -20 -9 -25 2 -25 7 0 18 11 24 25 9 20 9 25 -2 25 -7
0 -18 -11 -24 -25z"/>
<path d="M1852 8334 c1 -9 9 -19 16 -22 9 -3 13 2 10 14 -1 9 -9 19 -16 22 -9
3 -13 -2 -10 -14z"/>
<path d="M7670 8145 c0 -27 1 -28 24 -19 12 5 13 9 3 25 -16 26 -27 24 -27 -6z"/>
<path d="M7775 8140 c-3 -6 4 -10 17 -10 13 0 29 -5 34 -10 7 -7 17 -5 30 4
10 8 16 18 12 22 -4 4 -14 1 -22 -5 -10 -8 -16 -9 -21 -1 -8 13 -42 13 -50 0z"/>
<path d="M7616 8104 c-10 -26 -7 -32 17 -36 18 -2 22 -10 25 -43 1 -22 7 -59
13 -83 10 -37 13 -40 24 -26 9 13 9 24 1 46 -9 25 -8 32 7 42 22 17 21 21 -3
49 -67 73 -74 77 -84 51z"/>
<path d="M1972 8043 c-19 -8 -4 -23 24 -23 16 0 24 5 22 13 -5 13 -26 18 -46
10z"/>
<path d="M7787 7982 c-22 -24 -21 -32 2 -32 22 0 45 25 36 40 -9 15 -20 12
-38 -8z"/>
<path d="M1995 7939 c-10 -15 1 -23 20 -15 9 3 13 10 10 16 -8 13 -22 13 -30
-1z"/>
<path d="M7720 7930 c0 -5 7 -10 15 -10 8 0 15 5 15 10 0 6 -7 10 -15 10 -8 0
-15 -4 -15 -10z"/>
<path d="M1821 7892 c-7 -13 -11 -30 -9 -38 3 -13 5 -13 23 -1 16 12 17 19 9
38 l-11 24 -12 -23z"/>
<path d="M1530 7816 c0 -24 16 -27 35 -6 18 19 17 20 -8 20 -17 0 -27 -5 -27
-14z"/>
<path d="M7440 7699 c0 -11 5 -17 10 -14 6 3 10 13 10 21 0 8 -4 14 -10 14 -5
0 -10 -9 -10 -21z"/>
<path d="M7290 7613 c0 -13 5 -23 10 -23 13 0 13 11 0 30 -8 12 -10 11 -10 -7z"/>
<path d="M776 7602 c-3 -6 1 -15 8 -21 8 -7 17 -8 20 -3 3 6 -1 15 -8 21 -8 7
-17 8 -20 3z"/>
<path d="M687 7434 c-14 -14 -6 -24 19 -24 16 0 24 5 22 13 -5 14 -31 21 -41
11z"/>
<path d="M7177 7402 c-19 -21 -22 -32 -7 -32 10 0 34 39 27 46 -2 2 -11 -4
-20 -14z"/>
<path d="M730 7330 c0 -5 7 -10 15 -10 8 0 15 5 15 10 0 6 -7 10 -15 10 -8 0
-15 -4 -15 -10z"/>
<path d="M831 7330 c-10 -5 -9 -8 2 -13 7 -3 19 -2 26 3 10 5 9 8 -2 13 -7 3
-19 2 -26 -3z"/>
<path d="M7696 6513 c-4 -5 -24 -13 -44 -20 -20 -7 -28 -11 -17 -10 30 2 45
-11 45 -41 0 -25 1 -25 15 -6 8 10 15 27 15 37 0 10 7 20 15 23 8 4 15 10 15
15 0 11 -34 12 -44 2z"/>
<path d="M1030 6461 c0 -4 7 -16 15 -27 13 -16 16 -17 25 -4 15 22 12 27 -15
32 -14 3 -25 2 -25 -1z"/>
<path d="M7294 6099 c-3 -6 -2 -15 4 -21 13 -13 32 -2 32 18 0 16 -26 19 -36
3z"/>
<path d="M7305 6050 c-3 -5 1 -13 10 -16 22 -9 29 1 11 15 -10 8 -16 9 -21 1z"/>
<path d="M525 5950 c-14 -27 -21 -30 -60 -30 -49 0 -56 -11 -28 -42 13 -14 14
-21 5 -30 -17 -17 -15 -29 5 -26 9 2 22 -6 27 -17 36 -67 65 -88 105 -74 25 9
31 16 31 40 0 35 -6 36 -37 7 -13 -12 -26 -19 -29 -15 -8 8 15 77 27 77 5 0 9
5 9 10 0 20 -48 11 -53 -10 -3 -11 -10 -20 -16 -20 -14 0 -15 37 -1 45 6 3 10
16 10 28 0 12 9 28 20 35 20 12 28 52 10 52 -5 0 -16 -13 -25 -30z"/>
<path d="M990 5861 c0 -9 -5 -22 -12 -29 -9 -9 -8 -12 4 -12 8 0 21 -7 29 -16
11 -14 13 -14 21 0 5 9 15 16 22 16 16 0 30 30 19 40 -4 4 -25 10 -45 13 -32
5 -38 3 -38 -12z"/>
<path d="M900 5805 c0 -8 7 -15 15 -15 9 0 12 6 9 15 -4 8 -10 15 -15 15 -5 0
-9 -7 -9 -15z"/>
<path d="M340 5778 c1 -15 28 -53 34 -47 2 2 2 16 -1 32 -5 26 -33 39 -33 15z"/>
<path d="M7326 5772 c-3 -5 4 -16 15 -25 36 -31 56 -15 21 16 -21 19 -28 21
-36 9z"/>
<path d="M655 5750 c-17 -19 -17 -20 0 -20 10 0 26 -7 36 -16 17 -15 20 -15
45 5 l27 21 -31 0 c-17 0 -32 6 -36 15 -7 20 -19 19 -41 -5z"/>
<path d="M7260 5718 c0 -9 7 -18 15 -22 9 -3 15 -18 15 -35 0 -31 14 -49 25
-31 3 5 21 10 38 11 l32 1 -27 11 c-19 7 -28 18 -28 34 0 17 -6 23 -23 23 -13
0 -28 5 -35 12 -9 9 -12 8 -12 -4z"/>
<path d="M926 5703 c-3 -10 -9 -24 -12 -30 -3 -8 1 -13 10 -13 11 0 16 9 16
30 0 34 -5 38 -14 13z"/>
<path d="M7066 5702 c-3 -5 4 -18 14 -30 11 -12 20 -30 20 -42 0 -13 7 -20 20
-20 17 0 19 3 11 18 -13 25 2 46 28 37 26 -8 27 6 3 28 -19 18 -87 23 -96 9z"/>
<path d="M430 5650 c-12 -8 -9 -10 13 -10 16 0 26 4 22 10 -8 12 -16 12 -35 0z"/>
<path d="M570 5630 c0 -15 7 -20 25 -20 27 0 32 9 13 28 -18 18 -38 14 -38 -8z"/>
<path d="M6870 5642 c0 -5 9 -17 20 -27 16 -14 20 -15 20 -4 0 16 -19 39 -32
39 -4 0 -8 -4 -8 -8z"/>
<path d="M6480 5593 c0 -22 2 -25 10 -13 13 20 13 40 0 40 -5 0 -10 -12 -10
-27z"/>
<path d="M7430 5600 c0 -13 7 -20 20 -20 23 0 26 10 8 28 -18 18 -28 15 -28
-8z"/>
<path d="M7018 5595 c-3 -3 0 -21 6 -40 12 -39 33 -42 28 -4 -4 26 -25 53 -34
44z"/>
<path d="M1027 5584 c-9 -10 2 -24 19 -24 8 0 14 7 14 15 0 15 -21 21 -33 9z"/>
<path d="M6393 5555 c-36 -10 -42 -23 -15 -31 9 -3 24 -9 34 -14 19 -11 31 11
20 37 -6 15 -12 16 -39 8z"/>
<path d="M7290 5561 c0 -10 39 -46 43 -40 2 2 -7 14 -20 26 -13 12 -23 19 -23
14z"/>
<path d="M7209 5533 c12 -24 31 -39 31 -25 0 5 -10 17 -21 28 -22 19 -22 19
-10 -3z"/>
<path d="M997 5520 c-22 -17 -24 -23 -14 -44 9 -18 16 -22 28 -16 10 6 20 5
27 -2 17 -17 15 -35 -4 -42 -21 -8 -84 22 -84 40 0 19 -16 18 -24 -2 -9 -23
-8 -24 13 -24 19 0 43 -21 40 -36 -4 -24 3 -33 29 -36 21 -2 28 -9 30 -29 2
-14 -4 -31 -12 -39 -15 -11 -22 -40 -11 -40 11 0 55 52 55 65 0 10 10 15 30
15 25 0 30 -4 30 -25 0 -14 5 -25 10 -25 14 0 13 43 -2 58 -7 7 -25 12 -40 12
-37 0 -44 21 -22 60 15 25 16 34 6 48 -6 9 -18 32 -26 50 -17 37 -24 39 -59
12z"/>
<path d="M840 5431 c0 -16 28 -20 47 -6 17 13 16 14 -14 15 -18 0 -33 -4 -33
-9z"/>
<path d="M6732 5409 c2 -6 8 -10 13 -10 5 0 11 4 13 10 2 6 -4 11 -13 11 -9 0
-15 -5 -13 -11z"/>
<path d="M1140 5403 c0 -5 5 -15 10 -23 8 -12 10 -11 10 8 0 12 -4 22 -10 22
-5 0 -10 -3 -10 -7z"/>
<path d="M6397 5377 c-11 -29 8 -37 46 -19 20 9 36 20 37 25 0 13 -78 8 -83
-6z"/>
<path d="M6600 5368 c0 -18 18 -34 28 -24 3 4 -2 14 -11 23 -16 16 -17 16 -17
1z"/>
<path d="M1254 5305 c-4 -8 -4 -24 -1 -35 3 -12 -1 -24 -11 -30 -15 -8 -15 -9
-1 -10 9 0 30 5 48 11 31 11 32 12 12 26 -12 8 -21 23 -21 34 0 23 -18 26 -26
4z"/>
<path d="M1315 5170 c-12 -24 -13 -31 -3 -26 7 3 21 9 31 12 21 8 22 18 3 33
-12 10 -18 7 -31 -19z"/>
<path d="M5953 4906 l-28 -24 23 -24 c12 -13 22 -30 22 -36 0 -7 3 -12 8 -12
4 0 6 20 4 45 -3 26 1 52 8 60 20 24 -6 18 -37 -9z"/>
<path d="M932 4683 c24 -49 32 -63 40 -63 14 0 8 24 -11 48 -18 21 -37 31 -29
15z"/>
<path d="M5958 4425 c-11 -11 17 -55 35 -55 11 0 16 5 13 13 -3 6 -9 20 -12
30 -6 16 -25 23 -36 12z"/>
<path d="M1198 4295 c-2 -3 -3 -18 0 -35 3 -23 9 -30 27 -30 18 0 22 4 18 19
-6 22 -37 54 -45 46z"/>
<path d="M6266 4273 c-3 -3 -3 -10 0 -14 7 -12 34 -11 34 0 0 11 -26 22 -34
14z"/>
<path d="M6191 4058 c-13 -21 -6 -98 9 -98 14 0 21 18 11 25 -6 3 -8 12 -4 21
4 11 9 12 18 4 10 -8 15 -8 21 1 4 6 0 16 -10 21 -9 5 -16 15 -16 23 0 23 -15
25 -29 3z"/>
<path d="M5847 4001 c-5 -44 -4 -45 28 -37 31 8 32 22 1 51 l-24 22 -5 -36z"/>
<path d="M5920 3931 c13 -25 33 -28 28 -4 -2 10 -11 19 -21 21 -16 3 -17 1 -7
-17z"/>
<path d="M5805 3910 c-18 -8 -17 -9 8 -9 15 -1 27 4 27 9 0 12 -8 12 -35 0z"/>
<path d="M5542 3809 c2 -6 8 -10 13 -10 5 0 11 4 13 10 2 6 -4 11 -13 11 -9 0
-15 -5 -13 -11z"/>
<path d="M828 3559 c-20 -11 -25 -43 -6 -37 9 3 33 49 25 48 -1 0 -10 -5 -19
-11z"/>
<path d="M5612 3528 c5 -15 28 -18 29 -3 0 6 -7 12 -17 13 -10 3 -15 -1 -12
-10z"/>
<path d="M6255 3489 c-10 -14 36 -52 48 -40 5 5 7 17 5 27 -4 22 -43 31 -53
13z"/>
<path d="M6210 3435 c0 -19 24 -30 41 -19 9 5 7 11 -6 21 -24 17 -35 17 -35
-2z"/>
<path d="M6200 3351 c0 -26 16 -35 24 -15 10 25 7 34 -9 34 -8 0 -15 -9 -15
-19z"/>
<path d="M1320 3166 c0 -18 27 -29 36 -14 4 5 0 14 -7 19 -20 13 -29 11 -29
-5z"/>
<path d="M6052 3138 c-7 -26 -13 -32 -29 -30 -32 4 -37 -15 -6 -23 29 -7 53
13 53 45 0 9 5 21 12 28 9 9 8 12 -5 12 -10 0 -20 -12 -25 -32z"/>
<path d="M680 3057 c0 -48 18 -68 50 -55 l25 10 -22 15 c-13 9 -23 26 -23 39
0 15 -6 24 -15 24 -10 0 -15 -10 -15 -33z"/>
<path d="M6225 3040 c-4 -6 5 -10 19 -10 14 0 26 5 26 10 0 6 -9 10 -19 10
-11 0 -23 -4 -26 -10z"/>
<path d="M892 3023 c2 -10 14 -19 28 -21 14 -2 31 -11 38 -20 11 -14 12 -14
12 2 0 22 -38 55 -63 56 -12 0 -17 -6 -15 -17z"/>
<path d="M1220 3020 c0 -10 -10 -24 -22 -31 -19 -10 -20 -12 -4 -21 9 -5 23
-7 31 -4 8 3 25 -4 40 -16 l26 -20 22 24 c21 23 24 53 7 71 -4 5 -11 -4 -14
-20 -6 -26 -10 -29 -36 -25 -30 4 -34 11 -31 45 1 9 -3 17 -8 17 -6 0 -11 -9
-11 -20z"/>
<path d="M846 2981 c-7 -11 22 -23 35 -15 5 3 7 10 4 15 -8 12 -32 12 -39 0z"/>
<path d="M6300 2735 c0 -12 5 -15 20 -10 12 4 27 1 35 -5 12 -10 15 -9 15 4 0
9 -8 16 -19 16 -11 0 -26 3 -35 6 -11 4 -16 1 -16 -11z"/>
<path d="M960 2687 c0 -20 5 -37 10 -37 16 0 16 47 -1 65 -5 5 -9 -5 -9 -28z"/>
<path d="M6276 2702 c-6 -10 22 -47 30 -40 3 4 3 16 -1 27 -6 21 -20 27 -29
13z"/>
<path d="M6232 2669 c2 -6 8 -10 13 -10 5 0 11 4 13 10 2 6 -4 11 -13 11 -9 0
-15 -5 -13 -11z"/>
<path d="M840 2605 c-9 -11 -10 -19 -3 -26 7 -7 14 -5 23 6 7 8 20 15 29 15 9
0 23 5 31 10 11 7 4 10 -26 10 -25 0 -47 -6 -54 -15z"/>
<path d="M5794 2520 c-38 -15 -43 -63 -6 -53 11 2 18 13 18 26 -1 17 6 23 34
28 33 6 34 6 5 7 -16 0 -39 -3 -51 -8z"/>
<path d="M790 2436 c0 -3 14 -11 30 -20 33 -16 40 -11 13 10 -17 13 -43 19
-43 10z"/>
<path d="M4992 2198 c-16 -16 -16 -81 1 -75 6 2 12 12 12 23 1 10 4 25 9 32
11 19 -7 35 -22 20z"/>
<path d="M1123 2140 c4 -36 11 -44 31 -37 13 5 13 10 0 36 -20 39 -35 40 -31
1z"/>
<path d="M1862 2129 c2 -7 10 -15 17 -17 8 -3 12 1 9 9 -2 7 -10 15 -17 17 -8
3 -12 -1 -9 -9z"/>
<path d="M1070 2110 c-12 -8 -11 -10 8 -10 12 0 22 5 22 10 0 13 -11 13 -30 0z"/>
<path d="M1286 2064 c-4 -10 -1 -14 6 -12 15 5 23 28 10 28 -5 0 -13 -7 -16
-16z"/>
<path d="M1085 2059 c-10 -15 1 -23 20 -15 9 3 13 10 10 16 -8 13 -22 13 -30
-1z"/>
<path d="M1794 2035 c5 -20 2 -30 -15 -44 -13 -10 -19 -23 -15 -29 10 -16 46
-15 46 1 0 8 9 22 20 32 22 20 15 36 -23 57 -18 9 -19 8 -13 -17z"/>
<path d="M1406 1962 c-7 -11 31 -48 41 -38 4 3 -2 16 -14 27 -11 12 -23 17
-27 11z"/>
<path d="M4338 1939 c-24 -13 -23 -26 3 -34 13 -5 18 -12 14 -22 -4 -13 -3
-14 10 -3 10 8 12 17 6 24 -5 6 -10 19 -12 28 -3 13 -8 15 -21 7z"/>
<path d="M1900 1847 c0 -21 26 -41 35 -27 4 6 5 12 4 13 -2 2 -12 9 -21 16
-15 11 -18 11 -18 -2z"/>
<path d="M1315 1710 c3 -5 13 -10 21 -10 8 0 14 5 14 10 0 6 -9 10 -21 10 -11
0 -17 -4 -14 -10z"/>
<path d="M1423 1663 c-20 -8 -15 -23 7 -23 11 0 20 7 20 15 0 15 -6 17 -27 8z"/>
<path d="M4925 1560 c-4 -6 7 -10 27 -9 27 0 30 2 13 9 -27 12 -33 12 -40 0z"/>
<path d="M2475 1480 c-4 -6 7 -10 25 -10 18 0 29 4 25 10 -3 6 -15 10 -25 10
-10 0 -22 -4 -25 -10z"/>
<path d="M1560 1465 c0 -9 5 -15 11 -13 6 2 11 8 11 13 0 5 -5 11 -11 13 -6 2
-11 -4 -11 -13z"/>
<path d="M2545 1240 c-4 -6 5 -10 20 -10 15 0 24 4 20 10 -3 6 -12 10 -20 10
-8 0 -17 -4 -20 -10z"/>
<path d="M2458 1223 c-14 -2 -32 -11 -38 -19 -11 -12 -6 -14 28 -14 28 0 42
-5 44 -15 2 -9 8 -12 16 -6 16 10 6 62 -12 60 -6 -1 -23 -4 -38 -6z"/>
<path d="M1586 1182 c-7 -11 30 -42 49 -42 22 0 18 17 -7 34 -25 18 -35 20
-42 8z"/>
<path d="M4182 1178 c3 -7 13 -15 22 -16 12 -3 17 1 14 10 -3 7 -13 15 -22 16
-12 3 -17 -1 -14 -10z"/>
<path d="M2374 1166 c-4 -11 0 -22 12 -31 16 -12 19 -12 22 2 2 8 -3 22 -12
31 -14 14 -16 14 -22 -2z"/>
<path d="M2410 1084 c0 -8 9 -14 20 -14 11 0 22 0 25 0 16 0 1 16 -20 22 -18
4 -25 2 -25 -8z"/>
<path d="M1582 1074 c2 -11 16 -17 48 -19 32 -2 39 -1 24 5 -12 5 -25 13 -29
19 -10 18 -47 13 -43 -5z"/>
<path d="M2680 1031 c0 -5 7 -14 15 -21 12 -10 15 -10 15 3 0 8 -7 17 -15 21
-8 3 -15 2 -15 -3z"/>
<path d="M2481 1006 c-8 -9 -8 -16 -2 -20 6 -4 15 3 21 14 12 23 -2 27 -19 6z"/>
<path d="M2425 1000 c-3 -5 3 -10 15 -10 12 0 18 5 15 10 -3 6 -10 10 -15 10
-5 0 -12 -4 -15 -10z"/>
<path d="M2570 976 c0 -9 7 -16 16 -16 17 0 14 22 -4 28 -7 2 -12 -3 -12 -12z"/>
<path d="M2780 971 c0 -6 11 -11 23 -11 13 0 32 -9 42 -20 19 -20 45 -27 45
-11 0 13 -41 37 -78 45 -21 5 -32 4 -32 -3z"/>
</g>
</svg>
