<?xml version="1.0" standalone="no"?>
<!DOCTYPE svg PUBLIC "-//W3C//DTD SVG 20010904//EN"
 "http://www.w3.org/TR/2001/REC-SVG-20010904/DTD/svg10.dtd">
<svg version="1.0" xmlns="http://www.w3.org/2000/svg"
 width="900.000000pt" height="489.000000pt" viewBox="0 0 900.000000 489.000000"
 preserveAspectRatio="xMidYMid meet">
<metadata>
Created by potrace 1.10, written by Peter Selinger 2001-2011
</metadata>
<g transform="translate(0.000000,489.000000) scale(0.100000,-0.100000)"
fill="#000000" stroke="none">
<path d="M2807 4871 c-2 -11 -24 -26 -53 -36 -62 -23 -71 -31 -95 -76 -10 -21
-46 -69 -80 -108 -60 -71 -87 -112 -132 -206 -43 -88 -57 -125 -57 -146 0 -12
-7 -46 -16 -77 -15 -49 -16 -88 -10 -272 5 -162 10 -220 21 -237 19 -28 19
-33 -1 -33 -8 0 -29 -13 -45 -29 -25 -26 -29 -37 -29 -87 0 -31 4 -73 9 -93 6
-20 15 -57 22 -83 6 -26 15 -45 20 -43 4 3 25 -1 45 -10 20 -8 49 -15 63 -15
21 0 34 -10 54 -40 31 -48 19 -60 -26 -26 -48 36 -118 60 -129 44 -21 -32 35
-115 133 -198 27 -23 59 -60 70 -83 12 -23 48 -68 80 -100 85 -85 129 -209
159 -452 6 -44 15 -92 21 -106 6 -15 9 -42 7 -60 -3 -30 -10 -37 -68 -67 -36
-18 -96 -57 -135 -85 -75 -56 -146 -106 -173 -122 -9 -5 -70 -50 -135 -100
-65 -49 -133 -99 -151 -110 -50 -31 -117 -85 -161 -130 -22 -23 -59 -54 -82
-69 -24 -16 -43 -32 -43 -36 0 -3 -24 -17 -52 -30 -32 -14 -87 -56 -139 -104
-47 -45 -111 -102 -141 -128 -62 -52 -141 -174 -144 -221 -1 -17 -9 -36 -16
-42 -71 -53 -155 -239 -183 -405 -9 -52 -20 -113 -26 -135 -6 -22 -15 -60 -20
-85 -14 -60 -24 -101 -47 -185 -18 -63 -35 -142 -49 -218 l-5 -27 1176 0
c1152 0 1176 0 1186 19 13 26 13 71 -1 71 -5 0 -7 5 -3 12 4 6 10 25 13 42 6
28 10 31 43 28 36 -3 38 -2 64 53 l28 56 42 -7 c35 -5 46 -2 64 16 12 12 19
27 16 35 -3 8 6 15 27 18 41 6 47 2 47 -34 0 -25 4 -29 28 -30 l27 -1 -25 -7
c-25 -7 -30 -27 -19 -75 3 -13 -5 -21 -31 -30 -20 -6 -44 -25 -58 -46 -12 -19
-38 -51 -57 -71 -19 -20 -35 -39 -35 -43 0 -3 837 -6 1860 -6 l1860 0 14 23
c24 38 83 218 95 292 6 39 10 108 8 155 -3 126 35 384 66 444 19 38 48 180 42
205 -9 34 -44 91 -57 91 -6 0 -19 11 -29 24 -11 14 -33 27 -49 31 -23 5 -35
17 -50 48 -11 22 -20 42 -20 44 0 11 80 0 90 -12 7 -8 16 -13 20 -10 14 8 -1
48 -29 80 -30 34 -55 84 -65 133 -4 17 -12 32 -17 32 -5 0 -9 12 -9 26 0 23
-32 90 -50 104 -4 3 -10 17 -14 33 -8 35 9 67 79 142 31 32 70 78 88 101 17
22 48 54 69 69 21 16 40 37 43 46 4 10 20 30 38 45 29 24 37 26 94 21 34 -4
73 -13 85 -20 13 -8 50 -17 83 -20 33 -3 76 -11 95 -20 19 -8 60 -23 90 -32
30 -10 61 -23 69 -29 8 -6 54 -11 105 -11 71 0 97 4 116 18 13 9 41 17 60 17
20 0 45 6 55 14 16 12 17 16 6 30 -7 9 -32 21 -55 26 -22 6 -56 17 -73 25 -30
14 -33 13 -44 -6 -9 -18 -17 -20 -56 -14 -25 4 -55 10 -67 15 -11 4 -48 16
-81 26 -33 9 -68 24 -77 32 -10 9 -27 12 -42 8 -18 -4 -38 4 -85 39 -53 39
-64 43 -86 35 -65 -25 -81 -3 -48 65 19 40 17 44 -29 51 -29 5 -35 3 -46 -20
-8 -18 -19 -26 -37 -26 -25 0 -30 10 -27 51 1 10 -9 20 -23 23 -29 7 -31 22
-9 54 13 19 14 28 4 53 -15 35 -65 73 -85 65 -24 -9 -17 -34 13 -48 15 -7 28
-23 30 -36 3 -18 -1 -22 -23 -22 -14 0 -37 7 -51 16 -19 13 -30 14 -47 6 -12
-5 -30 -13 -40 -16 -14 -5 -18 -14 -15 -43 l3 -38 47 0 c35 0 51 -5 62 -20 14
-19 15 -19 34 -1 35 31 57 17 58 -34 0 -25 4 -55 8 -68 5 -14 3 -36 -4 -53
-13 -30 -30 -39 -30 -15 0 8 -11 28 -24 44 -20 22 -31 28 -54 24 -24 -3 -36 3
-62 32 -25 26 -41 36 -64 36 -24 0 -36 7 -51 31 -26 40 -52 54 -100 54 -34 0
-41 4 -54 30 -8 17 -21 35 -29 41 -16 12 -37 186 -25 208 11 19 99 81 148 106
22 10 74 28 115 40 111 31 172 52 198 68 30 19 54 73 50 112 -2 27 -11 37 -53
61 -68 38 -170 40 -279 5 -93 -31 -114 -42 -148 -78 -26 -28 -26 -28 -56 -11
-29 16 -32 17 -49 0 -18 -15 -20 -15 -35 -1 -15 15 -18 15 -42 -2 -14 -11 -26
-27 -26 -36 0 -16 -44 -58 -61 -58 -5 0 -9 10 -9 23 0 12 -4 28 -9 36 -8 12
-12 12 -26 -2 -9 -10 -20 -17 -25 -17 -5 0 -13 -15 -18 -32 -8 -32 -11 -33
-58 -33 -48 0 -53 -3 -117 -65 -37 -36 -82 -79 -100 -96 -17 -17 -46 -46 -63
-65 -17 -19 -46 -47 -63 -62 -17 -16 -31 -35 -31 -43 0 -8 -6 -23 -12 -34 -19
-30 0 -41 49 -28 53 15 115 -2 155 -42 31 -31 36 -69 15 -110 -12 -23 -17 -24
-102 -24 -76 0 -97 3 -128 22 l-38 22 -24 -25 c-14 -13 -25 -29 -25 -34 0 -6
-21 -26 -47 -46 -58 -44 -81 -98 -89 -211 -5 -62 -3 -88 9 -115 14 -31 32
-168 28 -214 0 -11 -4 -83 -7 -160 -5 -134 -6 -141 -30 -161 -22 -18 -23 -24
-14 -48 15 -41 12 -180 -5 -223 -8 -21 -19 -58 -23 -83 -6 -33 -14 -48 -32
-57 -63 -30 -162 -73 -169 -73 -15 0 -43 -39 -36 -49 3 -6 15 -11 25 -11 32 0
31 -18 -2 -29 -45 -16 -66 -14 -78 9 -8 15 -7 27 4 49 16 30 61 71 79 71 6 0
26 12 46 28 20 15 53 35 73 44 21 9 38 21 38 27 0 5 -29 9 -67 8 -49 0 -78 -7
-111 -24 -25 -13 -47 -22 -49 -19 -3 3 -1 18 5 34 6 17 6 35 1 43 -17 28 -9
50 22 61 21 7 27 14 20 21 -13 13 -108 12 -124 -1 -7 -5 -25 -13 -42 -16 -16
-4 -41 -16 -55 -26 l-25 -20 24 -19 24 -18 -24 -6 c-13 -4 -36 -7 -51 -7 -39
0 -37 30 3 63 37 31 62 74 48 83 -6 3 -39 0 -75 -7 -56 -11 -68 -11 -99 4 -42
20 -43 26 -10 57 30 28 33 66 6 75 -11 3 -27 17 -36 31 -23 35 -59 29 -63 -10
-2 -16 1 -33 7 -39 21 -21 13 -63 -14 -75 -14 -6 -25 -18 -25 -26 0 -8 -17
-36 -38 -63 -32 -40 -73 -110 -102 -173 -7 -15 -75 -38 -84 -29 -11 11 1 208
14 224 4 6 11 35 15 65 4 30 13 65 21 77 8 12 14 37 14 55 1 18 7 44 15 58 20
34 20 100 0 100 -20 0 -105 -116 -105 -143 0 -11 -26 -48 -57 -82 -32 -34 -67
-73 -78 -88 -11 -14 -24 -26 -28 -27 -10 0 6 31 48 95 26 40 34 64 39 119 6
61 5 68 -8 57 -16 -13 -36 -7 -36 10 0 12 48 78 70 97 8 7 38 24 65 39 52 27
112 76 155 127 l24 29 -24 -6 c-175 -41 -238 -67 -289 -120 -32 -34 -33 -37
-26 -92 l7 -57 -54 5 c-244 21 -320 29 -363 37 -139 25 -165 30 -225 43 -36 8
-102 23 -147 32 -67 14 -83 21 -83 36 0 10 5 21 11 25 6 3 19 25 28 48 10 23
26 47 35 55 9 7 16 19 16 26 0 6 13 36 30 66 16 30 30 63 30 74 0 12 9 38 20
60 11 22 20 47 20 57 0 10 7 21 16 25 11 4 14 13 9 30 -3 15 0 34 8 47 24 37
39 119 28 150 -6 15 -11 43 -11 63 0 19 -9 47 -20 63 -20 29 -114 75 -130 65
-15 -9 -12 -72 4 -87 11 -11 11 -14 -1 -23 -9 -7 -15 -43 -20 -115 -6 -110
-15 -139 -64 -201 -16 -20 -29 -42 -29 -48 0 -6 -4 -11 -10 -11 -17 0 -11 29
15 70 14 22 25 45 25 53 0 7 6 21 14 32 8 13 15 60 18 130 5 130 3 145 -23
145 -10 0 -19 3 -19 6 0 3 20 29 44 58 46 53 86 138 86 182 0 13 14 50 31 82
19 35 33 78 36 112 7 71 53 166 109 225 37 38 43 49 34 65 -6 11 -17 20 -25
20 -26 0 -17 54 15 95 36 45 44 73 36 119 -4 22 -13 36 -26 39 -11 3 -20 12
-20 21 0 19 26 22 33 4 3 -7 6 11 6 40 1 33 9 69 22 94 12 23 23 69 26 102 2
34 11 89 20 122 10 39 14 90 11 139 -3 72 -6 79 -33 101 -58 46 -63 53 -80
110 -9 32 -26 77 -37 100 -18 40 -18 44 -3 68 15 23 15 27 0 49 -9 14 -28 30
-43 36 -17 7 -38 30 -52 59 -81 154 -138 227 -222 283 -33 21 -63 39 -68 39
-5 0 -12 9 -15 20 -6 20 -15 20 -535 20 -507 0 -528 -1 -533 -19z m690 -156
c15 -11 28 -12 45 -6 52 19 123 22 168 7 25 -9 55 -16 67 -16 42 0 128 -42
203 -98 87 -66 84 -63 153 -167 66 -100 76 -123 84 -196 3 -33 10 -62 14 -65
5 -3 8 -35 8 -72 -1 -37 -3 -58 -6 -47 -14 64 -29 88 -79 131 l-54 47 -93 -13
c-99 -13 -201 -43 -229 -68 -10 -8 -18 -23 -18 -34 0 -11 -7 -18 -19 -18 -25
0 -36 -74 -15 -104 8 -11 14 -42 14 -69 0 -26 6 -60 14 -75 7 -15 16 -42 20
-61 5 -30 63 -118 104 -160 7 -8 21 -25 29 -38 20 -30 89 -67 106 -56 7 4 24
6 39 4 24 -2 28 1 28 21 0 13 5 29 11 35 9 9 5 14 -14 18 -14 4 -30 4 -36 1
-14 -9 -63 12 -56 24 4 6 32 8 72 5 36 -3 70 -2 77 3 19 15 72 22 84 10 26
-26 27 67 2 222 -13 82 -24 110 -44 110 -18 0 -39 26 -34 42 3 8 14 3 31 -16
21 -22 30 -26 40 -17 21 17 27 3 27 -68 0 -36 7 -86 15 -111 25 -76 43 -250
31 -287 -13 -38 -81 -81 -90 -57 -16 42 -116 -35 -116 -89 0 -15 -8 -40 -17
-54 -10 -15 -22 -42 -28 -60 l-10 -33 -32 20 c-18 11 -33 27 -33 36 0 9 -18
43 -40 76 -22 33 -40 64 -40 69 0 15 -27 10 -64 -11 -22 -14 -37 -17 -41 -10
-3 5 -16 10 -28 10 -17 0 -143 56 -177 78 -3 2 2 9 11 15 9 7 19 28 22 47 4
20 16 53 28 74 24 46 19 98 -12 132 -19 21 -20 24 -5 110 9 49 21 104 27 121
9 29 7 37 -17 68 -14 19 -32 35 -39 35 -7 0 -18 6 -24 14 -28 33 -199 76 -303
76 -37 0 -78 4 -92 10 -30 11 -112 88 -103 96 3 4 -1 20 -9 37 -12 23 -13 35
-5 53 8 19 8 24 -4 24 -8 0 -32 16 -52 35 -20 19 -41 35 -45 35 -4 0 -8 9 -8
20 0 33 -25 23 -84 -35 -30 -30 -58 -55 -61 -55 -30 0 85 131 148 168 23 14
44 29 47 33 15 20 135 74 200 90 98 23 277 25 307 4z m590 -922 c-3 -10 -5 -2
-5 17 0 19 2 27 5 18 2 -10 2 -26 0 -35z m-1082 -123 c3 -6 40 -32 81 -59 84
-56 145 -72 172 -47 10 8 35 18 57 21 37 6 41 5 53 -24 12 -27 11 -38 -3 -82
-18 -52 -22 -58 -84 -106 l-34 -27 -16 22 c-9 13 -33 44 -53 70 -21 25 -38 50
-38 53 0 4 -12 12 -27 18 -16 6 -35 15 -43 20 -8 5 -34 17 -58 27 -24 10 -47
25 -53 35 -10 20 -12 73 -2 82 10 10 41 8 48 -3z m-455 -245 c0 -8 -4 -15 -9
-15 -13 0 -22 16 -14 24 11 11 23 6 23 -9z m910 -159 c0 -14 5 -28 10 -31 14
-9 12 -25 -3 -25 -14 0 -39 58 -31 71 10 17 24 8 24 -15z m410 -20 c11 -24 24
-46 29 -48 14 -5 26 -78 13 -78 -6 0 -14 5 -17 10 -3 6 -16 10 -28 10 -24 1
-67 58 -67 91 0 17 32 59 45 59 2 0 14 -20 25 -44z m-185 -146 c14 -5 23 -14
20 -20 -8 -13 -41 -13 -68 2 -23 12 -24 11 20 27 1 1 14 -3 28 -9z m295 -650
c-6 -11 -15 -20 -19 -20 -5 0 -7 9 -4 20 3 11 12 20 20 20 11 0 11 -4 3 -20z
m169 -68 c0 -24 -1 -25 -9 -7 -12 28 -12 47 0 40 6 -3 10 -18 9 -33z m2771 21
c0 -17 -55 -114 -75 -133 -27 -25 -80 -32 -80 -10 0 8 16 25 35 37 47 31 100
84 100 100 0 7 5 13 10 13 6 0 10 -3 10 -7z m759 -169 c3 -16 1 -17 -13 -5
-19 16 -21 34 -3 29 6 -3 14 -13 16 -24z m-3733 -516 c-3 -40 -5 -74 -5 -75
-1 -1 -14 3 -31 8 -36 13 -40 50 -10 89 11 14 20 31 20 38 0 6 7 12 16 12 13
0 14 -11 10 -72z m3256 -68 c5 -32 -8 -36 -25 -8 -11 17 -2 52 12 44 5 -3 11
-19 13 -36z m-3342 -6 c0 -3 -13 -19 -30 -35 -39 -39 -62 -27 -24 12 25 26 54
38 54 23z m3296 -81 c-11 -29 -17 -6 -9 33 7 36 8 37 11 11 2 -16 1 -36 -2
-44z m-5161 7 c10 -16 -24 -45 -37 -32 -8 8 -8 15 2 27 14 17 26 19 35 5z m-9
-81 c9 -15 -11 -33 -30 -26 -9 4 -13 13 -10 22 7 17 30 20 40 4z m643 -55 c12
-15 21 -38 21 -51 0 -21 -3 -23 -22 -17 -20 6 -19 2 10 -26 17 -19 32 -37 32
-41 0 -22 -21 -12 -75 37 -33 30 -70 57 -82 60 -28 7 -31 34 -4 34 10 0 32 7
47 15 40 20 49 19 73 -11z m153 -11 c9 -18 30 -33 68 -47 57 -22 100 -52 100
-72 0 -6 11 -16 25 -22 30 -14 55 6 55 44 0 29 24 42 45 24 18 -15 117 -8 123
9 2 6 11 11 20 11 21 0 80 19 114 36 16 9 59 14 116 14 l90 0 5 -32 c6 -39 -9
-61 -36 -54 -39 10 -321 -25 -400 -50 -43 -13 -83 -24 -89 -24 -26 0 -143
-111 -197 -186 -41 -57 -42 -55 -61 116 -6 58 -18 123 -26 145 -17 48 -18 70
-4 96 15 27 37 24 52 -8z m307 3 c9 -8 36 -18 60 -23 59 -11 67 -33 12 -33
-30 0 -43 5 -51 20 -6 12 -21 20 -35 20 -24 0 -32 10 -18 23 9 10 14 9 32 -7z
m-114 -2 c12 -5 14 -9 4 -14 -14 -9 -39 -2 -39 11 0 11 12 11 35 3z m1575 -43
c0 -6 -4 -12 -9 -15 -12 -8 -22 -66 -25 -147 -1 -41 -8 -74 -20 -91 -12 -19
-15 -36 -10 -62 4 -24 2 -36 -5 -36 -6 0 -11 9 -11 20 0 11 -7 23 -15 26 -8 4
-15 13 -15 22 0 21 -29 52 -50 52 -22 0 -40 -20 -40 -45 0 -11 -13 -33 -30
-48 -22 -21 -30 -25 -30 -13 0 9 5 16 10 16 6 0 10 11 10 24 0 28 -14 41 -32
29 -15 -9 -79 -33 -90 -33 -13 0 -9 52 6 90 28 73 41 100 47 100 11 0 18 -41
12 -71 -5 -29 -5 -29 40 -29 55 0 91 27 165 124 72 93 92 112 92 87z m-2910
-89 c0 -5 -11 -22 -25 -38 -14 -16 -45 -58 -70 -94 -45 -66 -98 -110 -110 -90
-3 6 0 13 8 16 8 3 28 26 45 52 17 26 54 73 82 105 48 53 70 69 70 49z m1559
-258 c-6 -7 -33 -20 -60 -29 -27 -9 -51 -21 -54 -26 -4 -5 -14 -9 -24 -9 -10
0 -26 -9 -36 -20 -10 -11 -27 -20 -38 -20 -10 0 -31 -8 -45 -18 -15 -11 -53
-32 -86 -47 -58 -28 -84 -27 -94 3 -5 15 69 60 136 82 32 10 71 25 87 33 40
20 155 65 180 70 32 5 48 -3 34 -19z m1214 -89 c47 -9 53 -19 22 -33 -14 -7
-25 -17 -25 -23 0 -14 49 -60 85 -79 23 -12 28 -12 35 0 8 12 10 10 10 -7 0
-21 25 -37 50 -31 7 2 15 -3 17 -9 3 -9 -10 -13 -45 -13 -28 0 -52 3 -54 8 -7
17 -103 72 -136 78 -50 10 -180 -2 -199 -18 -14 -11 -15 -11 -10 2 4 8 10 23
13 33 4 10 17 17 33 17 15 0 31 8 39 20 10 17 9 20 -13 26 -14 3 -25 10 -25
14 0 10 25 20 49 20 10 0 28 11 41 25 l24 25 25 -24 c14 -13 43 -28 64 -31z
m-3020 7 c-6 -25 -32 -57 -39 -49 -9 9 25 79 36 72 4 -3 6 -13 3 -23z m3207
-32 c0 -11 -4 -20 -10 -20 -5 0 -10 2 -10 4 0 2 -3 11 -6 20 -4 11 -1 16 10
16 9 0 16 -8 16 -20z m-1950 -15 c0 -8 -7 -15 -15 -15 -8 0 -15 -4 -15 -9 0
-5 -21 -14 -47 -20 -39 -10 -49 -10 -62 3 -23 23 -2 38 58 40 28 1 54 5 57 9
12 12 24 8 24 -8z m2235 5 c-3 -5 -12 -10 -19 -10 -8 0 -19 -7 -26 -15 -13
-15 -50 -21 -50 -7 1 10 61 40 83 41 10 1 15 -3 12 -9z m1075 -15 c0 -19 -34
-37 -55 -29 -23 9 -14 37 15 44 30 8 40 4 40 -15z m-1402 -27 c16 -16 15 -28
-3 -28 -8 0 -15 2 -15 4 0 2 -3 11 -6 20 -7 19 7 21 24 4z m222 -18 c0 -5 -9
-10 -21 -10 -11 0 -17 5 -14 10 3 6 13 10 21 10 8 0 14 -4 14 -10z m-417 -79
c61 -26 85 -71 38 -71 -9 0 -24 -14 -33 -30 -11 -19 -22 -28 -32 -24 -20 8
-33 -41 -16 -61 11 -13 7 -15 -25 -15 -32 0 -36 2 -25 15 19 23 6 43 -25 37
-26 -4 -26 -4 -19 34 3 22 11 45 17 52 13 17 3 25 -22 17 -11 -3 -22 -18 -26
-35 -4 -17 -11 -30 -16 -30 -14 0 -10 37 6 54 8 8 15 21 15 29 0 8 20 21 48
30 61 20 62 20 115 -2z m-1103 -126 c0 -8 -4 -15 -10 -15 -5 0 -10 7 -10 15 0
8 5 15 10 15 6 0 10 -7 10 -15z m980 -84 c0 -24 -22 -42 -39 -32 -8 5 -11 17
-6 30 8 27 45 29 45 2z m-422 -8 c3 -10 -32 -13 -154 -13 -86 0 -154 3 -150 7
6 6 234 22 280 19 11 -1 21 -7 24 -13z m-353 -3 c4 -6 -5 -10 -19 -10 -14 0
-26 5 -26 10 0 6 9 10 19 10 11 0 23 -4 26 -10z m305 -100 c0 -6 -57 -10 -166
-10 -91 0 -163 3 -160 8 7 12 326 15 326 2z m-1031 -46 c32 -7 43 -24 14 -24
-9 0 -45 -16 -80 -35 -34 -19 -69 -32 -77 -29 -8 3 -26 -2 -40 -11 -33 -22
-33 -9 -1 46 23 42 26 44 82 50 32 3 61 6 64 7 4 1 21 -1 38 -4z m-869 -281
c0 -5 -5 -15 -10 -23 -8 -12 -10 -11 -10 8 0 12 5 22 10 22 6 0 10 -3 10 -7z"/>
<path d="M3075 4420 c-3 -5 3 -10 15 -10 12 0 18 5 15 10 -3 6 -10 10 -15 10
-5 0 -12 -4 -15 -10z"/>
<path d="M7843 2495 c-3 -9 -3 -18 0 -21 9 -9 27 6 27 22 0 19 -19 18 -27 -1z"/>
<path d="M4276 2433 c-9 -10 -7 -51 3 -57 10 -7 45 -78 56 -113 3 -13 23 -41
44 -62 21 -22 41 -47 44 -55 7 -17 47 -41 47 -28 0 5 -11 24 -23 43 -13 19
-45 64 -70 102 -26 37 -47 73 -47 81 0 7 -7 19 -15 26 -8 7 -15 23 -15 36 0
24 -12 38 -24 27z"/>
<path d="M4709 1898 c11 -24 27 -63 37 -88 9 -25 26 -53 37 -62 18 -17 20 -17
51 8 20 18 30 34 28 48 -5 29 -31 56 -54 56 -10 0 -38 18 -60 40 -23 22 -46
40 -50 40 -4 0 1 -19 11 -42z"/>
<path d="M5580 1800 c0 -5 5 -10 10 -10 6 0 10 -6 10 -14 0 -7 6 -19 14 -25 9
-8 14 -32 13 -70 -1 -96 36 -138 152 -172 25 -8 60 -24 79 -37 19 -13 37 -21
39 -18 3 3 6 22 6 43 2 59 -38 132 -97 179 -61 49 -226 139 -226 124z"/>
</g>
</svg>
