<?xml version="1.0" standalone="no"?>
<!DOCTYPE svg PUBLIC "-//W3C//DTD SVG 20010904//EN"
 "http://www.w3.org/TR/2001/REC-SVG-20010904/DTD/svg10.dtd">
<svg version="1.0" xmlns="http://www.w3.org/2000/svg"
 width="300.000000pt" height="210.000000pt" viewBox="0 0 300.000000 210.000000"
 preserveAspectRatio="xMidYMid meet">
<metadata>
Created by potrace 1.10, written by Peter Selinger 2001-2011
</metadata>
<g transform="translate(0.000000,210.000000) scale(0.050000,-0.050000)"
fill="#000000" stroke="none">
<path d="M2434 4015 c-26 -192 29 -447 218 -1009 l128 -383 -62 -67 c-34 -36
-89 -113 -122 -171 -33 -58 -72 -105 -88 -105 -15 0 -28 -11 -28 -24 0 -31
-395 -774 -431 -810 -15 -15 -70 -106 -121 -202 -51 -96 -151 -280 -221 -410
-154 -285 -155 -374 -5 -374 29 0 498 838 498 890 0 23 401 774 438 820 21 27
50 38 87 34 55 -7 68 20 56 111 -3 29 17 32 55 8 22 -14 21 -24 -6 -50 -38
-38 -32 -40 39 -13 55 20 73 108 26 127 -14 5 -2 11 26 11 97 3 145 -51 130
-150 -13 -86 -12 -88 43 -88 41 0 63 -14 80 -52 49 -106 343 -904 386 -1048
25 -82 97 -280 160 -440 63 -159 130 -337 148 -393 45 -136 65 -152 160 -122
108 33 108 43 -14 349 -60 152 -151 386 -203 521 -52 134 -107 252 -123 261
-32 18 -368 863 -368 925 0 22 -7 39 -16 39 -9 0 -38 52 -64 115 -26 63 -83
152 -126 199 l-78 85 51 155 c227 694 326 1306 212 1306 -42 0 -384 -1032
-368 -1109 30 -140 -33 2 -180 409 -293 809 -295 814 -317 655z m464 -1426
c-45 -45 -98 13 -57 62 23 28 29 28 57 0 28 -28 28 -34 0 -62z m-358 -418 c0
-36 -99 -150 -99 -115 -1 39 57 144 80 144 10 0 19 -13 19 -29z m769 -126 c19
-52 74 -199 123 -326 103 -270 99 -250 45 -254 -29 -2 -36 4 -23 17 14 14 5
59 -28 140 -50 124 -161 422 -180 483 -25 81 31 27 63 -60z"/>
</g>
</svg>
