<?xml version="1.0" standalone="no"?>
<!DOCTYPE svg PUBLIC "-//W3C//DTD SVG 20010904//EN"
 "http://www.w3.org/TR/2001/REC-SVG-20010904/DTD/svg10.dtd">
<svg version="1.0" xmlns="http://www.w3.org/2000/svg"
 width="300.000000pt" height="284.000000pt" viewBox="0 0 300.000000 284.000000"
 preserveAspectRatio="xMidYMid meet">
<metadata>
Created by potrace 1.10, written by Peter Selinger 2001-2011
</metadata>
<g transform="translate(0.000000,284.000000) scale(0.050000,-0.050000)"
fill="#000000" stroke="none">
<path d="M3360 3500 c-1 -23 -118 -63 -215 -74 -59 -6 -102 -16 -97 -21 21
-21 -63 -81 -132 -93 -41 -7 -99 -27 -130 -42 -31 -16 -70 -25 -86 -20 -73 23
-152 -61 -200 -213 -48 -149 -88 -221 -180 -323 -41 -46 -50 -78 -51 -170 -1
-110 -39 -239 -78 -268 -24 -17 -49 -3 -141 81 -40 37 -129 93 -197 125 -128
61 -213 107 -300 165 -50 32 -104 48 -63 18 12 -9 15 -45 8 -85 -7 -38 -14
-58 -15 -43 -2 23 -9 23 -33 3 -38 -31 -44 38 -6 76 13 13 17 29 10 36 -7 8
-31 -8 -54 -34 l-41 -48 6 69 c4 52 16 72 48 80 75 19 25 101 -63 101 -94 0
-230 -55 -192 -79 17 -10 21 -27 11 -43 -9 -15 -15 -53 -12 -84 8 -112 -65
-59 -78 56 -12 109 -34 89 -43 -40 -6 -80 -6 -80 -111 -99 -58 -10 -105 -26
-105 -36 0 -20 273 0 365 26 140 41 306 -67 655 -425 l250 -256 104 0 c113 0
301 138 461 337 77 95 102 92 166 -23 25 -46 113 -176 194 -289 190 -265 196
-285 156 -469 -24 -111 -28 -179 -14 -286 9 -78 10 -167 0 -200 -9 -33 -17
-89 -17 -126 0 -189 -49 -225 -380 -273 -389 -57 -312 -131 134 -130 141 0
389 -3 551 -6 327 -6 367 11 182 76 -254 90 -267 101 -267 245 0 61 22 197 49
302 172 675 170 654 93 942 -76 281 -79 378 -17 433 55 48 248 147 288 147 71
0 151 62 142 111 -5 26 -3 44 5 39 8 -5 41 -1 74 8 78 23 126 -6 126 -75 0
-77 102 -271 146 -280 51 -9 290 152 326 220 16 31 38 57 49 57 11 0 45 25 77
55 32 30 82 76 112 101 60 52 63 148 11 393 -38 185 -223 318 -332 238 -20
-15 -57 -27 -83 -27 -26 0 -44 -11 -41 -25 3 -13 -15 -27 -39 -31 -58 -9 -72
-59 -47 -171 12 -51 20 -135 18 -188 -5 -123 22 -305 44 -305 18 0 58 15 194
71 108 45 125 121 22 98 -49 -10 -61 -7 -53 14 6 15 2 49 -8 77 l-18 50 -38
-50 c-36 -48 -37 -48 -79 -11 -23 21 -35 43 -26 50 20 15 19 128 -1 143 -49
36 10 158 73 153 89 -7 182 -101 153 -155 -17 -32 -15 -40 9 -40 17 0 31 -14
31 -32 0 -17 18 -36 40 -42 46 -12 50 -28 17 -61 -18 -18 -15 -27 11 -37 34
-13 130 66 159 132 7 17 8 -15 2 -70 -11 -100 -21 -113 -138 -196 -29 -20 -46
-46 -38 -58 8 -14 4 -16 -11 -7 -27 16 -102 -41 -102 -79 0 -49 -260 -225
-298 -201 -10 6 -29 56 -42 111 -13 55 -32 100 -42 100 -10 0 -18 11 -18 25
-1 14 -32 60 -70 102 -40 44 -71 100 -72 130 -2 29 -5 62 -7 73 -3 11 -6 45
-8 75 -2 30 -21 73 -43 95 -22 22 -40 52 -40 67 0 18 -16 24 -50 18 -60 -12
-60 -6 -8 -93 60 -103 -10 -326 -98 -308 -18 4 -44 -6 -56 -22 -15 -19 -55
-27 -125 -25 -59 2 -103 -5 -103 -17 0 -17 58 -30 105 -22 8 1 15 -19 15 -45
0 -100 -257 -273 -284 -192 -4 12 -46 24 -94 28 -47 3 -94 18 -102 33 -53 92
-151 195 -168 178 -13 -13 -9 -29 11 -45 82 -67 120 -166 77 -205 -22 -20 -40
-49 -40 -64 0 -34 -83 -28 -94 6 -4 13 16 51 46 86 29 35 47 69 41 76 -21 21
-113 -31 -113 -64 0 -36 -19 -37 -64 -3 -39 30 -80 123 -61 141 21 22 48 13
33 -11 -10 -16 -4 -20 19 -11 18 7 33 4 33 -7 0 -10 -9 -19 -20 -19 -11 0 -20
-10 -20 -23 0 -15 13 -12 35 7 19 17 46 27 60 22 15 -6 25 8 25 34 0 27 -15
48 -40 54 -28 8 -35 18 -22 34 12 15 13 34 1 53 -29 46 -23 59 28 59 47 0 117
63 139 124 18 52 -16 61 -57 15 -20 -22 -48 -36 -62 -30 -15 5 -36 -9 -48 -31
-12 -22 -32 -37 -45 -32 -13 5 -43 -9 -67 -30 -75 -69 -102 16 -36 113 l50 74
-46 -14 c-61 -19 -57 -11 -70 -147 -11 -129 -7 -136 54 -98 39 24 121 -22 121
-68 0 -36 -63 -40 -101 -5 -43 39 -51 15 -20 -61 9 -23 7 -51 -4 -65 -26 -33
35 -105 88 -105 41 0 46 -15 18 -59 -12 -19 -11 -39 1 -53 14 -18 1 -31 -50
-47 -38 -13 -102 -60 -142 -104 -270 -299 -410 -371 -492 -257 -54 75 -70 160
-30 160 42 0 40 19 -9 80 -22 28 -38 41 -36 30 6 -33 -26 -170 -41 -170 -7 0
-71 70 -142 155 -149 178 -164 192 -264 245 -70 38 -73 43 -53 100 24 70 61
81 50 15 -4 -25 -3 -34 1 -20 13 38 42 30 56 -15 7 -22 26 -40 41 -40 16 0 29
-14 29 -32 0 -17 11 -28 25 -23 13 4 42 -8 63 -28 22 -21 56 -37 76 -37 20 0
36 -9 36 -20 0 -11 14 -20 30 -20 37 0 38 23 5 59 -14 15 17 -4 68 -41 76 -56
94 -82 103 -145 6 -43 21 -88 33 -100 17 -17 20 -2 13 54 -9 77 -9 77 32 40
40 -36 41 -36 28 6 -9 27 -4 46 14 53 38 14 142 195 139 241 -8 105 70 172
113 98 18 -29 21 -25 21 25 0 67 -16 100 -56 113 -19 6 -15 18 15 46 37 33 42
33 42 4 0 -18 10 -33 21 -33 12 0 16 9 9 20 -7 11 2 20 20 20 29 0 29 4 1 44
-54 78 -15 252 43 194 14 -14 34 -15 59 -2 20 11 64 31 97 45 47 20 52 28 24
34 -20 5 -49 -3 -65 -16 -60 -50 -49 -2 16 67 38 40 100 79 145 92 44 11 98
34 121 50 35 24 101 47 259 86 154 39 325 34 220 -7 -16 -6 -30 -24 -30 -39 0
-29 116 13 181 66 22 18 71 22 166 13 127 -12 136 -10 146 30 7 24 20 43 29
43 25 0 23 -47 -3 -73 -42 -42 43 -104 151 -111 55 -3 100 0 100 7 0 7 16 31
36 53 25 27 30 44 14 54 -16 10 -16 21 1 41 12 15 17 37 10 48 -16 25 -71 28
-71 3 0 -9 -73 -13 -162 -8 -129 7 -159 3 -146 -18 11 -18 4 -17 -20 3 -35 28
-532 48 -532 21z m1361 -185 c18 -121 18 -160 -1 -195 -19 -35 -17 -50 10 -80
20 -22 25 -41 13 -48 -23 -14 -87 66 -72 90 5 8 -18 42 -51 75 -82 82 -80 138
5 149 36 4 72 9 80 11 8 2 15 1 16 -2z m-286 -500 c-13 -38 -75 -43 -75 -6 0
18 17 31 42 31 24 0 38 -10 33 -25z m-3169 -128 c-12 -77 -86 -111 -86 -39 0
49 63 138 83 116 7 -8 8 -42 3 -77z m2583 34 c6 -10 -7 -24 -31 -31 -29 -10
-39 -25 -31 -53 6 -25 1 -36 -14 -31 -37 12 -38 66 -3 102 37 36 62 41 79 13z
m-135 -102 c20 -51 18 -63 -7 -73 -37 -14 -66 26 -67 89 0 65 47 55 74 -16z
m-552 -204 c45 -99 99 -185 86 -138 -9 36 -5 45 15 35 15 -6 42 -17 61 -24 35
-12 68 -101 165 -440 l52 -183 -38 -98 c-21 -53 -53 -169 -70 -257 -18 -88
-50 -227 -73 -310 -23 -82 -45 -221 -49 -308 -5 -94 -18 -164 -33 -173 -16
-10 -12 -18 14 -25 35 -9 35 -10 -3 -12 -57 -3 -89 35 -89 108 0 34 -10 72
-23 85 -17 17 -13 20 18 12 30 -8 45 1 54 31 8 23 22 42 32 42 37 0 18 84 -26
121 -35 29 -39 42 -19 55 32 22 46 253 19 329 -13 38 -12 64 2 81 12 14 22 43
24 65 9 139 4 213 -13 225 -11 8 -44 64 -74 126 -30 61 -112 174 -182 250
-148 159 -148 168 4 168 120 1 187 23 145 49 -13 8 -34 39 -46 68 l-23 53 -7
-55 c-9 -62 -105 -84 -105 -24 0 22 12 28 39 19 35 -11 37 -6 22 46 -9 33 -9
71 1 86 13 22 18 19 19 -12 1 -38 3 -38 32 5 18 25 36 45 40 45 4 0 17 -20 29
-45z m137 -37 c84 -43 120 -78 82 -78 -25 0 -181 95 -181 110 0 17 16 12 99
-32z"/>
<path d="M3060 2990 c0 -16 10 -30 21 -30 12 0 17 -8 11 -17 -14 -23 45 -103
76 -103 17 0 23 17 17 50 -5 28 -19 50 -31 50 -11 0 -15 6 -8 13 13 13 -43 65
-71 66 -8 1 -15 -12 -15 -29z"/>
<path d="M922 2688 c-34 -28 -62 -64 -62 -80 0 -15 -9 -28 -20 -28 -11 0 -20
-10 -20 -22 0 -14 14 -16 35 -7 19 8 51 14 70 13 19 -1 35 7 35 17 0 11 -9 19
-20 19 -31 0 -24 30 20 80 68 79 50 82 -38 8z"/>
<path d="M2579 2725 c-11 -112 -5 -193 15 -200 17 -5 23 25 20 104 -3 89 -29
160 -35 96z"/>
</g>
</svg>
