<?xml version="1.0" standalone="no"?>
<!DOCTYPE svg PUBLIC "-//W3C//DTD SVG 20010904//EN"
 "http://www.w3.org/TR/2001/REC-SVG-20010904/DTD/svg10.dtd">
<svg version="1.0" xmlns="http://www.w3.org/2000/svg"
 width="900.000000pt" height="483.000000pt" viewBox="0 0 900.000000 483.000000"
 preserveAspectRatio="xMidYMid meet">
<metadata>
Created by potrace 1.10, written by Peter Selinger 2001-2011
</metadata>
<g transform="translate(0.000000,483.000000) scale(0.100000,-0.100000)"
fill="#000000" stroke="none">
<path d="M2080 4235 c-14 -8 -32 -14 -41 -15 -24 0 -92 -64 -114 -106 -11 -22
-39 -65 -63 -97 -31 -41 -41 -63 -37 -77 7 -24 21 -26 28 -5 4 8 25 26 49 41
40 26 50 28 156 28 115 0 147 -9 117 -34 -19 -16 -20 -46 -1 -53 17 -7 27 -67
11 -67 -7 0 -24 -9 -38 -20 -30 -24 -63 -26 -83 -5 -25 24 -87 19 -118 -10
-15 -14 -34 -25 -42 -25 -7 0 -14 -2 -14 -5 0 -5 23 -45 37 -64 1 -2 9 2 17 8
8 7 21 9 27 5 9 -5 7 -11 -7 -21 -18 -13 -17 -15 11 -38 37 -30 35 -30 75 -2
22 14 37 35 43 57 13 52 27 17 19 -50 -6 -47 -10 -55 -30 -58 -28 -4 -24 -26
6 -30 33 -5 46 -27 27 -46 -9 -9 -23 -16 -30 -16 -28 0 -25 -21 4 -31 26 -9
29 -14 21 -30 -12 -22 0 -53 27 -67 21 -12 9 -47 -13 -38 -25 10 -64 -20 -64
-49 0 -14 4 -25 8 -25 5 0 17 -6 27 -14 16 -11 17 -16 6 -29 -7 -9 -11 -31 -9
-49 2 -27 8 -34 28 -36 14 -2 29 -8 34 -13 19 -17 33 -9 62 36 31 49 31 49 68
35 24 -9 25 -11 13 -39 -24 -57 -83 -116 -141 -140 l-56 -23 -27 22 c-27 21
-28 21 -43 3 -8 -10 -32 -29 -53 -42 -60 -37 -71 -60 -63 -140 4 -42 3 -72 -3
-75 -5 -4 -27 0 -48 8 -21 8 -67 20 -102 26 -35 6 -91 20 -125 31 -33 10 -71
19 -83 19 -13 0 -28 12 -41 34 -17 29 -21 56 -24 177 -4 131 -6 149 -31 203
-15 32 -27 71 -27 86 0 17 -18 56 -45 96 -25 36 -45 69 -45 73 -1 15 -51 61
-67 61 -40 0 -46 -14 -41 -90 5 -59 11 -78 37 -116 18 -24 36 -65 41 -91 4
-27 13 -63 18 -80 6 -19 7 -35 2 -38 -10 -6 -74 122 -84 168 -6 25 -9 27 -22
16 -18 -14 -12 -78 11 -133 29 -69 64 -264 65 -359 0 -80 32 -132 112 -183 54
-35 70 -51 75 -74 6 -30 13 -38 103 -103 40 -29 45 -37 43 -68 -1 -19 -2 -40
-2 -46 6 -125 -10 -223 -42 -258 -15 -16 -20 -45 -25 -142 -7 -119 -6 -123 17
-155 13 -18 35 -55 49 -81 14 -27 46 -68 72 -93 44 -41 51 -44 101 -44 40 0
60 5 77 20 27 23 60 26 60 6 0 -8 12 -24 27 -36 21 -16 27 -31 31 -74 5 -67
-11 -82 -45 -40 -13 16 -28 35 -34 41 -14 18 -39 16 -39 -2 0 -9 11 -26 24
-38 30 -28 53 -103 61 -197 7 -85 21 -130 41 -130 8 0 14 -4 14 -9 0 -5 9 -13
20 -16 11 -4 18 -11 15 -16 -9 -14 -23 -11 -43 11 -17 18 -23 19 -46 9 -21
-10 -26 -19 -24 -38 2 -20 16 -32 58 -54 30 -16 69 -44 86 -63 26 -28 31 -40
30 -83 -1 -41 -6 -54 -24 -66 -39 -28 -23 -83 42 -143 l36 -34 0 40 c0 29 -7
49 -26 71 -14 17 -24 38 -22 48 4 23 22 19 28 -7 3 -12 10 -22 15 -23 17 -3
17 50 1 82 -18 34 -21 71 -6 71 14 0 50 -60 50 -83 0 -34 38 -76 73 -79 20 -2
32 -8 32 -18 0 -11 -9 -14 -34 -12 -24 2 -40 -4 -53 -18 -19 -20 -19 -23 -4
-53 8 -18 12 -35 8 -39 -4 -4 -58 -2 -121 4 l-114 11 -36 -41 c-55 -62 -111
-145 -111 -164 0 -10 -8 -22 -17 -27 -15 -8 -116 -195 -145 -266 -21 -54 -31
-84 -43 -128 l-13 -47 280 2 281 3 38 89 c22 49 39 97 39 107 0 10 4 20 9 23
5 4 26 49 47 102 35 87 37 97 21 105 -23 13 -21 42 3 64 31 28 24 37 -24 30
-27 -4 -46 -3 -50 4 -9 14 25 60 44 61 8 0 40 17 70 37 76 52 94 69 81 78 -6
3 -14 -1 -17 -9 -3 -9 -14 -16 -23 -16 -9 0 -22 -5 -28 -11 -13 -13 -47 -33
-80 -48 -13 -6 -23 -15 -23 -21 0 -5 -7 -10 -15 -10 -22 0 -18 20 8 44 47 43
199 151 205 146 4 -3 6 -11 4 -17 -2 -8 13 -15 38 -19 41 -7 60 -21 44 -33
-11 -7 -44 -57 -61 -91 -7 -14 -22 -38 -33 -55 -11 -16 -24 -41 -30 -55 -5
-14 -14 -32 -19 -41 -5 -9 -13 -34 -17 -54 -7 -38 -49 -152 -118 -318 -20 -48
-36 -90 -36 -93 0 -2 133 -4 294 -4 l295 0 15 28 c42 77 126 255 132 279 4 16
29 55 56 88 27 33 62 90 79 127 33 71 43 78 116 78 41 0 64 -7 112 -35 22 -12
26 -12 39 6 20 29 82 23 82 -8 0 -20 -36 -71 -81 -114 -33 -31 -39 -44 -44
-95 -8 -67 -6 -69 84 -94 40 -11 52 -20 102 -79 9 -10 22 -20 29 -23 10 -3 7
-13 -10 -35 -21 -30 -22 -34 -9 -77 l13 -46 711 0 711 0 1 88 c0 48 2 110 4
138 4 47 1 54 -31 90 -64 70 -66 87 -35 227 18 78 29 162 32 232 5 138 8 153
36 166 21 9 22 17 25 126 1 63 7 124 13 135 7 13 7 29 -1 53 -21 63 1 69 106
29 114 -43 158 -47 434 -37 368 12 419 11 458 -10 18 -10 38 -29 44 -42 8 -18
19 -25 39 -25 46 0 61 48 69 220 7 144 7 145 -18 175 -13 17 -30 33 -37 38
-13 7 -73 -3 -157 -24 -21 -5 -67 -12 -103 -16 -59 -5 -65 -8 -65 -29 0 -12
-4 -25 -9 -28 -5 -3 -8 8 -7 25 0 19 -5 34 -14 39 -41 22 -185 70 -208 70 -39
1 -179 72 -214 110 -10 11 -31 26 -46 34 -43 22 -79 83 -101 168 -10 43 -29
99 -42 125 -19 40 -23 64 -24 167 0 67 -6 135 -12 151 -6 17 -19 57 -29 90
-15 55 -26 69 -118 158 -104 101 -174 145 -268 167 -73 17 -117 35 -144 61
-25 24 -26 25 -19 124 8 113 21 143 72 170 34 19 35 19 76 -3 59 -31 81 -30
72 6 -3 15 -9 59 -12 97 -3 39 -11 77 -17 85 -25 31 -36 72 -30 110 6 39 -11
135 -28 157 -5 6 -16 48 -24 93 -8 45 -20 94 -26 108 -11 22 -119 88 -218 132
-14 6 -42 23 -63 38 l-39 26 -71 -18 c-40 -11 -89 -28 -109 -38 -57 -30 -124
-94 -148 -141 -11 -23 -37 -64 -56 -91 -33 -46 -34 -52 -34 -137 0 -49 4 -89
9 -89 18 0 20 -31 5 -72 -8 -24 -17 -72 -20 -106 -3 -35 -9 -75 -15 -88 -18
-48 -11 -97 16 -119 24 -19 25 -22 13 -53 -11 -28 -10 -34 2 -42 23 -14 25
-188 3 -212 -9 -10 -23 -18 -31 -18 -47 0 -148 -66 -250 -164 -34 -33 -75 -68
-90 -78 -16 -10 -69 -64 -118 -120 -86 -98 -130 -169 -120 -193 2 -7 -4 -19
-15 -28 -14 -12 -19 -30 -19 -65 0 -26 -4 -52 -9 -58 -11 -11 -3 -64 10 -64 4
0 11 16 15 35 3 19 10 35 15 35 14 0 22 -92 10 -125 -6 -17 -11 -45 -11 -61 0
-17 -7 -39 -15 -50 -9 -12 -14 -42 -15 -79 0 -33 -5 -76 -11 -95 -6 -19 -17
-69 -24 -110 -7 -41 -18 -93 -23 -115 -6 -22 -13 -57 -16 -78 -4 -21 -11 -35
-17 -32 -11 8 -11 87 1 140 5 22 11 152 14 288 4 193 3 248 -7 244 -6 -2 -13
-19 -15 -38 -5 -57 -14 -67 -23 -24 -4 23 -23 74 -42 115 -46 101 -56 184 -41
340 5 47 7 155 4 240 -5 152 -6 157 -44 250 -39 95 -107 211 -142 241 -29 24
-93 59 -109 59 -14 0 -49 14 -140 55 -27 12 -81 50 -119 84 -37 33 -77 63 -87
66 -36 12 -32 63 21 240 50 170 53 188 42 232 -7 24 -12 63 -12 87 0 99 -96
221 -212 267 -53 22 -154 24 -188 4z m2217 -459 c1 -1 -2 -20 -8 -43 -7 -32
-5 -54 7 -88 14 -42 14 -49 0 -71 -9 -13 -27 -26 -41 -30 -14 -3 -25 -9 -25
-13 0 -3 -2 -40 -5 -81 -2 -42 0 -93 5 -115 7 -33 5 -45 -12 -73 -17 -28 -18
-37 -8 -62 14 -33 1 -60 -27 -60 -7 0 -27 -14 -43 -30 -31 -32 -40 -63 -16
-54 17 7 62 -21 70 -43 4 -8 1 -22 -6 -30 -9 -12 -6 -19 18 -38 16 -14 35 -24
43 -25 8 0 11 -6 7 -16 -3 -9 -6 -20 -6 -25 0 -5 -9 -18 -20 -29 -17 -17 -18
-22 -5 -47 8 -15 15 -39 15 -52 0 -23 -2 -23 -71 -19 -72 4 -89 13 -89 51 0
10 -16 51 -35 90 -19 39 -35 86 -35 104 0 19 -6 46 -14 61 -8 15 -17 45 -21
66 -4 20 -18 50 -31 65 -20 24 -21 30 -10 47 21 31 27 92 10 109 -13 13 -13
17 2 40 15 23 15 31 -2 120 l-18 94 29 56 c29 59 98 125 131 125 10 1 33 7 49
15 21 10 50 12 95 8 36 -3 66 -6 67 -7z m243 -358 c0 -5 -4 -8 -10 -8 -5 0
-10 10 -10 23 0 18 2 19 10 7 5 -8 10 -18 10 -22z m20 -69 c0 -8 -6 -23 -13
-34 -20 -26 -30 -4 -22 46 6 37 8 39 21 22 7 -10 14 -25 14 -34z m-2523 -511
c13 -12 23 -33 23 -47 0 -14 12 -37 27 -53 14 -15 23 -31 20 -35 -4 -3 -27 -6
-52 -6 -34 0 -52 6 -70 23 -25 24 -33 50 -15 50 5 0 12 17 16 38 11 60 16 63
51 30z m-82 -578 c33 0 12 -18 -27 -23 -48 -7 -68 8 -68 50 l0 23 40 -25 c22
-14 46 -25 55 -25z m1705 -32 c0 -6 -7 -5 -15 2 -8 7 -15 17 -15 22 0 6 7 5
15 -2 8 -7 15 -17 15 -22z m-1602 -10 c-3 -7 -11 -13 -18 -13 -7 0 -15 6 -17
13 -3 7 4 12 17 12 13 0 20 -5 18 -12z m92 -50 c0 -49 -16 -67 -24 -28 -9 48
-8 60 9 60 10 0 15 -10 15 -32z m2820 -36 c0 -20 -4 -31 -10 -27 -5 3 -10 25
-10 48 0 31 3 38 10 27 5 -8 10 -30 10 -48z m-3310 15 c0 -19 -10 -27 -26 -20
-11 4 -12 9 -3 19 15 18 29 18 29 1z m2080 -78 c0 -16 -4 -29 -10 -29 -9 0
-30 63 -30 90 1 29 40 -31 40 -61z m-1570 -528 c0 -10 -30 -24 -37 -17 -3 3
-2 9 2 15 8 13 35 15 35 2z m1380 -11 c0 -17 -7 -20 -40 -20 -22 0 -40 4 -40
8 0 17 25 32 52 32 21 0 28 -5 28 -20z m-1449 -34 c-6 -7 -8 -27 -5 -44 5 -23
1 -34 -15 -48 -30 -26 -27 -31 23 -31 42 0 45 3 60 36 8 20 17 43 19 51 3 11
8 7 17 -12 16 -35 -1 -124 -31 -162 -39 -49 -113 -18 -124 52 -4 20 -11 48
-16 61 -8 20 -6 30 10 52 12 16 21 37 21 47 0 27 10 33 32 21 14 -8 17 -14 9
-23z m1457 -83 c-10 -2 -26 -2 -35 0 -10 3 -2 5 17 5 19 0 27 -2 18 -5z m2448
-32 c-8 -13 -36 -15 -36 -3 0 4 5 13 12 20 14 14 34 0 24 -17z m-2591 9 c8
-14 -17 -22 -52 -18 l-28 4 25 11 c32 15 47 16 55 3z m-85 -29 c0 -11 -40 -22
-54 -14 -5 4 -1 10 10 14 27 11 44 11 44 0z m2606 -21 c11 0 14 -8 12 -27 -4
-39 -22 -38 -40 3 -14 30 -14 35 -1 30 8 -3 21 -6 29 -6z m-2690 -57 c18 -3
35 0 38 6 4 6 14 11 22 11 10 0 5 -9 -14 -24 -19 -17 -43 -26 -73 -27 -58 -3
-73 5 -58 33 8 15 16 18 32 13 12 -4 36 -9 53 -12z m-1060 -76 c1 -1 4 -23 7
-48 l6 -46 -46 -7 c-57 -8 -80 8 -45 31 16 11 22 25 22 50 0 33 1 35 27 28 16
-4 28 -7 29 -8z m1081 -63 c3 -8 12 -13 19 -10 20 8 17 -17 -6 -47 -11 -14
-20 -30 -20 -37 0 -6 -10 -10 -22 -8 -14 2 -22 9 -19 18 2 8 6 34 8 58 6 43
28 58 40 26z m113 -67 c0 -13 -7 -32 -15 -43 -17 -22 -20 -70 -5 -79 6 -3 23
8 39 26 33 35 67 35 56 -1 -7 -23 -2 -25 26 -7 17 10 22 9 39 -13 19 -25 19
-25 48 -7 32 18 87 23 96 8 6 -9 -36 -41 -53 -41 -17 0 -80 -45 -77 -55 1 -5
18 -10 37 -10 28 0 36 5 48 30 20 42 32 47 58 23 30 -28 29 -45 -7 -92 -23
-30 -27 -43 -20 -57 18 -34 12 -51 -17 -47 -20 2 -29 10 -33 28 -7 30 -48 38
-82 16 -16 -10 -38 -13 -72 -9 l-48 6 6 38 c7 42 -6 52 -24 19 -6 -11 -16 -17
-25 -14 -19 8 -19 21 0 58 21 39 19 40 -14 17 -42 -30 -50 -27 -53 27 -3 40
-6 47 -25 50 -27 4 -27 8 -2 47 10 17 23 40 29 53 5 12 16 22 24 22 7 0 19 7
26 15 19 22 40 18 40 -8z m-636 -47 c20 -19 -45 -31 -101 -19 -29 7 -51 14
-49 16 2 2 23 8 47 12 46 10 88 6 103 -9z m-11 -145 c1 -5 -6 -11 -15 -13 -11
-2 -18 3 -18 13 0 17 30 18 33 0z m-436 -10 c3 -9 3 -19 -1 -22 -8 -9 -37 18
-30 28 8 14 24 11 31 -6z m1295 -331 c3 -3 4 -14 1 -25 -4 -15 -11 -18 -27
-13 -33 10 -43 23 -26 34 17 11 44 13 52 4z m172 -130 c8 -21 -19 -64 -39 -64
-17 0 -19 18 -5 54 11 29 35 34 44 10z m-1669 -164 c-3 -5 -13 -10 -21 -10 -8
0 -14 5 -14 10 0 6 9 10 21 10 11 0 17 -4 14 -10z m1555 -70 c-19 -13 -30 -13
-30 0 0 6 10 10 23 10 18 0 19 -2 7 -10z m-1582 -70 c-31 -24 -113 -53 -136
-48 -22 5 104 67 137 68 l24 0 -25 -20z m1602 -5 c0 -20 -28 -31 -42 -17 -10
10 8 23 40 31 1 1 2 -6 2 -14z"/>
<path d="M4197 3613 c-4 -3 -7 -17 -7 -30 0 -16 6 -23 18 -23 27 0 32 9 20 36
-11 25 -20 29 -31 17z"/>
<path d="M4060 3528 c-27 -44 -25 -80 5 -108 14 -13 25 -29 25 -37 0 -21 36
-15 69 13 34 29 37 47 17 114 -13 43 -15 45 -54 48 -38 3 -44 0 -62 -30z"/>
<path d="M4107 3285 c-14 -14 -32 -83 -24 -91 10 -10 38 11 57 43 16 27 18 38
9 49 -15 18 -24 18 -42 -1z"/>
<path d="M4080 3135 c0 -8 5 -15 10 -15 6 0 10 7 10 15 0 8 -4 15 -10 15 -5 0
-10 -7 -10 -15z"/>
<path d="M3475 841 c-6 -11 9 -23 19 -14 9 9 7 23 -3 23 -6 0 -12 -4 -16 -9z"/>
<path d="M1857 3837 c-3 -8 -1 -20 4 -28 6 -10 9 -7 9 14 0 29 -5 35 -13 14z"/>
<path d="M1860 3673 c0 -18 5 -33 10 -33 13 0 13 30 0 50 -7 11 -10 7 -10 -17z"/>
<path d="M1870 3592 c0 -11 7 -25 16 -33 14 -11 15 -9 12 16 -3 32 -28 47 -28
17z"/>
<path d="M1894 3427 c-3 -8 2 -27 12 -41 13 -21 15 -39 10 -85 -8 -70 6 -91
61 -91 l35 0 -6 43 c-12 81 -43 162 -62 166 -11 2 -25 8 -31 13 -9 7 -15 6
-19 -5z"/>
<path d="M7160 3422 c-25 -10 -58 -26 -75 -37 -72 -47 -155 -167 -155 -225 0
-18 -10 -39 -25 -54 -27 -27 -30 -42 -15 -80 13 -35 22 -33 45 10 31 57 68 68
232 68 105 0 146 -4 158 -14 15 -12 13 -15 -17 -31 -90 -48 -102 -51 -138 -39
-23 7 -55 8 -90 3 -49 -7 -55 -11 -57 -33 -1 -14 -4 -36 -5 -50 -2 -17 2 -25
16 -28 11 -2 27 -13 35 -24 21 -25 44 -16 64 27 9 19 24 35 33 35 14 0 15 -8
10 -57 -11 -94 -16 -112 -37 -118 -23 -8 -25 -21 -4 -29 8 -3 15 -12 15 -21 0
-9 -7 -18 -15 -21 -8 -4 -15 -17 -15 -31 0 -13 4 -22 9 -18 26 15 63 -65 51
-110 -2 -5 -2 -19 -2 -29 1 -11 -7 -25 -16 -33 -16 -12 -16 -14 3 -28 34 -24
43 -33 47 -47 3 -7 18 -12 34 -11 16 0 21 -1 10 -4 -15 -4 -17 -11 -13 -38 6
-38 -3 -45 -58 -45 -23 0 -42 8 -59 25 -14 14 -37 25 -52 25 -24 0 -26 2 -20
34 8 43 -8 51 -65 31 -23 -9 -54 -14 -68 -13 -59 3 -245 -83 -316 -148 l-50
-45 27 -24 c15 -13 35 -29 45 -37 10 -7 24 -23 31 -36 17 -30 -3 -29 -32 3
-42 45 -54 34 -52 -46 1 -39 -1 -72 -5 -75 -4 -2 -18 5 -32 16 -22 17 -26 18
-31 4 -3 -8 1 -28 9 -44 13 -25 13 -29 0 -40 -20 -16 -19 -21 8 -62 13 -19 27
-57 31 -85 5 -42 2 -62 -24 -124 -16 -41 -30 -83 -30 -93 0 -11 -13 -40 -28
-65 -25 -40 -29 -54 -27 -116 1 -38 3 -76 4 -83 2 -22 21 -2 21 22 0 13 7 29
15 36 8 7 15 18 15 26 0 22 21 27 35 8 13 -18 14 -17 15 12 0 32 39 100 55 97
6 -1 14 -15 19 -32 5 -17 13 -31 17 -31 21 0 6 -31 -22 -46 -27 -13 -30 -19
-24 -42 4 -15 8 -48 9 -74 1 -38 -2 -48 -14 -48 -9 0 -21 -14 -28 -32 -11 -30
-12 -31 -31 -14 -12 11 -21 14 -26 7 -3 -6 -17 -11 -31 -11 -35 0 -40 -25 -16
-75 25 -51 83 -83 164 -92 44 -4 67 0 121 22 38 15 74 24 82 21 36 -13 45 -61
56 -303 13 -267 15 -314 17 -395 2 -55 14 -80 44 -91 10 -4 11 -7 1 -18 -7 -7
-13 -24 -13 -36 0 -13 -9 -43 -20 -66 -12 -23 -25 -58 -30 -77 -5 -19 -12 -45
-15 -57 l-7 -23 261 0 c143 0 261 3 261 6 0 3 -4 13 -9 22 -4 9 -11 30 -15 45
-6 26 -5 28 14 22 12 -4 27 -1 35 5 12 10 18 10 31 -1 13 -10 20 -10 45 5 28
16 32 16 54 2 30 -20 32 -42 5 -56 -11 -6 -20 -20 -20 -30 0 -19 8 -20 270
-20 l270 0 0 33 c0 18 4 37 10 43 13 13 80 201 80 226 0 12 29 48 74 92 85 81
96 109 76 203 -6 32 -14 93 -16 135 l-4 78 31 16 32 16 -29 24 c-16 13 -39 27
-51 30 -23 6 -30 32 -14 50 5 5 12 47 14 94 3 47 9 154 15 238 7 100 8 181 2
235 -6 45 -10 106 -10 135 0 51 1 52 29 52 24 0 40 -12 80 -58 53 -61 83 -76
170 -86 63 -7 70 -18 42 -69 -31 -58 -26 -79 24 -91 58 -13 66 -29 61 -116 -2
-41 -7 -87 -11 -103 -5 -17 -3 -33 6 -43 8 -10 13 -45 13 -95 1 -76 2 -79 34
-106 l33 -28 -15 -44 c-9 -24 -16 -54 -16 -68 0 -13 -5 -34 -12 -46 -6 -12
-11 -38 -9 -57 1 -29 -5 -42 -34 -70 -19 -19 -35 -37 -35 -42 0 -4 21 -19 48
-32 69 -35 84 -56 86 -118 1 -41 -6 -67 -26 -107 -16 -29 -28 -59 -28 -67 0
-38 109 6 227 92 13 9 25 33 30 62 5 28 14 46 21 45 9 -2 12 121 12 525 0 290
-4 521 -8 514 -9 -13 -42 78 -42 115 0 12 -15 30 -37 45 -29 19 -43 38 -57 79
-36 102 -51 123 -108 152 -41 21 -75 52 -134 121 -43 51 -117 128 -164 171
-96 89 -120 120 -120 153 0 35 -26 73 -74 110 -64 48 -128 64 -249 60 -112 -3
-234 22 -331 69 -27 13 -72 26 -99 28 -28 3 -55 9 -60 14 -17 17 11 119 47
171 19 27 37 65 41 82 3 18 11 54 17 80 11 46 11 47 -30 96 -38 45 -42 55 -42
106 0 43 3 56 15 56 19 0 19 14 1 48 -7 15 -23 48 -35 75 -21 48 -36 58 -141
98 -55 20 -177 21 -230 1z m145 -490 c0 -18 -20 -15 -23 4 -3 10 1 15 10 12 7
-3 13 -10 13 -16z m-288 -569 c7 -15 10 -29 7 -32 -10 -10 -39 16 -42 38 -5
30 20 26 35 -6z m358 -3 c5 -9 -44 -40 -64 -40 -17 0 0 31 23 40 28 12 34 12
41 0z m-361 -150 c-4 -8 -6 -28 -5 -44 3 -26 0 -28 -22 -24 -20 4 -27 0 -31
-16 -3 -11 1 -28 9 -36 19 -21 19 -63 1 -103 -18 -41 -36 -150 -36 -216 0 -28
-4 -59 -9 -69 -17 -33 -31 -163 -31 -287 0 -113 -8 -153 -25 -125 -4 6 -7 82
-6 168 0 86 -2 165 -5 175 -7 24 -55 22 -87 -3 -14 -11 -28 -20 -32 -20 -4 0
-15 -10 -24 -22 -11 -13 -24 -19 -34 -15 -25 9 -21 26 8 33 21 5 25 12 25 44
0 33 4 39 28 48 15 5 36 6 47 1 11 -4 23 -8 27 -8 3 -1 5 31 4 69 -2 49 -8 76
-20 89 -19 21 -9 64 18 74 9 4 16 17 16 29 1 13 7 34 15 48 8 14 14 36 15 50
0 16 17 42 47 73 38 39 48 57 54 98 4 28 14 58 21 66 10 13 14 9 25 -23 8 -21
10 -45 7 -54z m-191 -642 c2 -7 1 -22 -3 -33 -4 -11 -5 -33 -2 -49 3 -20 2
-27 -6 -22 -13 8 -27 90 -17 105 8 15 22 14 28 -1z m-107 -21 c3 -8 0 -26 -5
-41 -10 -23 -13 -25 -32 -15 -15 8 -18 14 -10 22 6 6 11 19 11 29 0 21 28 24
36 5z m-3 -98 c6 -24 -3 -89 -12 -89 -25 0 -44 83 -24 103 13 14 31 7 36 -14z
m318 -836 c-5 -18 -7 -41 -4 -52 4 -15 -4 -30 -26 -50 -30 -28 -32 -28 -42
-10 -10 20 11 82 47 138 21 31 37 15 25 -26z m110 -84 c8 -8 19 -23 22 -33 9
-22 27 -12 27 15 0 29 21 22 55 -18 29 -35 30 -40 28 -126 -1 -50 -7 -95 -13
-101 -7 -7 -10 -1 -10 18 0 20 -11 38 -37 62 -41 38 -53 36 -53 -7 0 -44 -16
-35 -31 17 -8 25 -22 50 -32 56 -19 10 -47 65 -47 92 0 7 9 16 21 19 17 5 19
11 14 44 l-6 38 23 -30 c13 -16 30 -37 39 -46z m-135 -74 c8 -21 -4 -67 -16
-60 -13 8 -13 75 0 75 6 0 13 -7 16 -15z m429 -175 c-3 -5 -15 -10 -26 -10
-11 0 -17 5 -14 10 3 6 15 10 26 10 11 0 17 -4 14 -10z m309 -38 c21 -46 18
-117 -4 -117 -11 0 -15 12 -15 45 -1 25 -6 55 -13 67 -16 28 -15 43 1 43 8 0
22 -17 31 -38z m-174 14 c0 -8 -4 -18 -10 -21 -5 -3 -10 3 -10 14 0 12 5 21
10 21 6 0 10 -6 10 -14z m-48 -37 c-3 -28 -37 -60 -57 -53 -7 3 -41 -2 -75
-10 -34 -9 -66 -13 -71 -10 -6 3 2 18 16 32 26 26 27 26 41 7 13 -17 15 -17
27 -3 6 9 28 19 48 22 26 5 38 13 42 27 8 29 33 18 29 -12z"/>
<path d="M6925 2948 c-9 -23 -2 -83 10 -83 14 0 19 75 6 88 -7 7 -12 5 -16 -5z"/>
<path d="M7075 2790 c-4 -6 -2 -17 4 -23 15 -15 25 -2 13 19 -7 12 -11 13 -17
4z"/>
<path d="M3236 1947 c-8 -41 2 -90 15 -81 11 7 11 85 0 102 -6 10 -10 3 -15
-21z"/>
<path d="M7467 54 c-4 -4 -7 -18 -7 -31 0 -17 6 -23 21 -23 16 0 19 4 14 23
-9 28 -19 39 -28 31z"/>
</g>
</svg>
