<?xml version="1.0" standalone="no"?>
<!DOCTYPE svg PUBLIC "-//W3C//DTD SVG 20010904//EN"
 "http://www.w3.org/TR/2001/REC-SVG-20010904/DTD/svg10.dtd">
<svg version="1.0" xmlns="http://www.w3.org/2000/svg"
 width="300.000000pt" height="240.000000pt" viewBox="0 0 300.000000 240.000000"
 preserveAspectRatio="xMidYMid meet">
<metadata>
Created by potrace 1.10, written by Peter Selinger 2001-2011
</metadata>
<g transform="translate(0.000000,240.000000) scale(0.050000,-0.050000)"
fill="#000000" stroke="none">
<path d="M3279 3905 c-108 -31 -170 -88 -208 -193 -38 -101 -70 -310 -51 -322
8 -5 20 -48 26 -95 6 -47 17 -105 25 -129 15 -51 -121 -131 -262 -153 -45 -7
-167 -52 -270 -101 -221 -103 -251 -141 -277 -347 -10 -76 -36 -174 -59 -219
-23 -45 -48 -121 -56 -169 -11 -69 -37 -112 -127 -207 -62 -66 -137 -162 -166
-213 -47 -82 -65 -96 -152 -117 -97 -23 -270 -182 -307 -283 -18 -49 7 -62 48
-24 30 27 42 28 67 7 24 -20 48 -20 115 -1 47 13 139 21 205 17 155 -8 155
-37 1 -348 -127 -257 -188 -320 -372 -387 -179 -64 -206 -100 -194 -254 6 -68
16 -133 24 -145 14 -24 3120 -33 3181 -9 60 23 -1 149 -120 252 l-56 48 27
124 c17 75 47 145 78 179 28 31 71 97 95 146 25 51 83 119 134 157 50 37 99
93 110 124 11 32 52 105 91 164 39 59 71 123 71 142 0 49 -58 242 -92 307 -15
30 -28 64 -28 76 0 12 -26 58 -58 103 -49 66 -57 94 -48 159 9 68 2 90 -49
148 -89 101 -125 204 -125 360 0 148 -38 218 -118 218 -20 0 -68 13 -106 29
-38 16 -166 40 -285 54 -303 35 -357 87 -281 270 17 40 30 105 30 145 0 40 9
103 20 141 13 46 13 76 0 89 -11 11 -20 37 -20 58 0 166 -230 266 -461 199z
m284 -115 c-4 -22 -16 -43 -27 -47 -12 -5 -10 -14 5 -24 21 -13 21 -22 2 -45
-19 -24 -17 -32 11 -43 21 -8 43 -2 55 15 18 24 81 30 102 10 88 -89 -190
-140 -310 -58 -44 30 -58 32 -101 9 -59 -31 -168 -36 -150 -7 7 11 31 20 53
20 29 0 38 9 29 31 -23 62 33 90 84 43 39 -37 49 -39 65 -13 29 45 23 85 -11
72 -19 -7 -30 0 -30 19 0 17 9 25 20 18 11 -7 26 2 33 20 20 52 179 34 170
-20z m-163 -309 c17 -5 68 -7 115 -5 47 3 84 -2 82 -11 -2 -8 3 -39 11 -67 36
-128 -68 -286 -123 -187 -10 16 -44 35 -76 40 -33 5 -85 15 -117 22 l-59 12
66 27 c90 38 127 35 156 -12 14 -22 34 -40 45 -40 31 0 24 52 -11 81 -17 14
-23 31 -12 37 11 7 -24 12 -77 12 -122 0 -130 9 -86 100 28 60 38 67 46 37 5
-20 24 -41 40 -46z m-121 -16 c0 -8 -26 -46 -57 -83 l-56 -69 -10 65 c-8 53
-1 69 32 83 54 21 92 23 91 4z m104 -245 c61 -17 130 -111 93 -127 -3 -2 -26
-14 -51 -28 -56 -31 -56 -31 -94 6 -28 29 -31 29 -31 0 0 -40 -18 -39 -63 2
-72 65 -27 105 98 88 14 -1 25 7 25 18 0 12 -22 21 -50 21 -27 0 -50 9 -50 20
0 25 31 25 123 0z m287 -323 c-12 -118 -19 -139 -38 -113 -30 41 -149 28 -256
-26 -79 -40 -132 -97 -64 -69 21 9 76 14 123 13 67 -3 85 3 85 29 0 26 111 28
132 2 5 -6 -55 -663 -61 -669 -4 -4 -45 4 -92 16 -47 13 -115 18 -151 11 -49
-9 -70 -4 -84 20 -13 24 -75 40 -236 60 -120 15 -234 33 -253 40 -47 18 -44
-16 5 -61 46 -42 103 -52 283 -52 93 0 141 -9 158 -29 13 -16 60 -30 106 -30
46 -1 119 -8 163 -16 l80 -14 -5 -99 c-3 -54 -32 -180 -64 -279 -33 -100 -64
-206 -71 -236 -11 -54 -13 -55 -120 -42 l-110 13 0 -81 c0 -44 -18 -168 -40
-275 -50 -244 -50 -255 8 -282 49 -23 85 0 120 74 7 15 9 8 4 -16 -14 -79 34
-94 315 -97 145 -1 277 -6 293 -11 17 -4 28 3 25 17 -7 33 18 32 64 -2 21 -15
41 -58 44 -95 4 -37 12 -107 19 -156 9 -62 6 -83 -10 -73 -12 7 -22 4 -22 -8
0 -22 -59 4 -122 54 -17 14 -53 25 -80 25 -26 -1 -114 8 -194 20 -121 17 -151
16 -175 -8 -41 -41 -38 -43 51 -42 55 1 80 -8 80 -26 0 -21 -20 -24 -85 -14
-125 19 -157 31 -144 52 7 10 20 13 30 7 11 -6 19 2 19 18 0 26 -89 50 -205
54 -19 1 -35 14 -35 30 0 16 12 23 30 16 17 -6 30 -1 30 11 0 12 16 22 35 22
30 1 31 3 5 20 -16 11 -22 20 -13 20 10 0 7 14 -7 30 -36 43 -45 39 -96 -50
-25 -44 -53 -80 -62 -80 -10 0 -23 -23 -30 -50 -7 -28 -22 -50 -32 -50 -11 0
-20 -16 -20 -36 0 -20 -13 -54 -29 -75 -28 -36 -30 -33 -30 46 -1 78 -14 96
-66 87 -8 -1 -15 8 -15 20 0 13 18 18 43 12 53 -14 108 33 71 60 -30 23 -52
21 -106 -9 -24 -13 -48 -18 -55 -11 -7 7 -13 3 -13 -9 0 -13 9 -28 20 -35 12
-8 10 -22 -5 -39 -21 -22 -28 -22 -41 1 -10 18 -33 24 -63 16 -26 -6 -52 -2
-59 9 -7 10 -30 15 -52 9 -22 -6 -35 -19 -29 -28 6 -10 1 -18 -11 -18 -12 0
-16 -11 -8 -23 10 -17 3 -19 -24 -8 -21 8 -98 17 -171 18 -125 3 -132 5 -127
49 3 27 -10 53 -31 65 -52 27 -59 24 -59 -26 -1 -94 -158 -149 -202 -70 -17
29 -26 30 -87 4 l-68 -28 28 54 c43 83 39 132 -10 106 -25 -14 -36 -36 -31
-63 6 -31 0 -39 -22 -30 -16 6 -35 -2 -41 -19 -8 -21 -19 -24 -36 -10 -14 12
-32 14 -41 6 -9 -8 -10 -4 -2 10 8 14 6 25 -5 25 -11 0 -24 -11 -30 -25 -7
-19 -10 -18 -11 2 -1 15 16 31 38 37 22 6 40 20 40 32 0 11 5 15 12 9 6 -6 29
6 50 27 21 21 51 38 67 38 20 0 25 12 17 33 -10 26 -5 31 21 21 24 -9 41 1 57
36 12 28 34 50 48 50 40 0 148 68 148 93 0 12 13 28 30 34 16 7 24 25 18 42
-7 17 -20 26 -30 20 -24 -15 -67 13 -45 29 27 19 67 98 67 132 0 16 14 30 31
30 17 0 26 -9 19 -20 -7 -11 -3 -20 9 -20 11 0 21 14 21 30 0 18 -19 30 -49
30 -52 0 -64 139 -13 156 43 14 23 83 -28 96 -28 7 -50 27 -50 44 0 25 5 27
24 8 13 -13 32 -24 41 -24 20 0 -14 66 -56 108 -18 18 -22 32 -10 32 11 0 21
10 21 22 0 12 -13 17 -30 11 -37 -14 -39 15 -3 51 14 14 32 51 40 81 8 30 25
55 39 55 27 0 53 37 138 195 31 58 50 105 41 106 -8 0 1 9 20 21 21 12 35 44
35 79 0 39 10 59 30 59 19 0 30 19 30 51 0 34 8 46 23 37 14 -9 18 -5 9 8 -7
13 -3 62 10 109 13 47 24 96 24 110 1 27 26 34 39 10 10 -17 -4 33 -19 70 -6
13 6 31 26 38 21 8 39 4 43 -9 5 -13 23 -24 42 -24 28 -1 29 -3 3 -20 -27 -17
-27 -19 0 -20 21 -1 15 -12 -18 -38 -37 -29 -45 -48 -34 -89 8 -34 5 -53 -10
-53 -12 0 -17 -13 -11 -29 6 -17 3 -35 -8 -42 -24 -15 -25 -89 -1 -89 47 0 -7
-80 -55 -83 -50 -2 -50 -3 -6 -11 50 -10 48 -96 -4 -132 -17 -13 -17 -20 2
-27 32 -13 33 -61 2 -71 -26 -9 -38 -276 -12 -276 8 0 14 -25 13 -55 l-2 -55
-16 50 c-16 49 -16 49 -18 4 -1 -25 -15 -50 -32 -57 -16 -6 -30 -27 -30 -47 0
-20 14 -41 30 -47 36 -14 40 -115 5 -150 -20 -20 -17 -22 15 -11 53 20 72 50
58 94 -9 30 -3 33 40 23 46 -12 54 -6 65 49 13 66 75 86 123 38 68 -68 263
-45 247 29 -4 18 49 21 264 15 104 -2 153 3 145 17 -7 11 3 30 23 41 27 15 30
25 11 44 -19 19 -31 19 -53 0 -16 -13 -32 -16 -36 -6 -4 10 -34 24 -67 32 -42
9 -51 7 -31 -6 51 -34 3 -51 -79 -29 -44 12 -74 13 -67 3 12 -20 -94 -11 -271
23 -135 26 -148 26 -131 -1 9 -14 0 -19 -24 -14 -42 8 -47 180 -9 282 32 82
239 17 353 -111 63 -70 83 -61 42 18 -60 116 -224 227 -334 227 -26 0 -40 10
-34 25 5 14 35 131 65 260 61 256 69 264 164 175 35 -33 79 -60 98 -60 40 0
-20 59 -118 117 -52 30 -66 117 -27 157 16 15 146 -42 178 -78 50 -58 43 -78
-20 -55 -58 20 -52 13 53 -60 23 -17 42 -46 42 -67 0 -24 8 -31 25 -21 27 17
132 11 165 -9 30 -19 210 -26 210 -8 0 8 -27 25 -60 38 -42 16 -60 36 -61 69
l-2 47 -21 -45 c-25 -51 -24 -51 -111 -26 -40 11 -65 11 -65 0 0 -11 -9 -19
-20 -19 -94 0 192 327 307 351 80 17 131 62 167 146 41 97 52 66 36 -100z
m-191 124 c23 -14 7 -28 -68 -61 -88 -37 -101 -39 -129 -11 -28 28 -27 31 9
32 21 0 62 13 89 29 60 34 62 34 99 11z m-463 -101 c-9 -88 -5 -103 37 -130
52 -34 140 -190 107 -190 -12 0 -29 21 -39 47 -34 89 -151 166 -236 154 -34
-4 -31 12 10 56 19 20 50 65 69 100 48 89 63 79 52 -37z m158 -22 c12 -12 54
-22 94 -22 40 0 67 -8 61 -18 -7 -10 -20 -14 -29 -8 -9 6 -24 0 -31 -12 -8
-12 -2 -30 13 -40 23 -14 23 -17 -2 -17 -31 0 -103 38 -74 39 9 0 4 13 -12 29
-16 16 -47 24 -71 17 -45 -11 -61 24 -18 41 39 15 45 15 69 -9z m857 -82 c12
-12 -114 -96 -144 -96 -14 0 -23 101 -10 112 9 7 145 -7 154 -16z m118 -37
c18 29 71 2 71 -36 1 -28 3 -29 19 -4 10 17 22 26 25 20 41 -63 56 -112 56
-179 0 -44 7 -80 16 -80 24 0 29 -155 5 -170 -12 -7 -21 1 -21 18 0 17 -19 41
-42 53 -33 18 -39 17 -28 -1 11 -17 1 -17 -33 2 -26 15 -58 24 -72 21 -14 -2
-26 11 -27 31 -1 21 -5 26 -11 11 -6 -14 -19 -25 -30 -25 -11 0 -14 9 -7 20
23 38 -8 20 -74 -43 -36 -34 -53 -55 -38 -47 20 11 23 9 13 -9 -11 -18 -22
-18 -37 -3 -31 31 -54 27 -54 -8 0 -16 8 -30 17 -30 9 0 16 -13 16 -30 0 -16
-13 -30 -29 -30 -27 0 -27 -4 0 -35 16 -19 36 -51 42 -70 7 -19 22 -35 33 -35
11 0 15 -25 8 -58 -6 -33 -2 -63 11 -71 13 -8 17 -22 11 -32 -6 -11 -1 -19 11
-19 13 0 20 11 15 25 -14 43 39 80 82 57 21 -11 45 -14 54 -6 8 8 9 3 1 -11
-8 -14 -7 -25 2 -25 9 0 36 -6 61 -13 34 -9 45 -3 45 22 0 18 -8 28 -18 22
-10 -6 -14 7 -8 29 6 22 24 40 40 40 15 0 23 8 17 18 -6 10 3 23 20 30 17 6
35 -1 41 -17 10 -25 112 -78 158 -82 60 -4 131 -37 124 -56 -11 -31 -88 -20
-183 27 -90 44 -110 31 -111 -73 l0 -64 134 -14 c73 -8 157 -22 185 -32 44
-14 42 -16 -19 -9 -106 11 -307 -25 -334 -61 -13 -17 -33 -25 -45 -18 -12 8
-21 -4 -21 -28 0 -22 -9 -41 -21 -41 -14 0 -14 -12 0 -38 24 -45 -39 -73 -80
-35 -19 17 -21 17 -11 -2 10 -16 0 -25 -27 -25 -23 0 -41 -13 -41 -30 0 -16
-14 -30 -32 -30 -17 0 -36 -18 -42 -40 -6 -22 -22 -40 -37 -40 -14 0 -39 -13
-55 -29 -26 -26 -35 -25 -75 10 -25 21 -64 39 -88 39 -41 0 -102 60 -92 91 2
8 -8 22 -22 31 -19 13 -14 17 18 18 25 0 45 9 45 20 0 11 9 20 20 20 11 0 20
-13 20 -30 0 -35 2 -36 69 -10 28 10 51 11 51 2 0 -45 143 -45 182 0 53 61 50
113 -7 109 -25 -2 -67 7 -95 20 -27 13 -71 20 -96 16 -40 -6 -43 -2 -24 33 28
53 5 51 -39 -3 -47 -58 -79 -33 -77 62 0 42 -5 87 -13 99 -7 12 -2 22 13 22
19 1 18 6 -4 22 -27 19 -27 20 0 12 17 -4 28 -22 25 -39 -4 -23 5 -29 35 -21
50 13 50 16 0 66 -68 68 -57 208 15 191 44 -11 50 -9 30 12 -33 33 -32 57 3
57 34 0 61 62 34 79 -42 26 -42 241 -1 267 22 13 39 36 39 51 0 19 16 25 50
18 41 -8 46 -4 28 18 -40 48 8 29 66 -27 56 -54 82 -29 26 27 -44 44 16 136
71 107 23 -13 41 -13 48 -1z m-304 -120 c-6 -24 -27 -39 -52 -38 -38 0 -39 2
-9 20 19 11 29 33 23 50 -8 20 -2 26 19 18 18 -7 26 -27 19 -50z m304 -360
c23 19 33 15 51 -19 22 -41 25 -42 61 -9 37 33 88 -8 53 -43 -16 -17 -314 -36
-314 -20 0 46 67 111 93 90 20 -17 34 -17 56 1z m512 -549 c40 -10 55 -30 71
-102 17 -72 16 -88 -5 -79 -25 9 -35 -25 -32 -104 1 -43 -144 -5 -300 77 -19
10 -48 18 -65 18 -80 0 53 149 154 171 31 7 56 21 56 32 0 11 16 15 35 9 19
-5 58 -16 86 -22z m-2801 -205 c49 -62 57 -164 10 -125 -21 18 -45 19 -89 3
-66 -22 -103 3 -63 43 12 12 22 51 22 86 0 78 56 75 120 -7z m1056 -27 c19 -1
-5 -11 -53 -22 -61 -13 -94 -13 -109 2 -16 16 -15 22 2 22 13 0 24 10 24 22 0
12 -13 17 -30 11 -16 -7 -30 -5 -30 4 0 39 32 40 94 3 38 -22 84 -41 102 -42z
m-1295 -105 c-15 -15 -21 -1 -21 50 0 92 28 120 36 36 4 -35 -3 -74 -15 -86z
m2697 -18 c85 -78 98 -111 59 -150 -13 -13 -34 -80 -47 -149 -13 -69 -32 -125
-42 -123 -10 2 -19 -26 -19 -63 -2 -81 -61 -178 -95 -156 -13 8 -37 15 -54 15
-35 1 -36 19 -2 106 24 61 62 89 62 45 0 -11 9 -20 20 -20 52 0 12 41 -58 60
-44 11 -83 32 -88 45 -5 14 -16 -11 -24 -54 -11 -54 -9 -81 7 -87 45 -15 22
-42 -32 -37 -50 4 -55 11 -54 84 2 112 25 412 33 417 3 2 42 32 86 65 136 104
136 104 248 2z m52 25 c74 -77 39 -78 -51 -1 -45 39 -58 60 -38 60 17 1 57
-26 89 -59z m199 -95 c7 -26 4 -61 -5 -78 -23 -41 -104 80 -89 134 12 49 78
11 94 -56z m-917 42 c44 -29 54 -30 69 -5 15 23 25 23 58 3 22 -14 56 -25 76
-26 33 0 33 -1 0 -21 -32 -18 -32 -24 -5 -51 16 -16 30 -44 30 -62 0 -26 -8
-24 -41 11 -22 24 -48 44 -58 44 -10 0 -34 5 -54 12 -35 10 -35 10 -2 -11 19
-13 35 -38 35 -57 0 -19 28 -57 62 -86 94 -77 57 -138 -84 -138 -55 0 -96 -8
-90 -17 6 -9 -12 -28 -40 -40 -80 -37 -21 -76 113 -74 133 1 296 -84 217 -114
-47 -17 -138 1 -138 27 0 9 22 9 49 -2 40 -15 47 -13 38 11 -15 39 -114 37
-200 -4 -69 -32 -182 -8 -156 34 5 8 -5 20 -22 27 -20 7 -26 3 -17 -12 10 -16
3 -18 -24 -6 -21 10 -88 16 -150 15 -111 -3 -112 -3 -104 51 4 30 8 88 9 129
2 41 10 75 20 75 9 0 17 16 17 35 1 30 3 31 20 5 17 -26 19 -26 20 3 0 45 54
62 69 21 8 -19 19 -25 27 -13 8 10 40 19 72 19 90 0 114 85 32 116 -65 25 -70
60 -10 71 21 4 50 20 65 35 35 35 36 35 97 -5z m-1692 -482 c0 -25 -8 -45 -18
-45 -21 0 -43 102 -28 127 16 25 45 -29 46 -82z m2260 -365 c-14 -111 -33
-143 -60 -100 -31 51 21 200 70 200 2 0 -3 -45 -10 -100z"/>
<path d="M2993 2410 c11 -30 86 -60 322 -132 137 -41 226 -42 123 -1 -27 11
-93 37 -148 59 -185 74 -309 105 -297 74z"/>
<path d="M2906 2293 c4 -12 79 -39 166 -59 87 -20 183 -44 213 -53 33 -11 55
-10 55 1 0 12 16 11 39 -1 66 -36 161 -27 112 10 -21 16 -56 24 -76 17 -20 -6
-48 -2 -62 9 -13 12 -92 34 -174 51 -237 47 -282 52 -273 25z"/>
<path d="M3068 2046 c8 -8 43 -24 78 -36 44 -14 62 -32 58 -56 -9 -51 42 -61
161 -32 l105 25 -112 23 c-61 13 -133 38 -159 57 -46 32 -161 48 -131 19z"/>
<path d="M2200 1503 c0 -49 45 -136 71 -136 16 0 29 7 29 16 0 10 -10 17 -22
17 -12 0 -18 11 -14 25 5 14 -7 41 -27 60 -21 19 -37 27 -37 18z"/>
<path d="M3085 1477 c35 -13 91 -13 160 -1 l105 19 -160 1 c-129 1 -149 -3
-105 -19z"/>
<path d="M2557 1362 c23 -15 23 -19 0 -26 -23 -8 -23 -15 0 -42 17 -20 22 -53
15 -83 -10 -39 -6 -47 18 -38 16 6 25 19 20 28 -6 9 -2 21 8 28 10 6 23 -3 29
-19 16 -41 53 -38 55 5 1 21 5 25 11 10 6 -14 29 -25 51 -25 33 0 37 -5 17
-29 -17 -21 -18 -39 -3 -65 19 -34 21 -34 22 4 2 74 98 154 101 85 1 -14 10
-7 19 15 9 22 18 28 19 14 0 -14 17 -23 36 -20 36 6 41 -21 15 -94 -10 -29 -8
-32 6 -13 15 21 22 22 34 3 17 -28 -28 -64 -57 -45 -12 7 -14 -3 -6 -23 7 -20
13 -39 13 -44 0 -4 14 -8 30 -8 17 0 30 -10 30 -21 0 -12 -8 -16 -18 -10 -10
6 -25 -16 -32 -49 -9 -42 -25 -60 -53 -60 -22 0 -35 -7 -29 -17 6 -9 -2 -16
-17 -16 -16 0 -22 12 -16 30 8 21 4 25 -15 13 -17 -10 -21 -8 -13 6 8 11 5 27
-7 34 -11 7 -20 2 -20 -11 0 -15 -25 -20 -68 -15 -44 5 -65 0 -59 -15 5 -12
-4 -22 -19 -22 -16 0 -27 13 -26 29 1 23 -22 31 -98 32 -106 2 -158 -34 -65
-44 30 -4 55 -14 55 -23 0 -9 47 -17 103 -18 57 -1 118 -7 135 -12 18 -5 64
-14 102 -20 96 -15 198 -47 155 -49 -19 -1 -35 -11 -35 -22 0 -11 -13 -20 -28
-20 -15 0 -33 -14 -40 -31 -6 -18 -3 -26 8 -19 11 7 20 -2 20 -20 0 -36 56
-34 96 5 31 29 33 53 15 221 -8 77 -5 137 7 151 11 14 17 58 13 99 -4 41 0 74
9 74 20 0 38 47 51 131 11 63 10 64 -85 76 -147 18 -540 15 -509 -5z"/>
<path d="M2440 961 c-40 -14 -31 -17 50 -17 55 0 123 -3 151 -8 28 -5 68 -3
90 6 34 13 32 15 -13 17 -29 0 -92 5 -140 10 -48 5 -110 1 -138 -8z"/>
<path d="M2400 815 c0 -18 -14 -41 -31 -50 -19 -11 -26 -31 -18 -51 17 -45 54
-44 45 1 -4 19 6 46 23 59 25 19 26 28 6 49 -20 20 -25 19 -25 -8z"/>
<path d="M2293 691 c-7 -18 -35 -40 -62 -51 -61 -23 -65 -51 -11 -80 34 -18
40 -15 40 20 0 24 8 37 18 31 10 -6 24 13 31 41 14 59 3 87 -16 39z"/>
<path d="M1992 643 c-6 -9 32 -17 84 -18 74 -1 84 2 44 15 -68 22 -116 23
-128 3z"/>
<path d="M2376 545 c6 -34 15 -40 33 -26 14 12 32 14 41 6 9 -8 10 -4 2 10 -8
14 -5 25 7 25 11 0 21 7 21 15 0 8 -25 15 -56 15 -48 0 -55 -7 -48 -45z"/>
<path d="M2571 545 c-6 -15 -2 -22 9 -15 11 7 52 6 92 -2 50 -9 64 -18 45 -30
-18 -12 -19 -17 -3 -18 36 0 49 33 21 55 -43 34 -152 41 -164 10z"/>
<path d="M3874 527 c-31 -31 -13 -70 31 -63 25 3 45 19 45 36 0 32 -53 51 -76
27z"/>
<path d="M3880 2562 c0 -20 102 -67 116 -53 6 6 0 11 -13 11 -12 0 -23 12 -23
26 0 14 -18 27 -40 29 -22 1 -40 -4 -40 -13z"/>
<path d="M4182 1830 c1 -33 5 -50 11 -37 5 12 29 19 53 15 24 -5 33 -3 19 3
-14 7 -19 22 -12 34 8 13 4 15 -12 6 -15 -10 -33 -5 -43 11 -12 20 -17 10 -16
-32z"/>
<path d="M3553 1150 c-12 -31 99 -90 169 -90 l47 0 -40 40 c-55 55 -163 85
-176 50z"/>
</g>
</svg>
