<?xml version="1.0" standalone="no"?>
<!DOCTYPE svg PUBLIC "-//W3C//DTD SVG 20010904//EN"
 "http://www.w3.org/TR/2001/REC-SVG-20010904/DTD/svg10.dtd">
<svg version="1.0" xmlns="http://www.w3.org/2000/svg"
 width="300.000000pt" height="265.000000pt" viewBox="0 0 300.000000 265.000000"
 preserveAspectRatio="xMidYMid meet">
<metadata>
Created by potrace 1.10, written by Peter Selinger 2001-2011
</metadata>
<g transform="translate(0.000000,265.000000) scale(0.100000,-0.100000)"
fill="#000000" stroke="none">
<path d="M1461 2578 c-20 -5 -30 -13 -25 -18 6 -6 24 -6 47 1 21 5 45 9 55 8
38 -3 72 2 72 11 0 13 -103 12 -149 -2z"/>
<path d="M1622 2578 c3 -7 27 -16 54 -19 61 -8 104 -25 104 -40 0 -7 3 -10 6
-6 7 7 114 -71 114 -84 0 -5 18 -27 40 -50 22 -22 38 -46 37 -52 -1 -7 4 -11
11 -9 7 1 25 -12 40 -29 15 -17 37 -40 50 -52 12 -11 22 -27 22 -34 0 -7 5
-13 10 -13 6 0 10 5 10 11 0 5 4 8 10 4 15 -9 0 -34 -17 -28 -11 4 -14 2 -11
-8 3 -8 13 -14 24 -15 44 -2 50 -6 67 -44 10 -22 25 -40 33 -40 8 0 14 -9 14
-21 0 -11 4 -18 9 -15 11 7 61 -86 61 -114 0 -12 5 -18 10 -15 6 3 10 0 10 -9
0 -8 4 -16 9 -18 5 -1 12 -25 15 -52 4 -27 12 -58 17 -68 6 -11 8 -52 5 -96
-3 -42 -5 -88 -6 -102 0 -20 -2 -22 -10 -10 -5 8 -10 25 -10 36 0 12 -7 24
-15 28 -16 6 -16 -2 7 -93 9 -33 9 -46 0 -49 -17 -5 -2 -32 19 -32 15 0 19 7
19 37 0 20 7 75 16 122 26 138 14 185 -112 433 -13 26 -35 55 -48 64 -14 8
-28 23 -31 33 -6 21 -125 144 -125 130 0 -5 -5 -7 -10 -4 -6 4 -10 12 -9 18 2
11 -199 221 -242 255 -15 11 -170 61 -192 62 -5 0 -7 -6 -5 -12z"/>
<path d="M1292 2539 c-29 -11 -72 -21 -95 -23 -28 -2 -41 -7 -39 -16 2 -7 -3
-17 -10 -23 -9 -6 -7 -7 7 -2 11 4 29 9 40 12 11 3 29 8 40 13 84 35 148 50
162 39 6 -6 14 -6 17 -1 17 28 -47 28 -122 1z"/>
<path d="M1537 2497 c-29 -13 -130 -107 -123 -115 3 -2 17 8 33 22 15 14 31
26 35 26 4 0 18 10 31 23 14 12 35 30 48 39 28 20 16 22 -24 5z"/>
<path d="M1624 2478 c-3 -4 -3 -12 0 -17 4 -5 -7 -15 -23 -22 -17 -7 -32 -22
-35 -32 -4 -17 -3 -17 17 -2 12 8 35 22 51 29 19 9 24 16 17 21 -9 5 -7 11 6
20 17 13 16 14 -5 12 -13 -1 -26 -5 -28 -9z"/>
<path d="M1513 2398 c-11 -13 -18 -29 -15 -37 2 -8 -3 -20 -12 -26 -15 -11
-15 -13 -1 -19 9 -3 13 -2 10 4 -3 6 1 10 9 10 10 0 16 9 16 26 0 14 5 34 10
45 14 25 8 24 -17 -3z"/>
<path d="M1660 2399 c0 -6 -7 -8 -16 -5 -17 6 -54 -19 -54 -36 0 -13 -26 -38
-40 -38 -15 0 -41 -26 -33 -34 10 -10 25 -7 18 4 -3 6 3 10 14 10 12 0 21 5
21 10 0 6 12 10 28 10 21 0 24 2 12 10 -9 6 -10 10 -3 10 6 0 13 10 15 23 2
12 8 20 13 17 6 -3 9 -15 7 -27 -2 -18 2 -23 19 -23 19 0 20 2 8 17 -9 11 -3
9 15 -5 16 -12 38 -22 50 -22 17 0 15 5 -17 31 -43 35 -46 46 -14 52 16 3 13
5 -10 6 -18 0 -33 -4 -33 -10z"/>
<path d="M1351 2376 c-16 -19 -26 -70 -12 -62 6 4 9 11 6 16 -3 5 8 16 25 25
16 8 30 17 30 19 0 10 -41 12 -49 2z"/>
<path d="M1431 2351 c-18 -25 -20 -31 -7 -31 9 0 16 4 16 9 0 5 9 11 21 13 18
3 19 5 6 22 -13 18 -15 17 -36 -13z"/>
<path d="M1180 2333 c0 -13 -5 -23 -12 -23 -9 0 -9 -3 0 -12 7 -7 18 -8 31 -2
20 9 20 9 1 34 -20 25 -20 25 -20 3z"/>
<path d="M1810 2332 c0 -6 5 -14 10 -17 17 -11 41 -77 34 -97 -8 -26 5 -22 15
4 6 16 3 31 -7 48 -28 45 -52 73 -52 62z"/>
<path d="M1050 2310 c-8 -5 -33 -10 -56 -10 -38 0 -84 -27 -84 -50 0 -5 -9
-12 -21 -15 -25 -8 -86 -61 -100 -86 -7 -15 -6 -17 5 -13 8 3 17 11 19 19 6
13 91 74 110 78 7 1 14 11 17 22 5 17 16 21 63 23 31 2 57 7 57 12 0 5 7 7 15
4 9 -4 15 0 15 10 0 18 -17 21 -40 6z"/>
<path d="M1730 2280 c24 -16 47 -27 50 -24 9 9 -53 54 -75 54 -14 0 -8 -8 25
-30z"/>
<path d="M1460 2286 c0 -3 7 -12 16 -20 23 -23 40 -19 19 4 -16 18 -35 26 -35
16z"/>
<path d="M1990 2281 c0 -5 12 -16 26 -26 l27 -17 -19 26 c-19 26 -34 33 -34
17z"/>
<path d="M1710 2262 c0 -14 50 -53 60 -47 6 3 20 -4 32 -17 45 -46 61 -52 28
-10 -18 23 -41 42 -51 42 -10 0 -21 4 -24 10 -9 14 -45 32 -45 22z"/>
<path d="M1103 2240 c-23 -9 -32 -30 -14 -30 10 0 41 28 41 36 0 5 1 5 -27 -6z"/>
<path d="M1990 2247 c0 -14 44 -82 69 -108 44 -44 53 -27 10 19 -19 20 -41 49
-49 65 -11 22 -30 37 -30 24z"/>
<path d="M1910 2228 c0 -3 7 -21 15 -39 10 -24 14 -28 14 -14 0 11 -6 29 -14
39 -8 11 -15 17 -15 14z"/>
<path d="M2046 2216 c6 -16 34 -30 34 -18 0 5 -5 13 -12 20 -16 16 -29 15 -22
-2z"/>
<path d="M1039 2174 c-12 -14 -11 -16 5 -13 11 2 21 10 24 17 5 17 -13 15 -29
-4z"/>
<path d="M1870 2180 c0 -5 4 -10 9 -10 5 0 11 -9 14 -20 3 -11 10 -20 16 -20
8 0 6 10 -4 30 -15 29 -35 40 -35 20z"/>
<path d="M1790 2163 c0 -5 16 -24 35 -43 19 -19 35 -38 35 -43 0 -5 8 -21 19
-35 10 -15 33 -54 51 -87 18 -33 36 -62 40 -65 3 -3 10 -12 13 -20 4 -8 20
-37 36 -65 16 -27 36 -65 45 -82 8 -18 19 -33 24 -33 16 0 -6 78 -28 100 -10
10 -28 39 -39 63 -11 24 -26 49 -34 56 -8 6 -21 26 -28 44 -6 18 -22 43 -34
57 -12 14 -28 39 -36 55 -13 30 -99 115 -99 98z"/>
<path d="M1002 2137 c-21 -6 -31 -15 -28 -23 3 -7 1 -16 -5 -19 -17 -11 -40
-67 -34 -83 5 -12 11 -6 24 24 10 22 33 57 51 77 18 20 30 37 29 36 -2 -1 -19
-6 -37 -12z"/>
<path d="M1984 2067 c3 -10 9 -43 12 -73 4 -30 10 -56 14 -59 10 -6 -8 114
-21 133 -9 15 -10 15 -5 -1z"/>
<path d="M900 2045 c0 -11 -7 -28 -14 -38 -21 -28 6 -116 37 -117 4 0 7 21 7
46 0 29 -4 43 -10 39 -7 -4 -9 2 -5 17 3 13 2 35 -4 48 -8 22 -10 22 -11 5z"/>
<path d="M2138 2049 c6 -7 12 -21 12 -30 0 -9 7 -22 15 -29 8 -7 15 -10 15 -8
0 12 -33 68 -43 74 -8 5 -8 3 1 -7z"/>
<path d="M2215 1990 c4 -14 8 -34 9 -45 0 -11 20 -57 44 -103 23 -46 42 -90
42 -98 0 -7 8 -23 18 -34 9 -11 20 -30 24 -43 5 -19 6 -18 7 8 1 17 -3 35 -8
40 -4 6 -25 51 -46 100 -21 50 -41 95 -45 100 -4 6 -10 21 -13 35 -3 14 -13
34 -22 45 -16 20 -16 19 -10 -5z"/>
<path d="M672 1953 c-19 -50 -23 -73 -14 -73 6 0 17 21 26 47 19 55 19 53 7
53 -5 0 -13 -12 -19 -27z"/>
<path d="M2078 1974 c-15 -15 -8 -42 25 -90 18 -27 39 -61 46 -76 8 -16 16
-26 18 -24 5 5 -57 139 -68 146 -4 3 -9 16 -10 28 -2 13 -7 20 -11 16z"/>
<path d="M2173 1903 c9 -11 17 -23 17 -27 0 -4 9 -17 21 -29 l20 -22 -19 45
c-11 27 -27 46 -38 49 -18 3 -18 2 -1 -16z"/>
<path d="M2030 1876 c0 -8 5 -18 10 -21 6 -3 10 1 10 9 0 8 -4 18 -10 21 -5 3
-10 -1 -10 -9z"/>
<path d="M865 1839 c4 -22 7 -56 7 -75 0 -40 15 -55 22 -22 15 75 15 107 0
122 -27 27 -36 19 -29 -25z"/>
<path d="M2190 1781 c0 -10 11 -30 25 -45 14 -15 25 -31 25 -36 0 -15 31 -40
48 -40 14 1 14 2 -3 12 -19 11 -19 11 0 19 19 8 19 8 -1 14 -12 4 -26 17 -32
31 -8 16 -17 22 -29 18 -14 -5 -15 -4 -4 4 17 12 7 42 -14 42 -8 0 -15 -8 -15
-19z"/>
<path d="M660 1773 c0 -10 5 -25 10 -33 7 -11 10 -7 10 18 0 17 -4 32 -10 32
-5 0 -10 -8 -10 -17z"/>
<path d="M753 1745 c-1 -19 3 -35 8 -35 5 0 9 16 9 35 0 46 -14 46 -17 0z"/>
<path d="M1785 1727 c-58 -17 -123 -57 -128 -79 -5 -17 -1 -16 30 8 113 86
284 88 365 3 37 -38 58 -49 58 -29 0 6 -7 13 -15 16 -8 3 -29 20 -48 38 -54
51 -169 69 -262 43z"/>
<path d="M1140 1674 c-58 -16 -119 -57 -135 -92 -5 -11 -18 -23 -30 -26 -11
-3 -33 -26 -49 -51 -15 -25 -37 -50 -47 -56 -10 -5 -19 -17 -19 -25 0 -9 -11
-29 -25 -46 -14 -16 -25 -35 -25 -43 0 -7 -7 -19 -16 -26 -15 -12 -16 -10 -11
21 3 19 10 69 16 110 6 42 17 99 25 128 12 46 11 53 -2 50 -19 -4 -50 -126
-56 -222 -3 -40 -11 -91 -19 -114 -12 -35 -12 -43 -1 -53 11 -9 14 -8 14 4 0
9 12 30 28 46 30 32 52 63 117 165 25 38 45 73 45 77 0 5 11 9 25 9 18 0 26 7
31 24 20 83 206 140 326 102 67 -22 108 -59 109 -100 l1 -31 7 30 c4 19 13 31
26 33 11 2 24 8 30 13 12 12 98 12 91 0 -3 -5 1 -11 8 -14 10 -4 15 -20 14
-45 0 -43 17 -85 34 -80 6 2 18 15 27 28 15 22 15 23 -7 11 -18 -10 -22 -9
-22 4 0 8 5 15 10 15 6 0 10 5 10 10 0 6 -7 10 -15 10 -14 0 -19 14 -18 48 1
7 -5 11 -13 8 -9 -3 -14 2 -14 14 0 18 -7 20 -70 20 -55 0 -71 -3 -79 -17 -9
-16 -11 -15 -30 9 -47 59 -177 82 -291 52z"/>
<path d="M1880 1668 c0 -10 10 -15 28 -15 33 0 89 -22 117 -45 11 -10 29 -24
39 -31 19 -14 19 -18 6 -72 -24 -100 -124 -173 -224 -161 -57 6 -133 48 -148
82 -6 13 -17 24 -25 24 -19 0 -17 -6 24 -51 53 -58 86 -73 168 -73 97 0 117
12 207 122 9 12 12 12 19 0 7 -10 9 -10 9 0 0 9 10 11 36 6 27 -5 35 -4 30 5
-4 6 -22 11 -40 11 -26 0 -35 5 -39 22 -3 12 -2 28 3 37 13 26 0 71 -21 71
-10 0 -23 9 -29 20 -6 11 -17 20 -26 20 -8 0 -25 6 -37 14 -12 8 -39 18 -59
21 -30 6 -38 4 -38 -7z"/>
<path d="M1828 1648 c9 -9 15 -9 24 0 9 9 7 12 -12 12 -19 0 -21 -3 -12 -12z"/>
<path d="M2242 1639 c2 -6 8 -10 13 -10 5 0 11 4 13 10 2 6 -4 11 -13 11 -9 0
-15 -5 -13 -11z"/>
<path d="M1214 1632 c7 -11 -13 -15 -76 -15 -10 0 -18 -3 -18 -8 0 -15 49 -21
80 -10 17 5 37 8 45 5 9 -4 15 0 15 10 0 9 -4 16 -9 16 -5 0 -17 3 -27 7 -12
4 -15 3 -10 -5z"/>
<path d="M2143 1602 c15 -15 27 -33 27 -40 0 -7 7 -12 15 -12 8 0 34 -29 57
-65 24 -35 49 -65 56 -65 6 0 12 2 12 5 0 13 -97 154 -103 149 -3 -4 -18 8
-32 25 -15 17 -34 31 -43 31 -12 0 -9 -7 11 -28z"/>
<path d="M1736 1602 c-25 -15 -33 -26 -23 -34 1 -2 18 9 37 24 39 31 31 36
-14 10z"/>
<path d="M750 1561 c0 -32 4 -50 10 -46 11 7 9 80 -3 91 -4 4 -7 -16 -7 -45z"/>
<path d="M1086 1584 c-5 -12 -2 -15 10 -10 8 3 18 6 20 6 3 0 2 5 -1 10 -9 15
-22 12 -29 -6z"/>
<path d="M641 1533 c4 -32 12 -69 18 -83 10 -22 10 -20 6 18 -11 90 -17 122
-24 122 -4 0 -4 -26 0 -57z"/>
<path d="M1735 1532 c-34 -17 -32 -34 3 -25 15 4 78 7 140 7 101 -1 115 -3
135 -22 13 -12 26 -19 30 -16 12 12 -7 35 -42 51 -46 21 -229 25 -266 5z"/>
<path d="M1036 1515 c-3 -9 -14 -15 -23 -13 -15 2 -17 -3 -15 -31 2 -19 11
-45 19 -58 9 -14 13 -33 9 -48 -5 -19 -3 -23 9 -19 8 3 28 -5 45 -20 85 -71
213 -70 289 4 40 39 101 145 101 175 0 36 -26 10 -43 -43 -32 -99 -88 -151
-183 -166 -46 -8 -140 22 -168 53 -17 18 -17 21 0 46 9 14 36 37 60 51 39 23
50 25 143 22 77 -3 101 -1 101 9 0 9 -17 13 -54 13 -30 0 -56 5 -58 10 -5 15
-107 -8 -154 -34 -22 -12 -43 -31 -49 -44 -14 -31 -30 -27 -42 11 -12 40 -7
57 18 57 12 0 19 7 19 20 0 24 -15 27 -24 5z"/>
<path d="M1720 1466 c0 -29 69 -40 172 -27 51 7 98 17 103 22 7 7 -6 8 -40 3
-71 -11 -177 -6 -217 11 -13 5 -18 2 -18 -9z"/>
<path d="M700 1447 c0 -8 6 -20 14 -26 12 -10 13 -8 9 9 -7 25 -23 37 -23 17z"/>
<path d="M1355 1431 c-3 -5 -20 -13 -38 -16 -17 -4 -34 -11 -37 -16 -3 -4 -31
-9 -63 -10 -31 -1 -57 -7 -57 -12 0 -15 117 -1 173 21 58 22 81 42 50 42 -12
0 -24 -4 -28 -9z"/>
<path d="M2221 1427 c-1 -20 34 -92 49 -102 19 -12 10 28 -13 59 -13 17 -26
38 -30 46 -4 12 -6 11 -6 -3z"/>
<path d="M2335 1380 c-16 -18 -17 -22 -3 -37 42 -49 65 -206 36 -252 -11 -18
-11 -23 1 -30 8 -5 15 -17 16 -28 1 -10 5 -28 9 -41 6 -17 3 -27 -11 -37 -10
-8 -14 -15 -9 -15 5 0 3 -6 -4 -14 -6 -8 -17 -13 -24 -10 -14 5 -30 -22 -21
-36 8 -13 41 0 65 25 20 21 22 30 15 92 -3 37 -8 106 -9 153 -6 151 -18 250
-31 250 -7 0 -20 -9 -30 -20z"/>
<path d="M2300 1295 c0 -14 2 -25 4 -25 2 0 6 11 8 25 3 14 1 25 -3 25 -5 0
-9 -11 -9 -25z"/>
<path d="M1358 1288 c-8 -7 -39 -49 -69 -93 -29 -44 -61 -89 -71 -99 -10 -11
-18 -26 -18 -33 0 -7 -9 -21 -20 -30 -20 -18 -27 -43 -12 -43 11 0 82 76 82
88 0 4 12 23 28 41 15 18 30 43 33 55 3 11 11 20 17 19 7 -2 12 7 12 20 0 12
9 37 20 55 22 35 21 38 -2 20z"/>
<path d="M2264 1254 c4 -27 16 -66 27 -87 10 -21 19 -46 19 -57 0 -30 16 -24
34 11 12 24 13 35 5 45 -9 11 -8 18 2 31 10 12 11 15 1 9 -7 -4 -19 -2 -27 4
-13 11 -13 8 -4 -19 6 -18 9 -35 5 -38 -7 -8 -36 61 -43 104 -9 55 -27 52 -19
-3z"/>
<path d="M1605 1270 c-15 -17 -16 -20 -3 -20 9 0 19 7 22 16 10 25 1 27 -19 4z"/>
<path d="M1660 1241 c-81 -33 -57 -54 35 -29 32 9 45 17 43 28 -4 21 -27 22
-78 1z"/>
<path d="M1830 1240 c0 -14 88 -105 95 -98 3 3 -13 28 -35 57 -38 48 -60 63
-60 41z"/>
<path d="M1398 1223 c-18 -5 -24 -39 -10 -59 10 -15 60 -26 67 -15 3 5 -6 11
-20 13 -45 5 -26 23 25 23 41 0 50 3 50 18 0 10 -8 17 -19 17 -10 0 -31 2 -47
4 -16 2 -37 2 -46 -1z"/>
<path d="M2210 1206 c-13 -35 -11 -38 13 -21 15 10 16 18 9 32 -10 16 -12 15
-22 -11z"/>
<path d="M785 1210 c-3 -6 -3 -19 0 -30 3 -11 6 -43 7 -72 0 -60 12 -43 23 36
8 50 29 62 45 24 8 -21 9 -22 9 -3 2 38 -66 74 -84 45z"/>
<path d="M1736 1195 c-11 -8 -29 -15 -40 -15 -19 -1 -19 -2 -4 -11 13 -7 28
-5 53 7 35 16 47 34 23 34 -7 0 -22 -7 -32 -15z"/>
<path d="M1564 1169 c-6 -10 -7 -10 24 -13 32 -4 37 11 7 17 -14 2 -28 0 -31
-4z"/>
<path d="M841 1097 c-6 -16 -11 -36 -11 -44 0 -23 40 -104 49 -99 4 3 8 39 9
82 2 63 0 75 -12 71 -8 -3 -17 -1 -19 6 -3 7 -10 -1 -16 -16z m20 -58 l-10
-24 0 26 c-1 14 2 29 6 33 12 12 14 -9 4 -35z"/>
<path d="M2340 1020 c0 -19 3 -21 12 -12 9 9 9 15 0 24 -9 9 -12 7 -12 -12z"/>
<path d="M1114 1008 c-21 -28 -36 -67 -31 -80 3 -9 7 -7 12 7 3 11 13 33 22
48 15 29 13 47 -3 25z"/>
<path d="M1310 985 c-13 -14 -19 -25 -13 -25 12 0 48 38 41 45 -2 3 -15 -6
-28 -20z"/>
<path d="M1555 1000 c3 -5 -14 -14 -37 -20 -24 -6 -59 -16 -79 -21 -20 -5 -42
-16 -49 -24 -7 -8 -19 -15 -27 -15 -13 0 -13 3 -2 18 7 9 1 6 -14 -7 -15 -14
-27 -30 -27 -37 0 -7 -16 -22 -35 -34 -24 -15 -35 -29 -35 -46 0 -29 16 -32
25 -4 9 29 19 25 49 -20 l26 -40 37 15 c20 9 42 20 50 26 7 6 13 8 13 4 0 -5
9 0 20 10 11 10 23 15 27 12 3 -4 12 -2 20 4 17 15 211 23 227 10 7 -6 21 -10
31 -9 11 0 31 -2 45 -6 21 -6 28 -2 44 29 22 39 63 51 51 14 -6 -18 -5 -19 14
-7 32 20 22 38 -39 70 -103 53 -156 68 -240 68 -47 0 -80 4 -80 10 0 6 -5 10
-11 10 -5 0 -8 -4 -4 -10z m26 -75 c6 -29 8 -28 23 18 5 15 15 18 68 15 44 -2
62 -7 61 -15 -2 -7 2 -13 7 -13 6 0 10 5 10 10 0 18 24 10 49 -15 12 -14 27
-22 32 -19 5 3 9 2 9 -3 0 -4 3 -18 6 -31 6 -21 4 -22 -19 -17 -14 4 -39 9
-54 11 -15 2 -39 5 -52 7 -13 2 -30 12 -37 22 -13 18 -14 18 -14 -4 0 -20 -4
-22 -29 -16 -16 3 -63 -1 -105 -9 -41 -9 -78 -16 -81 -16 -3 0 -3 -4 0 -10 3
-5 -3 -10 -15 -10 -12 0 -35 -7 -51 -16 -35 -18 -35 -18 -44 19 -6 20 -4 27 8
27 8 0 18 7 21 16 4 9 9 14 13 10 3 -3 11 4 17 17 8 14 25 25 51 30 22 5 47
13 55 18 8 4 26 7 40 6 19 -1 26 -9 31 -32z"/>
<path d="M1670 935 c0 -8 5 -15 10 -15 6 0 10 7 10 15 0 8 -4 15 -10 15 -5 0
-10 -7 -10 -15z"/>
<path d="M1138 960 c-3 -17 -2 -32 0 -35 8 -7 33 46 26 56 -10 18 -22 9 -26
-21z"/>
<path d="M1080 890 c1 -8 7 -26 15 -40 l15 -25 -6 30 c-7 33 -24 58 -24 35z"/>
<path d="M2305 840 c-3 -11 -14 -20 -23 -21 -11 0 -12 -3 -4 -6 6 -2 12 -11
12 -18 0 -7 -6 -16 -12 -19 -8 -4 -9 -8 -3 -11 14 -7 10 -201 -4 -238 -6 -16
-22 -43 -36 -61 -14 -18 -25 -36 -25 -40 0 -10 -60 -87 -92 -117 -16 -14 -28
-31 -28 -37 0 -7 -3 -12 -7 -12 -5 -1 -35 -25 -68 -55 -33 -30 -64 -55 -69
-55 -5 0 -31 -16 -57 -35 -27 -19 -58 -35 -68 -35 -11 0 -21 -4 -23 -10 -4
-12 -301 -34 -373 -28 -39 4 -57 12 -84 37 -40 37 -71 56 -71 42 0 -5 23 -25
50 -45 28 -20 50 -41 50 -46 0 -7 68 -10 198 -10 170 1 207 4 267 22 39 12 77
28 85 36 13 13 12 13 -7 3 -45 -23 -21 5 33 39 51 32 234 203 234 218 0 4 15
23 33 42 19 19 46 60 62 90 25 50 28 70 36 205 5 82 11 155 13 162 3 7 1 15
-4 18 -5 3 -11 -4 -15 -15z"/>
<path d="M1693 793 c-25 -10 -12 -22 13 -13 14 6 29 8 34 5 5 -3 11 -2 14 3 5
9 -42 13 -61 5z"/>
<path d="M866 771 c-3 -5 2 -19 13 -32 l18 -23 -5 32 c-4 31 -15 41 -26 23z"/>
<path d="M1536 771 c-17 -6 -17 -8 -4 -14 20 -7 58 2 58 14 0 11 -27 11 -54 0z"/>
<path d="M1170 717 c0 -13 6 -24 13 -24 9 0 12 9 9 24 -2 13 -8 23 -13 23 -5
0 -9 -10 -9 -23z"/>
<path d="M1260 691 c0 -12 5 -21 10 -21 6 0 10 6 10 14 0 8 -4 18 -10 21 -5 3
-10 -3 -10 -14z"/>
<path d="M1170 634 c0 -25 47 -114 61 -114 13 0 -1 53 -17 66 -8 6 -14 15 -14
21 0 5 -7 18 -15 29 -14 19 -14 19 -15 -2z"/>
<path d="M1957 429 c-4 -16 -3 -18 9 -8 16 13 19 29 5 29 -5 0 -11 -9 -14 -21z"/>
<path d="M1038 342 c20 -33 126 -129 171 -155 47 -27 28 3 -20 33 -43 26 -149
127 -149 142 0 4 -4 8 -10 8 -5 0 -2 -13 8 -28z"/>
<path d="M2124 244 c-44 -45 -102 -93 -128 -109 -26 -15 -45 -30 -42 -32 8 -8
107 62 174 122 55 50 90 93 80 98 -2 1 -39 -34 -84 -79z"/>
<path d="M1698 278 c-18 -4 -63 -5 -100 -3 -38 2 -70 -1 -73 -5 -3 -5 7 -9 22
-10 97 -1 181 1 198 4 11 3 23 5 28 5 4 1 7 4 7 9 0 9 -39 9 -82 0z"/>
<path d="M1230 152 c0 -5 7 -13 16 -16 10 -4 14 -1 12 6 -5 15 -28 23 -28 10z"/>
</g>
</svg>
