<?xml version="1.0" standalone="no"?>
<!DOCTYPE svg PUBLIC "-//W3C//DTD SVG 20010904//EN"
 "http://www.w3.org/TR/2001/REC-SVG-20010904/DTD/svg10.dtd">
<svg version="1.0" xmlns="http://www.w3.org/2000/svg"
 width="300.000000pt" height="114.000000pt" viewBox="0 0 300.000000 114.000000"
 preserveAspectRatio="xMidYMid meet">
<metadata>
Created by potrace 1.10, written by Peter Selinger 2001-2011
</metadata>
<g transform="translate(0.000000,114.000000) scale(0.050000,-0.050000)"
fill="#000000" stroke="none">
<path d="M3080 2248 c-320 -28 -663 -100 -744 -157 -21 -14 -100 -127 -174
-249 l-135 -222 -219 -9 c-379 -15 -1147 -219 -1080 -286 6 -6 2 -23 -9 -36
-15 -18 -15 -29 0 -38 27 -17 65 6 50 30 -6 10 4 13 23 5 23 -9 30 -5 20 10
-9 16 -3 19 20 10 25 -9 30 -6 18 14 -10 16 -8 21 5 13 12 -7 17 -31 11 -52
-13 -48 -116 -75 -158 -40 -24 21 -40 16 -85 -23 -30 -26 -20 -14 23 27 44 41
71 75 61 75 -31 0 -164 -119 -176 -158 -7 -20 -43 -53 -82 -74 -41 -22 -66
-48 -60 -64 6 -14 2 -21 -9 -14 -23 14 -49 -79 -30 -109 7 -12 7 -51 -1 -86
-14 -61 -15 -62 -31 -20 -12 33 -33 45 -77 45 -52 0 -61 8 -61 50 0 28 -5 50
-11 50 -31 0 -89 -45 -89 -69 0 -15 -11 -31 -25 -36 -18 -7 -23 -53 -19 -158
l7 -149 78 -3 c44 -1 79 6 79 16 0 10 25 19 57 19 52 0 55 -5 47 -63 l-9 -63
95 73 c53 40 106 73 118 73 40 0 131 -120 152 -201 79 -292 443 -434 714 -279
96 55 206 179 206 231 0 48 1072 64 1240 19 126 -34 898 -43 931 -11 52 50
348 33 367 -21 135 -388 780 -358 900 42 24 81 37 89 116 68 39 -11 45 -28 50
-135 8 -170 45 -155 52 22 5 129 10 145 45 145 21 0 39 13 39 28 0 40 76 17
90 -28 13 -40 84 -66 101 -38 6 10 114 18 240 18 216 0 229 2 229 40 0 36 -13
40 -150 40 -82 0 -150 8 -150 19 0 10 29 14 65 8 151 -24 253 165 150 277 -14
15 -35 45 -47 67 -31 54 -88 63 -88 12 0 -51 -179 -73 -194 -23 -4 16 -31 72
-58 124 -34 64 -45 110 -36 145 11 45 5 53 -48 63 -34 7 -68 31 -79 56 -33 71
-255 338 -325 389 l-63 47 -48 -45 c-66 -62 -114 -43 -284 112 -140 128 -168
178 -124 222 114 114 -917 299 -1421 255z m554 -35 c36 0 69 -12 75 -27 5 -14
30 -26 55 -26 69 0 310 -53 450 -99 68 -23 147 -43 175 -46 42 -3 51 -14 51
-62 0 -44 28 -85 125 -178 69 -66 125 -127 125 -136 0 -8 59 -69 130 -135 72
-66 123 -127 115 -135 -8 -8 -72 46 -142 121 -76 80 -138 129 -151 121 -13 -8
-21 -3 -17 13 3 14 -7 24 -21 21 -16 -4 -21 3 -12 18 9 15 6 18 -12 7 -18 -11
-21 -8 -10 10 11 18 8 21 -10 10 -19 -11 -21 -8 -10 10 12 20 7 23 -18 14 -23
-9 -29 -6 -20 9 9 15 5 18 -12 7 -18 -11 -21 -8 -10 10 11 18 8 21 -10 10 -17
-11 -21 -8 -12 7 8 13 3 23 -12 23 -20 1 -20 4 1 18 49 31 -186 152 -437 225
-511 150 -1497 118 -1710 -54 -22 -18 -28 -26 -14 -19 71 37 83 -34 19 -110
-46 -55 -71 -71 -88 -57 -17 14 -31 8 -46 -20 -14 -28 -15 -45 -1 -53 12 -7
20 -6 18 4 -8 49 3 73 24 52 17 -17 8 -49 -32 -122 -95 -175 -82 -183 276
-188 288 -3 294 -4 114 -16 -156 -10 -123 -13 192 -16 550 -6 533 -16 524 346
l-6 220 -160 12 c-499 37 -525 38 -430 14 l90 -23 -127 -16 c-69 -8 -157 -25
-195 -38 -65 -21 -151 5 -119 37 6 5 24 -2 41 -16 26 -22 29 -20 18 7 -9 25
-4 30 20 21 17 -7 32 -3 32 9 0 12 31 17 75 12 59 -7 64 -5 25 8 -162 52 694
106 1034 64 309 -37 823 -191 781 -233 -6 -6 -30 -2 -52 10 -22 12 -56 16 -75
9 -22 -9 -30 -6 -21 8 22 35 -175 93 -226 66 -24 -13 -41 -14 -41 -3 0 10 11
24 25 30 14 7 -11 7 -55 1 -60 -8 -73 -5 -50 11 22 16 5 19 -70 11 -76 -8 -88
-6 -50 9 37 14 16 16 -80 10 -99 -6 -116 -3 -70 10 46 14 31 17 -67 11 -70 -4
-137 -17 -148 -28 -28 -28 -44 -376 -21 -463 l18 -70 159 -11 159 -12 -153 -3
c-85 -2 -168 -9 -185 -16 -28 -11 -32 23 -32 299 l0 310 55 9 c30 4 -80 7
-245 7 -268 -1 -275 -2 -65 -8 l235 -6 0 -307 0 -307 -63 -12 c-82 -17 -733
-17 -1004 0 -208 13 -213 14 -213 61 0 27 9 43 20 36 18 -11 30 44 21 106 -7
52 139 262 176 255 21 -4 36 4 36 20 0 21 -6 23 -26 6 -47 -38 -30 13 32 98
51 70 75 85 175 107 64 14 125 27 136 30 11 2 88 15 170 28 83 13 159 32 171
41 28 23 284 35 469 22 83 -6 179 -10 214 -10z m-398 -488 l-6 -235 -367 -5
-368 -6 12 46 c7 25 27 122 45 215 18 94 36 175 42 180 11 11 286 31 502 37
l145 3 -5 -235z m655 175 c323 -83 500 -246 410 -380 -23 -36 -468 -51 -731
-26 l-160 16 -6 199 c-3 109 -1 211 6 227 14 37 269 18 481 -36z m238 -2 c-10
-15 0 -18 31 -8 29 9 40 7 32 -6 -16 -26 59 -52 91 -32 15 9 18 5 7 -12 -12
-20 -7 -23 18 -14 19 8 29 6 23 -4 -6 -10 2 -23 18 -29 17 -6 36 -1 43 11 9
14 5 16 -12 6 -18 -11 -21 -8 -11 8 20 32 56 18 62 -24 3 -19 -3 -29 -13 -23
-10 6 -18 8 -18 4 0 -18 192 -144 210 -138 11 3 13 -1 4 -9 -17 -18 225 -271
247 -258 7 5 31 -11 51 -35 38 -45 38 -45 -3 -15 -22 17 0 -8 50 -54 109 -101
103 -104 -51 -28 -178 88 -416 149 -587 150 -98 1 -132 6 -100 16 27 9 -36 11
-139 6 -241 -13 -228 2 25 28 230 23 253 37 253 154 0 105 -75 201 -198 257
-72 33 -93 71 -40 71 11 0 14 -10 7 -22z m-1625 -203 c-39 -229 -100 -272
-171 -123 -41 86 -67 77 -36 -11 24 -69 0 -80 -64 -32 -81 62 216 419 301 363
2 -2 -12 -90 -30 -197z m2423 -191 c104 -110 18 -87 -101 27 l-116 111 80 -39
c44 -22 105 -66 137 -99z m-2940 76 c17 0 22 -131 17 -510 -3 -280 2 -510 12
-510 9 0 13 152 8 338 -7 258 -3 353 18 400 l28 62 450 0 c247 0 486 6 530 12
57 8 72 6 51 -9 -22 -15 -10 -22 50 -29 52 -6 39 -8 -36 -7 -63 2 -115 -3
-115 -11 0 -14 154 -42 190 -35 11 2 45 3 75 1 l55 -2 0 -370 0 -370 -670 0
-670 0 0 440 c0 379 -4 440 -30 440 -25 0 -26 7 -7 38 20 31 17 49 -12 93 -33
51 -33 54 -2 42 19 -7 45 -13 58 -13z m-76 -41 c63 -70 18 -107 -153 -124 -81
-9 -195 -21 -253 -27 -58 -6 -100 -19 -94 -29 6 -10 -2 -14 -17 -8 -16 6 -86
-3 -156 -22 -129 -33 -251 -18 -308 37 -13 13 -12 15 5 6 13 -8 81 4 150 25
119 37 387 84 642 113 143 16 130 36 -34 52 l-123 12 152 3 c130 3 157 -3 189
-38z m3215 -54 c15 -73 128 -227 176 -240 21 -5 38 -27 38 -47 0 -21 17 -55
39 -77 21 -21 73 -98 115 -171 68 -118 81 -131 126 -121 46 11 47 10 10 -12
-56 -32 -53 -28 -72 -101 -17 -65 -17 -65 -10 14 6 71 0 84 -56 120 -34 22
-78 74 -99 115 -20 41 -47 75 -61 75 -55 0 -355 357 -334 397 11 21 16 43 11
50 -5 7 -3 9 4 3 17 -12 67 28 67 54 0 10 -10 12 -23 4 -15 -9 -18 -5 -8 10
21 34 64 -6 77 -73z m-1074 -125 c374 -29 375 -30 230 -102 -212 -106 -379
-338 -428 -596 l-23 -122 -246 0 -245 0 0 420 0 420 227 0 c125 0 343 -9 485
-20z m-2095 -449 c-8 -500 -4 -487 -150 -476 -115 10 -118 14 -165 215 -13 55
-57 149 -98 209 -235 346 -583 317 -875 -72 -176 -233 -330 -295 -327 -132 1
98 54 275 56 192 3 -67 56 -73 78 -9 22 63 211 250 321 317 40 25 61 45 46 45
-36 0 -135 -69 -238 -167 -47 -45 -85 -73 -85 -62 0 10 -10 6 -22 -11 -31 -44
-1 56 36 120 18 31 23 35 15 10 -32 -95 -27 -113 10 -34 44 95 126 142 269
155 45 4 143 18 218 32 322 60 630 -120 821 -478 39 -74 72 -123 72 -108 4
190 -431 601 -639 604 -192 2 208 68 520 85 61 4 117 8 127 10 9 2 13 -198 10
-445z m3162 300 c113 -113 137 -146 100 -137 -64 15 -259 204 -259 250 0 49
-7 54 159 -113z m-4091 97 c45 -17 19 -48 -39 -48 -30 0 -49 12 -49 30 0 31
35 38 88 18z m3743 -37 c55 -16 142 -57 195 -90 109 -70 130 -76 92 -26 -22
30 -22 31 2 10 15 -13 30 -38 32 -54 16 -109 236 -382 267 -332 14 22 51 -7
157 -120 161 -172 158 -176 -96 -139 -227 33 -310 81 -380 220 -267 526 -890
436 -1008 -146 -27 -133 -68 -179 -127 -142 -110 69 6 438 203 645 178 187
412 248 663 174z m-4309 -293 c-33 -74 -39 -80 -41 -37 -1 48 54 151 71 133 5
-4 -9 -48 -30 -96z m4777 62 c35 -18 97 -210 75 -232 -10 -11 -106 121 -152
207 -26 51 8 62 77 25z m281 -277 c0 -21 -19 -12 -60 27 -33 32 -60 71 -60 87
0 21 19 12 60 -27 33 -32 60 -71 60 -87z m-5377 -31 c-2 -45 -4 -103 -5 -128
-4 -93 -48 -29 -49 71 0 56 5 99 12 95 6 -4 8 21 4 56 -6 56 -4 59 17 26 13
-21 22 -75 21 -120z m5693 -100 c-3 -33 -18 -63 -33 -68 -21 -7 -21 -1 0 33
21 34 20 47 -9 79 -29 32 -31 47 -10 106 l24 68 17 -80 c9 -44 14 -106 11
-138z m-4523 106 c200 -184 84 -505 -184 -505 -267 0 -386 319 -186 499 95 86
280 89 370 6z m3401 23 c191 -117 164 -411 -48 -505 -312 -138 -552 327 -260
505 84 51 224 51 308 0z m1046 21 c0 -76 -56 -105 -100 -52 -28 33 -70 42 -50
10 7 -11 3 -20 -9 -20 -28 0 -27 26 3 56 28 28 156 33 156 6z m-5483 -49 c5
-28 -4 -35 -40 -30 -26 4 -50 23 -54 44 -5 28 4 35 40 30 26 -4 50 -23 54 -44z
m5448 -53 c96 0 74 -74 -25 -83 -88 -9 -120 10 -120 69 0 30 10 36 45 27 25
-7 70 -13 100 -13z m-5465 -22 c0 -12 14 -17 30 -11 20 8 30 -1 30 -28 0 -32
-14 -39 -80 -39 -72 0 -80 5 -80 50 0 40 10 50 50 50 28 0 50 -10 50 -22z
m5670 -178 c-7 -11 -66 -20 -132 -20 -75 0 -116 8 -108 20 7 11 66 20 132 20
75 0 116 -8 108 -20z"/>
<path d="M4540 1739 c109 -93 161 -111 60 -21 -49 45 -99 81 -110 81 -11 0 12
-27 50 -60z"/>
<path d="M963 703 c-205 -192 5 -524 263 -416 133 56 192 222 124 354 -67 129
-279 163 -387 62z m271 -33 c58 -41 93 -150 68 -215 -62 -162 -315 -145 -352
24 -34 156 153 283 284 191z"/>
<path d="M1057 551 c-43 -93 94 -162 142 -72 27 50 27 52 -10 90 -47 46 -107
38 -132 -18z m118 -26 c11 -33 -52 -56 -79 -29 -11 11 -14 31 -6 43 17 29 74
19 85 -14z"/>
<path d="M4403 709 c-180 -151 -84 -432 150 -437 103 -2 182 50 235 156 110
222 -193 443 -385 281z m279 -67 c77 -78 79 -175 5 -249 -112 -112 -307 -35
-307 121 0 92 91 186 180 186 43 0 82 -19 122 -58z"/>
<path d="M4501 571 c-31 -38 -20 -91 24 -119 69 -43 147 55 94 119 -31 37 -87
37 -118 0z m99 -51 c0 -27 -13 -40 -40 -40 -27 0 -40 13 -40 40 0 27 13 40 40
40 27 0 40 -13 40 -40z"/>
<path d="M4610 1926 c11 -10 70 -52 130 -93 80 -54 92 -59 47 -19 -60 52 -221
155 -177 112z"/>
</g>
</svg>
