<?xml version="1.0" standalone="no"?>
<!DOCTYPE svg PUBLIC "-//W3C//DTD SVG 20010904//EN"
 "http://www.w3.org/TR/2001/REC-SVG-20010904/DTD/svg10.dtd">
<svg version="1.0" xmlns="http://www.w3.org/2000/svg"
 width="300.000000pt" height="309.000000pt" viewBox="0 0 300.000000 309.000000"
 preserveAspectRatio="xMidYMid meet">
<metadata>
Created by potrace 1.10, written by Peter Selinger 2001-2011
</metadata>
<g transform="translate(0.000000,309.000000) scale(0.050000,-0.050000)"
fill="#000000" stroke="none">
<path d="M3691 5020 c-138 -26 -220 -161 -213 -354 3 -112 -35 -133 -214 -115
-314 30 -1045 -337 -1287 -647 -57 -74 -116 -144 -131 -157 -30 -24 -85 -259
-86 -363 0 -159 162 -345 457 -524 209 -126 209 -127 -17 -157 -266 -36 -303
-32 -413 46 -53 38 -158 106 -232 152 -324 200 -412 412 -198 476 150 45 109
157 -50 136 -85 -12 -85 -11 -64 36 19 42 177 131 233 131 93 0 158 151 74
172 -63 16 -63 29 5 92 140 132 301 182 277 86 -15 -58 26 -69 75 -20 116 116
-159 224 -358 141 l-69 -29 0 69 c0 169 -305 11 -388 -201 -4 -11 -21 -3 -37
18 -50 66 -95 27 -95 -81 l0 -94 -46 44 c-106 99 -132 -39 -42 -228 l51 -109
-50 -60 c-96 -114 -27 -200 516 -643 968 -791 1804 -1336 2155 -1407 36 -7
120 -30 186 -51 373 -118 1327 -259 1475 -218 120 33 87 59 -76 59 -228 0
-499 112 -1706 706 -154 75 -207 266 -125 444 119 257 213 349 275 270 28 -35
60 56 40 110 -7 16 -7 30 -2 30 5 0 24 -36 41 -80 18 -44 40 -80 50 -80 24 0
23 105 -2 169 -27 73 2 63 55 -19 44 -68 85 -92 85 -49 0 27 -75 174 -124 243
-41 59 -34 90 47 194 43 55 48 128 12 157 -84 69 -282 150 -496 204 -136 34
-254 73 -263 86 -29 45 -7 81 64 105 39 14 113 52 166 86 136 86 295 123 323
74 12 -19 77 -113 147 -208 69 -95 150 -210 182 -256 31 -46 179 -193 329
-326 206 -183 273 -254 273 -290 0 -26 21 -72 47 -103 26 -32 54 -77 62 -102
8 -26 30 -45 52 -45 30 0 39 -14 39 -61 0 -78 32 -139 74 -139 95 0 20 279
-139 512 -82 120 -191 287 -242 371 -52 84 -147 212 -211 284 -146 166 -235
332 -254 473 -11 89 -27 122 -82 175 l-69 65 52 0 c81 0 230 206 231 320 0 17
17 57 37 90 86 141 58 231 -105 344 -100 68 -147 76 -301 46z m-620 -2515
c-39 -166 -74 -261 -111 -300 l-41 -45 -165 83 c-90 45 -249 122 -354 171
-247 115 -224 130 180 115 181 -7 335 -3 370 8 111 36 136 30 121 -32z"/>
<path d="M1575 4418 c-56 -32 -41 -54 39 -54 91 0 173 29 156 56 -16 26 -150
25 -195 -2z"/>
<path d="M954 4153 c-19 -50 19 -83 44 -37 29 54 28 64 -6 64 -15 0 -32 -12
-38 -27z"/>
<path d="M670 3681 c-7 -22 -6 -51 2 -64 10 -16 -2 -19 -39 -10 -72 18 -67 -6
22 -106 l75 -85 5 87 c2 48 7 114 10 146 6 72 -54 98 -75 32z"/>
</g>
</svg>
