<?xml version="1.0" standalone="no"?>
<!DOCTYPE svg PUBLIC "-//W3C//DTD SVG 20010904//EN"
 "http://www.w3.org/TR/2001/REC-SVG-20010904/DTD/svg10.dtd">
<svg version="1.0" xmlns="http://www.w3.org/2000/svg"
 width="300.000000pt" height="400.000000pt" viewBox="0 0 300.000000 400.000000"
 preserveAspectRatio="xMidYMid meet">
<metadata>
Created by potrace 1.10, written by Peter Selinger 2001-2011
</metadata>
<g transform="translate(0.000000,400.000000) scale(0.050000,-0.050000)"
fill="#000000" stroke="none">
<path d="M2933 5748 c-39 -21 -78 -27 -120 -18 -172 38 -401 9 -525 -67 -56
-35 -122 -63 -146 -63 -185 0 -335 -236 -344 -540 -3 -103 -13 -140 -48 -180
-25 -28 -68 -133 -98 -240 -30 -104 -84 -239 -120 -300 -96 -158 -119 -244
-106 -398 6 -73 1 -170 -12 -217 -16 -62 -16 -112 0 -190 22 -104 22 -105 -46
-176 -94 -98 -87 -146 8 -53 93 91 93 91 129 -1 88 -224 46 -343 -123 -346
-65 -2 -68 -4 -28 -23 54 -26 135 -7 185 43 37 37 38 36 62 -26 14 -35 48 -87
75 -117 58 -63 23 -98 -54 -57 -42 22 -62 -4 -22 -29 34 -21 22 -49 -15 -37
-19 6 -10 -6 20 -27 30 -22 50 -45 42 -52 -7 -7 12 -22 42 -34 47 -17 51 -25
30 -52 -65 -78 -13 -205 85 -207 18 -1 38 -9 44 -18 6 -10 117 -23 246 -31
130 -7 274 -18 321 -25 109 -15 112 48 17 348 -17 53 12 59 92 17 39 -21 56
-22 62 -5 5 16 16 17 36 2 15 -12 53 -20 83 -19 44 1 53 -5 44 -34 -6 -19 -2
-51 9 -71 18 -31 21 -28 21 17 1 64 20 84 52 57 17 -14 34 -11 57 12 18 17 32
22 32 10 0 -15 12 -16 35 -4 19 9 46 14 60 9 16 -6 23 7 20 37 -3 32 4 45 23
41 16 -3 36 6 45 20 12 19 16 17 17 -9 0 -55 36 -41 72 28 28 55 35 59 51 30
11 -18 30 -33 43 -33 15 0 13 8 -6 21 -33 22 46 110 80 89 9 -5 22 15 29 45
14 53 15 53 43 16 26 -36 28 -35 28 24 0 34 9 68 20 75 11 7 20 48 20 92 0 53
10 83 31 91 28 11 129 163 129 194 0 7 -38 -14 -84 -48 -82 -59 -151 -32 -105
42 6 10 1 36 -11 59 -12 22 -15 38 -6 35 14 -4 29 15 24 30 -9 28 -19 118 -18
170 1 43 -8 64 -24 60 -17 -3 -26 18 -27 60 0 70 -39 121 -100 134 -22 4 -55
14 -74 22 -28 11 -33 6 -22 -24 13 -36 12 -36 -30 1 -23 21 -43 32 -43 25 0
-8 -22 1 -50 19 -27 18 -50 25 -50 17 0 -9 -21 4 -46 28 -26 24 -53 37 -60 30
-8 -8 -14 -2 -14 12 0 18 16 21 54 12 42 -11 61 -4 89 33 20 25 36 36 37 23 0
-13 47 -62 104 -110 126 -105 110 -71 -26 56 -129 121 -126 127 63 127 231 0
339 76 339 239 0 90 38 33 69 -104 19 -80 43 -167 55 -195 30 -72 21 -564 -13
-645 -30 -73 -17 -204 38 -364 17 -52 26 -117 19 -147 -12 -52 -12 -52 18 -14
49 64 89 -40 57 -147 -30 -101 -29 -113 7 -83 42 35 40 28 -49 -153 -43 -88
-85 -185 -92 -215 l-14 -55 137 69 c76 37 188 84 248 104 111 36 434 191 600
287 l90 53 -60 11 c-33 6 -58 22 -55 36 3 13 -8 49 -23 80 -19 36 -23 66 -11
84 24 38 24 125 1 110 -10 -6 -13 9 -7 34 11 40 8 42 -22 18 -29 -24 -33 -23
-33 8 0 32 -5 32 -46 -8 -64 -59 -122 -55 -152 11 -14 30 -42 66 -63 81 -53
37 -49 65 28 211 56 105 71 122 89 96 63 -92 18 125 -56 273 -44 88 -80 174
-80 192 0 17 -36 100 -80 184 -67 126 -83 179 -93 306 -16 191 -38 235 -215
422 -206 217 -230 257 -245 404 -14 145 -46 209 -123 242 -30 13 -99 52 -154
87 -125 80 -325 107 -417 56z m4 -300 c7 -10 77 -40 156 -65 179 -58 233 -113
275 -283 18 -71 58 -166 88 -210 l56 -80 -241 -2 c-133 -2 -263 -10 -291 -18
-27 -9 -77 -18 -110 -21 -33 -2 -73 -10 -90 -16 -16 -6 -181 -14 -365 -17
l-336 -6 9 50 c6 28 16 91 23 140 33 232 168 400 321 400 15 0 28 8 28 18 0
10 23 23 51 30 29 8 45 22 37 35 -17 28 33 59 75 46 19 -6 38 -3 44 7 15 23
253 16 270 -8z m-106 -1013 c27 -58 49 -116 49 -129 0 -13 10 -30 23 -38 16
-10 18 -5 7 14 -17 29 81 -50 125 -101 14 -16 20 -47 13 -70 -18 -57 -19 -57
-65 -28 -60 37 -156 -35 -147 -110 4 -29 -2 -53 -12 -53 -27 0 -72 58 -57 74
20 20 -49 86 -89 86 -20 0 -45 -16 -56 -35 -18 -33 -22 -33 -53 -2 -43 42 -24
137 31 151 22 6 33 21 27 38 -11 26 62 231 100 283 32 44 54 27 104 -80z
m-1262 -233 c-16 -82 -23 -168 -17 -192 6 -24 -3 -74 -21 -112 -31 -68 -31
-60 0 82 6 29 -3 18 -22 -25 -60 -135 -95 -20 -47 155 21 79 115 259 128 246
4 -3 -6 -73 -21 -154z m2567 53 c22 -36 46 -87 54 -115 l14 -50 -33 45 c-36
48 -97 185 -83 185 5 0 26 -29 48 -65z m-1913 -283 c39 -54 58 -103 59 -160
l2 -82 18 75 c21 92 -1 155 -94 269 l-69 84 62 -21 c61 -22 234 -14 303 13 26
10 31 4 23 -26 -15 -55 27 -124 74 -124 51 0 50 -34 -1 -50 -22 -7 -40 -22
-40 -33 0 -11 -11 -17 -25 -12 -13 4 -41 -13 -61 -38 -20 -26 -57 -47 -81 -47
-33 0 -52 -19 -70 -70 -14 -38 -35 -70 -47 -70 -13 0 -16 -24 -8 -63 9 -45 3
-74 -21 -100 -31 -34 -31 -37 0 -37 22 0 33 -17 33 -49 0 -27 9 -54 20 -61 17
-10 3 -43 -52 -127 -3 -3 -32 13 -64 37 -106 79 -182 313 -90 278 91 -34 116
-17 31 21 -47 22 -85 43 -85 48 0 18 130 3 147 -17 58 -70 -25 119 -89 202
-79 103 -97 185 -65 304 l12 46 60 -56 c33 -31 86 -91 118 -134z m-134 -213
c88 -116 83 -142 -18 -80 -70 43 -108 118 -82 160 18 29 14 32 100 -80z m-609
-130 c0 -96 -7 -147 -20 -139 -32 20 -20 290 12 290 5 0 8 -68 8 -151z m1584
124 c139 -3 254 -57 197 -92 -18 -11 -16 -23 8 -47 40 -40 40 -82 0 -66 -18 6
-29 1 -27 -13 8 -68 -4 -89 -49 -84 -40 4 -46 -3 -39 -48 l8 -53 -30 50 c-23
38 -31 42 -31 16 -1 -41 -56 -27 -96 23 -22 27 -23 26 -12 -7 9 -26 6 -34 -8
-25 -12 8 -28 4 -35 -7 -15 -25 -70 24 -71 64 0 15 -9 10 -22 -12 -21 -36 -24
-36 -49 10 -25 45 -27 43 -27 -48 -1 -103 -28 -111 -63 -19 -18 49 -20 49 -59
15 -21 -20 -39 -26 -39 -14 0 13 -14 18 -30 11 -23 -9 -27 -2 -16 26 12 33 10
34 -20 10 -30 -25 -34 -23 -34 13 0 23 -13 55 -30 71 -47 47 -38 113 15 115
34 2 36 5 10 12 -63 16 -37 46 40 45 60 -2 67 -5 35 -19 -38 -16 -38 -17 5
-19 29 -1 45 -13 45 -36 0 -60 78 -95 111 -51 26 34 28 33 29 -14 0 -40 5 -44
20 -20 15 24 19 20 20 -18 0 -47 1 -48 41 -11 22 20 56 39 74 42 19 3 45 21
59 41 13 20 49 62 80 95 31 32 37 43 14 24 -52 -42 -127 -58 -157 -34 -29 24
-171 22 -226 -4 -59 -28 -86 0 -36 37 21 15 30 28 20 28 -11 0 -5 9 11 20 17
11 75 14 130 7 55 -6 160 -13 234 -14z m1113 -376 c-21 -74 -26 -79 -33 -38
-4 27 4 86 18 130 36 112 50 27 15 -92z"/>
<path d="M2725 4925 c41 -4 109 -4 150 0 41 5 8 8 -75 8 -82 0 -116 -3 -75 -8z"/>
<path d="M2614 4112 c-35 -62 -35 -62 4 -17 43 50 83 56 148 23 33 -17 39 -17
23 0 -58 62 -140 59 -175 -6z"/>
<path d="M3400 3964 c0 -8 13 -33 28 -55 16 -23 32 -67 37 -100 7 -47 10 -42
12 25 2 52 -9 95 -28 115 -35 34 -49 39 -49 15z"/>
</g>
</svg>
