<?xml version="1.0" standalone="no"?>
<!DOCTYPE svg PUBLIC "-//W3C//DTD SVG 20010904//EN"
 "http://www.w3.org/TR/2001/REC-SVG-20010904/DTD/svg10.dtd">
<svg version="1.0" xmlns="http://www.w3.org/2000/svg"
 width="300.000000pt" height="212.000000pt" viewBox="0 0 300.000000 212.000000"
 preserveAspectRatio="xMidYMid meet">
<metadata>
Created by potrace 1.10, written by Peter Selinger 2001-2011
</metadata>
<g transform="translate(0.000000,212.000000) scale(0.050000,-0.050000)"
fill="#000000" stroke="none">
<path d="M1906 4038 c-11 -11 -45 -23 -75 -26 -30 -3 -62 -17 -70 -30 -8 -14
-28 -22 -43 -19 -46 10 -154 -82 -144 -123 7 -26 -1 -35 -26 -33 -85 7 -51
-118 44 -164 59 -28 88 -55 88 -81 0 -37 106 -162 138 -162 7 0 25 -52 38
-115 24 -118 133 -365 205 -467 84 -117 87 -164 20 -269 -68 -108 -75 -176
-31 -282 19 -45 30 -137 30 -247 0 -124 8 -182 27 -198 69 -57 39 -368 -68
-719 -86 -282 -32 -480 124 -455 55 9 92 3 127 -20 76 -50 161 -8 362 178 246
227 331 290 432 324 462 153 475 184 99 232 -199 25 -283 -1 -283 -91 0 -34
-31 -60 -140 -117 -118 -61 -140 -67 -140 -38 0 56 77 164 116 164 56 0 58 7
40 175 -18 174 -30 208 -125 353 -105 161 -107 220 -12 403 45 86 81 166 82
178 1 31 59 95 149 161 44 33 130 100 190 151 61 50 151 117 200 149 50 31
147 100 216 153 138 106 278 139 182 43 -15 -15 -8 -31 25 -54 40 -29 50 -29
66 -5 16 25 25 25 65 -2 43 -27 50 -27 83 2 20 18 46 33 57 33 25 0 46 47 46
102 0 25 14 38 41 38 51 0 73 54 41 104 -21 33 -19 44 12 67 31 25 32 31 6 48
-24 15 -25 24 -5 44 35 35 31 51 -15 63 -27 7 -36 21 -28 42 8 21 1 32 -20 32
-19 0 -32 17 -32 40 0 22 -11 38 -24 35 -13 -3 -25 9 -26 25 -1 19 -18 28 -47
25 -37 -4 -43 2 -33 35 14 43 -55 61 -79 21 -7 -11 -25 -14 -42 -8 -16 6 -29
0 -29 -13 0 -13 -13 -19 -28 -14 -15 6 -48 -8 -72 -31 -36 -33 -53 -37 -80
-19 -45 27 -62 11 -48 -45 6 -27 -2 -54 -21 -70 -17 -14 -31 -39 -31 -55 0
-20 -13 -25 -40 -16 -45 14 -52 -9 -15 -48 19 -21 20 -29 1 -36 -51 -19 15
-79 76 -70 40 6 58 0 58 -19 -1 -87 -34 -122 -227 -239 -112 -67 -264 -162
-338 -210 -154 -100 -196 -111 -136 -35 113 144 -51 390 -237 356 -93 -16
-144 -54 -220 -159 -72 -100 -116 -112 -175 -45 -60 66 -127 185 -127 223 0
18 -22 78 -50 132 -63 124 -67 220 -10 220 24 0 40 13 40 32 0 28 5 29 32 6
57 -47 172 104 160 210 -5 45 -10 102 -11 127 0 25 -13 45 -28 45 -15 0 -43
21 -62 46 -37 50 -186 71 -225 32z"/>
</g>
</svg>
