<?xml version="1.0" standalone="no"?>
<!DOCTYPE svg PUBLIC "-//W3C//DTD SVG 20010904//EN"
 "http://www.w3.org/TR/2001/REC-SVG-20010904/DTD/svg10.dtd">
<svg version="1.0" xmlns="http://www.w3.org/2000/svg"
 width="600.000000pt" height="600.000000pt" viewBox="0 0 600.000000 600.000000"
 preserveAspectRatio="xMidYMid meet">
<g transform="translate(0.000000,600.000000) scale(0.050000,-0.050000)"
fill="#000000" stroke="none">
<path d="M6497 10398 c-841 -48 -1898 -295 -2617 -613 -1428 -630 -2253 -1729
-2503 -3335 -146 -939 115 -2193 630 -3024 787 -1269 1932 -1834 3713 -1832
2527 3 4415 1746 4893 4516 259 1499 -623 3081 -1955 3507 -748 239 -1736 216
-2277 -53 -177 -88 -185 -104 -97 -192 119 -119 196 -125 385 -32 482 239
1392 264 2031 57 1004 -325 1720 -1665 1579 -2953 -210 -1913 -1435 -3660
-3005 -4287 -935 -373 -2329 -421 -3292 -113 -1997 639 -2908 3494 -1811 5678
761 1515 2579 2414 4916 2430 677 5 698 8 657 97 -66 145 -472 194 -1247 149z"/>
<path d="M5080 7940 c-234 -17 -360 -37 -360 -59 0 -8 -29 -15 -65 -15 -66 -1
-160 -19 -215 -41 -16 -7 -49 -13 -73 -14 -23 -1 -59 -15 -80 -31 -36 -28 -36
-28 -1 13 35 41 35 44 -18 85 -148 117 -310 -14 -316 -257 -3 -97 -14 -126
-89 -227 -256 -346 -299 -645 -119 -813 102 -95 200 -42 305 166 103 203 241
340 284 283 404 -539 984 -2258 1206 -3578 41 -247 45 -257 107 -327 84 -92
292 -25 651 209 1653 1081 1744 3552 162 4366 -393 201 -837 279 -1379 240z
m780 -529 c1429 -355 1745 -2457 505 -3366 -138 -102 -383 -245 -418 -245 -11
0 -45 119 -75 265 -232 1115 -585 2183 -982 2975 -134 268 -135 244 15 297
288 101 714 134 955 74z"/>
</g>
</svg>
