<?xml version="1.0" standalone="no"?>
<!DOCTYPE svg PUBLIC "-//W3C//DTD SVG 20010904//EN"
 "http://www.w3.org/TR/2001/REC-SVG-20010904/DTD/svg10.dtd">
<svg version="1.0" xmlns="http://www.w3.org/2000/svg"
 width="300.000000pt" height="204.000000pt" viewBox="0 0 300.000000 204.000000"
 preserveAspectRatio="xMidYMid meet">
<metadata>
Created by potrace 1.10, written by Peter Selinger 2001-2011
</metadata>
<g transform="translate(0.000000,204.000000) scale(0.050000,-0.050000)"
fill="#000000" stroke="none">
<path d="M3993 3565 c-48 -74 -137 -212 -198 -307 l-111 -172 -167 -13 c-92
-7 -243 -13 -337 -13 -288 -1 -297 -9 -179 -157 l81 -101 -124 -76 c-991 -607
-1776 -1463 -2036 -2222 -68 -199 -37 -185 285 131 596 584 1222 997 1830
1204 215 74 216 73 185 -51 -33 -128 -43 -128 327 20 409 163 348 169 681 -68
154 -110 291 -200 306 -200 22 0 25 76 20 394 l-6 395 257 193 c274 206 327
251 310 267 -5 6 -158 52 -339 103 -429 121 -390 85 -529 476 -135 380 -137
382 -256 197z m228 -285 c128 -354 75 -306 452 -413 174 -49 324 -96 332 -104
8 -8 -80 -85 -195 -171 -115 -85 -236 -181 -269 -212 l-61 -56 13 -342 c8
-202 6 -342 -5 -342 -10 0 -108 63 -218 141 -110 77 -232 163 -272 190 l-71
50 -317 -130 c-175 -72 -322 -126 -327 -121 -8 8 36 181 136 536 l39 135 -219
262 c-121 144 -219 269 -219 277 0 8 154 21 341 29 l342 15 53 76 c30 42 115
173 191 290 76 120 144 207 153 197 10 -9 64 -147 121 -307z m-991 -651 c109
-127 111 -123 -90 -198 -612 -231 -1240 -674 -1675 -1183 -113 -131 -228 -265
-258 -298 l-53 -60 56 100 c307 547 1007 1222 1711 1650 204 123 194 124 309
-11z m138 -303 c-35 -114 1 -91 -279 -187 -572 -196 -1110 -526 -1544 -946
-213 -207 -226 -189 -28 38 457 524 1045 933 1674 1166 193 71 217 62 177 -71z
m-77 -283 c-28 -82 -24 -79 -261 -155 -472 -150 -1105 -533 -1603 -969 -288
-252 -175 -88 166 242 432 417 964 746 1501 927 214 72 236 67 197 -45z"/>
</g>
</svg>
