<?xml version="1.0" standalone="no"?>
<!DOCTYPE svg PUBLIC "-//W3C//DTD SVG 20010904//EN"
 "http://www.w3.org/TR/2001/REC-SVG-20010904/DTD/svg10.dtd">
<svg version="1.0" xmlns="http://www.w3.org/2000/svg"
 width="300.000000pt" height="223.000000pt" viewBox="0 0 300.000000 223.000000"
 preserveAspectRatio="xMidYMid meet">
<metadata>
Created by potrace 1.10, written by Peter Selinger 2001-2011
</metadata>
<g transform="translate(0.000000,223.000000) scale(0.050000,-0.050000)"
fill="#000000" stroke="none">
<path d="M2400 4439 c-500 -22 -906 -79 -1274 -179 -130 -36 -150 -36 -214
-10 -140 59 -237 9 -266 -134 -7 -34 -37 -72 -77 -97 -78 -48 -103 -112 -128
-331 -27 -235 -55 -345 -122 -479 -46 -90 -63 -158 -71 -270 -16 -243 -47
-374 -97 -407 -49 -31 -69 -108 -123 -462 -93 -617 99 -954 651 -1141 l131
-44 -7 -78 c-3 -42 -28 -109 -55 -148 -74 -109 -71 -311 5 -340 64 -25 68 -20
126 125 31 80 41 132 31 177 -8 34 -8 103 0 153 l13 90 94 -12 c51 -7 125 -18
165 -24 l71 -10 -25 -164 c-13 -90 -39 -197 -56 -238 -49 -115 -35 -356 22
-356 47 0 132 216 129 330 -1 55 8 174 21 265 l22 165 125 0 c238 0 284 127
359 980 42 482 92 1009 96 1013 2 2 72 -9 154 -24 83 -15 178 -27 212 -28 38
-1 92 -25 138 -61 l76 -60 294 0 c255 0 301 5 342 37 36 27 114 43 307 61 143
14 285 30 315 36 55 11 56 9 56 -79 0 -49 17 -269 39 -487 21 -219 49 -519 61
-668 39 -465 94 -667 204 -747 126 -92 876 28 1171 187 83 45 152 79 154 76 1
-3 32 -159 68 -346 116 -605 139 -688 195 -702 67 -17 177 6 228 48 l43 35
-73 360 c-40 197 -104 490 -143 649 -64 260 -69 300 -49 387 61 267 -33 1013
-128 1013 -27 0 -52 67 -82 214 -20 102 102 112 279 22 120 -61 110 -29 -40
121 -99 99 -164 146 -225 165 -101 30 -105 38 -163 332 -23 119 -64 306 -91
417 -26 110 -48 227 -48 260 0 187 -208 289 -306 149 l-30 -43 -171 61 c-523
185 -1443 280 -2333 241z m-1455 -241 c19 -11 35 -33 35 -49 0 -22 -10 -19
-40 11 -103 103 -189 -78 -263 -554 -23 -150 -28 -162 -58 -135 -55 50 39 649
115 734 36 39 130 36 211 -7z m4189 -30 c31 -28 45 -46 31 -39 -134 69 -190
-167 -137 -584 20 -166 20 -210 0 -227 -31 -25 -38 10 -67 343 -45 502 8 659
173 507z m-1518 -120 c259 -30 544 -86 544 -106 0 -7 -8 -42 -19 -78 -14 -49
-9 -105 22 -226 48 -191 63 -169 -156 -230 -405 -112 -602 -136 -1072 -130
-309 4 -444 -1 -464 -17 -51 -42 -519 40 -851 149 l-150 50 7 120 c8 151 -36
165 -100 32 l-43 -88 -88 42 c-73 35 -86 50 -75 84 51 159 20 194 -82 92 -49
-49 -64 -54 -104 -36 -94 43 -43 82 192 149 754 215 1646 286 2439 193z m1120
-48 c25 -27 59 -145 102 -355 36 -173 70 -333 75 -356 7 -31 -7 -48 -62 -74
l-70 -34 -13 54 c-37 167 -41 175 -82 174 -66 -2 -173 504 -125 592 27 52 126
51 175 -1z m-4156 -192 c0 -38 -9 -68 -20 -68 -11 0 -20 14 -20 31 0 17 -7 27
-16 21 -9 -5 -15 -46 -13 -91 2 -44 -5 -81 -16 -81 -21 0 -8 202 17 267 21 55
68 -1 68 -79z m3912 37 c21 -15 68 -174 68 -234 0 -68 -59 -28 -80 54 -12 47
-30 110 -40 140 -18 56 3 73 52 40z m-3370 -205 c-47 -109 -37 -160 37 -200
99 -52 181 -5 241 139 38 93 56 73 38 -42 -19 -118 -73 -187 -161 -205 -46 -9
-67 -30 -93 -92 -38 -88 -42 -91 -91 -55 -29 22 -31 35 -12 90 19 55 17 72
-20 124 -77 108 -74 179 10 277 91 106 107 95 51 -36z m-570 -53 c-7 -16 -22
-23 -34 -16 -15 10 -15 20 0 35 12 12 23 45 25 73 3 49 3 48 11 -6 5 -31 4
-70 -2 -86z m-4 -232 c12 -8 41 -15 65 -15 23 0 48 -13 54 -29 6 -15 75 -59
153 -97 137 -66 140 -69 81 -78 -35 -5 -67 -2 -73 7 -6 10 -35 17 -66 17 -33
0 -74 20 -101 49 -25 27 -72 55 -103 62 -32 6 -70 29 -85 50 -15 22 -32 33
-38 27 -7 -7 -8 9 -2 35 23 104 29 109 61 47 18 -33 42 -67 54 -75z m1313 -53
c93 -23 251 -54 349 -68 247 -36 277 -95 36 -70 -389 41 -799 156 -763 214 22
34 27 34 115 1 51 -19 169 -54 263 -77z m2862 -73 l7 -78 -170 -74 c-259 -112
-600 -225 -619 -205 -41 42 -80 170 -55 178 144 48 444 166 604 237 222 98
219 99 233 -58z m497 51 c0 -68 -130 -193 -215 -207 -41 -6 -91 -30 -110 -52
-25 -30 -59 -41 -122 -41 -65 0 -101 -13 -141 -50 -54 -50 -148 -66 -223 -37
-24 10 -3 22 70 40 58 15 131 46 164 69 32 23 94 44 138 47 47 3 98 21 124 46
25 23 72 48 105 56 76 18 190 102 190 140 0 16 5 29 10 29 6 0 10 -18 10 -40z
m-2060 -56 c74 -60 84 -243 12 -229 -44 8 -52 20 -52 76 0 107 -52 129 -300
129 -287 0 -300 -10 -300 -225 0 -230 6 -235 297 -235 251 0 303 20 303 113 0
26 8 47 18 47 10 0 33 5 50 12 49 19 42 -114 -9 -179 l-42 -53 -317 0 -317 0
-43 55 c-66 83 -53 430 17 487 70 56 615 57 683 2z m-2708 -33 c13 -53 -71
-731 -91 -730 -153 8 -105 779 49 779 16 0 35 -22 42 -49z m2493 -46 c-58 -4
-152 -4 -210 0 -58 4 -10 8 105 8 116 0 163 -4 105 -8z m-2129 -145 c9 -152
-89 -598 -153 -697 -16 -24 -70 -12 -118 27 -3 2 7 40 23 84 16 45 48 179 71
299 82 415 162 545 177 287z m4754 -22 c49 -24 118 -75 154 -113 l66 -68 -60
16 c-194 49 -310 -19 -310 -183 0 -94 -2 -96 -143 -121 -63 -11 -75 -7 -87 31
-27 85 -250 168 -250 92 0 -30 -81 -59 -103 -36 -15 16 -138 330 -131 336 36
35 190 26 200 -12 l11 -43 95 55 c196 115 388 131 558 46z m-3889 2 c58 0 85
-128 61 -289 -133 -894 -129 -881 -266 -864 -144 17 -141 -7 -65 523 82 570
121 680 225 640 15 -5 35 -10 45 -10z m-425 -44 c34 -34 30 -56 -10 -56 -41 0
-126 -77 -126 -113 0 -15 -9 -27 -21 -27 -11 0 -28 -20 -38 -45 -28 -69 -27
13 1 115 37 134 127 193 194 126z m1840 9 c-52 -4 -142 -4 -200 0 -58 4 -16 8
94 8 110 0 158 -4 106 -8z m864 -177 c0 -27 5 -28 30 -8 17 14 37 20 43 13 7
-6 -9 -30 -35 -53 -26 -22 -39 -39 -28 -38 57 8 75 -7 30 -25 l-50 -20 50 -28
c28 -15 39 -28 25 -28 -29 -1 -36 -212 -8 -229 9 -6 15 -36 13 -66 -1 -31 7
-63 19 -71 14 -10 13 -14 -4 -15 -14 0 -25 -9 -25 -20 0 -11 17 -20 39 -20 21
0 44 -9 51 -20 7 -11 -2 -20 -19 -20 -37 0 -43 -59 -6 -61 14 -1 5 -12 -20
-23 -55 -27 -80 -8 -45 34 30 36 7 41 -27 5 -54 -56 -27 -85 85 -89 155 -6
152 -26 -5 -26 l-133 0 0 60 c0 33 7 60 15 60 8 0 16 27 17 60 1 33 -5 60 -15
60 -9 0 -17 -24 -17 -53 0 -30 -4 -50 -8 -45 -16 16 -58 633 -46 665 16 43 74
43 74 1z m387 -168 c-71 -29 -88 -128 -70 -405 10 -157 7 -215 -10 -215 -29 0
-39 43 -68 316 -31 286 -18 325 106 323 69 -1 77 -5 42 -19z m-213 -205 c-4
-36 -8 -6 -8 65 0 72 4 101 8 65 5 -36 5 -94 0 -130z m-3950 64 c-69 -63 -38
-123 59 -115 27 2 89 -24 142 -60 51 -36 159 -96 239 -134 167 -81 111 -100
-104 -37 -136 40 -242 49 -275 22 -32 -25 -33 -83 -2 -63 15 9 18 5 9 -9 -8
-13 -23 -19 -32 -13 -31 19 -50 -131 -50 -395 0 -140 -7 -255 -16 -255 -9 0
-11 -11 -4 -25 7 -14 -1 -8 -19 14 -17 21 -31 48 -31 60 0 11 9 8 20 -9 26
-40 25 -15 -2 54 -31 77 -58 517 -38 616 14 74 16 76 20 20 l5 -60 13 60 c8
33 5 66 -5 73 -44 31 27 297 80 297 30 0 28 -6 -9 -41z m72 -54 c-10 -52 -76
-58 -76 -6 0 28 13 41 41 41 29 0 40 -11 35 -35z m5364 -65 c0 -41 -48 -55
-70 -20 -17 27 6 60 41 60 16 0 29 -18 29 -40z m-191 -105 c79 -347 87 -398
59 -408 -58 -23 -79 13 -116 196 -21 103 -42 197 -46 210 -8 20 19 35 79 45 8
1 19 -18 24 -43z m-389 -163 c0 -20 -183 -112 -320 -161 -82 -29 -168 -70
-190 -91 -56 -53 -138 -80 -240 -80 l-87 0 -14 -133 c-14 -130 2 -568 25 -667
10 -45 8 -47 -21 -20 -42 40 -86 220 -120 490 -18 140 -30 191 -33 140 l-5
-80 -15 70 c-14 67 -15 66 -17 -28 -4 -148 -17 -105 -32 113 -11 138 -8 195 8
195 12 0 17 -19 11 -45 -6 -25 -3 -72 6 -105 l17 -60 16 49 c11 32 8 52 -6 57
-13 4 -22 22 -21 41 1 20 5 23 11 9 15 -38 107 30 107 79 0 38 9 40 145 29
124 -11 155 -7 204 26 32 21 94 44 137 51 58 10 72 18 52 32 -19 12 -12 15 22
7 37 -8 238 42 355 88 3 1 5 -2 5 -6z m-4049 -128 c3 -15 -5 -23 -18 -19 -12
5 -25 39 -28 77 -4 68 29 27 46 -58z m-936 -239 c-5 -41 -8 -7 -8 75 0 83 3
116 8 75 4 -41 4 -109 0 -150z m1705 175 c0 -41 -48 -55 -70 -20 -17 27 6 60
41 60 16 0 29 -18 29 -40z m2455 28 c-6 -6 -52 -11 -102 -11 -55 0 -100 -12
-115 -30 -20 -23 -28 -24 -41 -3 -31 49 -16 56 126 56 79 0 138 -5 132 -12z
m-3282 -23 c-5 -8 23 -17 63 -20 87 -7 99 -17 71 -61 -42 -67 -156 -45 -163
31 -4 38 3 65 16 65 12 0 18 -7 13 -15z m3163 -52 c5 -22 -7 -33 -35 -33 -22
0 -41 12 -41 27 0 61 65 67 76 6z m-2596 -68 c6 -6 -24 -6 -65 -1 -41 4 -75 6
-75 4 0 -3 -5 -19 -12 -36 -7 -18 -2 -32 11 -32 13 0 18 9 11 20 -7 11 0 20
15 20 16 0 28 -14 28 -31 0 -45 -81 -28 -90 19 -11 60 123 88 177 37z m-480
-86 c0 -12 -36 -237 -80 -500 -51 -300 -76 -507 -69 -554 14 -87 -50 -275 -94
-275 -49 0 -47 220 3 290 32 45 61 174 124 559 45 276 89 501 99 501 9 0 17
-10 17 -21z m4541 -614 c79 -466 87 -519 70 -503 -29 29 -195 990 -189 1094 3
58 37 -108 119 -591z m-4121 526 c0 -16 -33 -248 -72 -515 -40 -267 -74 -553
-76 -636 -3 -113 -16 -175 -53 -250 l-48 -100 -7 129 c-4 86 4 154 25 200 23
54 191 1091 191 1183 0 10 9 18 20 18 11 0 20 -13 20 -29z"/>
<path d="M1643 2675 c-13 -13 -22 -41 -21 -64 1 -28 4 -31 11 -11 28 84 36 84
48 0 l13 -90 3 84 c3 89 -16 119 -54 81z"/>
<path d="M1550 2220 c-8 -56 -10 -107 -5 -112 5 -5 16 37 23 94 8 56 10 107 5
112 -5 5 -15 -38 -23 -94z"/>
<path d="M3903 2672 c1 -61 10 -106 20 -100 24 15 22 183 -3 198 -12 8 -19
-29 -17 -98z"/>
</g>
</svg>
