<?xml version="1.0" standalone="no"?>
<!DOCTYPE svg PUBLIC "-//W3C//DTD SVG 20010904//EN"
 "http://www.w3.org/TR/2001/REC-SVG-20010904/DTD/svg10.dtd">
<svg version="1.0" xmlns="http://www.w3.org/2000/svg"
 width="300.000000pt" height="429.000000pt" viewBox="0 0 300.000000 429.000000"
 preserveAspectRatio="xMidYMid meet">
<metadata>
Created by potrace 1.10, written by Peter Selinger 2001-2011
</metadata>
<g transform="translate(0.000000,429.000000) scale(0.050000,-0.050000)"
fill="#000000" stroke="none">
<path d="M5362 6462 c-30 -19 -29 -27 56 -312 54 -180 75 -467 44 -609 -161
-750 -520 -1228 -1078 -1436 l-147 -55 12 -70 12 -70 -41 47 c-22 26 -39 62
-39 80 2 26 6 24 20 -7 16 -33 18 -34 14 -4 -3 20 -14 36 -25 36 -11 0 -39 19
-63 41 -56 53 -110 41 -129 -28 -16 -60 15 -98 44 -53 19 33 58 38 92 13 26
-19 12 -81 -14 -65 -26 16 -81 -12 -68 -34 7 -11 -15 -16 -55 -12 -52 5 -68
16 -73 51 -4 25 -16 45 -27 45 -18 0 -12 -34 18 -115 5 -14 0 -25 -12 -25 -11
0 -26 18 -33 41 -14 43 -101 139 -125 137 -8 -1 -18 10 -22 23 -5 15 2 19 19
10 16 -7 -1 12 -37 44 -36 32 -65 78 -65 101 0 48 -69 63 -87 19 -7 -18 -15
-19 -26 -3 -10 12 -30 22 -47 22 -16 0 -59 7 -95 15 -40 9 -65 6 -65 -6 0 -11
-27 -26 -60 -33 -49 -11 -60 -23 -58 -67 0 -29 6 -42 11 -28 6 14 20 25 32 25
13 0 44 20 71 45 l48 45 30 -45 c22 -32 39 -39 63 -26 22 11 51 8 83 -10 l50
-27 -69 -14 c-80 -17 -40 -44 69 -47 52 -2 55 -5 24 -23 -21 -12 -71 -15 -120
-8 -63 11 -79 8 -62 -9 12 -13 41 -24 64 -26 40 -3 42 -35 1 -35 -38 0 -120
76 -92 85 20 7 20 15 0 39 -13 16 -20 36 -15 43 5 7 -1 4 -15 -8 -19 -16 -18
-25 5 -40 26 -16 25 -18 -4 -19 -66 0 -58 -41 13 -71 40 -17 67 -39 61 -50
-17 -26 -90 -24 -90 2 0 12 -9 16 -20 9 -11 -7 -20 -29 -20 -49 0 -38 132 -71
152 -37 21 34 64 14 73 -33 6 -33 2 -45 -13 -36 -37 23 -92 19 -114 -7 -31
-38 -6 -94 55 -122 80 -38 102 -7 35 50 -35 30 -44 44 -21 36 20 -6 49 -12 65
-12 15 0 28 -18 28 -40 0 -22 9 -40 19 -40 11 0 14 15 7 33 -10 25 -6 29 16
17 17 -10 14 -1 -7 23 -48 55 -44 69 14 47 50 -19 96 10 59 37 -10 7 -28 31
-40 53 -13 23 -44 40 -75 41 -79 1 -89 29 -11 30 56 2 61 5 28 19 -39 17 -39
17 3 19 26 0 46 -14 53 -39 6 -23 26 -39 47 -38 21 0 26 5 12 11 -41 17 -29
42 25 52 28 5 50 2 50 -8 0 -9 -10 -17 -22 -17 -13 0 -16 -23 -8 -65 13 -62
12 -63 -17 -25 -26 33 -32 34 -32 7 -2 -61 53 -86 109 -49 50 33 51 33 63 -27
7 -34 21 -55 33 -48 12 8 14 3 5 -11 -8 -14 0 -42 20 -63 20 -22 29 -45 22
-52 -7 -8 -13 -4 -13 8 0 22 -15 25 -125 28 -30 1 -55 10 -55 22 0 12 28 16
69 9 66 -11 68 -9 48 35 -28 61 -166 67 -150 7 12 -46 -19 -47 -45 -1 -21 35
-28 18 -21 -49 1 -8 -17 -21 -40 -29 -53 -20 -58 -117 -6 -117 19 0 56 -6 83
-13 35 -10 45 -6 38 15 -6 16 -30 26 -58 22 -42 -4 -44 -3 -13 17 20 12 32 28
27 36 -12 18 73 15 104 -5 13 -8 32 -9 42 -3 23 14 87 -84 72 -109 -7 -11 3
-15 24 -8 30 10 31 8 6 -10 -28 -20 -14 -32 30 -23 11 3 14 -2 6 -9 -7 -8 4
-54 25 -103 48 -111 48 -114 0 -101 -37 9 -37 7 -7 -39 23 -36 26 -55 10 -71
-16 -16 -16 -34 -1 -61 11 -21 18 -76 15 -122 -3 -46 2 -100 11 -120 11 -24 8
-43 -10 -53 -21 -13 -21 -23 -2 -46 24 -29 -16 -89 -42 -62 -6 6 -10 -5 -8
-24 2 -18 -10 -38 -25 -43 -15 -6 -22 -1 -15 10 7 11 -3 33 -21 48 -29 24 -32
23 -20 -8 14 -38 -34 -51 -56 -15 -7 11 -4 20 7 20 11 0 15 18 9 40 -12 44
-39 50 -86 20 -25 -15 -26 -26 -5 -59 23 -37 21 -41 -21 -41 -47 0 -145 58
-99 59 14 1 25 15 25 32 0 28 -4 28 -28 4 -16 -16 -27 -45 -25 -65 2 -20 -8
-40 -22 -45 -14 -4 -25 8 -25 28 0 31 -4 30 -31 -9 -41 -58 -89 -59 -74 -1 9
35 5 41 -22 31 -24 -9 -33 -2 -33 27 0 21 -10 39 -21 39 -13 0 -16 17 -9 40 7
22 4 40 -8 40 -11 0 -18 -36 -17 -80 2 -44 11 -80 21 -80 9 0 3 -13 -13 -30
-42 -42 -42 -42 -49 74 -3 58 -17 112 -30 120 -25 16 6 25 61 17 14 -1 25 17
25 42 0 35 -5 40 -24 21 -59 -59 -75 18 -33 159 18 60 18 84 0 102 -32 32 -29
76 5 63 47 -18 53 23 11 69 -53 57 -12 56 45 -1 26 -26 47 -34 51 -21 4 13 20
18 34 13 15 -6 33 -1 41 12 8 13 3 21 -13 18 -41 -8 -162 51 -207 101 l-39 45
54 39 54 40 -53 45 -53 46 46 -2 c65 -3 74 40 12 56 -63 16 -67 48 -6 44 28
-1 45 10 45 28 0 17 -10 28 -23 26 -13 -3 -28 8 -34 25 -7 17 0 29 18 29 16 0
29 9 29 20 0 11 -13 20 -30 20 -16 0 -30 9 -30 20 0 11 9 20 20 20 35 0 21 59
-20 85 -23 14 -40 47 -40 75 -1 38 -5 43 -19 21 -10 -16 -14 -39 -8 -50 5 -12
-4 -4 -22 18 -37 46 -40 136 -6 194 20 34 20 44 0 51 -47 17 -30 89 20 82 35
-5 44 -17 39 -56 -3 -27 1 -41 10 -30 17 21 168 29 154 8 -4 -7 15 -13 42 -13
35 0 50 11 50 36 0 52 -30 64 -109 42 -62 -17 -69 -15 -75 24 -4 30 -20 43
-51 41 -25 0 -45 6 -45 15 0 24 -75 21 -90 -3 -20 -32 -50 -23 -37 10 8 22 2
27 -21 18 -23 -9 -32 -1 -32 30 0 57 -86 99 -129 62 -42 -34 -39 -95 4 -105
19 -5 -10 -4 -65 2 -91 9 -98 7 -73 -24 16 -18 19 -33 8 -33 -12 0 -26 13 -32
30 -17 45 -60 36 -111 -22 -35 -41 -56 -49 -98 -38 -29 7 -61 15 -71 17 -9 1
-25 -17 -34 -42 -20 -51 51 -67 97 -21 18 18 24 18 24 0 0 -13 -25 -29 -55
-35 -30 -6 -75 -20 -99 -30 -27 -11 -49 -10 -56 2 -30 47 -86 18 -99 -51 -7
-38 -20 -70 -29 -70 -9 0 -63 -37 -120 -82 l-103 -82 -104 25 c-127 29 -161
54 -148 105 9 32 0 29 -48 -17 -55 -53 -60 -54 -95 -22 -21 18 -48 33 -61 33
-93 0 -512 394 -694 653 -313 444 -368 865 -177 1354 161 411 -135 293 -350
-140 -349 -703 -92 -1573 719 -2434 178 -188 185 -200 184 -285 -1 -90 43
-129 119 -103 14 4 61 -17 105 -47 78 -53 152 -48 118 7 -8 12 -3 15 10 7 23
-14 -1 -86 -37 -112 -20 -14 -75 -194 -91 -300 -8 -49 -21 -95 -30 -100 -81
-52 -39 -115 85 -126 69 -7 203 -26 296 -43 413 -77 1047 -77 1702 -1 39 4
201 13 360 20 352 14 462 27 447 51 -6 10 -14 100 -19 199 -4 100 -13 198 -20
219 -9 29 -3 36 24 28 21 -5 77 20 134 60 77 56 110 68 162 59 71 -11 104 30
72 90 -24 48 2 103 88 184 41 39 152 160 246 270 95 110 228 260 296 333 294
317 570 1010 571 1437 1 535 -292 1181 -481 1062z m94 -124 c53 -116 45 -229
-9 -125 -16 31 -31 81 -33 111 -2 31 -11 56 -19 56 -8 0 -15 14 -15 30 0 57
30 29 76 -72z m-4869 -144 c-16 -30 -23 -64 -17 -74 7 -11 3 -36 -8 -55 -20
-33 -21 -33 -21 1 -1 20 -10 31 -21 24 -11 -7 -14 1 -8 19 9 23 4 28 -20 19
-36 -14 -42 -40 -12 -58 29 -18 2 -175 -35 -204 -29 -24 -28 -70 5 -156 15
-39 14 -39 -14 -2 -29 37 -29 37 -30 0 0 -21 10 -45 22 -53 15 -10 14 -14 -3
-15 -14 0 -23 -21 -20 -50 2 -27 15 -50 29 -50 14 0 26 -9 26 -19 0 -11 -13
-15 -28 -9 -15 6 -34 1 -41 -11 -8 -12 -22 -16 -32 -10 -11 6 -19 3 -19 -6 0
-34 26 -45 54 -22 20 17 34 17 49 2 16 -16 11 -29 -17 -46 -36 -23 -36 -26 15
-80 40 -43 133 -281 122 -314 -1 -2 12 -35 28 -74 16 -38 23 -85 17 -105 -9
-27 -7 -29 8 -9 23 33 35 16 53 -77 10 -52 8 -62 -7 -40 -28 39 -28 -1 -1 -74
l20 -56 -48 60 c-27 33 -45 67 -40 75 5 8 1 15 -9 15 -23 0 -47 69 -52 150 -3
33 -16 81 -29 106 -14 25 -20 65 -14 90 6 24 5 33 -1 19 -6 -14 -19 -21 -27
-15 -30 18 -11 -114 19 -137 35 -27 54 -104 21 -84 -21 14 35 -149 58 -169 7
-5 28 -35 48 -67 22 -34 47 -52 65 -45 16 6 35 -2 41 -18 6 -16 19 -25 29 -19
10 6 18 -1 18 -17 0 -20 16 -25 53 -18 37 7 49 3 39 -13 -8 -13 -30 -23 -48
-24 -30 0 -29 -4 5 -30 26 -19 45 -23 59 -9 33 33 59 23 31 -12 -15 -18 -46
-28 -72 -23 -25 5 -48 2 -51 -7 -9 -24 -167 125 -159 150 3 12 0 15 -9 7 -8
-8 -31 0 -51 18 -21 18 -36 25 -36 15 3 -33 76 -178 78 -154 2 42 57 6 70 -45
11 -48 111 -67 111 -22 0 10 13 7 28 -6 21 -17 32 -17 42 0 10 14 23 6 38 -24
13 -26 35 -47 49 -47 35 0 83 -67 71 -99 -6 -13 4 -36 21 -50 26 -22 27 -32 6
-59 -22 -28 -21 -29 8 -6 27 21 30 39 15 90 -22 79 -22 79 2 64 11 -7 20 -34
20 -61 0 -30 22 -64 59 -92 33 -24 55 -53 49 -65 -6 -12 2 -6 18 13 35 43 83
46 67 5 -13 -32 28 -33 52 0 8 12 16 8 18 -10 1 -16 5 -43 7 -60 2 -16 5 -46
7 -65 2 -19 17 -35 33 -35 17 0 30 -13 30 -30 0 -36 53 -40 67 -5 5 14 10 16
11 5 3 -76 -147 -138 -168 -69 -14 43 -70 68 -70 31 0 -14 21 -42 48 -62 59
-45 68 -140 10 -109 -24 13 -38 13 -38 1 0 -90 -69 -80 -113 16 -42 91 -89
148 -60 72 7 -16 8 -30 3 -30 -24 0 -110 90 -110 114 0 15 -16 25 -35 22 -19
-3 -33 5 -30 18 2 13 -43 66 -100 118 -58 52 -87 82 -65 67 22 -16 2 11 -45
59 -48 48 -81 92 -76 98 6 5 -5 24 -25 42 -130 120 -274 442 -152 340 28 -23
32 -22 25 12 -4 22 -25 43 -47 47 -22 4 -49 16 -60 28 -14 14 -3 16 35 7 34
-8 55 -5 55 9 0 12 -8 16 -19 10 -10 -6 -24 -2 -32 10 -7 12 -26 17 -41 11
-16 -6 -28 2 -28 19 0 16 -11 30 -25 31 -17 1 -18 4 -2 10 25 11 -9 108 -38
108 -28 0 -15 76 15 87 26 10 24 22 -10 84 -94 167 -114 614 -25 580 32 -12
85 21 85 54 0 11 -12 10 -29 -4 -39 -33 -76 -8 -54 35 10 19 23 77 30 129 18
141 113 296 113 186 0 -18 12 -25 30 -18 23 8 24 20 8 51 -22 42 53 224 85
204 8 -5 21 12 29 37 13 43 14 44 28 5 9 -23 3 -63 -13 -96z m5003 -116 c30
-68 58 -165 63 -215 16 -182 24 -241 37 -284 11 -32 8 -40 -11 -29 -19 12 -21
2 -10 -42 8 -32 24 -63 35 -71 12 -7 16 -21 9 -32 -6 -10 0 -36 15 -56 43 -59
-7 -96 -56 -41 -34 37 -37 37 -25 4 15 -40 -25 -172 -51 -172 -9 0 -16 -13
-16 -30 0 -16 -10 -30 -22 -30 -13 0 -18 -17 -13 -39 7 -27 2 -35 -17 -27 -16
5 -28 1 -28 -10 0 -12 -6 -35 -12 -53 -9 -22 -4 -28 18 -20 30 12 -37 -229
-74 -265 -6 -7 -12 -32 -12 -56 0 -23 -13 -60 -29 -81 -17 -22 -30 -54 -30
-73 -1 -18 -35 -74 -76 -123 -218 -259 -252 -314 -205 -343 11 -7 20 2 20 19
0 17 9 31 20 31 11 0 20 14 20 30 0 17 9 30 20 30 49 0 14 -92 -62 -162 -45
-41 -121 -131 -170 -200 -48 -69 -88 -115 -88 -102 0 30 -65 31 -94 2 -16 -16
-36 -12 -74 12 -31 21 -52 26 -52 12 0 -12 15 -22 32 -22 25 0 28 -6 11 -27
-13 -15 -16 -33 -8 -42 8 -8 16 -23 18 -33 1 -10 3 -24 5 -31 1 -8 26 8 56 35
30 26 20 8 -23 -42 -43 -49 -86 -93 -95 -97 -24 -10 -19 33 6 48 13 9 15 19 3
27 -10 6 -28 29 -39 50 -19 34 -21 33 -34 -16 -17 -69 -67 -30 -62 49 2 36 -6
53 -27 51 -21 -1 -29 17 -28 63 2 102 4 108 25 95 27 -16 26 36 -1 63 -14 14
-11 29 10 46 27 22 31 19 31 -24 0 -28 16 -62 35 -77 29 -22 31 -22 11 1 -20
22 -15 37 27 75 38 36 45 54 29 74 -17 20 -4 39 57 81 45 31 74 66 68 81 -5
15 8 32 32 40 23 7 37 20 32 29 -16 26 141 141 163 119 13 -13 29 -9 45 11 14
17 20 31 13 31 -7 0 2 23 20 51 18 27 38 46 44 40 5 -5 -2 -24 -16 -41 -14
-17 -16 -30 -5 -30 35 0 88 96 61 112 -15 10 -8 20 21 31 26 9 43 33 43 59 0
23 31 84 68 135 37 51 68 98 67 103 -3 29 30 100 46 100 11 0 19 14 19 31 0
16 13 35 29 41 21 8 24 24 11 57 -21 56 -12 151 16 168 11 7 27 49 35 93 8 44
23 91 33 104 37 46 52 538 19 602 -21 40 -24 224 -3 224 8 0 39 -55 70 -122z
m37 -1082 c-30 -56 -36 -60 -43 -27 -5 22 8 71 29 109 32 60 38 64 43 27 4
-23 -9 -72 -29 -109z m36 -143 c-25 -26 -50 -80 -56 -121 -11 -62 -19 -71 -55
-63 -23 6 -31 5 -17 -1 35 -16 31 -48 -5 -48 -16 0 -30 -11 -30 -24 0 -17 -6
-18 -21 -3 -31 31 40 187 86 187 19 0 35 10 35 23 0 28 62 94 88 96 11 0 -1
-20 -25 -46z m-4930 -138 c-2 -14 -11 -36 -19 -49 -17 -27 17 -54 46 -36 11 7
20 2 20 -11 0 -13 13 -18 29 -12 17 6 35 3 42 -8 19 -31 -95 -21 -132 12 -21
19 -30 49 -24 80 10 49 45 72 38 24z m4726 -250 c0 -19 -22 -51 -49 -71 -37
-27 -47 -28 -38 -6 6 16 24 34 39 40 16 6 23 24 17 41 -7 17 -2 31 10 31 12 0
22 -16 21 -35z m-2360 -58 c6 -7 -1 -17 -15 -22 -20 -7 -15 -22 18 -57 25 -26
35 -48 23 -48 -12 0 -26 11 -32 25 -6 15 -10 11 -11 -10 -1 -19 -11 -35 -22
-35 -37 0 -20 -55 20 -66 57 -15 58 -134 1 -134 -21 0 -45 10 -53 23 -9 14 -5
18 9 9 16 -10 17 -1 5 32 -10 25 -28 44 -40 41 -12 -3 -22 16 -22 43 0 55 -66
83 -101 41 -36 -44 -14 -99 41 -102 28 -2 61 -4 74 -5 14 -1 20 -14 15 -28 -6
-14 -34 -23 -64 -21 -30 2 -66 4 -80 5 -16 1 -25 34 -25 91 0 79 -4 88 -42 81
-33 -7 -37 -3 -19 19 17 21 17 31 -1 42 -15 10 -19 7 -10 -8 8 -13 2 -23 -16
-23 -17 0 -28 17 -26 40 1 26 13 37 30 30 15 -5 50 -10 77 -10 28 0 44 -9 37
-20 -7 -12 13 -20 47 -20 33 0 74 -5 91 -12 18 -7 32 -2 32 10 0 12 -14 22
-31 22 -23 0 -28 12 -18 42 11 37 7 40 -34 29 -37 -11 -41 -9 -17 8 29 21 135
13 159 -12z m-419 -109 c0 -21 14 -38 30 -38 17 0 30 -9 30 -20 0 -11 18 -20
40 -20 45 0 50 -31 20 -111 -17 -44 -26 -49 -50 -29 -26 21 -30 13 -30 -58 0
-52 -9 -82 -25 -82 -19 -1 -19 -4 1 -17 18 -12 22 -41 12 -103 -11 -67 -18
-78 -29 -49 -25 68 -41 253 -21 240 30 -18 46 63 22 109 -12 23 -21 62 -19 86
7 93 0 111 -41 100 -27 -7 -40 -1 -40 19 0 21 15 27 50 20 32 -6 50 -23 50
-47z m2708 25 c6 -9 -7 -36 -29 -59 -21 -23 -39 -52 -39 -63 0 -12 -11 -21
-23 -21 -13 0 -18 -6 -11 -13 7 -7 -7 -40 -31 -73 l-43 -61 -14 54 c-12 42 -4
66 32 105 26 28 43 64 37 80 -10 25 14 37 58 30 8 -1 15 7 15 18 0 24 34 26
48 3z m-2881 -178 c-40 -29 -67 -32 -67 -8 0 9 20 27 45 39 33 16 36 22 12 23
-91 3 -134 -65 -56 -89 48 -16 139 37 139 80 0 17 14 30 30 30 17 0 30 -18 30
-40 0 -22 -8 -40 -18 -40 -10 0 -14 -17 -9 -37 8 -27 -8 -46 -59 -70 -81 -38
-101 -41 -84 -13 7 11 -7 20 -30 20 -23 0 -38 7 -33 15 5 9 -2 37 -16 64 -26
48 -26 48 -48 6 -31 -57 -29 -66 9 -51 28 10 29 6 8 -34 -16 -30 -29 -38 -39
-22 -8 13 -30 17 -53 9 -32 -11 -30 -5 12 42 l50 56 -50 -13 c-27 -7 0 14 60
46 61 33 101 61 90 63 -11 2 3 9 30 17 66 19 102 -52 47 -93z m-46 -167 c13
-24 15 -39 6 -34 -9 5 -31 -5 -47 -23 -28 -29 -24 -32 45 -34 41 -1 75 6 75
16 0 9 -9 17 -20 17 -48 0 -15 30 35 32 44 1 55 -7 55 -42 0 -34 -9 -41 -40
-34 -22 6 -33 3 -25 -6 8 -9 0 -35 -19 -58 -19 -23 -23 -31 -8 -18 33 28 82
-10 82 -64 0 -25 -16 -31 -64 -26 -49 4 -67 -3 -72 -29 -8 -39 83 -52 106 -15
19 31 50 24 50 -12 0 -20 -11 -28 -28 -21 -32 12 -132 -71 -132 -110 0 -16 9
-13 25 7 44 56 110 63 135 15 13 -23 18 -48 12 -54 -7 -6 -12 -1 -12 12 0 13
-7 23 -16 23 -23 0 -14 -139 13 -206 28 -68 30 -121 4 -105 -10 6 -24 3 -31
-9 -7 -11 -28 -19 -46 -18 -21 1 -24 5 -9 11 14 6 19 20 12 32 -7 11 3 33 23
47 33 24 33 28 4 39 -38 15 -103 -41 -84 -71 7 -11 -2 -20 -20 -20 -42 0 -31
-69 10 -73 17 -1 39 -4 50 -7 11 -3 27 -4 35 -2 8 1 15 -7 15 -18 0 -11 10
-20 22 -20 12 0 17 14 11 30 -7 17 -3 30 8 30 10 0 19 -18 19 -40 0 -22 -12
-40 -27 -40 -18 0 -24 -16 -18 -49 5 -27 19 -48 31 -45 12 2 24 -15 25 -38 2
-24 10 -53 17 -65 9 -14 3 -18 -17 -11 -17 7 -46 1 -63 -13 -25 -22 -34 -22
-47 -1 -10 16 -32 21 -59 13 -49 -16 -53 -37 -13 -77 25 -25 24 -35 -4 -75
-28 -40 -28 -44 -2 -34 23 9 31 -3 33 -48 1 -46 -6 -58 -29 -49 -34 13 -93
-35 -71 -59 8 -8 -2 -9 -23 -2 -20 7 -45 13 -56 13 -11 0 -13 10 -6 22 9 15 0
18 -27 9 -22 -7 -46 -3 -53 8 -17 27 -51 27 -51 0 0 -12 9 -16 20 -9 11 7 20
3 20 -9 0 -32 -80 -25 -93 9 -6 17 -31 30 -54 30 -26 0 -34 6 -20 15 40 26 7
225 -38 225 -12 0 3 27 35 60 53 56 48 90 -6 36 -18 -18 -24 -18 -24 -1 0 13
-13 19 -30 12 -39 -15 -38 -56 4 -121 56 -85 55 -206 -3 -206 -15 0 -32 -11
-38 -25 -12 -30 -18 27 -14 125 2 49 -3 62 -16 42 -14 -20 -22 -10 -34 40 -12
58 -17 62 -29 28 -8 -22 -24 -41 -37 -42 -13 -2 -39 -4 -58 -6 -30 -2 -30 -6
-6 -21 20 -13 35 -11 45 5 11 16 15 13 16 -10 0 -23 11 -31 30 -23 22 8 27 2
18 -22 -7 -18 2 -49 23 -72 34 -38 33 -39 -48 -39 -51 0 -81 9 -78 22 3 13 -7
27 -21 32 -14 6 -23 2 -20 -7 3 -9 -3 -17 -14 -17 -11 0 -17 38 -13 89 7 84 5
88 -28 60 -33 -27 -34 -26 -7 17 25 41 24 48 -7 66 -43 25 -44 59 -4 109 18
22 26 28 19 14 -19 -38 20 -30 58 13 34 37 14 78 -26 53 -10 -6 -14 7 -8 29 8
31 1 40 -34 40 -37 0 -42 8 -33 45 7 25 13 61 13 81 0 32 5 33 57 5 32 -16 64
-24 70 -17 7 7 13 -2 13 -21 0 -18 9 -33 19 -33 29 0 61 70 61 134 0 33 7 46
16 32 28 -44 104 54 104 134 0 22 9 40 20 40 11 0 20 10 20 22 0 12 -13 17
-28 11 -19 -7 -38 12 -54 53 -14 35 -29 71 -33 79 -5 8 9 15 31 15 22 0 45 14
52 31 6 18 3 26 -8 19 -11 -7 -20 2 -20 20 0 20 -9 27 -24 18 -13 -9 -3 13 21
48 55 77 78 86 29 11 -28 -43 -29 -51 -5 -44 16 5 45 40 64 78 28 55 47 69 93
70 33 0 55 -7 49 -15 -5 -9 -26 -16 -46 -16 -42 0 -68 -92 -40 -140 15 -25 18
-25 18 5 1 40 73 129 128 159 27 14 34 14 24 -2 -7 -12 -4 -22 6 -22 25 0 83
57 83 81 0 37 79 18 101 -23z m423 7 c-13 -5 -24 -28 -23 -52 0 -38 2 -39 20
-9 12 21 33 29 53 22 23 -9 28 -5 16 14 -11 18 -8 21 8 11 18 -11 18 -21 1
-43 -14 -17 -16 -28 -4 -28 11 0 25 -18 31 -40 8 -32 2 -38 -33 -33 -24 4 -32
3 -18 -1 34 -12 31 -39 -5 -53 -16 -7 -30 -3 -30 8 0 10 -9 19 -19 19 -23 0
-22 -137 0 -151 8 -5 20 13 27 40 12 48 13 49 72 15 58 -33 60 -40 63 -184 13
-740 14 -714 -12 -630 l-25 80 -1 -74 c-1 -42 12 -85 28 -99 24 -20 25 -333 0
-349 -33 -23 -117 -24 -88 -1 19 15 29 33 22 40 -8 7 -27 1 -44 -12 -26 -21
-28 -19 -17 10 7 19 4 35 -7 35 -10 0 -19 36 -19 80 0 83 48 115 73 49 10 -25
19 -18 42 29 44 90 -34 184 -85 102 -36 -58 -46 26 -59 513 -11 406 -9 536 9
547 17 11 18 19 2 29 -39 24 -28 152 12 137 21 -8 25 -16 10 -21z m316 -48 c0
-11 -8 -14 -19 -8 -10 6 -24 3 -31 -9 -7 -11 2 -20 19 -20 43 0 44 -151 0
-168 -18 -6 -36 2 -43 20 -8 22 -16 25 -26 8 -9 -15 -18 -8 -26 20 -8 32 -4
40 18 32 17 -7 28 -1 25 13 -11 57 26 153 54 142 16 -6 29 -20 29 -30z m1277
18 c27 10 26 4 -6 -32 -29 -33 -42 -38 -54 -18 -12 18 -16 16 -17 -10 0 -19
-4 -35 -8 -35 -5 0 -22 -5 -39 -12 -40 -15 -32 31 17 87 23 27 46 37 57 26 10
-10 33 -13 50 -6z m-1695 -177 c0 -85 10 -159 24 -176 19 -23 19 -26 -1 -15
-17 11 -25 0 -25 -37 0 -29 -8 -48 -17 -42 -18 11 -27 389 -10 418 22 34 30
-6 29 -148z m-1086 102 c15 0 20 -10 12 -23 -9 -15 -5 -18 9 -9 58 36 144 -8
112 -56 -16 -25 -23 -51 -16 -59 8 -7 3 -13 -11 -13 -13 0 -19 -8 -13 -18 6
-11 -1 -31 -15 -46 -15 -14 -34 -52 -41 -83 -8 -31 -48 -87 -89 -125 -60 -56
-68 -72 -45 -87 25 -16 24 -25 -8 -60 -36 -40 -105 -59 -82 -23 6 10 0 17 -14
15 -44 -7 -39 -43 9 -56 25 -7 35 -14 22 -15 -14 -1 -20 -17 -14 -37 9 -27 2
-24 -29 10 -21 25 -53 45 -69 45 -16 0 -35 14 -41 30 -7 17 -3 30 8 30 36 0
19 57 -21 70 -22 7 -40 20 -40 28 0 38 46 142 62 142 10 0 18 12 18 26 0 95
173 341 229 326 23 -7 53 -12 67 -12z m2624 -120 c21 -41 33 -93 27 -117 -13
-48 -47 -59 -47 -15 0 36 -38 66 -108 83 -37 10 -54 8 -45 -5 6 -12 14 -66 16
-122 l3 -102 62 44 c70 50 156 97 162 89 33 -40 53 -102 26 -79 -26 20 -33 20
-43 -5 -7 -17 -1 -31 13 -32 13 0 8 -9 -11 -21 -19 -11 -35 -29 -35 -40 0 -11
19 -2 43 21 51 47 64 42 129 -61 50 -81 49 -118 -3 -118 -16 0 -29 -13 -29
-30 0 -41 -101 -144 -158 -161 -32 -9 -43 -6 -33 9 8 13 -1 22 -20 22 -21 0
-29 11 -22 30 7 19 0 30 -19 30 -16 0 -28 11 -25 25 2 14 -11 60 -30 103 -18
43 -29 82 -24 87 5 6 -4 23 -20 39 -16 16 -24 37 -18 48 6 10 0 18 -13 18 -14
0 -19 6 -12 12 7 7 -5 47 -26 88 -69 136 -71 243 -3 175 20 -20 23 -18 11 12
-13 35 -11 35 48 5 72 -37 91 -40 73 -11 -18 30 29 79 63 65 16 -6 47 -44 68
-86z m78 23 c14 -25 13 -44 -3 -60 -17 -17 -17 -23 1 -23 13 0 24 -16 24 -34
0 -48 -52 26 -71 101 -15 62 19 73 49 16z m-1680 -178 c1 -14 -11 -25 -28 -25
-32 0 -43 100 -15 128 14 14 38 -45 43 -103z m484 58 c5 -74 -7 -174 -21 -183
-21 -14 -12 -101 13 -117 24 -16 25 -24 34 -249 5 -145 1 -179 -26 -194 -18
-10 -22 -19 -10 -19 23 -1 37 -133 28 -251 -3 -33 -6 -84 -8 -112 -1 -30 -12
-49 -24 -44 -13 4 -28 -6 -35 -23 -17 -44 -64 -38 -68 9 -1 24 10 40 27 40 33
0 21 171 -14 209 -27 28 -22 56 7 38 17 -10 16 -4 -2 19 -24 29 -23 34 3 34
22 0 31 -18 30 -60 -1 -33 5 -67 14 -75 18 -18 -2 872 -22 922 -10 28 -18 29
-43 9 -25 -21 -28 -18 -22 15 5 23 22 37 42 33 23 -4 31 4 23 24 -8 21 0 26
30 18 23 -6 43 -25 44 -43z m-1297 -28 c5 -14 2 -44 -7 -68 -18 -51 -6 -69 37
-52 22 8 27 4 16 -14 -10 -16 -37 -21 -73 -14 -52 11 -58 7 -60 -42 -2 -36 -6
-43 -12 -19 -5 20 -3 52 5 70 8 19 16 43 17 54 10 85 59 139 77 85z m813 -200
c2 -69 12 -224 22 -345 26 -293 25 -344 -7 -356 -21 -8 -28 22 -31 132 -2 78
-8 147 -12 154 -26 42 -29 540 -4 540 21 0 29 -34 32 -125z m388 24 c-13 -66
-14 -67 -27 -19 -7 28 -5 60 4 72 9 12 14 26 10 32 -4 6 1 5 10 -3 10 -7 11
-44 3 -82z m-309 -127 c-9 -32 -11 -66 -4 -76 26 -42 28 -196 2 -196 -19 -1
-19 -4 1 -17 18 -11 30 -75 35 -185 5 -92 13 -190 19 -218 5 -27 2 -62 -8 -78
-12 -18 -24 17 -39 110 -32 204 -38 406 -14 418 13 6 12 14 -4 22 -31 14 -33
68 -3 68 16 0 17 8 3 25 -23 29 -45 212 -30 251 20 52 59 -63 42 -124z m-1055
62 c-32 -32 -29 -84 3 -60 51 40 86 42 86 5 0 -20 -6 -32 -14 -27 -7 4 -27 -5
-43 -21 -27 -26 -34 -22 -62 38 -35 74 -43 118 -12 71 16 -25 19 -24 20 6 0
21 9 31 22 23 15 -10 15 -20 0 -35z m1378 -189 c5 -126 5 -298 0 -345 -2 -16
-12 4 -22 45 -10 44 -10 94 2 124 12 31 11 54 -1 61 -10 7 -19 66 -19 132 0
152 33 138 40 -17z m1022 -105 c12 0 11 -16 -2 -40 -15 -28 -15 -52 -1 -79 26
-48 27 -67 2 -52 -11 7 -18 -8 -17 -33 4 -98 -5 -139 -28 -131 -42 14 -58 116
-23 150 23 24 24 34 5 46 -19 12 -16 23 9 49 33 32 29 70 -8 70 -10 0 -12 -16
-5 -35 9 -26 6 -30 -12 -13 -31 29 -5 93 32 79 16 -6 38 -11 48 -11z m-2512
-85 c-8 -72 -9 -75 -30 -75 -11 0 -20 14 -20 30 0 17 9 30 19 30 11 0 15 14 8
30 -6 17 -3 30 8 30 11 0 17 -20 15 -45z m951 -216 c22 -11 39 -31 39 -45 0
-15 -8 -13 -20 6 -17 26 -23 26 -38 2 -12 -19 -9 -38 10 -57 34 -34 19 -68
-23 -52 -16 6 -24 20 -17 30 6 10 1 31 -11 46 -16 19 -17 31 -2 41 12 7 16 21
10 31 -15 25 4 24 52 -2z m-981 -101 c0 -10 9 -18 20 -18 11 0 20 14 20 30 0
17 9 30 21 30 14 0 13 -13 -1 -40 -12 -23 -16 -50 -10 -60 23 -38 -15 -20 -54
24 -32 38 -41 40 -57 15 -16 -25 -18 -25 -19 3 0 17 5 37 12 43 16 16 68 -5
68 -27z m1177 -66 c-2 -107 11 -131 63 -118 22 6 40 1 40 -10 0 -11 5 -34 11
-50 9 -22 -7 -29 -70 -29 -45 0 -81 6 -82 13 0 6 -6 60 -12 118 -11 112 -1
164 32 164 11 0 19 -40 18 -88z m-209 -37 l12 -45 38 48 37 48 0 -51 c0 -36
-13 -55 -42 -63 -61 -16 -66 -15 -67 13 -1 14 -8 41 -16 60 -8 20 -6 35 6 35
10 0 25 -20 32 -45z m-418 -75 c110 -10 272 -19 361 -19 146 -1 161 -5 164
-41 2 -32 -10 -40 -56 -40 -33 0 -59 11 -59 24 0 13 -14 6 -31 -15 -18 -22
-26 -28 -19 -14 16 32 -34 33 -66 1 -24 -24 -27 -21 -31 29 -2 16 -29 23 -80
18 -52 -4 -73 1 -64 15 7 12 0 22 -18 22 -17 0 -31 -13 -31 -30 0 -32 -20 -36
-157 -30 -64 2 -100 16 -133 52 -55 59 -70 61 -55 5 8 -30 4 -39 -12 -29 -51
32 -26 96 32 83 30 -6 145 -20 255 -31z m1323 10 c-17 -16 -40 -30 -52 -30
-11 0 -21 14 -21 30 0 19 19 30 51 30 46 0 49 -3 22 -30z m-163 -21 l-60 -29
55 10 c33 7 55 2 55 -11 0 -37 -109 -12 -116 26 -6 28 7 35 60 34 l66 -1 -60
-29z"/>
<path d="M393 5187 c-21 -21 -15 -51 7 -37 11 7 20 2 20 -10 0 -12 9 -17 20
-10 29 18 24 70 -7 70 -14 0 -32 -6 -40 -13z"/>
<path d="M765 4260 c13 -22 36 -40 50 -40 14 0 25 -13 25 -30 0 -32 70 -42 89
-12 6 9 -3 29 -19 42 -17 14 -30 19 -30 11 0 -8 -24 5 -53 28 -66 52 -95 53
-62 1z"/>
<path d="M5185 4384 c-48 -58 -56 -95 -26 -114 20 -12 87 123 76 153 -3 8 -25
-9 -50 -39z"/>
<path d="M5094 4222 c-35 -71 -18 -81 36 -22 26 29 31 47 16 62 -15 15 -30 3
-52 -40z"/>
<path d="M4963 4138 c-28 -45 8 -204 44 -192 34 11 39 54 7 54 -21 0 -27 13
-19 43 8 30 4 39 -12 29 -33 -21 -28 9 8 49 18 19 24 40 14 46 -9 6 -28 -7
-42 -29z"/>
<path d="M4845 3942 c-83 -72 -114 -132 -56 -109 17 6 28 18 25 27 -2 9 3 17
12 18 8 0 38 26 66 57 l50 55 -34 -70 c-57 -117 -152 -191 -175 -135 -9 22
-17 -18 -11 -58 1 -7 -11 -20 -25 -30 -17 -11 0 -15 48 -11 41 4 82 15 90 24
8 9 4 10 -10 2 -14 -8 -25 -4 -25 8 0 12 19 20 43 16 34 -5 48 10 71 74 70
195 49 235 -69 132z"/>
<path d="M2225 3886 c-42 -16 -28 -41 29 -52 63 -12 106 1 106 33 0 24 -90 36
-135 19z"/>
<path d="M2430 3820 c-7 -12 -21 -15 -31 -9 -11 6 -19 -12 -19 -40 0 -101 98
-48 100 54 0 22 -36 18 -50 -5z"/>
<path d="M2175 3806 c40 -15 -56 -82 -109 -77 -28 4 -46 -5 -46 -22 0 -34 24
-35 59 -2 22 20 25 19 15 -10 -12 -34 5 -44 61 -36 25 3 33 -23 26 -76 -3 -19
14 -15 56 15 43 31 75 39 121 29 50 -10 62 -5 62 22 0 24 -11 30 -39 21 -27
-8 -45 1 -61 30 -20 37 -25 38 -52 10 -75 -74 -112 -27 -39 49 l49 51 -64 3
c-35 2 -53 -1 -39 -7z"/>
<path d="M1960 3630 c0 -23 14 -31 45 -26 25 3 45 15 45 26 0 11 -20 23 -45
26 -31 5 -45 -3 -45 -26z"/>
<path d="M2090 3600 c7 -11 -1 -20 -16 -20 -35 0 -53 -56 -34 -109 12 -36 15
-36 59 8 l47 47 -13 -53 c-17 -67 31 -53 64 19 20 43 18 49 -12 44 -20 -3 -33
5 -30 19 3 14 -6 25 -20 25 -17 1 -15 7 5 20 24 16 21 19 -16 20 -26 0 -41 -9
-34 -20z"/>
<path d="M2282 3566 c-40 -43 -13 -83 48 -71 35 7 49 19 41 39 -6 16 -11 36
-11 44 0 25 -50 17 -78 -12z"/>
<path d="M2189 3407 c-51 -64 -58 -67 -71 -32 -11 30 -28 37 -76 30 -73 -11
-84 -45 -14 -45 30 0 51 -14 57 -39 7 -25 2 -35 -15 -28 -14 5 -30 -5 -37 -22
-14 -36 37 -44 58 -9 8 12 44 35 81 50 64 27 93 68 47 68 -12 0 -15 10 -8 21
8 14 26 10 50 -12 46 -41 83 -30 92 27 5 29 -4 44 -24 44 -17 0 -26 -9 -19
-20 18 -29 -3 -24 -36 9 -25 25 -36 19 -85 -42z"/>
<path d="M2537 3442 c-4 -10 -38 -35 -77 -57 -50 -27 -71 -53 -72 -89 -1 -27
-8 -60 -16 -73 -9 -14 -2 -23 17 -23 28 0 40 23 33 65 -1 8 11 15 28 15 17 0
30 18 30 40 0 27 13 40 40 40 29 0 40 13 40 50 0 50 -11 65 -23 32z"/>
<path d="M1991 3313 c-21 -15 -31 -36 -24 -48 7 -11 -5 -25 -27 -31 -22 -6
-40 -27 -39 -47 0 -36 1 -36 28 -1 20 27 30 30 37 10 9 -21 11 -21 12 1 1 15
21 53 43 85 44 62 31 76 -30 31z"/>
<path d="M2260 3304 c0 -26 -18 -44 -50 -52 -48 -12 -71 -69 -30 -74 11 -2 31
-4 45 -6 37 -5 118 87 111 125 -10 49 -76 55 -76 7z"/>
<path d="M1664 3189 c-2 -28 5 -46 15 -40 10 7 28 -4 39 -24 16 -28 24 -30 45
-10 21 21 -56 125 -92 125 -1 0 -4 -23 -7 -51z"/>
<path d="M2101 3191 c-32 -59 -15 -115 29 -98 21 8 27 24 18 45 -7 17 -13 48
-12 67 2 47 -4 44 -35 -14z"/>
<path d="M2308 3130 c7 -29 4 -50 -8 -50 -11 0 -20 -22 -20 -50 0 -57 23 -64
69 -19 35 36 43 99 10 78 -12 -7 -20 -1 -18 14 7 51 -1 77 -23 77 -14 0 -18
-19 -10 -50z"/>
<path d="M1929 3118 c-7 -12 -34 -16 -59 -10 -51 13 -102 -32 -79 -69 8 -13 4
-30 -9 -38 -13 -8 -17 -30 -10 -49 11 -28 17 -30 30 -9 13 20 17 18 18 -10 0
-25 10 -33 30 -26 17 7 30 2 30 -9 0 -11 9 -15 20 -8 11 7 20 -10 20 -40 0
-29 9 -47 19 -40 12 7 13 30 2 57 -10 26 -11 57 -3 70 17 27 29 203 14 203 -5
0 -16 -10 -23 -22z m-15 -63 c-5 -14 -1 -40 8 -58 12 -22 8 -36 -10 -44 -20
-7 -24 2 -17 31 9 35 4 38 -34 26 -34 -10 -43 -7 -37 13 5 15 19 27 31 27 12
0 28 7 37 15 22 23 32 18 22 -10z"/>
<path d="M2473 3027 c-22 -23 -14 -64 12 -60 38 6 75 33 75 54 0 22 -66 26
-87 6z"/>
<path d="M2333 2936 c-31 -33 -41 -36 -55 -13 -12 17 -23 20 -33 7 -17 -23
-65 -25 -98 -5 -13 8 -28 2 -34 -14 -8 -21 3 -28 37 -25 27 2 49 -3 49 -11 2
-49 -1 -56 -22 -43 -16 10 -20 -3 -12 -42 8 -42 2 -57 -26 -64 -42 -12 -30
-66 15 -66 19 0 26 12 19 30 -7 17 -3 30 8 30 10 0 19 14 19 31 0 17 7 27 16
21 10 -5 16 9 15 33 -1 34 12 45 56 48 70 6 113 40 113 89 0 48 -20 46 -67 -6z"/>
<path d="M2540 2952 c1 -50 37 -83 63 -57 20 20 19 25 -4 26 -18 1 -14 8 10
17 36 14 34 17 -15 26 -32 6 -54 2 -54 -12z"/>
<path d="M1661 2920 c0 -44 53 -106 78 -91 28 18 27 51 -2 51 -12 0 -35 16
-49 35 -22 28 -27 29 -27 5z"/>
<path d="M2360 2789 c0 -54 -29 -66 -47 -19 -18 46 -59 36 -47 -12 8 -31 3
-38 -18 -30 -18 7 -25 3 -17 -10 7 -11 44 -17 81 -12 50 7 68 2 68 -19 0 -16
-7 -25 -17 -19 -9 6 -16 -1 -16 -15 0 -14 16 -26 36 -28 37 -2 52 53 23 82
-23 23 -25 81 -3 95 12 7 8 17 -11 25 -24 9 -32 -1 -32 -38z"/>
<path d="M2865 3465 c-4 -61 16 -127 34 -116 24 15 81 -9 81 -33 0 -12 -23
-16 -52 -11 -46 9 -49 7 -21 -20 38 -39 93 -18 93 35 0 25 -19 48 -50 60 -27
10 -49 30 -48 45 1 20 3 20 11 0 17 -41 44 -28 33 15 -6 22 -19 35 -28 29 -10
-6 -18 -2 -18 10 0 36 -33 23 -35 -14z"/>
<path d="M1600 3805 c0 -14 -13 -25 -29 -25 -62 0 -94 -127 -38 -148 90 -35
147 46 98 140 -17 32 -31 47 -31 33z"/>
<path d="M1793 4187 c-25 -26 -12 -48 40 -68 68 -26 102 3 57 48 -34 34 -74
42 -97 20z"/>
<path d="M3360 3620 c0 -45 21 -51 56 -16 35 35 29 56 -16 56 -27 0 -40 -13
-40 -40z"/>
<path d="M3419 3549 c-19 -23 -18 -36 1 -59 41 -49 95 -26 124 52 16 42 -91
48 -125 7z"/>
<path d="M3564 3485 c5 -22 22 -33 47 -29 21 3 50 7 64 8 46 5 -17 56 -69 56
-36 0 -47 -9 -42 -35z"/>
<path d="M3349 3482 c6 -10 -2 -23 -18 -29 -16 -6 -33 0 -38 13 -5 13 -10 15
-11 4 -2 -44 52 -88 95 -77 43 12 61 47 23 47 -11 0 -20 14 -20 30 0 17 -10
30 -21 30 -12 0 -16 -8 -10 -18z"/>
<path d="M3860 3464 c0 -9 -32 -12 -70 -8 -58 7 -68 3 -58 -24 14 -35 68 -44
68 -11 0 12 11 15 25 6 57 -36 142 -1 100 41 -17 18 -65 15 -65 -4z"/>
<path d="M3516 3401 c-43 -8 -51 -18 -36 -41 11 -16 20 -23 20 -15 0 9 21 2
48 -15 45 -30 47 -29 47 20 0 61 -9 66 -79 51z"/>
<path d="M3637 3405 c-20 -120 21 -141 117 -61 19 15 26 13 26 -12 0 -17 10
-32 22 -32 12 0 17 14 11 30 -15 38 -4 38 36 -1 24 -25 26 -41 9 -72 -24 -45
-9 -137 22 -137 11 0 20 11 20 23 0 13 6 18 13 11 27 -27 69 29 45 59 -30 36
-58 34 -58 -3 0 -16 -9 -30 -20 -30 -26 0 -25 5 10 73 16 31 43 57 60 57 16 0
30 7 30 15 0 8 0 22 0 31 0 9 -45 14 -100 13 -55 -2 -123 9 -152 24 -59 30
-87 34 -91 12z"/>
<path d="M3552 3228 c7 -32 22 -69 33 -83 24 -30 83 -34 65 -5 -7 12 -2 19 11
15 13 -3 28 5 32 18 11 29 -50 91 -75 75 -11 -6 -33 0 -50 14 -27 22 -29 17
-16 -34z"/>
<path d="M3680 3262 c0 -9 16 -29 35 -44 19 -15 28 -19 20 -9 -8 9 1 29 20 43
32 24 30 27 -20 27 -30 1 -55 -7 -55 -17z"/>
<path d="M3768 3153 c-15 -39 5 -73 43 -73 38 0 37 48 -1 80 -24 20 -32 19
-42 -7z"/>
<path d="M3540 3143 c0 -12 -15 -16 -32 -9 -36 13 -8 -59 31 -83 35 -22 64 62
31 89 -20 17 -30 18 -30 3z"/>
<path d="M3678 3108 c-12 -32 -32 -78 -43 -102 -11 -24 -15 -58 -8 -75 18 -47
13 -62 -17 -55 -39 7 -60 -37 -28 -58 41 -25 46 -23 73 36 20 43 20 57 0 70
-24 15 5 25 50 18 8 -1 15 9 15 23 1 19 4 19 17 -1 13 -21 22 -20 42 5 19 23
20 31 2 31 -13 0 -18 8 -12 18 6 10 -7 14 -29 8 -46 -12 -60 63 -15 80 19 7
20 15 1 35 -19 20 -29 13 -48 -33z"/>
<path d="M3898 3085 c-1 -22 -5 -26 -12 -9 -7 19 -17 20 -37 3 -30 -25 -20
-63 36 -144 22 -32 28 -55 15 -55 -12 0 -17 -9 -10 -20 7 -11 -2 -20 -19 -20
-20 0 -31 18 -31 50 0 32 -11 50 -31 50 -23 0 -28 -12 -19 -41 17 -52 -22
-101 -66 -84 -29 11 -29 8 3 -24 35 -35 71 -20 73 31 0 18 105 -4 135 -28 14
-11 32 -13 40 -4 8 8 4 19 -10 24 -30 11 -33 66 -4 66 12 0 8 14 -10 31 -40
41 -39 51 2 35 27 -10 31 -3 19 42 -9 36 -6 51 7 42 38 -23 22 15 -22 53 -53
46 -57 46 -59 2z"/>
<path d="M3508 2945 c-67 -44 -137 -220 -79 -198 20 8 25 1 17 -20 -9 -22 -1
-29 26 -24 25 5 40 27 45 66 5 50 2 55 -23 34 -24 -20 -29 -16 -29 24 0 30 11
47 30 45 16 -1 37 18 47 43 17 46 6 56 -34 30z"/>
<path d="M4307 2730 c0 -77 3 -106 8 -65 4 42 4 105 -1 140 -4 36 -8 2 -7 -75z"/>
</g>
</svg>
