<?xml version="1.0" standalone="no"?>
<!DOCTYPE svg PUBLIC "-//W3C//DTD SVG 20010904//EN"
 "http://www.w3.org/TR/2001/REC-SVG-20010904/DTD/svg10.dtd">
<svg version="1.0" xmlns="http://www.w3.org/2000/svg"
 width="275.000000pt" height="183.000000pt" viewBox="0 0 275.000000 183.000000"
 preserveAspectRatio="xMidYMid meet">
<metadata>
Created by potrace 1.10, written by Peter Selinger 2001-2011
</metadata>
<g transform="translate(0.000000,183.000000) scale(0.100000,-0.100000)"
fill="#000000" stroke="none">
<path d="M1459 1627 c-104 -39 -189 -142 -333 -406 -99 -180 -132 -229 -201
-297 -101 -99 -230 -151 -355 -142 -68 5 -181 56 -256 116 -44 34 -52 46 -57
84 -3 23 -7 50 -9 59 -2 8 19 34 47 58 28 24 58 56 68 72 18 27 18 28 -2 48
-12 12 -30 21 -40 21 -11 0 -28 12 -39 27 l-20 28 -26 -24 c-50 -47 -60 -95
-52 -265 12 -282 30 -358 98 -410 55 -41 315 -172 463 -232 217 -88 346 -132
454 -154 179 -36 263 -23 351 57 71 64 121 137 255 378 144 256 220 381 239
388 7 3 93 3 190 0 l176 -6 0 -27 c0 -14 5 -31 12 -38 8 -8 11 -39 9 -90 -2
-67 0 -81 19 -105 l23 -28 26 25 c15 14 34 26 43 26 45 0 31 64 -25 122 -28
29 -41 50 -39 65 2 12 -2 32 -9 45 -7 13 -13 57 -14 98 -3 165 -63 248 -245
336 -125 61 -266 115 -393 150 -113 31 -301 42 -358 21z m281 -29 c205 -34
620 -221 620 -279 0 -5 -24 -9 -54 -9 -39 0 -62 -6 -87 -23 -80 -54 -240 -277
-380 -532 -119 -218 -187 -333 -232 -393 -43 -57 -113 -113 -173 -138 -99 -41
-194 43 -194 172 0 52 3 60 35 91 23 23 35 43 35 61 0 24 8 32 53 54 109 53
153 119 90 134 -16 3 -40 20 -55 38 -22 25 -30 29 -44 20 -22 -13 -71 -107
-79 -153 -4 -20 -18 -46 -31 -60 -14 -14 -24 -35 -24 -52 0 -16 -1 -29 -3 -29
-2 0 -52 14 -111 30 -132 37 -319 108 -446 168 -100 47 -104 60 -19 61 61 1
164 39 231 84 82 55 158 148 237 288 160 286 258 421 327 454 71 33 162 37
304 13z m616 -324 c45 -21 74 -83 74 -156 l0 -56 -35 -6 c-20 -4 -103 -4 -185
0 l-149 7 32 45 c58 83 130 152 172 167 51 18 51 18 91 -1z m-2072 -56 c6 -4
21 -8 33 -8 40 0 36 -21 -13 -71 -52 -53 -74 -64 -48 -24 9 14 14 28 11 31 -3
3 -10 -4 -17 -15 -6 -12 -15 -21 -21 -21 -6 0 -6 7 1 19 5 11 10 25 10 31 0
17 -20 1 -30 -24 -9 -21 -9 -21 -9 2 -1 25 23 87 41 109 10 12 13 11 21 -4 6
-10 15 -21 21 -25z m13 -336 c93 -73 176 -125 296 -183 130 -62 467 -190 555
-210 l52 -12 0 -48 c0 -56 24 -133 52 -169 29 -36 10 -37 -124 -2 -276 73
-760 285 -847 373 -35 35 -59 108 -62 189 -4 117 2 122 78 62z m2233 -14 c26
-43 25 -58 -4 -58 -13 0 -30 -10 -39 -22 l-15 -23 -16 37 c-18 43 -20 68 -6
68 6 0 10 -7 10 -15 0 -8 4 -15 9 -15 5 0 7 9 4 20 -6 23 7 26 26 8 11 -11 12
-9 6 10 -9 32 2 27 25 -10z m-1144 -123 c13 -14 32 -25 43 -25 31 0 35 -19 10
-47 -23 -24 -70 -53 -85 -53 -4 0 3 11 16 25 27 29 16 33 -20 8 -23 -16 -23
-16 -16 3 17 43 17 48 -3 25 -12 -13 -24 -22 -26 -19 -6 5 44 108 52 108 3 0
16 -11 29 -25z"/>
<path d="M1461 1481 c-50 -50 -123 -159 -197 -291 -137 -249 -234 -352 -422
-446 -69 -34 -59 -48 14 -18 128 53 278 195 367 345 30 52 83 143 118 203 35
60 92 138 126 175 35 36 63 67 63 69 0 1 -7 2 -15 2 -8 0 -33 -18 -54 -39z"/>
<path d="M2089 1278 c-67 -70 -196 -264 -309 -468 -51 -91 -113 -196 -138
-235 -89 -136 -205 -226 -270 -211 -26 6 -26 6 -8 -9 47 -36 118 -4 203 89 64
72 141 190 253 391 92 166 182 303 251 384 79 93 92 111 80 111 -6 0 -34 -24
-62 -52z"/>
<path d="M1510 1198 c-80 -49 -146 -91 -147 -92 -5 -4 39 -271 45 -278 5 -5
298 152 308 165 4 5 -48 283 -54 288 -4 4 -72 -34 -152 -83z m143 30 c13 -57
39 -219 36 -222 -14 -12 -260 -148 -263 -145 -8 8 -37 231 -31 237 9 10 239
150 246 151 4 1 9 -9 12 -21z"/>
</g>
</svg>
