<?xml version="1.0" standalone="no"?>
<!DOCTYPE svg PUBLIC "-//W3C//DTD SVG 20010904//EN"
 "http://www.w3.org/TR/2001/REC-SVG-20010904/DTD/svg10.dtd">
<svg version="1.0" xmlns="http://www.w3.org/2000/svg"
 width="300.000000pt" height="300.000000pt" viewBox="0 0 300.000000 300.000000"
 preserveAspectRatio="xMidYMid meet">
<metadata>
Created by potrace 1.10, written by Peter Selinger 2001-2011
</metadata>
<g transform="translate(0.000000,300.000000) scale(0.050000,-0.050000)"
fill="#000000" stroke="none">
<path d="M2794 5887 c-62 -11 -87 -57 -90 -170 -2 -62 3 -71 35 -63 20 5 35
24 32 43 -3 18 5 40 17 48 15 10 14 14 -4 15 -15 0 -21 9 -14 20 7 11 1 20
-14 20 -68 1 41 38 148 50 283 33 411 16 375 -51 -18 -34 -43 -39 -195 -39
-193 -1 -275 -26 -155 -48 39 -8 67 -23 60 -33 -6 -11 18 -19 55 -19 50 1 59
5 36 20 -22 14 -10 20 50 23 l80 3 -80 14 -80 14 96 3 c55 2 91 -5 85 -16 -6
-10 7 -24 29 -31 48 -15 57 -110 10 -110 -16 0 -30 -9 -30 -20 0 -11 9 -20 20
-20 11 0 20 -21 20 -47 0 -44 -6 -46 -115 -39 -63 4 -162 10 -220 13 -58 3
-105 -1 -105 -10 0 -10 -22 -17 -50 -17 -55 0 -69 53 -26 96 19 19 15 24 -18
24 -24 0 -47 11 -53 25 -6 15 -10 11 -11 -10 -1 -20 9 -53 22 -74 19 -30 18
-49 -3 -89 -21 -40 -22 -57 -2 -80 67 -82 -14 -141 -214 -155 -281 -20 -539
-225 -507 -404 2 -10 4 -108 4 -219 0 -114 9 -214 21 -228 26 -31 109 -35 127
-6 7 11 -10 20 -39 20 -69 0 -64 24 13 69 45 27 99 37 188 36 108 -2 130 5
171 48 l47 50 12 -46 12 -47 21 50 c36 84 105 354 105 407 0 45 -103 153 -147
153 -33 0 -7 -41 46 -73 71 -41 92 -84 50 -100 -18 -7 -46 9 -71 41 -31 39
-59 52 -114 52 -119 -1 -141 -33 -31 -45 161 -18 232 -150 157 -294 -91 -176
-350 -84 -350 125 0 60 -6 76 -22 60 -45 -45 -25 -187 36 -252 l56 -62 -56 35
c-55 34 -55 34 -30 -6 14 -23 32 -41 41 -41 8 0 15 -10 15 -22 0 -16 -9 -15
-30 2 -16 14 -48 20 -71 14 -70 -18 -93 126 -53 332 12 61 144 191 232 228 86
37 270 56 252 27 -7 -12 2 -21 20 -21 18 0 27 9 20 20 -7 11 8 20 34 20 47 0
96 101 96 200 0 40 15 47 93 41 24 -2 49 6 56 18 19 31 105 26 118 -7 14 -38
131 -62 159 -34 16 16 11 22 -17 24 -21 0 -28 6 -14 11 64 26 12 47 -115 47
-80 0 -140 -9 -140 -20 0 -29 -47 -24 -91 10 -37 27 -35 29 31 28 39 -1 138 4
222 11 83 7 173 3 200 -7 48 -19 48 -19 3 -21 -25 0 -45 -9 -45 -20 0 -10 20
-21 45 -25 32 -4 43 -18 40 -46 -7 -50 30 -406 65 -630 15 -93 33 -210 40
-260 8 -49 15 -99 17 -110 2 -11 14 -29 28 -40 29 -24 65 -198 47 -228 -7 -11
-51 -26 -98 -34 -88 -14 -136 -48 -67 -48 21 0 44 -13 50 -30 7 -16 28 -30 47
-30 29 1 31 4 7 19 -61 39 120 49 192 11 l66 -36 -43 -37 c-48 -42 -49 -41 41
-77 46 -18 77 -49 96 -95 19 -45 39 -65 57 -58 47 18 149 -26 137 -59 -6 -15
-2 -28 9 -28 67 0 203 -393 148 -427 -9 -6 -136 -14 -280 -17 -188 -4 -266
-13 -273 -31 -12 -31 193 -34 386 -6 169 25 262 -22 122 -61 -48 -14 -48 -14
-4 -16 54 -2 59 -32 10 -60 -31 -19 -30 -21 10 -21 29 -1 45 -13 46 -36 0 -19
-2 -255 -4 -525 -3 -269 -2 -690 1 -935 7 -484 7 -486 -104 -418 -52 33 -314
99 -329 84 -6 -5 4 -16 22 -23 18 -7 33 -25 33 -40 0 -15 10 -28 21 -28 12 0
16 9 9 20 -21 34 74 20 200 -29 90 -35 111 -50 85 -61 -48 -20 -44 -70 6 -70
23 0 36 -9 29 -20 -7 -11 -3 -20 9 -20 31 0 26 -29 -14 -74 -19 -22 -46 -36
-60 -31 -14 4 -25 0 -25 -11 0 -11 18 -24 40 -30 22 -6 40 0 40 12 0 16 6 16
22 0 38 -38 -38 -135 -150 -193 -98 -51 -99 -53 -32 -43 118 17 3 -23 -174
-62 -397 -85 -1526 -11 -1723 113 -28 18 -27 19 7 11 119 -31 236 -52 243 -45
5 4 -31 18 -78 30 -48 12 -118 43 -156 68 -38 26 -86 53 -106 61 -23 9 -33 26
-25 46 7 17 12 39 12 48 0 9 20 12 45 6 35 -8 30 -1 -20 31 -73 48 -67 128 12
139 34 5 39 14 24 42 -15 28 -6 42 42 70 33 20 55 41 49 47 -6 6 -34 -5 -63
-24 -29 -19 -54 -31 -56 -28 -2 4 -14 27 -28 52 -36 63 -31 323 10 535 34 180
42 928 13 1205 -10 96 -8 105 31 105 50 0 54 30 6 51 -30 12 -28 17 15 30 41
12 43 15 10 17 -106 6 -49 367 89 561 93 130 8 177 -115 64 -135 -124 -240
-429 -183 -535 22 -41 22 -62 0 -123 -33 -91 -11 -1978 23 -2020 15 -17 13
-34 -4 -55 -38 -46 -15 -231 45 -352 38 -76 47 -113 32 -131 -33 -41 -78 -207
-55 -207 11 0 43 27 71 60 28 33 60 60 72 60 12 0 37 13 55 30 28 26 44 25
132 -9 437 -166 1444 -152 1776 24 l79 41 56 -63 c71 -79 72 -102 4 -97 -30 2
-57 -8 -63 -24 -6 -20 1 -24 23 -16 39 15 93 -55 93 -122 0 -34 10 -45 35 -40
68 13 41 294 -37 389 -13 15 -6 63 21 144 44 131 54 292 20 314 -14 8 -14 21
2 40 31 38 50 2020 20 2039 -28 17 -27 104 2 122 15 9 18 57 10 146 -23 243
-199 511 -433 658 -170 107 -200 141 -200 225 0 40 -27 176 -59 301 -149 574
-201 905 -149 934 34 19 2 104 -39 104 -10 0 -3 23 16 51 41 63 27 321 -21
369 -30 30 -420 49 -554 27z"/>
<path d="M2900 5820 c-38 -12 -23 -16 64 -18 62 -1 119 7 126 18 15 24 -116
24 -190 0z"/>
<path d="M2813 5670 c6 -16 31 -30 54 -30 32 1 36 5 16 18 -23 14 -23 19 0 28
15 6 3 12 -27 12 -41 2 -52 -6 -43 -28z"/>
<path d="M2860 5570 c0 -12 62 -17 165 -11 168 9 155 15 -50 25 -67 4 -115 -2
-115 -14z"/>
<path d="M2830 5198 c-8 -22 -8 -46 -2 -53 7 -6 12 1 12 15 0 18 11 14 31 -11
18 -22 26 -27 18 -12 -8 15 -2 35 13 45 24 15 23 21 -2 38 -44 28 -56 25 -70
-22z"/>
<path d="M3038 5185 c-7 -90 27 -415 42 -415 23 0 35 -258 17 -365 -7 -35 -4
-60 4 -54 9 5 22 1 29 -11 7 -11 1 -20 -13 -20 -14 0 -6 -14 19 -31 24 -17 44
-44 44 -59 0 -38 25 -50 76 -37 52 14 39 47 -18 47 -53 0 -83 85 -67 192 14
89 -42 481 -73 520 -10 12 -19 77 -20 145 -3 109 -34 178 -40 88z"/>
<path d="M2682 4744 c-1 -26 -10 -41 -20 -35 -20 12 -62 -139 -62 -227 0 -33
-9 -65 -20 -72 -11 -7 -15 -39 -10 -71 7 -39 3 -57 -13 -54 -12 3 -31 -24 -40
-60 -10 -36 -26 -65 -35 -65 -10 0 -21 -27 -26 -60 -6 -42 -1 -60 18 -60 21 0
22 -9 7 -37 -11 -21 -14 -43 -8 -49 6 -7 -7 -10 -31 -9 -23 2 -42 11 -42 20 0
38 -323 -206 -371 -280 -28 -42 -15 -37 84 30 181 122 297 185 339 185 66 0
187 169 149 207 -18 17 -28 14 -43 -12 -11 -19 -29 -35 -39 -35 -11 0 -7 20 9
45 16 25 39 86 51 135 13 50 28 104 35 120 6 17 13 44 16 60 2 17 20 94 39
173 20 79 31 155 25 170 -6 15 -12 6 -12 -19z"/>
<path d="M2476 4363 c-20 -43 -29 -96 -22 -129 11 -57 11 -57 49 28 25 56 33
100 23 129 -15 42 -18 40 -50 -28z"/>
<path d="M2200 4362 c0 -22 40 -34 155 -47 90 -11 82 18 -10 34 -41 7 -91 18
-110 23 -19 6 -35 1 -35 -10z"/>
<path d="M3069 4062 c-25 -25 -216 -38 -250 -17 -57 36 -69 4 -21 -57 23 -29
42 -43 42 -31 0 13 24 19 57 16 107 -13 137 -60 58 -92 -25 -10 -36 -20 -25
-21 11 -2 43 -7 70 -11 28 -4 114 -11 192 -17 78 -5 193 -15 255 -23 62 -7
113 -5 113 4 0 9 -38 18 -84 20 -49 2 -93 16 -106 34 -15 20 -32 24 -51 12
-35 -22 -233 -22 -289 -1 -39 16 -39 16 4 43 39 25 40 29 10 51 -40 30 -35 33
146 75 l120 28 -117 -3 c-64 -1 -120 -6 -124 -10z"/>
<path d="M2665 3858 c-74 -22 -84 -48 -25 -64 28 -7 40 0 42 23 1 21 5 24 11
8 6 -14 19 -25 30 -25 11 0 14 9 7 20 -7 12 20 20 69 20 44 0 81 9 81 20 0 25
-127 23 -215 -2z"/>
<path d="M2316 3763 c-118 -110 -56 -148 67 -41 42 37 48 38 54 8 4 -19 18
-28 35 -22 16 6 28 -2 28 -20 0 -17 8 -25 18 -19 28 17 1 95 -29 83 -16 -6
-29 7 -33 33 -10 69 -49 63 -140 -22z"/>
<path d="M2800 3220 c0 -9 -16 -21 -35 -26 -19 -5 -1 -10 40 -12 79 -2 111 47
35 53 -22 1 -40 -5 -40 -15z"/>
<path d="M2190 3103 c-83 -15 -77 -43 11 -45 49 -2 116 -5 149 -7 388 -29 804
-7 730 39 -14 8 -30 7 -37 -2 -20 -28 -91 -21 -110 9 -15 24 -20 24 -35 0 -12
-18 -17 -19 -18 -3 0 23 -574 30 -690 9z"/>
<path d="M3136 3097 c-15 -41 4 -79 31 -62 13 8 103 15 201 15 111 0 181 8
186 22 5 15 -52 19 -187 14 -131 -6 -198 -1 -207 15 -10 16 -17 15 -24 -4z"/>
<path d="M2195 2924 c-98 -12 -64 -59 50 -70 228 -20 857 -5 879 21 16 19 11
25 -17 27 -185 9 -277 13 -547 20 -170 4 -335 5 -365 2z"/>
<path d="M3505 2918 c-36 -11 -65 -28 -65 -38 0 -12 20 -11 52 1 37 14 61 13
81 -3 30 -26 52 -14 59 33 5 33 -31 34 -127 7z"/>
<path d="M3693 2910 c6 -16 19 -25 29 -19 10 6 18 3 18 -7 0 -10 20 -16 45
-14 25 3 88 6 140 7 52 2 95 12 95 23 0 13 -53 18 -140 13 -77 -5 -140 -1
-140 9 0 10 -13 18 -29 18 -18 0 -25 -12 -18 -30z"/>
<path d="M3173 2907 c-27 -27 -12 -41 47 -43 40 -1 60 8 60 27 0 29 -81 41
-107 16z"/>
<path d="M2592 1367 c-66 -16 -133 -22 -150 -15 -84 37 -242 4 -242 -50 0 -15
543 -10 730 6 94 9 127 6 100 -6 -22 -11 -33 -21 -25 -23 32 -9 48 -11 140
-26 52 -9 97 -15 100 -14 3 1 53 -12 112 -30 59 -17 121 -26 138 -20 34 13
165 -29 165 -53 0 -9 14 -16 30 -16 17 0 30 18 30 40 0 22 -3 40 -7 40 -3 0
-104 19 -225 42 -120 24 -248 42 -284 40 -40 -1 -62 6 -54 18 7 11 34 20 61
20 27 0 49 8 49 19 0 22 -162 40 -330 36 -66 -1 -142 3 -170 10 -27 6 -103 -2
-168 -18z"/>
<path d="M2350 1227 c-22 -5 -58 -17 -80 -26 -22 -10 -58 -24 -80 -32 -85 -32
26 -32 119 0 51 17 111 31 133 31 22 0 35 9 28 20 -13 20 -48 22 -120 7z"/>
<path d="M3200 963 c0 -9 11 -17 25 -19 14 -1 88 -20 165 -42 77 -23 149 -41
160 -41 46 0 -68 48 -170 72 l-110 26 140 -9 c91 -5 126 -2 100 9 -51 23 -310
26 -310 4z"/>
<path d="M2520 920 l-50 -16 50 -1 c28 0 86 7 130 16 l80 16 -80 1 c-44 0
-102 -7 -130 -16z"/>
<path d="M3580 920 c0 -11 21 -20 46 -20 25 0 57 -11 70 -24 19 -19 24 -17 24
8 0 17 -14 37 -32 44 -48 19 -108 14 -108 -8z"/>
<path d="M2050 880 c-7 -11 -2 -20 10 -20 12 0 17 -9 10 -19 -14 -24 86 -52
106 -31 8 9 3 19 -11 24 -50 18 -23 50 35 42 33 -5 60 -2 60 7 0 24 -195 21
-210 -3z"/>
<path d="M3740 885 c0 -23 98 -46 178 -43 44 2 42 5 -18 19 -38 8 -90 22 -115
30 -26 8 -45 5 -45 -6z"/>
<path d="M2253 827 c-40 -41 65 -80 257 -95 96 -8 103 -7 35 5 -136 25 -123
43 32 43 82 0 143 -9 143 -20 0 -11 10 -20 21 -20 12 0 17 7 12 15 -5 8 35 16
89 16 58 1 88 -5 73 -14 -17 -11 -8 -17 25 -18 46 -2 47 -3 10 -19 -28 -12 -3
-18 86 -19 80 0 122 6 114 19 -7 11 -1 20 12 20 14 0 19 6 12 13 -7 7 -26 2
-42 -11 -22 -18 -30 -18 -39 2 -8 20 -14 20 -30 -3 -12 -17 -27 -24 -34 -17
-37 38 38 50 323 53 370 5 496 40 158 45 -638 10 -1071 6 -1158 -10 -72 -13
-94 -11 -84 5 16 25 7 31 -15 10z"/>
<path d="M2750 720 l-120 -13 125 -4 c72 -2 125 5 125 17 0 11 -2 18 -5 17 -3
-2 -59 -10 -125 -17z"/>
<path d="M2160 674 c30 -17 170 -38 350 -52 165 -13 336 -32 380 -42 106 -25
363 -25 450 0 38 11 141 25 230 31 516 35 486 65 -43 42 -357 -15 -1110 7
-1347 39 -69 10 -69 9 -20 -18z"/>
<path d="M3719 572 c18 -22 -2 -30 -104 -40 -194 -21 -240 -28 -308 -49 -35
-11 -71 -13 -79 -6 -8 7 -8 2 0 -12 8 -14 22 -21 32 -15 9 6 22 -1 28 -15 10
-20 14 -20 24 0 6 14 29 25 50 25 21 0 38 -11 38 -25 1 -18 5 -18 15 -2 13 19
83 29 365 52 39 3 100 28 136 55 73 54 56 75 -36 43 -37 -13 -82 -14 -121 -3
-51 15 -58 13 -40 -8z"/>
<path d="M2414 547 c-7 -7 -8 -20 -2 -30 17 -27 63 -20 75 13 12 30 -46 44
-73 17z"/>
<path d="M3790 240 c7 -11 46 -19 86 -19 60 2 66 5 34 19 -56 24 -135 24 -120
0z"/>
<path d="M2229 218 c-9 -15 16 -17 84 -7 128 19 135 29 22 29 -51 0 -99 -10
-106 -22z"/>
<path d="M1861 131 c-13 -16 -21 -45 -18 -63 8 -41 57 -63 57 -26 0 14 20 46
43 72 24 25 33 46 20 46 -12 0 -23 -9 -23 -20 0 -11 -10 -20 -21 -20 -12 0
-16 9 -9 20 19 31 -22 24 -49 -9z"/>
</g>
</svg>
