<?xml version="1.0" standalone="no"?>
<!DOCTYPE svg PUBLIC "-//W3C//DTD SVG 20010904//EN"
 "http://www.w3.org/TR/2001/REC-SVG-20010904/DTD/svg10.dtd">
<svg version="1.0" xmlns="http://www.w3.org/2000/svg"
 width="900.000000pt" height="528.000000pt" viewBox="0 0 900.000000 528.000000"
 preserveAspectRatio="xMidYMid meet">
<metadata>
Created by potrace 1.10, written by Peter Selinger 2001-2011
</metadata>
<g transform="translate(0.000000,528.000000) scale(0.100000,-0.100000)"
fill="#000000" stroke="none">
<path d="M3908 4783 c-22 -6 -23 -22 -3 -29 8 -4 15 -10 15 -15 0 -5 -7 -9
-15 -9 -8 0 -15 5 -15 10 0 6 -13 10 -29 10 -21 0 -30 -6 -34 -22 -4 -13 -1
-26 6 -30 8 -5 4 -8 -10 -8 -16 0 -21 -4 -17 -15 8 -19 -25 -33 -36 -15 -6 10
-17 4 -42 -25 -32 -38 -52 -58 -201 -202 -81 -79 -147 -202 -147 -276 0 -24
-4 -47 -8 -52 -16 -19 -54 -125 -50 -141 4 -22 28 -31 28 -11 0 24 73 116 105
131 38 19 42 14 16 -20 -26 -33 -27 -54 -2 -54 25 0 37 17 45 65 6 33 21 53
87 116 45 44 86 93 95 115 15 35 45 77 89 125 20 22 19 26 -11 32 -26 5 -45
-10 -127 -101 -37 -41 -77 -56 -77 -28 0 8 -9 22 -21 30 -29 20 -18 32 47 51
37 11 67 28 93 54 27 27 51 41 80 46 40 7 41 6 41 -20 0 -21 3 -25 13 -18 6 6
33 18 59 28 25 9 59 30 74 46 15 16 37 29 48 29 23 0 92 22 102 33 4 4 36 7
71 7 52 0 65 -3 75 -20 7 -11 15 -20 18 -20 3 0 5 30 5 68 0 66 -1 67 -27 70
-16 2 -28 -2 -28 -8 0 -7 -12 -9 -33 -5 -25 5 -39 2 -51 -10 -11 -12 -20 -14
-29 -7 -26 20 -57 24 -73 7 -25 -24 -78 -16 -82 13 -3 19 1 22 32 22 40 0 45
9 18 33 -20 18 -67 28 -94 20z m-48 -211 c0 -13 -47 -32 -65 -27 -8 3 -22 7
-31 10 -8 3 -12 9 -9 15 7 12 105 14 105 2z m-290 -269 c0 -13 -44 -50 -67
-57 -33 -11 -30 17 5 43 27 20 62 28 62 14z m60 -29 c0 -30 -104 -151 -115
-134 -20 33 53 140 95 140 11 0 20 -3 20 -6z m-160 -98 c0 -8 -11 -21 -25 -30
-29 -19 -32 -7 -9 29 16 25 34 25 34 1z"/>
<path d="M4413 4654 c-18 -8 -16 -44 2 -44 16 0 132 -76 183 -122 77 -66 203
-242 231 -320 6 -16 17 -28 26 -28 8 0 17 -10 19 -22 8 -39 17 -101 21 -153 4
-43 3 -46 -6 -22 -6 15 -15 27 -19 27 -14 0 -23 -66 -12 -86 5 -11 22 -55 37
-99 31 -91 35 -203 9 -242 -12 -19 -12 -27 -2 -44 10 -17 10 -23 1 -26 -21 -8
-15 -43 7 -43 13 0 21 -9 25 -27 9 -39 20 -58 37 -61 20 -4 30 43 16 74 -7 16
-6 30 3 50 21 42 37 41 45 -3 6 -33 27 -62 45 -63 3 0 5 22 5 49 0 46 18 86
33 76 4 -2 6 -18 3 -35 -3 -24 2 -36 23 -56 21 -19 26 -21 20 -7 -4 10 -10 32
-13 48 -2 17 -18 48 -33 69 -16 22 -29 52 -29 66 0 27 -31 50 -68 50 -15 0
-15 2 -2 10 25 16 50 11 82 -15 35 -29 68 -33 68 -7 0 18 -52 87 -82 110 -10
7 -18 21 -18 30 0 10 -9 25 -20 35 -11 9 -20 23 -20 31 0 7 -7 19 -15 26 -8 7
-15 20 -15 30 0 9 -11 34 -25 54 -25 38 -32 66 -16 66 5 0 11 -3 13 -7 2 -5
20 -21 42 -37 l39 -29 -6 29 c-4 16 -9 44 -13 63 -4 19 -20 53 -35 76 -16 24
-29 47 -29 52 0 13 -129 173 -200 250 -33 35 -66 76 -74 91 -18 35 -93 97
-126 105 -14 3 -43 11 -65 17 -59 17 -79 20 -92 14z m608 -884 c45 0 49 -2 49
-24 0 -59 -70 -55 -99 5 -10 21 -16 41 -12 44 3 4 7 0 9 -9 3 -12 16 -16 53
-16z"/>
<path d="M4970 4421 c0 -5 -3 -17 -6 -25 -5 -12 -2 -15 10 -10 17 7 22 44 6
44 -5 0 -10 -4 -10 -9z"/>
<path d="M3955 4330 c-7 -12 2 -30 16 -30 5 0 9 9 9 20 0 21 -15 27 -25 10z"/>
<path d="M3750 4235 c0 -8 5 -15 10 -15 6 0 10 7 10 15 0 8 -4 15 -10 15 -5 0
-10 -7 -10 -15z"/>
<path d="M3880 4174 c0 -11 5 -14 16 -10 9 3 20 6 25 6 6 0 7 5 4 10 -10 16
-45 12 -45 -6z"/>
<path d="M4045 4105 c-22 -8 -74 -24 -115 -37 -68 -21 -77 -27 -97 -63 -13
-22 -23 -49 -23 -59 0 -18 1 -18 20 -1 11 10 20 24 20 32 0 7 9 13 20 13 21 0
29 -33 10 -45 -18 -11 -4 -68 19 -77 12 -4 29 -15 37 -23 17 -17 50 -20 58 -6
4 5 -7 12 -24 16 -34 8 -33 5 -20 40 l10 26 30 -21 c17 -12 41 -20 56 -18 32
4 73 53 58 68 -14 14 -82 15 -121 2 -29 -9 -33 -8 -33 6 0 22 53 52 92 52 16
0 42 -6 56 -14 15 -8 39 -19 54 -25 15 -5 30 -21 33 -33 3 -13 17 -28 31 -35
21 -10 26 -8 39 10 8 12 15 27 15 34 0 7 7 13 15 13 17 0 28 35 23 76 -2 22
-8 29 -22 27 -11 -1 -40 9 -66 22 -59 30 -124 37 -175 20z"/>
<path d="M4530 4113 c-14 -3 -32 -11 -40 -18 -8 -7 -28 -15 -43 -19 -22 -5
-27 -11 -22 -24 4 -9 10 -42 12 -72 3 -30 12 -63 21 -72 17 -20 87 -25 98 -7
4 8 12 2 21 -15 9 -17 22 -26 38 -26 32 0 67 35 63 63 -2 18 -11 23 -48 25
-57 4 -72 18 -34 32 37 15 89 5 116 -22 20 -20 20 -22 3 -34 -23 -17 -13 -64
14 -64 10 0 31 -10 46 -22 l28 -22 -7 30 c-4 16 -14 42 -22 58 -16 34 -18 66
-4 66 6 0 10 11 10 24 0 28 -48 73 -88 82 -15 3 -49 14 -76 25 -27 10 -51 18
-55 18 -3 -1 -17 -4 -31 -6z m28 -85 c-7 -20 -68 -23 -68 -4 0 12 10 16 36 16
24 0 34 -4 32 -12z"/>
<path d="M3580 4020 c-12 -23 -27 -43 -35 -47 -8 -3 -15 -16 -15 -29 0 -13 -4
-24 -8 -24 -10 0 -40 -66 -48 -109 -7 -31 -15 -38 -69 -56 -19 -6 -19 -8 8
-30 33 -30 34 -39 3 -31 -32 8 -94 -19 -107 -47 -5 -12 -16 -32 -23 -44 -9
-17 -10 -39 -4 -89 7 -53 6 -69 -5 -83 -8 -9 -17 -48 -21 -91 -3 -41 -9 -103
-12 -136 -5 -44 -3 -64 6 -69 22 -14 41 26 39 80 -4 97 16 195 40 195 12 0 34
-80 36 -138 2 -29 8 -59 15 -67 8 -9 9 -29 5 -54 -7 -44 4 -58 34 -40 15 10
17 16 7 31 -9 15 -8 21 4 28 32 21 61 23 74 5 7 -10 18 -15 25 -11 7 5 30 -7
56 -28 49 -41 53 -52 59 -187 2 -53 10 -99 20 -119 9 -18 16 -52 16 -74 0 -23
6 -50 14 -61 7 -11 16 -32 20 -47 3 -16 11 -28 16 -28 6 0 10 -8 10 -18 0 -17
38 -62 53 -62 4 0 7 9 7 20 0 11 -4 20 -9 20 -15 0 -24 40 -12 54 9 10 2 32
-26 87 -28 57 -38 92 -44 154 -4 44 -13 125 -18 180 -8 71 -8 108 0 126 7 19
7 38 -1 68 -9 33 -15 41 -34 41 -13 0 -29 -7 -36 -15 -8 -9 -29 -15 -55 -15
-37 0 -50 7 -95 47 -28 25 -56 56 -61 67 -5 12 -13 28 -18 36 -24 41 -41 95
-41 130 0 44 15 60 34 34 15 -20 40 -10 31 13 -10 29 22 63 60 63 34 0 46 -12
25 -25 -17 -11 -11 -32 11 -38 19 -5 19 -7 6 -34 -35 -69 -28 -123 16 -123 13
0 28 -5 35 -12 18 -18 16 7 -3 36 -17 25 -12 70 8 83 6 3 24 -9 39 -28 l29
-34 -3 45 c-3 42 -6 46 -38 56 -30 10 -35 16 -38 47 -2 26 5 48 25 79 31 48
51 96 62 148 4 19 13 45 20 58 7 14 10 36 6 54 -5 20 -3 33 5 38 16 10 4 63
-13 57 -7 -2 -13 -13 -15 -25 -4 -27 -32 -29 -32 -3 0 36 -19 32 -40 -9z m40
-75 c0 -14 -4 -25 -10 -25 -5 0 -10 11 -10 25 0 14 5 25 10 25 6 0 10 -11 10
-25z m-115 -225 c-3 -5 -15 -10 -26 -10 -10 0 -19 5 -19 10 0 6 12 10 26 10
14 0 23 -4 19 -10z"/>
<path d="M4137 3944 c-4 -4 -7 -18 -7 -31 0 -16 6 -23 20 -23 11 0 20 6 20 13
0 19 -24 49 -33 41z"/>
<path d="M3312 3907 c-22 -23 -29 -47 -14 -47 11 0 52 46 52 59 0 18 -15 13
-38 -12z"/>
<path d="M4304 3895 c-4 -8 -1 -22 6 -30 7 -8 9 -22 6 -31 -8 -21 11 -44 37
-44 17 0 19 4 13 42 -10 61 -48 99 -62 63z"/>
<path d="M4257 3722 c-32 -20 -36 -29 -38 -104 -3 -76 8 -88 83 -88 54 0 62
-3 94 -35 19 -19 39 -35 44 -35 5 0 12 15 15 34 6 29 12 35 41 40 35 7 54 30
54 65 0 26 -48 41 -61 20 -39 -64 -58 -72 -83 -35 -22 34 -51 41 -92 21 -43
-20 -61 -15 -70 21 -10 39 7 59 49 59 45 0 55 10 32 35 -22 24 -32 25 -68 2z"/>
<path d="M3883 3668 c2 -7 10 -13 17 -13 7 0 15 6 18 13 2 7 -5 12 -18 12 -13
0 -20 -5 -17 -12z"/>
<path d="M3768 3634 c-9 -20 -9 -27 2 -34 19 -11 42 0 36 17 -3 8 -6 21 -6 29
0 23 -20 16 -32 -12z"/>
<path d="M3146 3588 c-14 -54 -4 -118 19 -118 24 0 33 72 13 115 -14 31 -24
32 -32 3z"/>
<path d="M3190 3432 c0 -6 5 -14 10 -17 6 -3 10 -24 10 -46 0 -24 4 -38 10
-34 17 10 11 61 -10 85 -11 13 -20 18 -20 12z"/>
<path d="M5247 3413 c-13 -12 -7 -70 8 -83 8 -6 15 -34 17 -63 2 -32 8 -52 17
-55 11 -4 13 5 7 49 -7 50 -34 159 -40 159 -1 0 -6 -3 -9 -7z"/>
<path d="M5035 3370 c-9 -14 4 -52 16 -45 12 8 12 55 0 55 -6 0 -13 -5 -16
-10z"/>
<path d="M5172 3359 c1 -12 9 -24 16 -27 9 -3 13 3 10 19 -1 12 -9 24 -16 27
-9 3 -13 -3 -10 -19z"/>
<path d="M4315 3345 c-38 -12 -87 -30 -108 -39 -36 -16 -56 -40 -43 -53 3 -3
54 1 113 10 60 9 124 14 143 12 19 -2 67 -7 107 -11 69 -6 72 -8 97 -46 14
-22 26 -47 26 -56 0 -15 2 -15 15 -1 14 14 14 19 0 45 -8 16 -20 41 -25 57 -5
15 -20 32 -32 37 -13 6 -30 14 -38 19 -8 5 -23 12 -32 15 -11 3 -15 11 -12 21
8 21 -34 20 -64 -1 -15 -10 -27 -12 -35 -6 -25 19 -44 18 -112 -3z"/>
<path d="M5086 3341 c-4 -5 -1 -22 4 -37 14 -35 36 -18 26 20 -6 26 -20 34
-30 17z"/>
<path d="M4951 3311 c-8 -14 -26 -23 -51 -27 -42 -7 -43 -8 -54 -79 -8 -54
-37 -119 -76 -170 l-38 -51 -7 -234 c-3 -129 -11 -251 -17 -271 -6 -20 -28
-56 -49 -80 -22 -24 -39 -52 -39 -62 0 -27 -18 -57 -57 -98 -31 -32 -33 -39
-22 -57 10 -16 10 -26 1 -47 -7 -14 -12 -38 -12 -53 0 -16 -12 -42 -30 -62
-16 -19 -29 -42 -30 -51 0 -9 -7 -23 -16 -30 -12 -10 -15 -25 -12 -61 3 -27 1
-51 -4 -55 -6 -3 -16 -21 -24 -39 -8 -19 -19 -34 -24 -34 -6 0 -8 -11 -4 -25
4 -16 -1 -37 -14 -59 -15 -25 -19 -45 -15 -69 4 -26 1 -36 -11 -40 -21 -8 -52
10 -65 40 -6 13 -17 23 -24 23 -31 0 -50 38 -44 86 5 44 2 50 -34 89 -26 28
-37 48 -33 59 4 9 0 18 -10 22 -8 3 -41 37 -72 75 l-56 68 20 26 c17 21 18 31
10 67 -5 23 -14 48 -20 55 -13 16 -50 17 -66 1 -8 -8 -15 -8 -27 2 -17 14 -20
40 -4 40 26 0 -1 25 -32 30 -26 4 -34 10 -32 25 2 25 -16 36 -38 24 -27 -14
-49 0 -49 32 0 22 -6 30 -24 35 -24 6 -46 41 -46 72 0 21 -27 62 -41 62 -5 0
-9 -13 -9 -28 0 -15 -5 -33 -11 -39 -7 -7 -8 -19 -4 -30 5 -10 9 -26 10 -36 1
-9 10 -26 20 -36 23 -26 16 -57 -13 -54 -23 3 -46 -27 -48 -62 -3 -80 -2 -77
-33 -70 -37 8 -48 -16 -24 -52 9 -14 16 -38 15 -54 -1 -15 2 -30 8 -34 15 -9
12 -42 -6 -70 -12 -19 -14 -38 -7 -107 l8 -83 33 -2 c57 -4 62 -6 66 -27 20
-107 41 -174 59 -194 19 -20 22 -35 23 -120 0 -53 4 -105 9 -116 6 -13 3 -21
-8 -28 -12 -6 -17 -23 -17 -58 0 -27 -4 -52 -10 -55 -5 -3 -10 -1 -10 5 0 6
-10 10 -22 8 -26 -4 -45 -46 -33 -74 4 -11 7 -29 6 -41 -1 -13 2 -23 8 -23 14
0 14 -37 0 -46 -6 -3 -26 9 -45 27 -30 29 -34 39 -34 85 0 63 -7 84 -27 84
-11 0 -13 -7 -9 -24 3 -14 1 -37 -4 -52 -9 -22 -7 -33 12 -60 13 -19 31 -37
41 -40 25 -8 19 -49 -8 -49 -28 0 -31 -32 -5 -40 17 -5 20 -12 16 -31 -5 -19
-2 -24 13 -24 11 0 23 5 26 10 3 6 11 10 17 10 6 0 -1 -15 -16 -34 -14 -19
-26 -41 -26 -50 0 -8 -8 -17 -19 -21 -10 -3 -22 -20 -27 -37 -12 -41 -31 -46
-44 -12 -8 21 -14 24 -22 16 -19 -19 -26 -14 -37 24 -7 25 -6 43 1 60 13 27
19 29 36 12 17 -17 15 -3 -4 35 -13 24 -16 56 -15 132 1 106 -12 116 -25 17
-6 -47 -9 -53 -28 -50 -20 3 -21 7 -18 108 2 98 -5 148 -44 298 -2 7 -9 10
-15 6 -7 -4 -10 -39 -9 -98 4 -136 1 -184 -10 -165 -17 28 -39 158 -33 194 4
24 0 43 -11 61 -19 28 -35 154 -36 274 0 41 -3 85 -6 98 -7 25 -24 30 -24 7 0
-8 -4 -15 -10 -15 -13 0 -13 13 0 26 7 7 7 21 -1 43 -7 20 -10 64 -6 112 3 46
1 77 -4 73 -5 -3 -9 -9 -9 -15 0 -9 -36 -49 -45 -49 -11 0 -4 53 10 81 9 17
17 65 19 117 2 48 9 109 15 135 11 47 6 97 -9 97 -15 0 -17 39 -3 60 8 12 13
30 10 40 -3 11 1 24 9 31 8 6 14 25 14 41 0 26 -2 28 -15 18 -20 -17 -35 -4
-35 31 0 46 -17 34 -23 -17 -2 -26 -9 -49 -14 -53 -15 -9 -37 -53 -41 -81 -2
-14 -6 -160 -8 -326 -4 -262 -3 -303 11 -314 8 -7 15 -23 15 -35 0 -12 7 -28
15 -35 10 -8 15 -30 15 -64 0 -30 6 -60 15 -72 8 -10 15 -31 15 -45 0 -14 7
-34 15 -45 8 -10 15 -32 15 -47 0 -15 7 -38 16 -52 12 -18 14 -40 10 -99 -6
-68 -4 -77 15 -95 15 -14 22 -34 24 -68 1 -26 3 -51 4 -56 0 -4 12 -12 25 -17
19 -7 26 -22 40 -81 9 -39 16 -77 16 -84 0 -7 7 -18 15 -25 10 -8 15 -31 15
-68 0 -31 6 -62 13 -71 7 -9 22 -44 33 -79 10 -34 22 -62 27 -62 4 0 12 -11
17 -25 5 -14 14 -25 20 -25 5 0 10 -5 10 -11 0 -5 15 -33 33 -60 26 -40 37
-49 57 -47 24 3 25 7 28 73 2 48 8 72 18 78 9 5 14 25 14 61 0 46 4 56 24 69
30 20 66 93 66 135 0 19 7 35 17 40 15 9 15 12 0 45 -10 21 -17 59 -17 94 1
62 13 85 63 117 17 12 27 27 27 43 0 13 5 34 11 45 6 12 13 63 15 114 3 72 0
95 -11 104 -8 7 -15 27 -15 44 0 18 -7 41 -15 52 -8 10 -15 33 -15 50 0 17 -7
37 -15 44 -8 7 -15 28 -15 47 0 33 -17 70 -49 105 -35 38 -41 48 -41 70 0 13
-7 41 -15 63 -21 58 -20 227 2 276 20 45 73 65 115 43 24 -12 108 -114 108
-131 0 -4 14 -21 30 -37 17 -16 30 -36 30 -45 0 -9 14 -29 30 -45 17 -16 30
-38 30 -48 0 -10 7 -21 15 -24 8 -4 15 -15 15 -26 0 -11 14 -37 30 -58 17 -21
30 -45 30 -53 0 -9 4 -18 9 -22 5 -3 22 -31 38 -61 15 -31 45 -76 66 -99 20
-24 37 -47 37 -52 0 -4 11 -18 24 -30 13 -13 27 -39 30 -58 4 -20 13 -35 21
-35 16 0 45 54 45 85 0 11 7 30 15 41 8 10 15 33 15 50 0 17 7 37 15 44 8 7
15 27 15 45 0 20 6 35 15 39 8 3 15 17 15 31 0 14 7 28 15 31 10 4 15 20 15
49 0 26 6 47 15 55 8 7 15 28 15 47 0 21 6 36 15 39 8 4 15 18 15 34 0 15 7
33 15 40 8 7 15 25 15 40 0 16 7 30 15 34 9 3 15 18 15 34 0 16 7 35 15 42 8
7 15 18 15 24 0 6 14 20 30 31 27 18 30 26 30 70 0 69 32 105 94 105 33 0 47
-6 64 -24 18 -22 21 -37 21 -135 0 -107 1 -110 31 -142 16 -19 33 -42 36 -51
3 -10 10 -18 15 -18 15 0 10 -94 -7 -118 -14 -21 -14 -25 -1 -40 9 -11 17 -50
22 -104 4 -49 11 -90 16 -94 5 -3 9 -20 9 -37 0 -18 7 -41 15 -51 10 -13 15
-44 15 -92 0 -59 3 -75 18 -83 17 -10 19 -51 11 -198 -2 -39 2 -46 59 -103 34
-34 62 -66 62 -72 0 -5 20 -36 45 -68 25 -32 45 -66 45 -76 0 -9 8 -35 17 -56
14 -32 21 -38 47 -38 17 1 49 7 71 15 22 8 54 15 70 15 17 0 36 5 42 11 7 7
29 15 50 18 32 5 38 10 41 34 2 15 8 27 13 27 5 0 9 15 9 34 0 26 9 43 41 75
26 25 51 41 66 41 28 0 103 -36 103 -50 0 -17 20 -11 44 13 l24 22 -10 175
c-9 184 -3 346 14 368 6 7 34 12 68 12 66 0 70 5 70 77 0 35 -8 57 -37 101
-21 31 -41 59 -45 60 -5 2 -8 21 -8 42 0 23 -6 42 -14 47 -13 8 -56 93 -56
111 0 6 -7 12 -15 16 -8 3 -15 17 -15 31 0 14 -7 28 -15 31 -8 4 -15 15 -15
25 0 10 -6 19 -14 19 -16 0 -28 -37 -15 -46 14 -8 10 -24 -6 -24 -8 0 -15 6
-15 13 0 7 -13 21 -29 30 -17 10 -33 26 -36 37 -4 11 -10 20 -15 20 -5 0 -18
10 -30 22 -20 22 -38 19 -26 -4 31 -60 63 -98 83 -98 9 0 12 -7 7 -25 -4 -16
1 -34 13 -52 10 -15 25 -40 33 -55 8 -17 22 -28 34 -28 19 -1 19 -2 4 -11 -21
-12 -23 -23 -5 -41 8 -7 19 -24 26 -37 11 -19 19 -22 46 -18 18 3 38 0 44 -6
14 -14 15 -50 1 -42 -6 4 -22 -1 -35 -9 -31 -21 -34 -69 -5 -93 26 -23 28 -83
3 -83 -28 0 -41 13 -58 54 -17 41 -64 117 -79 127 -5 4 -35 12 -67 19 -60 13
-75 28 -39 37 l21 5 -21 35 c-11 19 -20 43 -20 53 0 29 -11 50 -25 50 -16 0
-18 -107 -3 -127 6 -7 2 -14 -11 -18 -13 -4 -21 -15 -21 -29 0 -29 39 -118 55
-128 7 -4 16 -19 19 -33 4 -17 16 -27 39 -33 22 -6 33 -15 35 -31 2 -15 9 -21
20 -19 18 4 19 16 7 91 -7 45 -6 49 11 45 17 -3 19 -14 20 -113 1 -113 12
-161 39 -171 17 -7 21 -69 4 -79 -6 -4 -9 -21 -7 -38 2 -24 -1 -33 -14 -35
-15 -3 -18 4 -18 32 0 38 -10 45 -30 21 -14 -16 -4 -55 17 -70 22 -17 13 -70
-12 -70 -16 0 -21 8 -23 40 -2 23 -12 49 -24 62 -20 21 -20 22 -2 52 21 35 30
37 62 15 12 -8 27 -12 32 -9 18 11 10 33 -15 39 -14 4 -25 13 -25 21 0 26 -34
16 -52 -15 -24 -42 -48 -40 -48 4 0 40 -8 66 -21 66 -13 0 -11 -94 2 -124 9
-19 8 -34 -4 -70 -15 -44 -15 -46 4 -56 14 -8 19 -21 19 -52 0 -36 -6 -47 -39
-78 -21 -20 -41 -45 -45 -56 -9 -28 -52 -68 -65 -59 -6 3 -11 24 -11 47 0 32
6 46 32 70 l32 30 -32 -4 c-36 -4 -37 0 -21 67 12 48 11 52 -18 58 -5 1 -8
-23 -9 -53 -1 -53 -2 -55 -28 -55 -24 1 -26 -2 -26 -44 0 -24 5 -59 12 -78 11
-29 10 -35 -8 -48 -25 -19 -55 -19 -80 0 -17 13 -17 14 -2 15 25 0 38 31 38
89 0 50 -15 76 -26 47 -7 -17 -44 -22 -44 -6 0 5 -22 8 -51 6 -40 -3 -52 0
-62 15 -8 13 -15 15 -24 8 -7 -6 -17 -8 -23 -4 -20 12 -10 36 20 46 27 10 30
15 30 54 0 23 -3 63 -6 89 -6 39 -10 46 -25 41 -17 -6 -19 -1 -19 40 0 26 -6
52 -14 60 -10 10 -12 36 -10 99 2 47 0 86 -5 86 -17 0 -32 57 -25 94 5 29 3
40 -11 50 -18 13 -17 47 2 53 6 2 14 -5 18 -16 10 -32 25 -25 25 11 0 18 -11
45 -25 64 -14 18 -25 39 -25 46 0 8 -18 24 -40 37 -46 26 -49 40 -15 72 40 38
31 87 -15 85 -23 -1 -25 3 -28 52 -2 30 2 60 8 67 9 11 6 29 -11 74 -16 46
-20 73 -15 108 6 47 -4 73 -30 73 -9 0 -13 -17 -13 -56 0 -65 -6 -78 -21 -39
-8 22 -13 25 -25 15 -21 -18 -47 48 -35 90 5 17 6 38 3 47 -3 8 0 19 7 23 8 5
14 33 16 71 3 70 -2 99 -17 99 -7 0 -8 -20 -4 -54 6 -43 4 -56 -8 -62 -8 -5
-19 -29 -24 -53 -4 -25 -15 -47 -22 -49 -12 -4 -13 6 -7 54 4 33 7 109 6 171
-1 117 19 229 45 248 7 6 20 28 29 49 9 22 19 36 23 32 4 -3 8 -34 10 -69 5
-105 8 -122 21 -130 6 -4 12 -28 12 -52 0 -25 4 -45 8 -45 5 0 14 -11 20 -24
9 -20 7 -29 -9 -51 -15 -18 -18 -29 -11 -38 6 -7 12 -23 14 -36 7 -49 25 -32
33 31 11 88 7 148 -12 177 -9 14 -15 42 -15 63 1 20 -3 49 -8 63 -6 15 -12 65
-15 111 -3 66 0 98 16 146 12 38 16 65 10 71 -6 6 -14 1 -20 -12z m-1773 -873
c-4 -27 -28 -36 -28 -10 0 20 8 32 22 32 5 0 8 -10 6 -22z m-8 -116 c0 -13
-12 -22 -22 -16 -10 6 -1 24 13 24 5 0 9 -4 9 -8z m-43 -109 c-2 -16 -4 -5 -4
22 0 28 2 40 4 28 2 -13 2 -35 0 -50z m2711 -641 c4 -37 -13 -43 -22 -9 -9 35
-7 49 7 45 6 -3 13 -19 15 -36z m-656 -305 c9 -47 -16 -64 -40 -26 -10 16 -10
24 -1 35 17 21 36 17 41 -9z m136 -183 c29 -20 28 -45 -3 -72 -14 -12 -27 -22
-29 -22 -3 0 -4 25 -3 55 1 30 4 55 7 55 3 0 16 -7 28 -16z m90 -177 c4 -20
-25 -34 -40 -19 -15 15 -1 44 19 40 10 -2 19 -11 21 -21z m-1938 -12 c0 -18
-5 -25 -20 -25 -17 0 -18 3 -8 25 6 14 15 25 20 25 4 0 8 -11 8 -25z m188 8
c2 -8 -5 -13 -17 -13 -12 0 -21 6 -21 16 0 18 31 15 38 -3z"/>
<path d="M5010 3290 c0 -19 3 -21 12 -12 9 9 9 15 0 24 -9 9 -12 7 -12 -12z"/>
<path d="M5217 3274 c-10 -10 -9 -42 2 -48 5 -3 11 0 14 7 6 16 -7 50 -16 41z"/>
<path d="M5060 3201 c-7 -13 -7 -22 0 -26 13 -8 30 3 30 20 0 23 -18 27 -30 6z"/>
<path d="M4333 3193 c-13 -2 -23 -8 -23 -12 0 -15 60 -41 98 -41 89 0 130 24
83 50 -19 10 -113 12 -158 3z"/>
<path d="M5230 3180 c-7 -13 -10 -43 -6 -73 14 -139 26 -168 52 -132 20 27 44
11 44 -30 0 -19 -4 -35 -10 -35 -16 0 -11 -33 10 -65 11 -16 20 -36 20 -43 0
-8 10 -28 23 -45 12 -17 27 -40 32 -51 19 -38 32 -28 39 30 5 43 2 66 -11 95
-9 22 -19 39 -22 39 -3 0 -16 8 -28 18 -21 15 -22 21 -12 55 12 44 -3 97 -32
116 -16 9 -19 8 -19 -8 0 -27 -13 -33 -44 -18 -24 11 -34 36 -20 50 4 3 8 21
10 39 2 18 4 42 6 52 4 27 -19 31 -32 6z"/>
<path d="M5127 3166 c-3 -8 -2 -29 3 -48 5 -18 12 -48 17 -66 11 -47 27 -45
31 4 2 28 -2 47 -12 57 -9 9 -16 25 -16 36 0 24 -16 36 -23 17z"/>
<path d="M3484 3099 c4 -13 9 -35 11 -48 2 -13 9 -27 16 -32 15 -9 14 -92 -2
-183 -6 -32 -8 -70 -4 -83 6 -25 40 -44 63 -36 24 10 7 76 -25 96 -19 12 -16
44 5 56 22 13 20 115 -4 142 -8 9 -14 23 -13 31 5 23 -12 58 -33 69 -19 10
-20 9 -14 -12z"/>
<path d="M3205 2993 c-3 -49 -8 -99 -11 -113 -4 -28 11 -59 23 -46 9 9 22 201
15 229 -10 40 -21 12 -27 -70z"/>
<path d="M3773 3053 c3 -16 24 -59 46 -98 22 -38 49 -87 61 -107 24 -44 40
-49 40 -13 0 27 -52 139 -76 162 -8 8 -14 20 -14 26 -1 17 -36 57 -50 57 -8 0
-11 -10 -7 -27z"/>
<path d="M3304 3025 c-10 -41 -10 -120 1 -125 10 -5 23 40 31 108 3 33 1 42
-11 42 -8 0 -17 -11 -21 -25z"/>
<path d="M3387 3010 c-3 -8 -8 -33 -10 -55 -3 -22 -8 -49 -13 -60 -5 -15 -1
-14 19 8 27 28 33 63 17 102 -6 16 -9 17 -13 5z"/>
<path d="M4075 2970 c-14 -22 9 -52 56 -74 61 -30 65 -14 12 44 -37 40 -56 49
-68 30z"/>
<path d="M4860 2936 c0 -14 5 -28 10 -31 6 -3 10 5 10 19 0 14 -4 28 -10 31
-6 3 -10 -5 -10 -19z"/>
<path d="M4615 2905 c-22 -25 -46 -45 -54 -45 -9 0 -4 -9 13 -25 15 -14 29
-25 31 -25 5 0 75 125 75 133 0 19 -30 2 -65 -38z"/>
<path d="M4320 2921 c0 -17 29 -33 50 -26 24 8 26 21 4 29 -23 9 -54 7 -54 -3z"/>
<path d="M3284 2836 c-8 -22 3 -33 18 -18 9 9 9 15 0 24 -9 9 -13 7 -18 -6z"/>
<path d="M3377 2833 c-4 -3 -7 -30 -7 -58 0 -39 5 -56 20 -70 22 -20 39 -13
21 9 -8 10 -9 21 -1 40 17 45 13 86 -8 86 -10 0 -22 -3 -25 -7z"/>
<path d="M3180 2725 c0 -69 3 -87 16 -92 8 -3 20 -1 27 6 18 18 45 13 51 -11
2 -13 2 11 -1 52 -4 41 -7 83 -7 93 -1 32 -30 13 -42 -28 l-12 -40 -7 53 c-12
80 -25 62 -25 -33z"/>
<path d="M5160 2777 c0 -14 19 -37 32 -37 16 0 7 30 -12 40 -15 8 -20 8 -20
-3z"/>
<path d="M3626 2772 c-3 -5 -1 -22 4 -38 8 -29 8 -29 9 9 1 36 -3 45 -13 29z"/>
<path d="M4010 2696 c0 -8 5 -18 10 -21 6 -3 10 3 10 14 0 12 -4 21 -10 21 -5
0 -10 -6 -10 -14z"/>
<path d="M3382 2496 c-1 -90 1 -167 6 -170 4 -3 14 41 21 98 10 79 11 108 2
125 -8 13 -10 39 -5 66 5 35 3 45 -7 45 -11 0 -15 -34 -17 -164z"/>
<path d="M3474 2647 c-2 -7 0 -24 5 -38 9 -22 10 -21 10 14 1 37 -5 48 -15 24z"/>
<path d="M3597 2653 c-4 -7 -1 -29 8 -49 8 -20 15 -45 15 -56 0 -11 5 -18 13
-15 16 5 11 47 -8 61 -7 6 -15 25 -17 41 -2 19 -6 25 -11 18z"/>
<path d="M5130 2645 c0 -8 5 -15 10 -15 6 0 10 7 10 15 0 8 -4 15 -10 15 -5 0
-10 -7 -10 -15z"/>
<path d="M5220 2653 c0 -4 7 -17 15 -27 8 -11 15 -30 15 -41 0 -12 9 -30 20
-40 19 -18 20 -17 20 6 0 14 -9 32 -20 42 -11 9 -17 23 -14 31 3 8 -3 19 -15
26 -12 6 -21 7 -21 3z"/>
<path d="M5448 2649 c-8 -24 3 -49 23 -49 24 0 24 12 0 41 -14 17 -19 19 -23
8z"/>
<path d="M5052 2595 c-18 -22 -21 -36 -16 -64 7 -40 22 -73 37 -83 7 -4 7 -19
-1 -45 -11 -40 -7 -89 12 -112 9 -11 12 -7 16 20 3 19 3 46 -1 61 -5 18 -3 31
7 39 24 20 17 74 -25 193 -7 18 -9 17 -29 -9z m38 -89 c0 -16 -18 -31 -27 -22
-8 8 5 36 17 36 5 0 10 -6 10 -14z"/>
<path d="M3570 2551 c0 -12 5 -21 10 -21 6 0 10 6 10 14 0 8 -4 18 -10 21 -5
3 -10 -3 -10 -14z"/>
<path d="M4040 2553 c1 -25 46 -78 54 -64 4 6 1 14 -7 17 -8 3 -17 18 -21 35
-6 31 -26 40 -26 12z"/>
<path d="M5375 2554 c4 -10 10 -30 13 -43 3 -13 15 -43 28 -65 13 -23 24 -51
24 -63 0 -14 6 -23 16 -23 13 0 15 -8 9 -50 -7 -54 0 -65 15 -24 10 26 30 25
30 -2 0 -8 4 -14 9 -14 5 0 14 -12 20 -27 6 -16 15 -35 20 -43 5 -8 12 -22 15
-30 4 -8 23 -41 44 -72 124 -190 132 -199 132 -158 0 11 -7 23 -15 26 -8 4
-15 14 -15 24 0 11 -4 21 -9 25 -6 3 -21 30 -36 60 -14 30 -29 55 -34 55 -5 0
-18 21 -30 48 -12 26 -39 72 -61 102 -22 30 -40 61 -40 68 0 20 -29 81 -62
129 -15 23 -28 45 -28 50 0 4 -13 17 -27 27 -26 19 -26 19 -18 0z"/>
<path d="M3298 2542 c-3 -11 -2 -25 2 -32 11 -18 22 18 11 37 -7 13 -9 12 -13
-5z"/>
<path d="M3866 2481 c-9 -13 24 -83 42 -89 18 -6 14 34 -4 49 -9 7 -19 22 -23
33 -6 14 -10 16 -15 7z"/>
<path d="M5215 2460 c-9 -14 4 -52 16 -45 12 8 12 42 0 50 -5 3 -12 1 -16 -5z"/>
<path d="M3750 2442 c0 -15 31 -72 39 -72 34 0 3 79 -31 80 -5 0 -8 -4 -8 -8z"/>
<path d="M3200 2370 c0 -11 4 -20 9 -20 11 0 22 26 14 34 -12 12 -23 5 -23
-14z"/>
<path d="M3303 2340 c0 -25 2 -35 4 -22 2 12 2 32 0 45 -2 12 -4 2 -4 -23z"/>
<path d="M3580 2361 c-13 -25 -13 -111 0 -111 6 0 10 11 10 24 0 13 5 26 10
28 6 2 13 20 17 41 4 30 3 37 -10 37 -9 0 -21 -9 -27 -19z"/>
<path d="M5360 2269 c0 -95 16 -188 41 -232 8 -14 6 -22 -7 -31 -18 -13 -16
-42 4 -101 6 -16 21 -63 33 -103 12 -40 30 -83 40 -95 9 -13 19 -36 21 -52 2
-25 7 -30 28 -28 14 1 18 0 8 -3 -20 -6 -24 -44 -8 -60 6 -6 17 -37 25 -70 32
-122 36 -134 44 -134 5 0 11 30 14 68 5 59 2 72 -19 109 -13 23 -24 52 -24 65
0 31 -22 93 -41 115 -22 26 -39 70 -39 101 0 15 -8 50 -17 77 -9 28 -19 79
-24 115 -10 89 -36 260 -42 285 -3 11 -8 32 -12 48 -12 60 -25 23 -25 -74z"/>
<path d="M5210 2344 c0 -21 -31 -117 -41 -128 -5 -6 -9 -42 -9 -82 0 -55 4
-73 15 -78 9 -3 15 -18 15 -36 0 -17 4 -29 9 -25 12 7 3 105 -10 120 -15 16
-10 62 7 69 13 5 15 15 9 54 -5 38 -3 51 9 61 18 15 22 61 6 61 -5 0 -10 -7
-10 -16z"/>
<path d="M5602 2348 c6 -18 28 -21 28 -4 0 9 -7 16 -16 16 -9 0 -14 -5 -12
-12z"/>
<path d="M5625 2300 c-10 -11 -15 -23 -12 -27 8 -7 47 25 47 39 0 14 -16 9
-35 -12z"/>
<path d="M5725 2263 c3 -16 17 -39 31 -53 21 -21 26 -23 34 -10 7 11 1 22 -20
42 -17 15 -30 32 -30 37 0 6 -5 11 -11 11 -7 0 -9 -10 -4 -27z"/>
<path d="M3475 2242 c-7 -35 9 -82 30 -82 22 0 19 56 -4 86 l-19 25 -7 -29z"/>
<path d="M3390 2251 c0 -11 29 -35 35 -29 10 9 -7 38 -21 38 -8 0 -14 -4 -14
-9z"/>
<path d="M5240 2235 c0 -14 5 -25 10 -25 6 0 10 11 10 25 0 14 -4 25 -10 25
-5 0 -10 -11 -10 -25z"/>
<path d="M5478 2235 c-3 -4 1 -30 9 -58 8 -29 18 -71 22 -95 5 -24 13 -48 19
-54 7 -7 12 -34 12 -60 0 -65 25 -66 34 -1 4 34 1 61 -13 98 -10 27 -27 77
-38 109 -18 56 -31 74 -45 61z"/>
<path d="M3365 2216 c-5 -11 -8 -36 -7 -55 1 -20 2 -52 2 -71 1 -19 8 -71 17
-115 8 -44 16 -95 17 -113 1 -21 7 -34 19 -38 19 -6 23 -29 7 -39 -18 -11 -10
-25 14 -25 27 0 41 32 25 61 -5 10 -9 26 -9 36 0 10 -9 26 -20 36 -14 12 -19
24 -14 40 6 28 -14 187 -26 202 -5 6 -10 31 -12 55 -3 36 -5 41 -13 26z"/>
<path d="M5093 2194 c-3 -8 -1 -20 6 -27 8 -8 11 -4 11 16 0 30 -7 35 -17 11z"/>
<path d="M5237 1948 c-4 -13 0 -29 8 -38 8 -9 15 -34 15 -56 0 -22 9 -65 20
-97 11 -31 20 -67 20 -81 0 -31 9 -56 21 -56 17 0 10 136 -10 192 -10 29 -25
75 -33 102 -15 55 -32 69 -41 34z"/>
<path d="M4345 1780 c-7 -12 2 -30 16 -30 12 0 12 27 0 35 -5 3 -12 1 -16 -5z"/>
<path d="M3375 1723 c-14 -21 -15 -30 -6 -45 6 -10 11 -25 11 -33 0 -8 4 -15
9 -15 5 0 9 27 8 60 0 33 -1 60 -2 60 -2 0 -11 -12 -20 -27z"/>
<path d="M3595 1670 c-4 -6 -7 -48 -7 -93 0 -46 -5 -88 -12 -96 -8 -11 -8 -15
2 -18 6 -3 12 -20 12 -38 0 -39 8 -65 21 -65 16 0 10 87 -6 100 -11 9 -12 16
-5 26 16 18 26 194 12 194 -6 0 -14 -5 -17 -10z"/>
<path d="M5397 1613 c-11 -10 -8 -43 7 -76 27 -63 38 -123 37 -200 0 -62 3
-79 15 -84 27 -10 35 18 31 99 -3 50 -16 109 -38 172 -31 93 -38 104 -52 89z"/>
<path d="M5180 1536 c0 -14 4 -27 9 -30 12 -8 22 20 15 39 -9 23 -24 18 -24
-9z"/>
<path d="M5670 1546 c0 -16 54 -86 66 -86 16 0 19 26 4 35 -6 4 -8 16 -4 27 5
17 3 19 -15 13 -13 -4 -28 -1 -36 5 -8 7 -15 10 -15 6z"/>
<path d="M3348 1529 c-14 -8 -18 -23 -18 -69 0 -60 4 -67 27 -52 15 9 30 132
17 132 -5 0 -17 -5 -26 -11z"/>
<path d="M5263 1446 c-20 -19 -22 -30 -19 -92 1 -39 6 -76 10 -82 3 -6 2 -13
-4 -17 -5 -3 -10 -13 -10 -21 0 -10 12 -14 45 -14 47 0 50 4 39 47 -4 15 -13
22 -28 20 -19 -2 -21 2 -18 43 1 25 2 58 2 74 0 16 5 35 11 42 18 22 -5 22
-28 0z"/>
<path d="M5371 1430 c-1 -3 -3 -32 -5 -65 -2 -33 -7 -79 -11 -102 -7 -41 -7
-43 18 -43 26 0 26 0 20 68 -5 65 -19 152 -22 142z"/>
<path d="M3643 1363 c-15 -6 -18 -73 -3 -73 6 0 10 -10 10 -23 0 -35 10 -39
31 -13 20 26 25 56 9 56 -5 0 -10 -4 -10 -10 0 -5 -7 -10 -15 -10 -19 0 -20
16 -1 23 9 3 12 15 9 31 -5 26 -8 28 -30 19z"/>
<path d="M3444 1336 c-3 -7 -1 -29 4 -47 l10 -34 1 48 c1 47 -5 60 -15 33z"/>
</g>
</svg>
