<?xml version="1.0" standalone="no"?>
<!DOCTYPE svg PUBLIC "-//W3C//DTD SVG 20010904//EN"
 "http://www.w3.org/TR/2001/REC-SVG-20010904/DTD/svg10.dtd">
<svg version="1.0" xmlns="http://www.w3.org/2000/svg"
 width="300.000000pt" height="168.000000pt" viewBox="0 0 300.000000 168.000000"
 preserveAspectRatio="xMidYMid meet">
<metadata>
Created by potrace 1.10, written by Peter Selinger 2001-2011
</metadata>
<g transform="translate(0.000000,168.000000) scale(0.050000,-0.050000)"
fill="#000000" stroke="none">
<path d="M2743 3237 c-35 -68 -63 -138 -63 -157 0 -19 -14 -47 -31 -61 -18
-14 -44 -51 -60 -81 -16 -30 -48 -61 -73 -69 -53 -17 81 -94 204 -117 213 -40
358 -80 348 -95 -5 -9 3 -12 19 -5 40 15 197 -30 183 -53 -7 -10 1 -14 17 -7
38 14 248 -70 533 -213 341 -172 386 -182 295 -65 -12 16 -7 108 14 253 38
264 31 381 -43 668 l-32 125 -118 0 -118 0 14 -75 c7 -41 20 -84 28 -95 7 -11
26 -65 40 -120 16 -60 47 -118 78 -144 42 -36 45 -45 17 -45 -39 -1 -46 -42
-14 -74 25 -25 33 -248 11 -284 -9 -14 -5 -22 8 -18 12 3 35 -26 51 -65 19
-46 20 -60 4 -39 -83 101 -506 312 -781 388 -63 18 -111 39 -106 48 5 8 -22
11 -60 7 -38 -5 -113 6 -168 24 -55 18 -140 38 -190 45 -100 14 -116 36 -40
55 28 7 50 27 50 44 0 17 28 54 62 83 45 37 59 64 52 98 -7 41 -1 47 54 47 49
1 56 5 32 22 -23 16 -24 24 -5 31 14 6 20 19 14 29 -7 11 32 15 95 10 59 -5
138 -2 176 5 44 9 -22 16 -182 18 l-252 4 -63 -122z m988 -706 c33 -24 35 -32
11 -55 -23 -22 -25 -21 -12 2 13 22 8 25 -21 14 -21 -8 -31 -8 -24 0 8 8 5 26
-8 41 -29 36 5 35 54 -2z"/>
<path d="M1506 3196 c-216 -105 90 -752 467 -986 318 -197 307 -194 308 -85 0
47 18 135 41 195 22 61 45 128 52 150 6 22 23 54 37 70 15 17 26 39 27 50 0
11 16 23 36 26 28 5 30 2 9 -12 -19 -13 -21 -23 -5 -33 27 -17 28 -53 2 -122
-18 -47 -25 -50 -54 -26 -29 24 -31 21 -19 -27 7 -29 6 -58 -4 -64 -9 -6 -17
-49 -18 -96 -1 -47 3 -75 8 -61 6 14 18 21 27 15 9 -5 12 8 6 30 -6 22 -1 40
10 40 12 0 31 32 44 70 13 39 31 66 40 60 10 -6 23 -2 30 10 7 11 -2 20 -19
20 -17 0 -31 10 -31 21 0 12 10 15 21 8 12 -7 27 6 33 29 8 31 22 39 53 31 24
-6 63 -12 88 -14 30 -2 42 -13 35 -32 -7 -19 0 -24 23 -15 27 11 207 -57 207
-78 0 -13 -92 18 -135 46 -25 16 -45 22 -45 15 0 -20 85 -89 110 -90 11 -1 46
-15 78 -31 32 -17 62 -27 67 -22 5 5 36 -7 68 -27 33 -20 75 -32 94 -28 19 5
61 -1 94 -14 32 -13 94 -26 137 -30 83 -7 113 -34 109 -99 -2 -39 -3 -39 -11
0 -8 44 -111 100 -153 84 -14 -5 -47 2 -74 17 -30 16 -81 22 -132 15 -66 -9
-97 -2 -146 33 -38 27 -76 40 -97 31 -51 -19 111 -89 233 -99 124 -10 323 -68
323 -93 0 -11 -38 -15 -90 -9 -54 7 -90 3 -90 -9 0 -11 37 -20 82 -20 64 0 80
-6 71 -29 -19 -50 21 -53 97 -8 61 35 77 38 91 16 9 -15 24 -20 33 -11 9 10 5
21 -9 26 -14 5 -25 19 -25 30 0 11 13 15 29 9 16 -6 32 0 37 13 4 13 4 -3 -1
-36 l-10 -60 53 49 c29 27 49 61 43 75 -5 14 3 26 18 26 15 0 31 -11 36 -25
10 -30 -101 -187 -127 -180 -10 3 -18 -5 -18 -16 0 -13 17 -16 40 -9 28 9 40
4 40 -19 0 -17 -9 -31 -20 -31 -11 0 -20 -36 -20 -81 0 -53 -10 -84 -30 -92
-17 -6 -28 -26 -25 -44 3 -18 -8 -33 -24 -33 -36 0 -71 124 -43 158 25 29 -48
161 -78 142 -11 -7 -29 -7 -40 0 -50 31 -336 30 -348 -2 -17 -45 3 -68 59 -68
27 0 49 -9 49 -20 0 -13 -32 -15 -85 -7 -144 23 -145 22 -151 -53 -4 -38 -23
-88 -42 -110 -72 -81 -115 -255 -72 -290 24 -20 30 -19 30 5 0 29 39 55 82 55
30 0 21 -93 -12 -120 -16 -14 -30 -21 -30 -15 0 5 -38 3 -85 -6 -100 -18 -173
12 -214 89 -15 29 -35 52 -44 52 -33 0 -16 -71 28 -120 25 -28 45 -59 45 -70
-1 -29 -49 -104 -49 -79 -1 12 6 30 14 40 8 11 0 4 -18 -16 -25 -26 -36 -28
-43 -10 -5 14 -9 -4 -9 -40 1 -36 -6 -72 -15 -80 -9 -8 -11 5 -5 30 8 31 2 45
-18 45 -16 0 -24 -9 -17 -20 7 -11 -1 -14 -19 -8 -36 14 -22 48 20 48 16 0 29
19 29 41 0 23 8 37 17 31 9 -6 16 3 16 19 0 35 -17 37 -47 7 -13 -13 -18 -37
-11 -54 7 -19 4 -25 -10 -17 -12 7 -26 2 -31 -12 -7 -20 -17 -20 -51 0 -39 23
-41 21 -24 -23 10 -26 13 -53 6 -60 -6 -7 8 -12 33 -12 24 0 39 -9 33 -19 -7
-10 6 -29 28 -41 23 -12 41 -17 41 -11 0 6 18 -5 40 -24 66 -57 226 -107 250
-79 66 76 160 93 177 31 42 -161 -388 -328 -489 -190 -7 9 -20 16 -30 16 -55
-3 -113 28 -150 79 -22 32 -36 58 -31 58 5 0 -4 42 -19 93 -15 51 -28 135 -28
185 l0 92 87 0 c64 0 85 -7 78 -26 -15 -38 38 -20 78 26 26 31 28 46 10 68
-13 16 -20 32 -16 37 3 4 0 14 -9 22 -8 7 -8 2 0 -12 9 -16 2 -25 -18 -25 -18
0 -27 9 -20 20 7 11 -2 20 -19 20 -17 0 -31 9 -31 20 0 11 15 20 33 20 19 0
29 5 24 10 -18 17 -137 -14 -125 -32 5 -10 0 -18 -12 -18 -13 0 -20 16 -16 35
4 19 24 34 44 32 26 -2 30 3 15 18 -28 28 -83 -16 -83 -65 0 -20 -23 -50 -50
-68 -41 -27 -47 -41 -30 -71 30 -57 24 -81 -15 -66 -32 12 -33 10 -3 -36 21
-32 28 -76 22 -127 -7 -59 -3 -74 17 -62 16 10 20 8 11 -6 -7 -12 -26 -17 -43
-11 -43 17 -36 -10 23 -87 31 -41 48 -84 42 -107 -8 -29 0 -39 29 -39 32 0 35
-6 17 -40 -28 -52 13 -55 54 -5 25 30 28 30 19 2 -8 -25 0 -30 32 -22 26 7 36
4 28 -10 -8 -13 1 -18 22 -12 83 21 92 -72 11 -104 -215 -85 -311 -170 -302
-267 3 -40 -4 -72 -18 -77 -103 -34 -134 1039 -37 1280 28 71 51 153 51 182 0
67 61 189 120 243 l45 40 -9 -60 c-6 -33 -6 -49 -2 -36 5 13 42 27 82 31 72 7
73 7 24 28 -31 14 -55 15 -62 3 -7 -11 -17 -1 -23 21 -6 22 -5 46 2 54 15 15
18 129 3 129 -40 0 -122 -110 -116 -157 5 -46 -2 -54 -54 -60 -33 -3 -183 -64
-333 -135 -150 -70 -289 -128 -310 -128 -32 0 -165 -40 -577 -173 -206 -66
-343 -164 -411 -292 -35 -65 -88 -147 -118 -182 -77 -88 -101 -140 -101 -217
0 -36 -12 -86 -25 -109 -74 -129 -102 -187 -138 -282 -22 -58 -75 -150 -118
-204 -103 -130 -103 -166 -4 -158 58 5 84 21 113 67 20 32 52 71 70 85 28 22
28 24 -8 14 -32 -8 -30 -5 6 14 27 14 41 36 35 52 -17 45 11 135 31 102 12
-19 18 -12 18 23 2 109 57 139 142 79 88 -63 102 0 16 77 -43 38 -57 62 -41
72 13 8 23 5 23 -7 0 -11 14 -21 30 -21 37 0 39 33 3 54 -31 18 -57 126 -30
126 9 0 15 10 12 21 -6 24 151 119 196 119 76 0 269 -231 236 -284 -7 -12 -4
-17 6 -10 26 16 92 -62 75 -89 -9 -14 -19 -12 -30 6 -12 19 -17 11 -18 -27 0
-29 9 -59 21 -67 11 -7 15 -32 9 -56 -10 -34 -8 -37 8 -13 18 26 21 25 22 -5
0 -19 8 -35 18 -35 9 0 5 37 -11 81 -37 109 -12 143 34 46 20 -42 36 -63 37
-45 3 52 -204 426 -272 491 -57 53 -120 87 -165 87 -21 0 -45 10 -53 23 -8 14
-5 18 7 10 11 -7 26 9 33 37 15 60 45 65 62 10 16 -49 69 -53 71 -5 2 30 4 29
18 -5 9 -23 7 -45 -4 -52 -12 -8 -11 -18 3 -27 12 -7 22 -4 22 8 0 11 10 21
21 21 12 0 17 -16 10 -36 -7 -24 6 -53 39 -84 27 -26 50 -38 50 -26 0 12 -13
32 -30 46 -16 14 -30 42 -30 63 0 39 -54 158 -80 177 -7 6 -19 30 -25 55 -18
72 59 57 138 -26 70 -75 83 -76 44 -4 -18 34 -16 47 12 67 19 13 36 37 38 53
11 75 113 167 139 125 37 -62 71 -155 72 -204 1 -24 18 -48 37 -54 27 -9 35
-33 35 -102 0 -51 10 -98 23 -106 22 -14 31 -288 8 -275 -6 4 -13 -91 -16
-210 -4 -192 -18 -272 -74 -404 -12 -28 -5 -35 37 -35 36 0 52 11 52 35 0 19
9 49 20 65 14 21 16 11 7 -35 -16 -86 26 -86 51 0 l18 65 2 -65 c3 -110 32
-72 36 48 2 62 11 118 20 125 27 20 18 122 -14 142 -40 25 -78 -46 -79 -145
-1 -41 -11 -75 -23 -75 -13 0 -17 15 -9 35 8 19 19 163 25 320 16 377 50 394
50 25 0 -49 4 -70 9 -45 5 25 27 54 48 66 37 20 55 79 24 79 -8 0 -16 40 -17
88 -1 49 -13 115 -26 147 -65 158 -37 256 78 270 67 8 66 9 -15 12 -47 2 -85
-6 -85 -17 0 -11 -16 -20 -35 -20 -30 1 -31 3 -5 20 22 14 9 19 -51 20 -70 0
-83 7 -102 58 -18 48 -17 57 5 49 14 -6 32 -28 39 -49 14 -44 309 -59 309 -16
0 15 -24 18 -70 9 -51 -9 -80 -4 -102 18 -27 27 -24 30 36 22 64 -9 64 -9 -9
13 -70 22 -112 96 -53 96 12 0 67 23 122 50 54 27 110 50 123 50 13 0 42 20
63 45 53 61 66 4 24 -102 -17 -40 -33 -105 -36 -143 -3 -39 -14 -81 -25 -95
-10 -14 -13 -31 -7 -38 7 -7 3 -29 -8 -50 -25 -48 -5 -117 33 -117 43 0 35
-62 -10 -74 -49 -13 -66 -59 -40 -108 12 -22 16 -56 9 -77 -13 -41 19 -74 40
-41 36 59 66 16 60 -85 -26 -420 -11 -575 54 -575 37 0 39 10 27 195 -6 107
-16 283 -20 391 -5 107 -14 274 -19 370 -16 269 7 145 38 -209 l28 -317 -9
270 c-13 355 -27 460 -62 460 -15 0 -27 21 -27 50 0 28 7 50 16 50 9 0 45 40
80 90 78 111 119 118 108 19 -6 -49 -17 -68 -35 -61 -14 5 -36 -2 -47 -16 -16
-19 -8 -23 36 -17 84 13 77 -75 -8 -110 l-60 -24 75 9 c82 11 103 -41 53 -134
-17 -31 -14 -66 12 -149 19 -60 31 -140 26 -178 -4 -38 -3 -69 4 -69 6 0 11
-76 11 -168 -1 -93 4 -165 11 -161 19 12 42 -104 43 -206 0 -103 48 -119 61
-20 l8 65 3 -65 c3 -72 72 -95 89 -30 9 33 9 33 12 0 1 -22 18 -35 45 -35 40
0 42 7 31 112 -24 232 45 190 154 -92 6 -17 6 19 0 80 -7 61 -25 141 -40 178
-53 127 4 106 94 -35 52 -81 57 -86 45 -33 -7 33 -23 66 -35 74 -16 10 -15 21
1 37 16 16 26 7 36 -34 8 -31 25 -63 38 -71 12 -8 23 -26 23 -40 0 -15 23 -25
53 -24 46 2 52 -5 45 -50 -8 -50 -7 -50 22 -13 42 54 38 111 -8 111 -36 0
-182 142 -182 178 0 10 19 13 42 7 36 -9 40 -4 29 32 -8 25 -5 43 7 43 24 0 5
63 -27 85 -40 27 50 15 109 -15 53 -27 57 -38 57 -141 0 -61 6 -137 13 -169
l13 -59 68 90 c52 66 69 109 69 168 0 134 142 301 237 276 44 -12 51 97 7 114
-14 6 -21 2 -14 -9 17 -28 -6 -25 -38 4 -14 14 -23 43 -19 65 4 23 2 30 -4 16
-7 -14 -21 -25 -31 -25 -23 0 -15 44 12 67 12 10 5 12 -15 6 -19 -7 -35 -3
-35 8 0 10 9 19 20 19 30 0 24 86 -11 157 -33 65 -63 88 -41 31 9 -23 4 -29
-17 -21 -19 7 -25 1 -18 -17 6 -15 3 -40 -5 -54 -17 -27 -42 36 -46 114 -1 33
2 35 18 10 15 -24 20 -20 20 20 0 35 6 42 18 23 12 -20 19 -15 28 19 10 36 17
40 40 21 16 -13 44 -18 61 -11 18 7 33 5 33 -5 0 -9 38 -35 83 -57 46 -22 87
-55 92 -75 15 -55 36 -43 113 65 40 55 63 100 53 100 -10 0 -24 -9 -31 -20
-38 -61 -205 -21 -293 71 -117 123 -127 144 -88 188 19 21 35 73 37 117 3 95
117 140 170 69 14 -19 50 -35 80 -35 41 0 56 -11 60 -45 5 -29 -4 -45 -23 -45
-16 0 -45 -6 -65 -13 -22 -9 -30 -6 -21 7 7 13 -9 27 -38 34 -31 8 -45 22 -37
36 9 14 5 17 -10 7 -14 -8 -20 -28 -14 -43 6 -15 0 -28 -14 -29 -13 -1 9 -15
49 -31 77 -32 237 -10 237 33 0 21 99 26 148 7 46 -18 39 -68 -8 -68 -22 0
-40 13 -40 30 0 17 -8 30 -19 30 -31 0 -47 -42 -25 -64 12 -12 16 -33 10 -48
-12 -33 17 -37 47 -7 14 14 29 11 46 -10 42 -50 51 -37 51 78 0 129 36 184 81
123 30 -41 34 -36 57 71 7 29 17 68 24 85 19 49 -23 38 -48 -13 -19 -38 -22
-29 -20 65 5 169 40 222 143 215 113 -7 128 -85 33 -172 -45 -41 -66 -82 -74
-140 -6 -45 -24 -93 -39 -105 -36 -30 -34 -58 3 -58 17 0 31 16 31 35 2 63 88
219 115 210 15 -5 32 10 38 33 6 23 23 42 38 42 16 0 28 10 28 21 0 12 10 15
22 8 16 -10 18 5 8 51 l-14 64 45 -45 c41 -41 47 -42 69 -12 26 36 70 45 70
14 0 -10 -14 -32 -31 -50 -18 -17 -23 -31 -12 -31 11 0 24 -20 29 -45 l9 -45
2 46 c2 26 12 41 23 34 11 -7 40 2 64 19 57 39 76 39 76 -1 0 -34 106 -23 155
17 17 14 25 13 25 -3 0 -12 19 -22 41 -22 32 0 40 -11 35 -45 -5 -39 3 -45 54
-42 33 2 49 -1 35 -7 -14 -5 -25 -22 -25 -38 0 -32 -32 -38 -50 -8 -7 11 -32
19 -56 18 -24 0 -33 -6 -19 -11 36 -15 31 -47 -7 -47 -20 0 -28 -11 -21 -30
12 -31 6 -33 -107 -37 -45 -2 -60 6 -60 32 0 19 -9 35 -20 35 -11 0 -20 -13
-20 -28 0 -15 -15 -33 -33 -40 -18 -7 -27 -19 -19 -26 7 -8 -7 -25 -32 -39
-43 -24 -44 -26 -6 -29 22 -1 -9 -13 -70 -26 -60 -13 -114 -19 -120 -13 -5 6
-41 14 -80 18 -38 3 -86 21 -105 38 -22 19 -35 22 -35 8 0 -13 11 -23 25 -23
46 -1 -33 -39 -80 -40 -27 0 -45 -12 -45 -31 0 -17 -8 -26 -18 -20 -20 12 -42
-34 -42 -90 0 -41 -69 -88 -100 -69 -11 7 -20 30 -20 51 0 72 -29 39 -108
-121 -43 -88 -108 -186 -145 -220 -43 -39 -67 -80 -68 -115 -2 -49 -4 -51 -19
-15 -10 24 -18 28 -19 12 0 -16 12 -43 27 -60 16 -18 48 -140 72 -272 23 -132
48 -266 54 -297 14 -72 -42 -61 -159 32 -73 57 -75 63 -65 155 11 92 -18 160
-68 160 -25 0 -83 -72 -70 -85 10 -10 -5 -71 -48 -195 -6 -16 -11 -36 -12 -44
-1 -8 -13 -25 -27 -39 -14 -14 -25 -36 -25 -49 0 -13 -32 -71 -71 -129 -38
-57 -65 -110 -58 -116 6 -7 19 0 28 15 13 22 18 22 27 -1 14 -34 53 14 54 66
0 47 58 175 59 131 1 -20 -7 -52 -16 -70 -9 -19 -10 -56 -2 -84 13 -44 15 -41
17 25 3 101 42 96 42 -5 0 -44 9 -80 20 -80 11 0 20 20 20 45 l1 45 41 -50 41
-50 -14 60 c-8 33 -16 76 -16 96 -2 35 -3 35 -27 2 -22 -31 -26 -21 -26 68 0
57 9 104 20 104 11 0 20 -12 20 -27 0 -18 16 -24 49 -18 61 12 120 -38 86 -72
-31 -31 -12 -44 41 -30 35 9 40 18 22 39 -13 16 -17 28 -9 28 17 0 73 -54 72
-69 -4 -63 3 -76 20 -34 11 26 14 54 9 63 -6 10 -2 23 10 30 12 8 20 -19 20
-70 0 -133 40 -72 43 66 2 79 6 98 12 54 4 -38 16 -79 26 -89 22 -22 26 298 6
486 -16 150 -43 164 -34 18 4 -73 0 -96 -13 -75 -28 44 -26 226 3 208 16 -10
19 8 10 64 -8 55 -7 66 6 38 10 -22 19 -28 20 -14 1 20 11 19 46 -5 48 -34 59
-72 26 -95 -13 -9 -24 -169 -28 -415 l-6 -401 46 0 c46 0 47 3 52 245 5 293
17 453 33 470 20 20 13 105 -8 105 -11 0 -20 16 -20 35 1 30 3 31 20 5 16 -24
19 -21 20 15 0 25 -8 45 -19 45 -23 0 -10 105 19 161 21 38 19 40 -16 21 -22
-12 -49 -48 -61 -82 -11 -33 -30 -60 -42 -60 -35 0 -24 69 18 114 21 23 34 47
28 53 -16 15 59 112 88 112 13 1 39 24 58 52 21 33 38 43 47 29 10 -16 22 -15
43 6 74 73 135 -54 72 -149 -19 -29 -35 -63 -35 -75 0 -12 -18 -22 -40 -22
-22 0 -40 13 -40 30 0 17 -18 30 -43 30 l-44 0 44 -46 c23 -26 43 -58 43 -71
0 -14 8 -21 17 -15 9 6 34 -2 55 -18 22 -16 27 -29 13 -29 -35 -1 -31 -60 5
-74 17 -6 30 -28 30 -49 0 -43 32 -52 46 -13 5 15 16 18 26 7 11 -10 8 -21 -7
-26 -14 -5 -25 -29 -26 -53 -1 -91 -66 -137 -112 -78 -26 33 -26 33 -15 -1 14
-38 -28 -41 -58 -4 -9 11 -10 -2 -3 -30 8 -27 25 -63 39 -80 14 -16 21 -41 16
-55 -5 -14 0 -25 12 -25 12 0 23 20 23 45 l2 45 18 -45 c31 -77 79 -56 79 35
0 55 9 80 28 80 43 0 51 -44 59 -297 4 -128 2 -179 -5 -113 -18 179 -83 187
-77 10 5 -117 6 -120 31 -66 l26 56 -10 -63 c-6 -34 -16 -88 -23 -120 -9 -43
-7 -50 9 -27 19 27 21 27 22 0 1 -27 3 -27 20 0 13 20 19 22 20 5 0 -40 80
-30 80 10 1 19 18 58 40 85 47 61 51 40 9 -43 -18 -33 -28 -65 -23 -70 5 -4
25 26 44 67 20 42 41 81 48 86 29 24 164 245 155 254 -5 5 -26 -16 -46 -47
-39 -61 -99 -129 -85 -97 5 11 42 85 83 165 41 79 75 163 75 186 0 73 -38 21
-72 -97 -17 -63 -54 -147 -82 -188 -32 -47 -45 -87 -37 -113 7 -22 3 -45 -8
-52 -13 -8 -16 1 -8 23 18 48 -90 -66 -115 -122 -13 -28 -16 23 -10 156 5 108
2 212 -8 230 -14 26 -56 338 -67 492 -2 22 -10 51 -19 65 -9 14 -11 33 -5 43
6 11 -4 23 -24 28 -27 7 -24 10 10 12 25 1 45 14 45 30 0 15 22 31 48 37 35 6
45 1 38 -18 -7 -18 6 -27 42 -27 31 0 52 -11 52 -28 0 -27 54 -62 85 -55 8 2
15 -10 15 -25 0 -27 -79 -28 -205 -3 -19 4 -35 -1 -35 -11 0 -10 45 -18 101
-18 75 0 103 -8 113 -33 11 -29 15 -27 29 10 18 50 48 56 64 14 8 -20 1 -26
-23 -18 -25 8 -27 6 -8 -8 17 -12 22 -40 15 -77 l-11 -58 22 55 c21 53 65 80
49 30 -70 -225 -97 -293 -113 -284 -21 13 -21 11 -28 -121 -3 -62 1 -85 10
-60 9 22 40 108 70 190 30 83 64 170 76 195 26 56 83 62 69 7 -17 -62 17 -95
44 -43 29 53 79 7 80 -74 1 -25 11 -45 23 -45 13 0 19 21 13 49 -5 28 -2 45 8
39 23 -14 21 -130 -2 -168 -16 -24 -23 -20 -39 20 -11 28 -20 36 -21 19 0 -17
9 -41 22 -54 33 -33 6 -87 -37 -73 -27 9 -29 7 -9 -7 22 -16 21 -30 -5 -81
-37 -72 -39 -84 -14 -84 11 0 29 29 41 65 12 36 44 110 73 165 28 55 45 82 38
60 -44 -136 -19 -211 28 -85 l15 42 42 -42 c23 -23 58 -46 78 -51 20 -5 -6
-10 -58 -12 -85 -2 -95 -7 -93 -47 2 -34 5 -36 12 -10 7 27 30 35 99 35 54 0
85 -8 77 -20 -7 -11 -28 -20 -46 -20 -27 -1 -28 -4 -7 -18 15 -9 44 -13 65 -7
21 5 38 0 38 -11 0 -12 -49 -27 -110 -35 -61 -7 -110 -22 -110 -31 0 -10 -16
-18 -37 -18 -37 0 -138 -92 -120 -110 6 -6 50 11 99 36 251 134 373 136 417 7
17 -48 29 -55 68 -45 31 7 57 1 73 -18 21 -25 16 -30 -31 -30 -54 0 -55 -1
-18 -29 37 -28 36 -30 -21 -31 -246 -7 -148 -51 120 -54 l292 -3 -86 61 c-133
96 -629 593 -708 711 -38 58 -76 105 -84 105 -25 0 -280 249 -304 297 -13 26
-71 69 -130 95 -182 84 -195 156 -33 179 51 7 174 39 273 70 99 31 200 62 225
69 24 7 80 41 124 76 44 35 97 78 119 94 121 90 46 212 -169 279 -190 59 -737
166 -744 145 -6 -17 -351 45 -605 109 -347 87 -1004 369 -1065 456 -8 12 -15
14 -15 5 0 -8 -20 -5 -45 8 -43 24 -43 25 -5 39 28 10 55 1 88 -28 27 -24 42
-32 34 -18 -22 38 10 30 40 -10 15 -19 27 -24 27 -11 1 22 -224 178 -449 312
-241 143 -507 207 -624 150z m334 -136 c24 -16 20 -19 -18 -15 -26 3 -51 -4
-55 -16 -4 -11 17 -22 48 -25 30 -2 69 -22 85 -42 17 -21 63 -52 103 -69 47
-19 76 -45 80 -72 4 -23 15 -41 25 -40 10 1 26 -12 36 -29 10 -18 34 -32 53
-32 47 0 119 -277 79 -303 -20 -13 -21 -16 -1 -17 14 0 25 -11 24 -25 0 -14
-17 -4 -38 21 -44 52 -181 75 -181 30 0 -14 22 -26 50 -26 30 0 50 -11 50 -29
0 -15 18 -34 40 -41 22 -7 40 -20 40 -29 0 -21 -61 -15 -110 12 -22 12 -65 27
-95 35 -55 13 -77 52 -31 52 37 0 -51 82 -95 88 -63 9 -84 66 -39 101 39 29
38 30 -15 30 -30 1 -55 5 -55 9 0 5 -5 22 -11 39 -8 18 2 33 25 39 21 5 9 10
-27 12 -89 3 -126 162 -38 162 14 0 37 13 51 30 13 16 34 24 45 17 12 -7 16
-5 10 5 -23 36 -185 21 -182 -17 2 -24 -12 -35 -45 -35 -53 0 -65 35 -19 52
16 7 35 29 41 49 7 21 37 51 66 66 68 36 68 36 104 13z m1714 -1320 c19 -24
18 -35 -5 -52 -16 -12 -29 -33 -29 -46 0 -12 -25 5 -55 39 -30 33 -74 62 -98
64 -34 3 -38 10 -22 36 24 38 168 11 209 -41z m537 -321 c19 -32 -2 -44 -50
-29 -23 7 -36 21 -30 31 15 26 64 24 80 -2z m-1211 -254 c0 -14 -11 -26 -25
-27 -20 -1 -20 -3 0 -11 14 -6 19 -21 12 -34 -8 -13 -6 -16 5 -6 10 9 19 25
21 35 1 10 4 29 6 43 2 14 11 6 20 -16 37 -91 5 -146 -71 -123 -37 11 -68 29
-68 39 0 9 -8 12 -19 6 -28 -18 -46 26 -33 79 13 53 152 66 152 15z m-1520
-65 c0 -24 13 -40 32 -40 27 0 28 -6 9 -29 -17 -20 -20 -58 -11 -115 24 -142
-9 -73 -38 81 -15 79 -19 143 -10 143 10 0 18 -18 18 -40z"/>
<path d="M1920 2750 c0 -19 19 -30 55 -30 52 1 138 37 95 41 -11 1 -49 6 -85
10 -48 6 -65 1 -65 -21z"/>
<path d="M2760 2634 c0 -33 114 -95 150 -81 13 5 35 -5 49 -22 14 -17 42 -31
62 -31 20 0 39 -7 42 -15 8 -17 308 -126 367 -133 22 -3 54 -10 70 -17 52 -21
343 -79 351 -70 5 4 -93 38 -216 75 -231 70 -628 215 -728 266 -100 51 -147
60 -147 28z"/>
<path d="M2517 2210 c-22 -38 -49 -70 -59 -70 -25 0 -23 -95 3 -111 30 -18 40
-3 45 62 5 62 87 91 124 44 46 -60 143 -114 166 -91 17 17 20 7 12 -36 -8 -45
-5 -53 14 -34 17 17 35 18 63 3 90 -48 54 48 -50 131 -36 29 -83 68 -105 88
-35 32 -135 84 -162 84 -5 0 -28 -31 -51 -70z"/>
<path d="M3095 2095 c43 -14 87 -14 130 -1 58 17 52 19 -65 21 -118 1 -124 -1
-65 -20z"/>
<path d="M2589 2042 c6 -9 -5 -16 -23 -15 -19 2 -37 -12 -41 -29 -9 -45 73
-66 90 -23 9 25 15 23 28 -13 13 -34 30 -43 72 -38 39 4 56 -4 61 -30 6 -29
-2 -33 -45 -23 -54 14 -171 -23 -171 -53 0 -10 25 -18 55 -18 30 0 89 -6 130
-13 68 -11 75 -8 75 32 0 39 7 43 60 31 38 -8 60 -5 60 8 0 12 -10 22 -22 22
-12 0 -17 14 -10 31 6 17 3 26 -7 20 -10 -7 -24 -2 -32 10 -7 12 -25 17 -40
12 -14 -6 -37 2 -50 18 -13 16 -31 24 -40 19 -23 -15 -120 33 -107 53 6 9 -4
17 -22 17 -18 0 -27 -8 -21 -18z"/>
<path d="M4500 1850 c0 -18 19 -30 47 -30 28 0 46 12 46 30 0 18 -18 30 -46
30 -28 0 -47 -12 -47 -30z"/>
<path d="M2260 1691 c0 -15 14 -42 30 -58 17 -17 30 -40 30 -52 0 -11 11 -22
25 -23 57 -3 102 -16 113 -33 7 -10 70 -12 142 -5 156 17 164 13 139 -54 -18
-45 -16 -49 10 -27 16 14 36 56 43 93 7 37 21 68 32 68 26 0 11 85 -17 94 -12
4 -41 -24 -64 -63 -23 -39 -53 -66 -67 -61 -14 5 -82 13 -151 18 -109 7 -130
15 -176 70 -57 67 -89 79 -89 33z"/>
<path d="M3139 1121 c33 -60 23 -97 -11 -41 l-30 50 15 -50 c7 -27 13 -68 12
-90 0 -22 3 -29 9 -15 5 14 18 20 28 14 10 -6 24 2 30 20 7 17 20 26 29 21 21
-14 45 63 29 91 -10 14 -22 14 -42 -2 -21 -18 -30 -16 -40 9 -7 17 -21 32 -31
32 -11 0 -10 -16 2 -39z"/>
<path d="M1035 1126 c-31 -8 -30 -18 15 -107 58 -113 62 -134 20 -99 -26 22
-29 20 -18 -7 14 -37 26 -40 65 -15 32 20 27 39 -21 91 -21 22 -32 52 -27 66
6 15 2 22 -9 15 -11 -7 -20 -3 -20 8 0 43 41 42 59 -2 10 -25 19 -35 20 -23 2
34 -21 87 -36 85 -7 -2 -29 -7 -48 -12z"/>
<path d="M928 985 c8 -14 5 -25 -8 -25 -12 0 1 -33 28 -73 28 -41 47 -79 43
-86 -5 -7 8 -12 28 -12 33 0 32 6 -11 62 -57 75 -60 92 -13 75 19 -7 31 -9 25
-4 -79 67 -104 84 -92 63z"/>
<path d="M4235 947 c31 -13 32 -56 2 -104 -17 -27 -17 -51 0 -95 l23 -58 -11
57 c-8 40 -4 52 13 42 15 -9 19 -7 11 6 -7 11 1 47 17 78 41 78 38 87 -25 85
-30 0 -44 -6 -30 -11z"/>
<path d="M1180 865 c-16 -6 -37 -21 -45 -33 -9 -14 -15 -11 -15 8 -1 26 -3 26
-19 1 -26 -40 -5 -65 35 -43 99 55 128 99 44 67z"/>
<path d="M1890 720 c17 -383 38 -646 49 -601 13 51 12 85 -10 441 -17 259 -50
395 -39 160z"/>
<path d="M3264 803 c-31 -66 -31 -69 16 -123 35 -41 41 -42 53 -11 7 21 1 42
-15 53 -21 14 -22 22 -4 34 30 19 26 97 -4 97 -12 0 -33 -22 -46 -50z"/>
<path d="M4360 765 c0 -19 -5 -57 -11 -85 -8 -36 -3 -32 20 17 36 79 39 103
11 103 -11 0 -20 -16 -20 -35z"/>
<path d="M960 745 c0 -11 17 -41 37 -67 21 -27 57 -84 80 -128 39 -72 42 -74
30 -20 -19 95 -147 281 -147 215z"/>
<path d="M1040 753 c0 -8 13 -40 29 -72 49 -94 88 -221 67 -221 -10 0 -16 -20
-12 -45 9 -67 42 -55 58 21 7 36 8 61 2 55 -6 -6 -33 45 -60 114 -45 116 -84
184 -84 148z"/>
<path d="M4184 648 c-14 -51 -20 -98 -15 -104 6 -6 11 0 11 14 0 13 8 19 18
13 23 -14 42 86 24 133 -10 28 -19 14 -38 -56z"/>
<path d="M4519 606 c-12 -29 -17 -72 -13 -95 7 -44 7 -44 49 84 26 79 -7 89
-36 11z"/>
<path d="M4017 507 c-5 -35 2 -79 17 -99 24 -32 26 -30 25 23 -3 100 -31 152
-42 76z"/>
<path d="M4283 449 c-13 -28 -32 -46 -43 -39 -11 7 -20 3 -20 -9 0 -11 8 -21
18 -21 10 0 13 -20 7 -44 -11 -42 -12 -42 -27 -5 -8 21 -16 28 -17 16 0 -13
-6 -40 -13 -60 -7 -21 -5 -29 5 -17 9 11 30 20 47 20 18 0 34 27 42 70 7 39
19 86 27 105 24 55 0 41 -26 -16z"/>
<path d="M3783 426 c-2 -24 -12 -49 -23 -56 -40 -25 -25 -370 17 -370 30 0 35
15 32 95 -2 52 6 102 18 112 17 12 16 19 -2 26 -31 13 -33 67 -3 67 16 0 17 8
2 25 -11 14 -24 52 -29 85 -6 40 -10 46 -12 16z"/>
<path d="M1550 420 c-6 -10 -3 -37 9 -58 11 -21 14 -42 5 -45 -9 -4 -5 -29 10
-57 23 -46 25 -41 26 65 0 106 -20 144 -50 95z"/>
<path d="M1871 221 c9 -190 17 -242 36 -219 3 4 -5 102 -19 218 l-26 210 9
-209z"/>
<path d="M4461 346 c-1 -13 8 -29 19 -36 24 -15 27 -72 4 -65 -15 5 -204 -195
-204 -216 0 -60 234 206 249 284 9 42 7 47 -5 18 -17 -39 -18 -39 -40 0 -13
21 -23 28 -23 15z"/>
<path d="M1182 214 c42 -140 70 -178 47 -64 -9 44 -16 104 -16 134 1 38 -9 52
-33 51 -32 -3 -32 -11 2 -121z"/>
<path d="M385 295 c13 -40 247 -45 262 -6 10 26 -10 31 -129 31 -104 0 -139
-7 -133 -25z"/>
<path d="M880 281 c0 -10 -18 -24 -40 -31 -22 -7 -40 -26 -40 -41 0 -38 78
-37 93 1 22 58 117 -3 217 -140 24 -34 29 -35 29 -7 1 42 -113 172 -183 209
-63 33 -76 34 -76 9z"/>
<path d="M4532 209 c-28 -52 -52 -109 -52 -127 0 -17 28 21 62 85 73 139 65
175 -10 42z"/>
<path d="M3194 173 c-15 -38 -15 -53 0 -52 8 1 21 -17 30 -41 17 -45 56 -37
56 11 0 41 -74 112 -86 82z"/>
<path d="M4549 99 c-28 -46 -47 -88 -41 -94 12 -12 132 111 132 136 0 51 -45
30 -91 -42z"/>
<path d="M5079 145 c-17 -19 -53 -50 -80 -69 l-49 -34 46 -1 c25 -1 50 13 57
29 6 17 24 30 39 30 15 0 28 18 28 40 0 49 -3 49 -41 5z"/>
<path d="M480 78 c0 -9 32 -16 72 -14 39 1 78 -6 85 -16 23 -31 169 -36 158
-5 -6 17 -35 25 -82 22 -40 -3 -73 4 -73 14 0 10 -36 18 -80 17 -44 0 -80 -8
-80 -18z"/>
<path d="M1574 49 l-56 -49 68 0 c60 0 69 6 69 50 0 62 -10 62 -81 -1z"/>
<path d="M440 30 c0 -21 21 -30 65 -30 l65 0 -57 30 c-71 37 -73 37 -73 0z"/>
</g>
</svg>
