<?xml version="1.0" standalone="no"?>
<!DOCTYPE svg PUBLIC "-//W3C//DTD SVG 20010904//EN"
 "http://www.w3.org/TR/2001/REC-SVG-20010904/DTD/svg10.dtd">
<svg version="1.0" xmlns="http://www.w3.org/2000/svg"
 width="300.000000pt" height="169.000000pt" viewBox="0 0 300.000000 169.000000"
 preserveAspectRatio="xMidYMid meet">
<metadata>
Created by potrace 1.10, written by Peter Selinger 2001-2011
</metadata>
<g transform="translate(0.000000,169.000000) scale(0.050000,-0.050000)"
fill="#000000" stroke="none">
<path d="M1348 3277 c-101 -27 -118 -64 -116 -245 4 -249 79 -492 153 -492 48
0 238 -66 264 -92 18 -18 33 -21 41 -8 18 29 103 24 170 -10 70 -36 85 -97 76
-307 l-6 -147 -108 73 c-148 100 -150 101 -133 73 8 -13 89 -73 179 -132 180
-119 229 -129 442 -94 177 29 294 -34 332 -180 l17 -66 -8 75 c-8 70 -5 75 45
75 30 0 68 9 84 20 22 14 7 19 -57 20 -190 0 -311 317 -182 473 58 71 23 479
-46 538 -31 26 -53 59 -50 73 3 18 -32 30 -115 38 -117 11 -374 110 -660 253
-137 68 -232 87 -322 62z m947 -988 c280 -117 148 -381 -155 -313 l-70 16 3
135 c5 207 45 236 222 162z"/>
<path d="M3280 3180 c-421 -144 -483 -183 -521 -324 -21 -77 -1 -348 34 -464
9 -31 4 -35 -26 -23 -20 8 -68 18 -107 22 -63 7 -62 6 13 -12 95 -24 135 -62
165 -159 l22 -70 -10 67 c-8 54 -4 65 20 56 50 -19 33 4 -25 35 -69 36 -20 64
60 34 59 -23 63 -32 96 -262 14 -93 32 -191 42 -216 19 -52 234 -162 366 -187
45 -9 128 -26 184 -40 88 -20 116 -19 183 7 l79 31 9 -106 c9 -105 14 -114
161 -296 57 -69 80 -272 54 -455 -29 -194 -55 -223 -124 -133 -28 37 -126 131
-218 210 -92 80 -183 169 -201 200 -18 30 -91 114 -162 185 -259 262 -374 416
-376 507 -3 90 -9 75 -28 -72 -8 -58 -23 -95 -38 -95 -14 0 -42 -18 -62 -40
-20 -22 -50 -40 -67 -40 -16 0 -48 -16 -69 -35 -22 -19 3 28 55 105 l94 140
-13 140 c-13 136 -12 138 25 105 21 -19 48 -35 60 -35 12 0 17 -20 13 -45 -8
-42 -8 -42 10 -5 30 63 25 87 -16 76 -24 -6 -49 7 -70 37 -37 53 -38 49 -40
-153 -2 -130 -8 -149 -84 -260 -45 -66 -88 -144 -95 -173 -7 -29 -18 -67 -25
-84 -7 -20 18 -60 69 -110 160 -157 165 -448 10 -598 -98 -95 -146 -104 -223
-44 -145 114 -135 217 37 373 103 92 90 103 -33 28 -217 -132 -484 -137 -687
-11 -81 50 -136 77 -122 60 15 -17 77 -62 139 -100 61 -38 178 -141 258 -230
635 -698 1850 -538 2269 299 327 652 121 1464 -466 1841 -80 51 -102 78 -120
146 -11 46 -24 93 -29 106 -28 84 -304 124 -470 67z m407 -259 c104 -116 161
-233 121 -249 -48 -19 -82 -14 -50 6 18 12 -5 16 -63 12 -51 -3 -99 -10 -108
-16 -10 -6 -66 -19 -127 -31 -170 -31 -251 -73 -280 -142 -24 -58 -37 -65
-163 -90 -37 -7 -57 76 -56 239 2 215 109 308 379 331 281 24 269 26 347 -60z
m364 -207 c347 -316 509 -798 430 -1271 -21 -122 -29 -141 -54 -121 -16 13
-90 39 -165 56 -118 28 -152 47 -259 146 -140 129 -142 137 -72 237 28 40 55
108 60 151 6 53 4 63 -7 31 -13 -43 -17 -39 -38 40 -25 91 -179 342 -160 261
9 -38 6 -42 -17 -23 -15 12 -39 19 -53 14 -14 -5 -52 4 -83 19 -41 21 -64 23
-79 8 -16 -16 -11 -22 16 -22 34 0 33 -4 -11 -34 -27 -19 -61 -48 -75 -65 -23
-26 -25 -22 -14 29 19 89 65 150 115 151 41 0 42 3 11 26 -25 19 -31 45 -22
110 14 105 36 99 126 -32 39 -56 99 -116 135 -133 70 -34 144 -136 147 -202 1
-24 5 -30 12 -13 6 14 -6 62 -25 106 -35 77 -35 82 1 142 67 114 38 317 -50
345 -33 10 -120 162 -120 208 0 38 107 -33 251 -164z m-96 -156 c26 -48 17
-172 -14 -205 -23 -23 -61 98 -61 192 0 88 33 94 75 13z m-767 -235 c51 -81
131 -114 220 -92 49 12 54 -59 21 -271 -28 -175 -49 -186 -229 -120 -60 22
-111 40 -112 40 -18 0 -47 143 -55 271 -6 88 -17 175 -24 193 -9 25 2 35 44
42 32 4 64 9 72 11 8 2 36 -32 63 -74z m633 -263 c49 -27 84 -92 93 -176 10
-87 -59 -57 -109 48 -24 51 -44 68 -74 64 -23 -3 -37 -10 -33 -16 5 -5 -2 -30
-15 -55 -16 -29 -17 -45 -4 -45 12 0 21 -26 21 -58 l0 -59 -65 33 c-36 18 -81
30 -101 27 -29 -5 -35 7 -31 66 8 111 81 163 263 189 9 1 34 -7 55 -18z m-916
-505 c-53 -67 -45 -127 25 -195 39 -38 70 -84 70 -104 0 -20 23 -47 50 -60 28
-12 50 -30 50 -39 0 -9 17 -17 38 -17 46 0 57 -26 46 -103 -9 -62 -43 -78 -46
-22 -2 31 -4 31 -11 2 -5 -19 18 -92 52 -164 44 -95 57 -147 48 -191 -13 -65
33 -162 77 -162 13 0 8 16 -11 37 -18 20 -33 43 -33 52 0 9 19 -8 43 -39 43
-53 43 -55 5 -77 -33 -19 -24 -24 62 -35 119 -15 110 -21 76 52 -21 44 -26 48
-19 14 8 -36 4 -42 -16 -25 -15 12 -33 74 -41 136 -8 63 -31 139 -52 168 -21
30 -44 83 -51 118 -20 98 23 57 53 -51 14 -50 29 -87 34 -83 8 8 -1 46 -45
209 -6 19 9 -2 32 -46 l42 -80 -11 70 c-12 75 3 65 83 -53 23 -33 24 -32 5 8
-17 36 -16 42 10 32 31 -12 34 -20 37 -111 0 -29 9 -49 18 -43 10 6 12 26 5
44 -9 25 -7 27 11 10 17 -17 17 -34 1 -64 -32 -59 -27 -77 8 -32 28 36 29 35
10 -17 -24 -68 -25 -94 -3 -58 19 30 84 -150 68 -191 -15 -41 -59 -29 -104 30
l-43 55 13 -50 c7 -27 31 -66 53 -85 l40 -35 -42 0 c-23 0 -42 10 -42 23 0 15
-25 18 -75 10 -51 -8 -66 -6 -45 7 22 14 4 19 -62 20 -90 0 -91 -1 -82 -60 5
-36 0 -60 -14 -60 -12 0 -22 27 -22 61 0 40 -12 64 -35 71 -105 33 -112 43
-30 39 47 -2 85 -1 85 2 0 38 -50 103 -63 83 -11 -17 -16 -4 -17 36 0 139
-164 628 -209 628 -7 0 13 -47 44 -105 82 -156 94 -756 12 -645 -20 28 -23
100 -15 308 11 261 10 276 -37 366 -27 52 -41 90 -32 84 32 -19 17 37 -28 110
-56 89 -57 161 -5 206 48 41 63 46 35 11z m-83 -187 c41 -43 68 -108 46 -108
-33 0 -160 152 -128 154 19 2 56 -19 82 -46z m1594 -75 c74 -74 0 -94 -113
-30 -182 101 -191 120 -41 85 70 -16 140 -41 154 -55z"/>
<path d="M3271 2649 c-72 -38 -97 -61 -41 -40 22 9 81 27 130 42 79 22 83 26
30 27 -33 1 -87 -12 -119 -29z"/>
<path d="M2893 2227 c-27 -28 -14 -126 15 -115 36 14 54 59 39 98 -12 32 -32
38 -54 17z"/>
<path d="M2593 2050 c-68 -68 -20 -155 97 -180 48 -10 43 -5 -25 28 -89 42
-98 60 -64 123 23 44 98 52 138 14 21 -20 24 -19 17 5 -13 43 -124 49 -163 10z"/>
<path d="M1644 1688 c130 -149 653 -265 878 -194 61 19 56 20 -47 11 -77 -7
-155 1 -240 25 -69 20 -189 37 -268 38 -128 2 -151 8 -220 63 -106 85 -147
107 -103 57z"/>
<path d="M3283 1410 c7 -7 66 -26 130 -43 64 -16 140 -43 167 -60 l50 -29 -47
41 c-26 22 -80 49 -120 59 -150 37 -193 45 -180 32z"/>
<path d="M1640 1342 c0 -156 697 -232 939 -102 81 43 39 55 -44 13 -150 -76
-527 -66 -685 19 -143 76 -210 99 -210 70z"/>
</g>
</svg>
