<?xml version="1.0" standalone="no"?>
<!DOCTYPE svg PUBLIC "-//W3C//DTD SVG 20010904//EN"
 "http://www.w3.org/TR/2001/REC-SVG-20010904/DTD/svg10.dtd">
<svg version="1.0" xmlns="http://www.w3.org/2000/svg"
 width="300.000000pt" height="420.000000pt" viewBox="0 0 300.000000 420.000000"
 preserveAspectRatio="xMidYMid meet">
<metadata>
Created by potrace 1.10, written by Peter Selinger 2001-2011
</metadata>
<g transform="translate(0.000000,420.000000) scale(0.050000,-0.050000)"
fill="#000000" stroke="none">
<path d="M2364 7719 c-94 -48 -166 -131 -213 -244 -35 -84 -42 -235 -10 -235
11 0 28 -20 38 -45 18 -44 19 -43 20 8 0 30 7 69 14 88 11 27 5 31 -30 20 -47
-15 -60 24 -21 63 34 34 98 -40 84 -95 -12 -43 -11 -43 41 -9 29 19 53 46 53
60 0 60 70 117 99 81 24 -29 22 -34 -17 -45 -39 -10 -42 -20 -31 -96 10 -67 6
-87 -19 -97 -19 -7 -32 -35 -32 -69 0 -57 -52 -124 -96 -124 -29 0 -64 65 -64
119 0 22 -9 41 -20 41 -11 0 -20 -17 -20 -37 0 -20 -14 -64 -30 -98 -48 -94
110 -240 296 -273 67 -12 74 -20 63 -58 -11 -36 -9 -39 13 -19 31 30 78 33 78
5 0 -11 -15 -20 -34 -20 -40 0 -165 -136 -166 -180 0 -16 -19 -61 -43 -100
-30 -48 -43 -101 -42 -170 1 -92 -1 -95 -19 -40 -72 224 -104 295 -117 258 -7
-21 -4 -69 6 -107 13 -49 13 -72 -3 -77 -12 -4 -22 -23 -22 -41 0 -19 -14 -54
-31 -78 -28 -40 -26 -52 20 -142 42 -85 45 -98 15 -90 -22 5 -42 -10 -59 -46
-30 -66 -32 -107 -5 -107 11 0 20 -24 20 -53 0 -77 -70 -12 -132 123 -57 124
-63 69 -7 -72 22 -57 37 -113 33 -126 -11 -29 68 -186 189 -374 53 -84 97
-160 97 -169 0 -9 29 -48 65 -86 44 -46 53 -65 28 -56 -20 7 -58 19 -85 25
-29 8 -48 27 -48 49 0 20 -10 43 -21 50 -12 7 -17 25 -12 40 15 37 -35 72 -78
56 -28 -11 -33 -7 -23 20 8 22 3 33 -18 33 -17 0 -62 33 -99 73 -38 40 -69 66
-69 58 0 -19 121 -192 161 -231 186 -180 124 -264 -215 -295 l-103 -10 -66
138 c-65 133 -67 135 -73 71 -4 -39 7 -88 26 -117 18 -27 29 -60 25 -72 -8
-25 63 -104 95 -105 41 0 40 -57 -1 -99 -21 -20 -23 -31 -8 -31 17 0 16 -9 -4
-33 -37 -45 -38 -815 -1 -881 13 -24 28 -118 33 -208 8 -157 -1 -251 -52 -538
-13 -71 -26 -184 -28 -250 -3 -66 -23 -165 -44 -220 -45 -113 -96 -883 -73
-1103 12 -110 9 -124 -40 -176 -62 -68 -65 -93 -12 -126 47 -30 51 -70 11
-131 -16 -24 -32 -80 -36 -124 -4 -44 -17 -98 -29 -120 -44 -82 -31 -264 19
-277 128 -35 757 21 807 70 50 50 23 177 -38 177 -91 1 -134 27 -182 109 -65
110 -106 401 -64 450 15 17 38 52 51 78 26 50 100 491 101 597 0 36 19 101 42
145 34 65 39 100 28 180 -9 68 -4 130 17 195 16 53 45 200 63 326 36 251 68
396 90 410 18 11 103 -311 115 -439 5 -55 21 -118 36 -140 59 -93 94 -270 71
-362 -12 -48 -22 -162 -22 -253 0 -92 -10 -243 -22 -337 -32 -249 -33 -334 -5
-484 39 -210 39 -510 0 -602 -84 -198 -56 -209 517 -211 539 -2 679 17 707 98
38 108 -15 154 -176 154 -277 0 -572 372 -412 520 65 61 65 130 -1 254 -59
110 -58 136 11 802 37 355 28 896 -19 1149 -11 59 -20 131 -19 160 l1 51 57
-67 c31 -37 99 -163 151 -280 127 -288 152 -340 279 -580 60 -114 137 -297
171 -407 34 -109 97 -280 141 -381 43 -100 79 -193 79 -207 0 -14 23 -99 51
-189 31 -96 56 -234 63 -336 11 -183 24 -216 75 -196 59 23 29 304 -60 554
-17 49 -40 128 -51 177 -10 48 -55 170 -98 272 -43 102 -88 225 -99 274 -25
112 -143 394 -196 469 -52 74 -165 299 -165 329 0 34 -234 496 -288 568 -113
153 -138 218 -156 410 -24 251 -24 234 4 360 13 61 32 146 42 190 35 160 -20
733 -87 900 -22 55 -69 190 -105 300 -35 110 -83 245 -106 300 -22 55 -56 186
-75 290 -19 105 -51 213 -70 240 -140 203 -176 300 -108 300 125 0 330 698
249 849 -63 118 -371 183 -516 110z m-34 -1740 l10 -69 -29 60 c-34 70 -41
128 -11 98 10 -10 24 -50 30 -89z"/>
<path d="M2373 6683 c-18 -20 -33 -53 -33 -75 0 -32 7 -29 50 20 27 31 44 65
38 75 -14 23 -17 22 -55 -20z"/>
<path d="M1991 4990 c7 -22 18 -56 24 -75 10 -37 36 -46 53 -19 5 9 -13 43
-41 75 -36 42 -46 48 -36 19z"/>
<path d="M4511 996 c-38 -55 -40 -116 -5 -116 35 0 119 115 104 140 -21 34
-66 22 -99 -24z"/>
<path d="M3850 980 c-15 -24 85 -150 118 -150 41 0 35 74 -10 122 -48 51 -88
61 -108 28z"/>
<path d="M4730 860 c-43 -48 -14 -104 34 -65 14 12 49 24 76 28 72 10 64 66
-11 73 -42 4 -73 -7 -99 -36z"/>
<path d="M3740 751 c0 -37 62 -71 129 -71 32 0 51 11 51 30 0 17 -17 30 -39
30 -21 0 -44 9 -51 20 -19 31 -90 24 -90 -9z"/>
<path d="M4264 702 c-28 -64 -114 -109 -187 -99 -31 5 -47 -3 -47 -23 0 -41
344 -40 425 1 194 97 170 179 -52 179 -106 0 -115 -4 -139 -58z"/>
</g>
</svg>
